<?xml version="1.0" ?><!-- Created with Inkscape (http://www.inkscape.org/) --><svg xmlns:inkscape="http://www.inkscape.org/namespaces/inkscape" xmlns:sodipodi="http://sodipodi.sourceforge.net/DTD/sodipodi-0.dtd" xmlns="http://www.w3.org/2000/svg" xmlns:svg="http://www.w3.org/2000/svg" width="500mm" height="500mm" viewBox="0 0 500 500" version="1.1" id="svg5" inkscape:version="1.1.2 (0a00cf5339, 2022-02-04)" sodipodi:docname="TemplateClear.svg">
  <sodipodi:namedview id="namedview7" pagecolor="#ffffff" bordercolor="#999999" borderopacity="1" inkscape:pageshadow="0" inkscape:pageopacity="0" inkscape:pagecheckerboard="0" inkscape:document-units="mm" showgrid="true" width="300mm" inkscape:zoom="0.56315579" inkscape:cx="491.871" inkscape:cy="557.57218" inkscape:window-width="1874" inkscape:window-height="1052" inkscape:window-x="46" inkscape:window-y="0" inkscape:window-maximized="1" inkscape:current-layer="layer2" height="300mm" inkscape:lockguides="false">
    <inkscape:grid type="xygrid" id="grid888"/>
  </sodipodi:namedview>
  <defs id="defs2"/>
  <g inkscape:groupmode="layer" id="layer2" inkscape:label="3mm"><path style="fill:none;stroke:#000000;stroke-width:0.264583px;stroke-linecap:butt;stroke-linejoin:miter;stroke-opacity:1" id="genPath_22" d="M 77.12063551374,309.0 L 84.0496917051014,309.0 L 84.0496917051014,304.0 L 96.7496917051014,304.0 L 96.7496917051014,309.0 L 103.67874789646278,309.0 L 116.95780408782417,286.0 L 103.67874789646278,263.0 L 77.12063551374,263.0 L 63.84157932237861,286.0 L 77.12063551373998,309.0 z" sodipodi:nodetypes="ccccc"/><path style="fill:none;stroke:#000000;stroke-width:0.264583px;stroke-linecap:butt;stroke-linejoin:miter;stroke-opacity:1" id="genPath_23" d="M 166.3212521035372,309.0 L 173.2503082948986,309.0 L 173.2503082948986,304.0 L 185.95030829489858,304.0 L 185.95030829489858,309.0 L 192.87936448626,309.0 L 206.15842067762136,286.0 L 192.87936448626,263.0 L 166.3212521035372,263.0 L 153.0421959121758,286.0 L 166.32125210353718,309.0 z" sodipodi:nodetypes="ccccc"/><path style="fill:none;stroke:#000000;stroke-width:0.264583px;stroke-linecap:butt;stroke-linejoin:miter;stroke-opacity:1" id="genPath_24" d="M 32.520327218841416,283.25 L 39.44938341020281,283.25 L 39.44938341020281,278.25 L 52.14938341020281,278.25 L 52.14938341020281,283.25 L 59.078439601564206,283.25 L 72.35749579292559,260.25 L 59.078439601564206,237.25 L 32.520327218841416,237.25 L 19.24127102748002,260.25 L 32.5203272188414,283.25 z" sodipodi:nodetypes="ccccc"/><path style="fill:none;stroke:#000000;stroke-width:0.264583px;stroke-linecap:butt;stroke-linejoin:miter;stroke-opacity:1" id="genPath_25" d="M 77.12063551374001,257.5 L 84.04969170510141,257.5 L 84.04969170510141,252.5 L 96.74969170510141,252.5 L 96.74969170510141,257.5 L 103.6787478964628,257.5 L 116.95780408782419,234.5 L 103.6787478964628,211.5 L 77.12063551374001,211.5 L 63.84157932237862,234.5 L 77.12063551374,257.5 z" sodipodi:nodetypes="ccccc"/><path style="fill:none;stroke:#000000;stroke-width:0.264583px;stroke-linecap:butt;stroke-linejoin:miter;stroke-opacity:1" id="genPath_26" d="M 121.72094380863861,283.25 L 128.65,283.25 L 128.65,278.25 L 141.35,278.25 L 141.35,283.25 L 148.2790561913614,283.25 L 161.55811238272278,260.25 L 148.2790561913614,237.25 L 121.72094380863861,237.25 L 108.44188761727722,260.25 L 121.7209438086386,283.25 z" sodipodi:nodetypes="ccccc"/><path style="fill:none;stroke:#000000;stroke-width:0.264583px;stroke-linecap:butt;stroke-linejoin:miter;stroke-opacity:1" id="genPath_27" d="M 166.3212521035372,257.5 L 173.2503082948986,257.5 L 173.2503082948986,252.5 L 185.95030829489858,252.5 L 185.95030829489858,257.5 L 192.87936448626,257.5 L 206.15842067762136,234.5 L 192.87936448626,211.5 L 166.3212521035372,211.5 L 153.0421959121758,234.5 L 166.32125210353718,257.5 z" sodipodi:nodetypes="ccccc"/><path style="fill:none;stroke:#000000;stroke-width:0.264583px;stroke-linecap:butt;stroke-linejoin:miter;stroke-opacity:1" id="genPath_28" d="M 210.9215603984358,283.25 L 217.85061658979717,283.25 L 217.85061658979717,278.25 L 230.55061658979716,278.25 L 230.55061658979716,283.25 L 237.47967278115857,283.25 L 250.75872897251995,260.25 L 237.47967278115857,237.25 L 210.9215603984358,237.25 L 197.64250420707438,260.25 L 210.92156039843576,283.25 z" sodipodi:nodetypes="ccccc"/><path style="fill:none;stroke:#000000;stroke-width:0.264583px;stroke-linecap:butt;stroke-linejoin:miter;stroke-opacity:1" id="genPath_29" d="M 32.520327218841416,231.75 L 39.44938341020281,231.75 L 39.44938341020281,226.75 L 52.14938341020281,226.75 L 52.14938341020281,231.75 L 59.078439601564206,231.75 L 72.35749579292559,208.75 L 59.078439601564206,185.75 L 32.520327218841416,185.75 L 19.24127102748002,208.75 L 32.5203272188414,231.75 z" sodipodi:nodetypes="ccccc"/><path style="fill:none;stroke:#000000;stroke-width:0.264583px;stroke-linecap:butt;stroke-linejoin:miter;stroke-opacity:1" id="genPath_30" d="M 77.12063551374001,206.0 L 84.04969170510141,206.0 L 84.04969170510141,201.0 L 96.74969170510141,201.0 L 96.74969170510141,206.0 L 103.6787478964628,206.0 L 116.95780408782419,183.0 L 103.6787478964628,160.0 L 77.12063551374001,160.0 L 63.84157932237862,183.0 L 77.12063551374,206.0 z" sodipodi:nodetypes="ccccc"/><path style="fill:none;stroke:#000000;stroke-width:0.264583px;stroke-linecap:butt;stroke-linejoin:miter;stroke-opacity:1" id="genPath_31" d="M 121.72094380863861,231.75 L 128.65,231.75 L 128.65,226.75 L 141.35,226.75 L 141.35,231.75 L 148.2790561913614,231.75 L 161.55811238272278,208.75 L 148.2790561913614,185.75 L 121.72094380863861,185.75 L 108.44188761727722,208.75 L 121.7209438086386,231.75 z" sodipodi:nodetypes="ccccc"/><path style="fill:none;stroke:#000000;stroke-width:0.264583px;stroke-linecap:butt;stroke-linejoin:miter;stroke-opacity:1" id="genPath_32" d="M 166.3212521035372,206.0 L 173.2503082948986,206.0 L 173.2503082948986,201.0 L 185.95030829489858,201.0 L 185.95030829489858,206.0 L 192.87936448626,206.0 L 206.15842067762136,183.0 L 192.87936448626,160.0 L 166.3212521035372,160.0 L 153.0421959121758,183.0 L 166.32125210353718,206.0 z" sodipodi:nodetypes="ccccc"/><path style="fill:none;stroke:#000000;stroke-width:0.264583px;stroke-linecap:butt;stroke-linejoin:miter;stroke-opacity:1" id="genPath_33" d="M 210.92156039843582,231.75 L 217.8506165897972,231.75 L 217.8506165897972,226.75 L 230.5506165897972,226.75 L 230.5506165897972,231.75 L 237.4796727811586,231.75 L 250.75872897251998,208.75 L 237.4796727811586,185.75 L 210.92156039843582,185.75 L 197.6425042070744,208.75 L 210.9215603984358,231.75 z" sodipodi:nodetypes="ccccc"/><path style="fill:none;stroke:#000000;stroke-width:0.264583px;stroke-linecap:butt;stroke-linejoin:miter;stroke-opacity:1" id="genPath_34" d="M 32.520327218841416,180.25 L 39.44938341020281,180.25 L 39.44938341020281,175.25 L 52.14938341020281,175.25 L 52.14938341020281,180.25 L 59.078439601564206,180.25 L 72.35749579292559,157.25 L 59.078439601564206,134.25 L 32.520327218841416,134.25 L 19.24127102748002,157.25 L 32.5203272188414,180.25 z" sodipodi:nodetypes="ccccc"/><path style="fill:none;stroke:#000000;stroke-width:0.264583px;stroke-linecap:butt;stroke-linejoin:miter;stroke-opacity:1" id="genPath_35" d="M 77.12063551374003,154.5 L 84.04969170510142,154.5 L 84.04969170510142,149.5 L 96.74969170510143,149.5 L 96.74969170510143,154.5 L 103.67874789646281,154.5 L 116.9578040878242,131.5 L 103.67874789646281,108.5 L 77.12063551374003,108.5 L 63.841579322378635,131.5 L 77.12063551374001,154.5 z" sodipodi:nodetypes="ccccc"/><path style="fill:none;stroke:#000000;stroke-width:0.264583px;stroke-linecap:butt;stroke-linejoin:miter;stroke-opacity:1" id="genPath_36" d="M 121.72094380863861,180.25 L 128.65,180.25 L 128.65,175.25 L 141.35,175.25 L 141.35,180.25 L 148.2790561913614,180.25 L 161.55811238272278,157.25 L 148.2790561913614,134.25 L 121.72094380863861,134.25 L 108.44188761727722,157.25 L 121.7209438086386,180.25 z" sodipodi:nodetypes="ccccc"/><path style="fill:none;stroke:#000000;stroke-width:0.264583px;stroke-linecap:butt;stroke-linejoin:miter;stroke-opacity:1" id="genPath_37" d="M 166.3212521035372,154.5 L 173.2503082948986,154.5 L 173.2503082948986,149.5 L 185.95030829489858,149.5 L 185.95030829489858,154.5 L 192.87936448626,154.5 L 206.15842067762136,131.5 L 192.87936448626,108.5 L 166.3212521035372,108.5 L 153.0421959121758,131.5 L 166.32125210353718,154.5 z" sodipodi:nodetypes="ccccc"/><path style="fill:none;stroke:#000000;stroke-width:0.264583px;stroke-linecap:butt;stroke-linejoin:miter;stroke-opacity:1" id="genPath_38" d="M 210.92156039843582,180.25 L 217.8506165897972,180.25 L 217.8506165897972,175.25 L 230.5506165897972,175.25 L 230.5506165897972,180.25 L 237.4796727811586,180.25 L 250.75872897251998,157.25 L 237.4796727811586,134.25 L 210.92156039843582,134.25 L 197.6425042070744,157.25 L 210.9215603984358,180.25 z" sodipodi:nodetypes="ccccc"/><path style="fill:none;stroke:#000000;stroke-width:0.264583px;stroke-linecap:butt;stroke-linejoin:miter;stroke-opacity:1" id="genPath_39" d="M 32.52032721884143,128.75 L 39.44938341020283,128.75 L 39.44938341020283,123.75 L 52.14938341020282,123.75 L 52.14938341020282,128.75 L 59.07843960156422,128.75 L 72.3574957929256,105.75 L 59.07843960156422,82.75 L 32.52032721884143,82.75 L 19.241271027480035,105.75 L 32.520327218841416,128.75 z" sodipodi:nodetypes="ccccc"/><path style="fill:none;stroke:#000000;stroke-width:0.264583px;stroke-linecap:butt;stroke-linejoin:miter;stroke-opacity:1" id="genPath_40" d="M 77.12063551374003,103.0 L 84.04969170510142,103.0 L 84.04969170510142,98.0 L 96.74969170510143,98.0 L 96.74969170510143,103.0 L 103.67874789646281,103.0 L 116.9578040878242,80.0 L 103.67874789646281,57.0 L 77.12063551374003,57.0 L 63.841579322378635,80.0 L 77.12063551374001,103.0 z" sodipodi:nodetypes="ccccc"/><path style="fill:none;stroke:#000000;stroke-width:0.264583px;stroke-linecap:butt;stroke-linejoin:miter;stroke-opacity:1" id="genPath_41" d="M 121.72094380863861,128.75 L 128.65,128.75 L 128.65,123.75 L 141.35,123.75 L 141.35,128.75 L 148.2790561913614,128.75 L 161.55811238272278,105.75 L 148.2790561913614,82.75 L 121.72094380863861,82.75 L 108.44188761727722,105.75 L 121.7209438086386,128.75 z" sodipodi:nodetypes="ccccc"/><path style="fill:none;stroke:#000000;stroke-width:0.264583px;stroke-linecap:butt;stroke-linejoin:miter;stroke-opacity:1" id="genPath_42" d="M 166.32125210353723,103.0 L 173.25030829489862,103.0 L 173.25030829489862,98.0 L 185.9503082948986,98.0 L 185.9503082948986,103.0 L 192.87936448626002,103.0 L 206.1584206776214,80.0 L 192.87936448626002,57.0 L 166.32125210353723,57.0 L 153.04219591217583,80.0 L 166.3212521035372,103.0 z" sodipodi:nodetypes="ccccc"/><path style="fill:none;stroke:#000000;stroke-width:0.264583px;stroke-linecap:butt;stroke-linejoin:miter;stroke-opacity:1" id="genPath_43" d="M 210.92156039843582,128.75 L 217.8506165897972,128.75 L 217.8506165897972,123.75 L 230.5506165897972,123.75 L 230.5506165897972,128.75 L 237.4796727811586,128.75 L 250.75872897251998,105.75 L 237.4796727811586,82.75 L 210.92156039843582,82.75 L 197.6425042070744,105.75 L 210.9215603984358,128.75 z" sodipodi:nodetypes="ccccc"/><path style="fill:none;stroke:#000000;stroke-width:0.264583px;stroke-linecap:butt;stroke-linejoin:miter;stroke-opacity:1" id="genPath_44" d="M 257.10958193360585,260.25 L 242.24281250197302,234.5 L 257.10958193360585,208.75 L 242.24281250197302,183.0 L 257.10958193360585,157.25 L 242.24281250197302,131.5 L 257.10958193360585,105.75 L 240.65509926170154,77.25 L 210.9215603984358,77.25 L 196.05479096680295,51.5 L 163.14582562299427,51.5 L 148.2790561913614,77.25 L 121.7209438086386,77.25 L 106.85417437700575,51.5 L 73.94520903319709,51.5 L 59.07843960156421,77.25 L 29.34490073829849,77.25 L 12.890418066394162,105.74999999999999 L 27.75718749802698,131.49999999999997 L 12.890418066394147,157.24999999999997 L 27.75718749802698,182.99999999999997 L 12.890418066394147,208.74999999999997 L 27.75718749802698,234.49999999999997 L 12.890418066394133,260.25 L 29.34490073829845,288.75 L 59.0784396015642,288.75 L 73.94520903319705,314.5 L 106.8541743770057,314.5 L 121.72094380863858,288.75 L 148.27905619136138,288.75 L 163.14582562299424,314.5 L 196.0547909668029,314.5 L 210.92156039843576,288.75 L 240.65509926170148,288.75 z" sodipodi:nodetypes="ccccc"/><path style="fill:none;stroke:#000000;stroke-width:0.264583px;stroke-linecap:butt;stroke-linejoin:miter;stroke-opacity:1" id="genPath_45" d="M 150.90063509461095,76.70929214352104 L 164.3005261613735,53.5 L 194.90009042842368,53.5 L 208.29998149518622,76.70929214352104 L 210.03203230275508,75.70929214352104 A 22.000000000001677,22.000000000001677 0 0 0 221.03203230275508,56.656733260263394 L 221.03203230275508,11.656733260263394 L 138.16858428704208,11.656733260263394 L 138.16858428704208,56.656733260263394 A 21.9999999999994,21.9999999999994 0 0 0 149.16858428704208,75.70929214352104 z" sodipodi:nodetypes="ccccc"/><path style="fill:none;stroke:#000000;stroke-width:0.264583px;stroke-linecap:butt;stroke-linejoin:miter;stroke-opacity:1" id="genPath_46" d="M 61.70001850481379,76.70929214352104 L 75.09990957157635,53.5 L 105.6994738386265,53.5 L 119.09936490538905,76.70929214352104 L 120.83141571295792,75.70929214352104 A 21.999999999999602,21.999999999999602 0 0 0 131.83141571295792,56.656733260263394 L 131.83141571295792,11.656733260263394 L 48.96796769724492,11.656733260263394 L 48.967967697244916,56.656733260263394 A 22.00000000000001,22.00000000000001 0 0 0 59.967967697244916,75.70929214352104 z" sodipodi:nodetypes="ccccc"/><path style="fill:none;stroke:#000000;stroke-width:0.264583px;stroke-linecap:butt;stroke-linejoin:miter;stroke-opacity:1" id="genPath_47" d="M 119.09936490538902,289.29070785647895 L 105.69947383862647,312.5 L 75.09990957157632,312.5 L 61.70001850481378,289.29070785647895 L 59.9679676972449,290.29070785647895 A 22.00000000000024,22.00000000000024 0 0 0 48.9679676972449,309.3432667397366 L 48.967967697244895,354.3432667397366 L 131.8314157129579,354.3432667397366 L 131.8314157129579,309.34326673973663 A 21.999999999998092,21.999999999998092 0 0 0 120.8314157129579,290.29070785647895 z" sodipodi:nodetypes="ccccc"/><path style="fill:none;stroke:#000000;stroke-width:0.264583px;stroke-linecap:butt;stroke-linejoin:miter;stroke-opacity:1" id="genPath_48" d="M 208.29998149518622,289.29070785647895 L 194.90009042842365,312.5 L 164.30052616137348,312.5 L 150.90063509461095,289.29070785647895 L 149.16858428704208,290.29070785647895 A 21.99999999999872,21.99999999999872 0 0 0 138.16858428704208,309.3432667397366 L 138.16858428704208,354.3432667397366 L 221.03203230275506,354.3432667397366 L 221.03203230275508,309.34326673973663 A 21.9999999999979,21.9999999999979 0 0 0 210.03203230275508,290.29070785647895 z" sodipodi:nodetypes="ccccc"/></g>
  <g inkscape:groupmode="layer" id="layer3" inkscape:label="10mm"><path style="fill:none;stroke:#000000;stroke-width:0.264583px;stroke-linecap:butt;stroke-linejoin:miter;stroke-opacity:1" id="genPath_0" d="M 110.89562626133312,286.0 L 100.64765898321726,268.25 L 80.15172442698554,268.25 L 69.90375714886969,286.0 L 80.15172442698554,303.75 L 100.64765898321726,303.75 z" sodipodi:nodetypes="ccccc"/><path style="fill:none;stroke:#000000;stroke-width:0.264583px;stroke-linecap:butt;stroke-linejoin:miter;stroke-opacity:1" id="genPath_1" d="M 200.0962428511303,286.0 L 189.84827557301446,268.25 L 169.35234101678273,268.25 L 159.10437373866688,286.0 L 169.35234101678273,303.75 L 189.84827557301446,303.75 z" sodipodi:nodetypes="ccccc"/><path style="fill:none;stroke:#000000;stroke-width:0.264583px;stroke-linecap:butt;stroke-linejoin:miter;stroke-opacity:1" id="genPath_2" d="M 66.29531796643452,260.25 L 56.04735068831867,242.5 L 35.551416132086956,242.5 L 25.30344885397109,260.25 L 35.55141613208694,278.0 L 56.04735068831867,278.0 z" sodipodi:nodetypes="ccccc"/><path style="fill:none;stroke:#000000;stroke-width:0.264583px;stroke-linecap:butt;stroke-linejoin:miter;stroke-opacity:1" id="genPath_3" d="M 110.89562626133312,234.5 L 100.64765898321727,216.75 L 80.15172442698555,216.75 L 69.90375714886969,234.5 L 80.15172442698554,252.25 L 100.64765898321727,252.25 z" sodipodi:nodetypes="ccccc"/><path style="fill:none;stroke:#000000;stroke-width:0.264583px;stroke-linecap:butt;stroke-linejoin:miter;stroke-opacity:1" id="genPath_4" d="M 155.4959345562317,260.25 L 145.24796727811585,242.5 L 124.75203272188415,242.5 L 114.50406544376828,260.25 L 124.75203272188412,278.0 L 145.24796727811585,278.0 z" sodipodi:nodetypes="ccccc"/><path style="fill:none;stroke:#000000;stroke-width:0.264583px;stroke-linecap:butt;stroke-linejoin:miter;stroke-opacity:1" id="genPath_5" d="M 200.0962428511303,234.5 L 189.84827557301446,216.75 L 169.35234101678273,216.75 L 159.10437373866688,234.5 L 169.35234101678273,252.25 L 189.84827557301446,252.25 z" sodipodi:nodetypes="ccccc"/><path style="fill:none;stroke:#000000;stroke-width:0.264583px;stroke-linecap:butt;stroke-linejoin:miter;stroke-opacity:1" id="genPath_6" d="M 244.6965511460289,260.25 L 234.44858386791304,242.5 L 213.95264931168134,242.5 L 203.70468203356546,260.25 L 213.9526493116813,278.0 L 234.44858386791304,278.0 z" sodipodi:nodetypes="ccccc"/><path style="fill:none;stroke:#000000;stroke-width:0.264583px;stroke-linecap:butt;stroke-linejoin:miter;stroke-opacity:1" id="genPath_7" d="M 66.29531796643452,208.75 L 56.04735068831867,191.0 L 35.551416132086956,191.0 L 25.30344885397109,208.75 L 35.55141613208694,226.5 L 56.04735068831867,226.5 z" sodipodi:nodetypes="ccccc"/><path style="fill:none;stroke:#000000;stroke-width:0.264583px;stroke-linecap:butt;stroke-linejoin:miter;stroke-opacity:1" id="genPath_8" d="M 110.89562626133312,183.0 L 100.64765898321727,165.25 L 80.15172442698555,165.25 L 69.90375714886969,183.0 L 80.15172442698554,200.75 L 100.64765898321727,200.75 z" sodipodi:nodetypes="ccccc"/><path style="fill:none;stroke:#000000;stroke-width:0.264583px;stroke-linecap:butt;stroke-linejoin:miter;stroke-opacity:1" id="genPath_9" d="M 155.4959345562317,208.75 L 145.24796727811585,191.0 L 124.75203272188415,191.0 L 114.50406544376828,208.75 L 124.75203272188413,226.5 L 145.24796727811585,226.5 z" sodipodi:nodetypes="ccccc"/><path style="fill:none;stroke:#000000;stroke-width:0.264583px;stroke-linecap:butt;stroke-linejoin:miter;stroke-opacity:1" id="genPath_10" d="M 200.0962428511303,183.0 L 189.84827557301446,165.25 L 169.35234101678276,165.25 L 159.10437373866688,183.0 L 169.35234101678273,200.75 L 189.84827557301446,200.75 z" sodipodi:nodetypes="ccccc"/><path style="fill:none;stroke:#000000;stroke-width:0.264583px;stroke-linecap:butt;stroke-linejoin:miter;stroke-opacity:1" id="genPath_11" d="M 244.69655114602892,208.75 L 234.44858386791304,191.0 L 213.95264931168134,191.0 L 203.70468203356546,208.75 L 213.95264931168134,226.5 L 234.44858386791304,226.5 z" sodipodi:nodetypes="ccccc"/><path style="fill:none;stroke:#000000;stroke-width:0.264583px;stroke-linecap:butt;stroke-linejoin:miter;stroke-opacity:1" id="genPath_12" d="M 66.29531796643452,157.25 L 56.04735068831867,139.5 L 35.551416132086956,139.5 L 25.30344885397109,157.25 L 35.55141613208694,175.0 L 56.04735068831867,175.0 z" sodipodi:nodetypes="ccccc"/><path style="fill:none;stroke:#000000;stroke-width:0.264583px;stroke-linecap:butt;stroke-linejoin:miter;stroke-opacity:1" id="genPath_13" d="M 110.89562626133312,131.5 L 100.64765898321727,113.75 L 80.15172442698557,113.75 L 69.90375714886969,131.5 L 80.15172442698554,149.25 L 100.64765898321727,149.25 z" sodipodi:nodetypes="ccccc"/><path style="fill:none;stroke:#000000;stroke-width:0.264583px;stroke-linecap:butt;stroke-linejoin:miter;stroke-opacity:1" id="genPath_14" d="M 155.4959345562317,157.25 L 145.24796727811585,139.5 L 124.75203272188415,139.5 L 114.50406544376828,157.25 L 124.75203272188413,175.0 L 145.24796727811585,175.0 z" sodipodi:nodetypes="ccccc"/><path style="fill:none;stroke:#000000;stroke-width:0.264583px;stroke-linecap:butt;stroke-linejoin:miter;stroke-opacity:1" id="genPath_15" d="M 200.0962428511303,131.5 L 189.84827557301446,113.75 L 169.35234101678276,113.75 L 159.10437373866688,131.5 L 169.35234101678273,149.25 L 189.84827557301446,149.25 z" sodipodi:nodetypes="ccccc"/><path style="fill:none;stroke:#000000;stroke-width:0.264583px;stroke-linecap:butt;stroke-linejoin:miter;stroke-opacity:1" id="genPath_16" d="M 244.69655114602892,157.25 L 234.44858386791304,139.5 L 213.95264931168134,139.5 L 203.70468203356546,157.25 L 213.95264931168134,175.0 L 234.44858386791304,175.0 z" sodipodi:nodetypes="ccccc"/><path style="fill:none;stroke:#000000;stroke-width:0.264583px;stroke-linecap:butt;stroke-linejoin:miter;stroke-opacity:1" id="genPath_17" d="M 66.29531796643454,105.75 L 56.04735068831869,88.0 L 35.55141613208697,88.0 L 25.303448853971105,105.75 L 35.551416132086956,123.5 L 56.04735068831869,123.5 z" sodipodi:nodetypes="ccccc"/><path style="fill:none;stroke:#000000;stroke-width:0.264583px;stroke-linecap:butt;stroke-linejoin:miter;stroke-opacity:1" id="genPath_18" d="M 110.89562626133312,80.0 L 100.64765898321727,62.25 L 80.15172442698557,62.25 L 69.90375714886969,80.0 L 80.15172442698554,97.75 L 100.64765898321727,97.75 z" sodipodi:nodetypes="ccccc"/><path style="fill:none;stroke:#000000;stroke-width:0.264583px;stroke-linecap:butt;stroke-linejoin:miter;stroke-opacity:1" id="genPath_19" d="M 155.49593455623173,105.75 L 145.24796727811588,88.0 L 124.75203272188415,88.0 L 114.50406544376828,105.75 L 124.75203272188413,123.5 L 145.24796727811588,123.5 z" sodipodi:nodetypes="ccccc"/><path style="fill:none;stroke:#000000;stroke-width:0.264583px;stroke-linecap:butt;stroke-linejoin:miter;stroke-opacity:1" id="genPath_20" d="M 200.0962428511303,80.0 L 189.84827557301446,62.25 L 169.35234101678276,62.25 L 159.10437373866688,80.0 L 169.35234101678273,97.75 L 189.84827557301446,97.75 z" sodipodi:nodetypes="ccccc"/><path style="fill:none;stroke:#000000;stroke-width:0.264583px;stroke-linecap:butt;stroke-linejoin:miter;stroke-opacity:1" id="genPath_21" d="M 244.69655114602892,105.75 L 234.44858386791304,88.0 L 213.95264931168134,88.0 L 203.70468203356546,105.75 L 213.95264931168134,123.5 L 234.44858386791304,123.5 z" sodipodi:nodetypes="ccccc"/><path style="fill:none;stroke:#000000;stroke-width:0.264583px;stroke-linecap:butt;stroke-linejoin:miter;stroke-opacity:1" id="genPath_49" d="M 208.29998149518622,76.70929214352104 L 210.03203230275508,75.70929214352104 A 22.000000000001677,22.000000000001677 0 0 0 221.03203230275508,56.656733260263394 L 221.03203230275508,11.656733260263394 L 215.03203230275508,11.656733260263394 L 215.03203230275508,56.656733260263394 A 15.999999999998154,15.999999999998154 0 0 1 207.03203230275508,70.51313972081441 L 205.29998149518622,71.51313972081441 z" sodipodi:nodetypes="ccccc"/><path style="fill:none;stroke:#000000;stroke-width:0.264583px;stroke-linecap:butt;stroke-linejoin:miter;stroke-opacity:1" id="genPath_50" d="M 119.09936490538905,76.70929214352104 L 120.83141571295792,75.70929214352104 A 21.999999999999602,21.999999999999602 0 0 0 131.83141571295792,56.656733260263394 L 131.83141571295792,11.656733260263394 L 125.83141571295792,11.656733260263394 L 125.83141571295792,56.656733260263394 A 15.999999999999767,15.999999999999767 0 0 1 117.83141571295792,70.51313972081441 L 116.09936490538905,71.51313972081441 z" sodipodi:nodetypes="ccccc"/><path style="fill:none;stroke:#000000;stroke-width:0.264583px;stroke-linecap:butt;stroke-linejoin:miter;stroke-opacity:1" id="genPath_51" d="M 150.90063509461095,76.70929214352104 L 149.16858428704208,75.70929214352104 A 21.999999999999176,21.999999999999176 0 0 1 138.16858428704208,56.656733260263394 L 138.16858428704208,11.656733260263394 L 144.16858428704208,11.656733260263394 L 144.16858428704208,56.656733260263394 A 15.99999999999991,15.99999999999991 0 0 0 152.16858428704208,70.51313972081441 L 153.90063509461095,71.51313972081441 z" sodipodi:nodetypes="ccccc"/><path style="fill:none;stroke:#000000;stroke-width:0.264583px;stroke-linecap:butt;stroke-linejoin:miter;stroke-opacity:1" id="genPath_52" d="M 61.70001850481379,76.70929214352104 L 59.967967697244916,75.70929214352104 A 22.00000000000007,22.00000000000007 0 0 1 48.967967697244916,56.656733260263394 L 48.96796769724492,11.656733260263394 L 54.96796769724492,11.656733260263394 L 54.967967697244916,56.656733260263394 A 15.999999999999922,15.999999999999922 0 0 0 62.967967697244916,70.51313972081441 L 64.70001850481378,71.51313972081441 z" sodipodi:nodetypes="ccccc"/><path style="fill:none;stroke:#000000;stroke-width:0.264583px;stroke-linecap:butt;stroke-linejoin:miter;stroke-opacity:1" id="genPath_53" d="M 185.10030829489858,51.5 L 185.10030829489858,53.5 L 194.90009042842368,53.5 L 199.79998149518622,61.98686027918559 L 201.53203230275508,60.98686027918559 A 4.999999999996675,4.999999999996675 0 0 0 204.03203230275508,56.656733260263394 L 204.03203230275508,24.832159740806333 L 198.53203230275508,21.656733260263394 L 198.53203230275508,11.656733260263394 L 190.60030829489858,11.656733260263394 L 190.60030829489858,21.656733260263394 L 185.10030829489858,24.832159740806333 z" sodipodi:nodetypes="ccccc"/><path style="fill:none;stroke:#000000;stroke-width:0.264583px;stroke-linecap:butt;stroke-linejoin:miter;stroke-opacity:1" id="genPath_54" d="M 95.89969170510142,51.5 L 95.89969170510142,53.5 L 105.6994738386265,53.5 L 110.59936490538905,61.98686027918559 L 112.33141571295792,60.98686027918559 A 5.000000000001975,5.000000000001975 0 0 0 114.83141571295792,56.656733260263394 L 114.83141571295792,24.832159740806333 L 109.33141571295792,21.656733260263394 L 109.33141571295792,11.656733260263394 L 101.39969170510142,11.656733260263394 L 101.39969170510142,21.656733260263394 L 95.89969170510143,24.832159740806333 z" sodipodi:nodetypes="ccccc"/><path style="fill:none;stroke:#000000;stroke-width:0.264583px;stroke-linecap:butt;stroke-linejoin:miter;stroke-opacity:1" id="genPath_55" d="M 174.10030829489858,51.5 L 174.10030829489858,53.5 L 164.3005261613735,53.49999999999999 L 159.40063509461095,61.986860279185585 L 157.66858428704208,60.986860279185585 A 4.999999999996618,4.999999999996618 0 0 1 155.16858428704208,56.656733260263394 L 155.16858428704208,24.832159740806333 L 160.66858428704208,21.656733260263394 L 160.66858428704208,11.656733260263394 L 168.60030829489858,11.656733260263394 L 168.60030829489858,21.656733260263394 L 174.10030829489858,24.832159740806333 z" sodipodi:nodetypes="ccccc"/><path style="fill:none;stroke:#000000;stroke-width:0.264583px;stroke-linecap:butt;stroke-linejoin:miter;stroke-opacity:1" id="genPath_56" d="M 84.89969170510142,51.5 L 84.89969170510142,53.5 L 75.09990957157633,53.49999999999999 L 70.2000185048138,61.986860279185585 L 68.46796769724492,60.986860279185585 A 5.000000000000696,5.000000000000696 0 0 1 65.96796769724492,56.656733260263394 L 65.96796769724492,24.832159740806333 L 71.46796769724492,21.656733260263394 L 71.46796769724492,11.656733260263394 L 79.39969170510142,11.656733260263394 L 79.39969170510142,21.656733260263394 L 84.89969170510142,24.832159740806333 z" sodipodi:nodetypes="ccccc"/><path style="fill:none;stroke:#000000;stroke-width:0.264583px;stroke-linecap:butt;stroke-linejoin:miter;stroke-opacity:1" id="genPath_57" d="M 120.83141571295792,290.29070785647895 A 22.00000000000327,22.00000000000327 0 0 1 130.50465337024792,301.8188235865719 A 4.783847962956464,4.783847962956464 0 0 0 139.49534662975213,301.8188235865719 A 21.999999999994625,21.999999999994625 0 0 1 149.1685842870421,290.29070785647895 L 148.2790561913614,288.75 L 121.72094380863862,288.75 z" sodipodi:nodetypes="ccccc"/><path style="fill:none;stroke:#000000;stroke-width:0.264583px;stroke-linecap:butt;stroke-linejoin:miter;stroke-opacity:1" id="genPath_58" d="M 150.90063509461095,289.29070785647895 L 149.16858428704208,290.29070785647895 A 21.99999999999872,21.99999999999872 0 0 0 138.16858428704208,309.3432667397366 L 138.16858428704208,354.3432667397366 L 221.03203230275506,354.3432667397366 L 221.03203230275508,309.34326673973663 A 21.9999999999979,21.9999999999979 0 0 0 210.03203230275508,290.29070785647895 L 208.29998149518622,289.29070785647895 L 205.29998149518622,294.4868602791856 L 207.03203230275508,295.4868602791856 A 15.999999999997783,15.999999999997783 0 0 1 215.03203230275508,309.34326673973663 L 215.03203230275506,348.34326673973663 L 144.16858428704208,348.3432667397366 L 144.16858428704208,309.3432667397366 A 16.00000000000022,16.00000000000022 0 0 1 152.16858428704208,295.4868602791856 L 153.90063509461095,294.4868602791856 z" sodipodi:nodetypes="ccccc"/><path style="fill:none;stroke:#000000;stroke-width:0.264583px;stroke-linecap:butt;stroke-linejoin:miter;stroke-opacity:1" id="genPath_59" d="M 61.70001850481379,289.29070785647895 L 59.967967697244916,290.29070785647895 A 22.000000000000227,22.000000000000227 0 0 0 48.967967697244916,309.3432667397366 L 48.96796769724491,354.3432667397366 L 131.8314157129579,354.3432667397366 L 131.83141571295792,309.34326673973663 A 22.000000000000135,22.000000000000135 0 0 0 120.83141571295792,290.29070785647895 L 119.09936490538905,289.29070785647895 L 116.09936490538905,294.4868602791856 L 117.83141571295792,295.4868602791856 A 16.00000000000051,16.00000000000051 0 0 1 125.83141571295792,309.34326673973663 L 125.8314157129579,348.34326673973663 L 54.96796769724491,348.3432667397366 L 54.967967697244916,309.3432667397366 A 16.000000000000362,16.000000000000362 0 0 1 62.967967697244916,295.4868602791856 L 64.70001850481378,294.4868602791856 z" sodipodi:nodetypes="ccccc"/><path style="fill:none;stroke:#000000;stroke-width:0.264583px;stroke-linecap:butt;stroke-linejoin:miter;stroke-opacity:1" id="genPath_60" d="M 174.10030829489858,312.5 L 164.30052616137348,312.5 L 159.40063509461095,304.0131397208144 L 157.66858428704208,305.0131397208144 A 4.999999999991729,4.999999999991729 0 0 0 155.16858428704208,309.3432667397366 L 155.16858428704208,318.5 L 164.63444629097032,323.9651179760798 L 174.10030829489858,318.5 z" sodipodi:nodetypes="ccccc"/><path style="fill:none;stroke:#000000;stroke-width:0.264583px;stroke-linecap:butt;stroke-linejoin:miter;stroke-opacity:1" id="genPath_61" d="M 84.8996917051014,312.5 L 75.09990957157632,312.5 L 70.20001850481378,304.0131397208144 L 68.46796769724492,305.0131397208144 A 5.000000000001151,5.000000000001151 0 0 0 65.96796769724492,309.3432667397366 L 65.9679676972449,318.5 L 75.43382970117315,323.9651179760798 L 84.8996917051014,318.5 z" sodipodi:nodetypes="ccccc"/><path style="fill:none;stroke:#000000;stroke-width:0.264583px;stroke-linecap:butt;stroke-linejoin:miter;stroke-opacity:1" id="genPath_62" d="M 185.10030829489858,312.5 L 194.90009042842365,312.5 L 199.79998149518622,304.0131397208144 L 201.53203230275508,305.0131397208144 A 5.0000000000174225,5.0000000000174225 0 0 1 204.03203230275508,309.34326673973663 L 204.03203230275508,318.5 L 194.56617029882682,323.9651179760798 L 185.10030829489858,318.5 z" sodipodi:nodetypes="ccccc"/><path style="fill:none;stroke:#000000;stroke-width:0.264583px;stroke-linecap:butt;stroke-linejoin:miter;stroke-opacity:1" id="genPath_63" d="M 95.89969170510142,312.5 L 105.6994738386265,312.5 L 110.59936490538904,304.0131397208144 L 112.33141571295792,305.0131397208144 A 4.999999999996149,4.999999999996149 0 0 1 114.83141571295792,309.34326673973663 L 114.83141571295792,318.5 L 105.36555370902967,323.9651179760798 L 95.89969170510142,318.5 z" sodipodi:nodetypes="ccccc"/><path style="fill:none;stroke:#000000;stroke-width:0.264583px;stroke-linecap:butt;stroke-linejoin:miter;stroke-opacity:1" id="genPath_64" d="M 265.0,361.0 L 265.0,289.6974411167423 A 58.89488223348573,58.89488223348573 0 0 0 257.10958193360585,260.25 L 242.24281250197302,234.5 L 257.10958193360585,208.75 L 242.24281250197302,183.0 L 257.10958193360585,157.25 L 242.24281250197302,131.5 L 257.10958193360585,105.75 A 58.89488223348468,58.89488223348468 0 0 0 265.0,76.30255888325766 L 265.0,5.0 L 5.000000000000028,4.999999999999972 L 5.0,76.30255888325765 A 58.894882233484935,58.894882233484935 0 0 0 12.890418066394162,105.74999999999999 L 27.75718749802698,131.49999999999997 L 12.890418066394147,157.24999999999997 L 27.75718749802698,182.99999999999997 L 12.890418066394147,208.74999999999997 L 27.75718749802698,234.49999999999997 L 12.890418066394133,260.25 A 58.894882233483244,58.894882233483244 0 0 0 5.0,289.6974411167423 L 4.999999999999972,361.0 z" sodipodi:nodetypes="ccccc"/></g>
</svg>