<?xml version="1.0" ?><!-- Created with Inkscape (http://www.inkscape.org/) --><svg xmlns:inkscape="http://www.inkscape.org/namespaces/inkscape" xmlns:sodipodi="http://sodipodi.sourceforge.net/DTD/sodipodi-0.dtd" xmlns="http://www.w3.org/2000/svg" xmlns:svg="http://www.w3.org/2000/svg" width="300mm" height="300mm" viewBox="0 0 300 300" version="1.1" id="svg5" inkscape:version="1.1.2 (0a00cf5339, 2022-02-04)" sodipodi:docname="TemplateClear.svg">
  <sodipodi:namedview id="namedview7" pagecolor="#ffffff" bordercolor="#999999" borderopacity="1" inkscape:pageshadow="0" inkscape:pageopacity="0" inkscape:pagecheckerboard="0" inkscape:document-units="mm" showgrid="true" width="300mm" inkscape:zoom="0.56315579" inkscape:cx="491.871" inkscape:cy="557.57218" inkscape:window-width="1874" inkscape:window-height="1052" inkscape:window-x="46" inkscape:window-y="0" inkscape:window-maximized="1" inkscape:current-layer="layer2" height="300mm" inkscape:lockguides="false">
    <inkscape:grid type="xygrid" id="grid888"/>
  </sodipodi:namedview>
  <defs id="defs2"/>
  <g inkscape:groupmode="layer" id="layer2" inkscape:label="3mm"><path style="fill:none;stroke:#000000;stroke-width:0.264583px;stroke-linecap:butt;stroke-linejoin:miter;stroke-opacity:1" id="genPath_20_u2uV1nh3" d="M 91.74969170510141,145.25 L 79.04969170510141,145.25 z" sodipodi:nodetypes="ccccc"/><path style="fill:none;stroke:#000000;stroke-width:0.264583px;stroke-linecap:butt;stroke-linejoin:miter;stroke-opacity:1" id="genPath_21_u2uV1nh3" d="M 72.12063551374001,191.25 L 79.04969170510141,191.25 L 79.04969170510141,186.25 L 91.74969170510141,186.25 L 91.74969170510141,191.25 L 98.6787478964628,191.25 L 111.95780408782419,168.25 L 98.6787478964628,145.25 L 91.74969170510141,145.25 L 91.74969170510141,150.25 L 79.04969170510141,150.25 L 79.04969170510141,145.25 L 72.12063551374001,145.25 L 58.84157932237862,168.25 L 72.12063551374,191.25 z" sodipodi:nodetypes="ccccc"/><path style="fill:none;stroke:#000000;stroke-width:0.264583px;stroke-linecap:butt;stroke-linejoin:miter;stroke-opacity:1" id="genPath_22_u2uV1nh3" d="M 108.4932759921435,110.74926131403119 L 102.14327599214349,99.75073868596881 z" sodipodi:nodetypes="ccccc"/><path style="fill:none;stroke:#000000;stroke-width:0.264583px;stroke-linecap:butt;stroke-linejoin:miter;stroke-opacity:1" id="genPath_23_u2uV1nh3" d="M 68.65610741805932,99.75073868596881 L 62.30610741805931,110.74926131403119 z" sodipodi:nodetypes="ccccc"/><path style="fill:none;stroke:#000000;stroke-width:0.264583px;stroke-linecap:butt;stroke-linejoin:miter;stroke-opacity:1" id="genPath_24_u2uV1nh3" d="M 72.12063551374001,139.75 L 79.04969170510141,139.75 L 79.04969170510141,134.75 L 91.74969170510141,134.75 L 91.74969170510141,139.75 L 98.6787478964628,139.75 L 111.95780408782419,116.75 L 108.4932759921435,110.74926131403119 L 104.1631489732213,113.24926131403119 L 97.8131489732213,102.25073868596881 L 102.14327599214349,99.75073868596881 L 98.6787478964628,93.75 L 72.12063551374001,93.75 L 68.65610741805932,99.75073868596881 L 72.9862344369815,102.25073868596881 L 66.63623443698151,113.24926131403119 L 62.30610741805931,110.74926131403119 L 58.84157932237862,116.75 L 72.12063551374,139.75 z" sodipodi:nodetypes="ccccc"/><path style="fill:none;stroke:#000000;stroke-width:0.264583px;stroke-linecap:butt;stroke-linejoin:miter;stroke-opacity:1" id="genPath_25_u2uV1nh3" d="M 153.0935842870421,187.99926131403117 L 146.7435842870421,177.00073868596883 z" sodipodi:nodetypes="ccccc"/><path style="fill:none;stroke:#000000;stroke-width:0.264583px;stroke-linecap:butt;stroke-linejoin:miter;stroke-opacity:1" id="genPath_26_u2uV1nh3" d="M 136.35,171.0 L 123.65,171.0 z" sodipodi:nodetypes="ccccc"/><path style="fill:none;stroke:#000000;stroke-width:0.264583px;stroke-linecap:butt;stroke-linejoin:miter;stroke-opacity:1" id="genPath_27_u2uV1nh3" d="M 106.90641571295791,200.0007386859688 L 113.2564157129579,210.99926131403117 z" sodipodi:nodetypes="ccccc"/><path style="fill:none;stroke:#000000;stroke-width:0.264583px;stroke-linecap:butt;stroke-linejoin:miter;stroke-opacity:1" id="genPath_28_u2uV1nh3" d="M 116.72094380863861,217.0 L 123.65,217.0 L 123.65,212.0 L 136.35,212.0 L 136.35,217.0 L 143.2790561913614,217.0 L 156.55811238272278,194.0 L 153.0935842870421,187.99926131403117 L 148.7634572681199,190.49926131403117 L 142.41345726811988,179.50073868596883 L 146.7435842870421,177.00073868596883 L 143.2790561913614,171.0 L 136.35,171.0 L 136.35,176.0 L 123.65,176.0 L 123.65,171.0 L 116.72094380863861,171.0 L 103.44188761727722,194.0 L 106.90641571295791,200.0007386859688 L 111.2365427318801,197.5007386859688 L 117.5865427318801,208.49926131403117 L 113.2564157129579,210.99926131403117 L 116.7209438086386,217.0 z" sodipodi:nodetypes="ccccc"/><path style="fill:none;stroke:#000000;stroke-width:0.264583px;stroke-linecap:butt;stroke-linejoin:miter;stroke-opacity:1" id="genPath_29_u2uV1nh3" d="M 146.7435842870421,159.49926131403117 L 153.0935842870421,148.50073868596883 z" sodipodi:nodetypes="ccccc"/><path style="fill:none;stroke:#000000;stroke-width:0.264583px;stroke-linecap:butt;stroke-linejoin:miter;stroke-opacity:1" id="genPath_30_u2uV1nh3" d="M 153.0935842870421,136.49926131403117 L 146.7435842870421,125.50073868596881 z" sodipodi:nodetypes="ccccc"/><path style="fill:none;stroke:#000000;stroke-width:0.264583px;stroke-linecap:butt;stroke-linejoin:miter;stroke-opacity:1" id="genPath_31_u2uV1nh3" d="M 136.35,119.5 L 123.65,119.5 z" sodipodi:nodetypes="ccccc"/><path style="fill:none;stroke:#000000;stroke-width:0.264583px;stroke-linecap:butt;stroke-linejoin:miter;stroke-opacity:1" id="genPath_32_u2uV1nh3" d="M 113.25641571295792,125.50073868596881 L 106.90641571295791,136.49926131403117 z" sodipodi:nodetypes="ccccc"/><path style="fill:none;stroke:#000000;stroke-width:0.264583px;stroke-linecap:butt;stroke-linejoin:miter;stroke-opacity:1" id="genPath_33_u2uV1nh3" d="M 106.90641571295791,148.5007386859688 L 113.2564157129579,159.49926131403117 z" sodipodi:nodetypes="ccccc"/><path style="fill:none;stroke:#000000;stroke-width:0.264583px;stroke-linecap:butt;stroke-linejoin:miter;stroke-opacity:1" id="genPath_34_u2uV1nh3" d="M 116.72094380863861,165.5 L 123.65,165.5 L 123.65,160.5 L 136.35,160.5 L 136.35,165.5 L 143.2790561913614,165.5 L 146.7435842870421,159.49926131403117 L 142.41345726811988,156.99926131403117 L 148.7634572681199,146.00073868596883 L 153.0935842870421,148.50073868596883 L 156.55811238272278,142.5 L 153.0935842870421,136.49926131403117 L 148.7634572681199,138.99926131403117 L 142.41345726811988,128.00073868596883 L 146.7435842870421,125.50073868596881 L 143.2790561913614,119.5 L 136.35,119.5 L 136.35,124.5 L 123.65,124.5 L 123.65,119.5 L 116.72094380863861,119.5 L 113.25641571295792,125.50073868596881 L 117.5865427318801,128.00073868596883 L 111.2365427318801,138.99926131403117 L 106.90641571295791,136.49926131403117 L 103.44188761727722,142.5 L 106.90641571295791,148.5007386859688 L 111.2365427318801,146.0007386859688 L 117.5865427318801,156.99926131403117 L 113.2564157129579,159.49926131403117 L 116.7209438086386,165.5 z" sodipodi:nodetypes="ccccc"/><path style="fill:none;stroke:#000000;stroke-width:0.264583px;stroke-linecap:butt;stroke-linejoin:miter;stroke-opacity:1" id="genPath_35_u2uV1nh3" d="M 146.7435842870421,107.99926131403119 L 153.0935842870421,97.00073868596881 z" sodipodi:nodetypes="ccccc"/><path style="fill:none;stroke:#000000;stroke-width:0.264583px;stroke-linecap:butt;stroke-linejoin:miter;stroke-opacity:1" id="genPath_36_u2uV1nh3" d="M 153.0935842870421,84.99926131403119 L 146.7435842870421,74.00073868596881 z" sodipodi:nodetypes="ccccc"/><path style="fill:none;stroke:#000000;stroke-width:0.264583px;stroke-linecap:butt;stroke-linejoin:miter;stroke-opacity:1" id="genPath_37_u2uV1nh3" d="M 136.35,68.0 L 123.65,68.0 z" sodipodi:nodetypes="ccccc"/><path style="fill:none;stroke:#000000;stroke-width:0.264583px;stroke-linecap:butt;stroke-linejoin:miter;stroke-opacity:1" id="genPath_38_u2uV1nh3" d="M 113.25641571295792,74.00073868596881 L 106.90641571295791,84.99926131403119 z" sodipodi:nodetypes="ccccc"/><path style="fill:none;stroke:#000000;stroke-width:0.264583px;stroke-linecap:butt;stroke-linejoin:miter;stroke-opacity:1" id="genPath_39_u2uV1nh3" d="M 106.90641571295791,97.00073868596881 L 113.2564157129579,107.99926131403117 z" sodipodi:nodetypes="ccccc"/><path style="fill:none;stroke:#000000;stroke-width:0.264583px;stroke-linecap:butt;stroke-linejoin:miter;stroke-opacity:1" id="genPath_40_u2uV1nh3" d="M 116.72094380863861,114.0 L 123.65,114.0 L 123.65,109.0 L 136.35,109.0 L 136.35,114.0 L 143.2790561913614,114.0 L 146.7435842870421,107.99926131403119 L 142.41345726811988,105.49926131403119 L 148.7634572681199,94.50073868596881 L 153.0935842870421,97.00073868596881 L 156.55811238272278,91.0 L 153.0935842870421,84.99926131403119 L 148.7634572681199,87.49926131403119 L 142.41345726811988,76.50073868596881 L 146.7435842870421,74.00073868596881 L 143.2790561913614,68.0 L 136.35,68.0 L 136.35,73.0 L 123.65,73.0 L 123.65,68.0 L 116.72094380863861,68.0 L 113.25641571295792,74.00073868596881 L 117.5865427318801,76.50073868596881 L 111.2365427318801,87.49926131403119 L 106.90641571295791,84.99926131403119 L 103.44188761727722,91.0 L 106.90641571295791,97.00073868596881 L 111.2365427318801,94.50073868596881 L 117.5865427318801,105.49926131403117 L 113.2564157129579,107.99926131403117 L 116.7209438086386,114.0 z" sodipodi:nodetypes="ccccc"/><path style="fill:none;stroke:#000000;stroke-width:0.264583px;stroke-linecap:butt;stroke-linejoin:miter;stroke-opacity:1" id="genPath_41_u2uV1nh3" d="M 191.34389258194068,133.74926131403117 L 197.69389258194067,122.75073868596881 z" sodipodi:nodetypes="ccccc"/><path style="fill:none;stroke:#000000;stroke-width:0.264583px;stroke-linecap:butt;stroke-linejoin:miter;stroke-opacity:1" id="genPath_42_u2uV1nh3" d="M 197.69389258194067,110.74926131403119 L 191.34389258194068,99.75073868596881 z" sodipodi:nodetypes="ccccc"/><path style="fill:none;stroke:#000000;stroke-width:0.264583px;stroke-linecap:butt;stroke-linejoin:miter;stroke-opacity:1" id="genPath_43_u2uV1nh3" d="M 180.95030829489858,93.75 L 168.2503082948986,93.75 z" sodipodi:nodetypes="ccccc"/><path style="fill:none;stroke:#000000;stroke-width:0.264583px;stroke-linecap:butt;stroke-linejoin:miter;stroke-opacity:1" id="genPath_44_u2uV1nh3" d="M 157.85672400785649,99.75073868596881 L 151.5067240078565,110.74926131403119 z" sodipodi:nodetypes="ccccc"/><path style="fill:none;stroke:#000000;stroke-width:0.264583px;stroke-linecap:butt;stroke-linejoin:miter;stroke-opacity:1" id="genPath_45_u2uV1nh3" d="M 151.5067240078565,122.75073868596881 L 157.85672400785649,133.74926131403117 z" sodipodi:nodetypes="ccccc"/><path style="fill:none;stroke:#000000;stroke-width:0.264583px;stroke-linecap:butt;stroke-linejoin:miter;stroke-opacity:1" id="genPath_46_u2uV1nh3" d="M 161.3212521035372,139.75 L 168.2503082948986,139.75 L 168.2503082948986,134.75 L 180.95030829489858,134.75 L 180.95030829489858,139.75 L 187.87936448626,139.75 L 191.34389258194068,133.74926131403117 L 187.01376556301847,131.24926131403117 L 193.3637655630185,120.25073868596881 L 197.69389258194067,122.75073868596881 L 201.15842067762136,116.75 L 197.69389258194067,110.74926131403119 L 193.3637655630185,113.24926131403119 L 187.01376556301847,102.25073868596881 L 191.34389258194068,99.75073868596881 L 187.87936448626,93.75 L 180.95030829489858,93.75 L 180.95030829489858,98.75 L 168.2503082948986,98.75 L 168.2503082948986,93.75 L 161.3212521035372,93.75 L 157.85672400785649,99.75073868596881 L 162.1868510267787,102.25073868596881 L 155.83685102677867,113.24926131403119 L 151.5067240078565,110.74926131403119 L 148.0421959121758,116.75 L 151.5067240078565,122.75073868596881 L 155.83685102677867,120.25073868596881 L 162.18685102677867,131.24926131403117 L 157.85672400785649,133.74926131403117 L 161.32125210353718,139.75 z" sodipodi:nodetypes="ccccc"/><path style="fill:none;stroke:#000000;stroke-width:0.264583px;stroke-linecap:butt;stroke-linejoin:miter;stroke-opacity:1" id="genPath_47_u2uV1nh3" d="M 191.34389258194068,185.24926131403117 L 197.69389258194067,174.25073868596883 z" sodipodi:nodetypes="ccccc"/><path style="fill:none;stroke:#000000;stroke-width:0.264583px;stroke-linecap:butt;stroke-linejoin:miter;stroke-opacity:1" id="genPath_48_u2uV1nh3" d="M 197.69389258194067,162.24926131403117 L 191.34389258194068,151.25073868596883 z" sodipodi:nodetypes="ccccc"/><path style="fill:none;stroke:#000000;stroke-width:0.264583px;stroke-linecap:butt;stroke-linejoin:miter;stroke-opacity:1" id="genPath_49_u2uV1nh3" d="M 180.95030829489858,145.25 L 168.2503082948986,145.25 z" sodipodi:nodetypes="ccccc"/><path style="fill:none;stroke:#000000;stroke-width:0.264583px;stroke-linecap:butt;stroke-linejoin:miter;stroke-opacity:1" id="genPath_50_u2uV1nh3" d="M 157.85672400785649,151.25073868596883 L 151.5067240078565,162.24926131403117 z" sodipodi:nodetypes="ccccc"/><path style="fill:none;stroke:#000000;stroke-width:0.264583px;stroke-linecap:butt;stroke-linejoin:miter;stroke-opacity:1" id="genPath_51_u2uV1nh3" d="M 151.5067240078565,174.2507386859688 L 157.85672400785649,185.24926131403117 z" sodipodi:nodetypes="ccccc"/><path style="fill:none;stroke:#000000;stroke-width:0.264583px;stroke-linecap:butt;stroke-linejoin:miter;stroke-opacity:1" id="genPath_52_u2uV1nh3" d="M 161.3212521035372,191.25 L 168.2503082948986,191.25 L 168.2503082948986,186.25 L 180.95030829489858,186.25 L 180.95030829489858,191.25 L 187.87936448626,191.25 L 191.34389258194068,185.24926131403117 L 187.01376556301847,182.74926131403117 L 193.3637655630185,171.75073868596883 L 197.69389258194067,174.25073868596883 L 201.15842067762136,168.25 L 197.69389258194067,162.24926131403117 L 193.3637655630185,164.74926131403117 L 187.01376556301847,153.75073868596883 L 191.34389258194068,151.25073868596883 L 187.87936448626,145.25 L 180.95030829489858,145.25 L 180.95030829489858,150.25 L 168.2503082948986,150.25 L 168.2503082948986,145.25 L 161.3212521035372,145.25 L 157.85672400785649,151.25073868596883 L 162.1868510267787,153.75073868596883 L 155.83685102677867,164.74926131403117 L 151.5067240078565,162.24926131403117 L 148.0421959121758,168.25 L 151.5067240078565,174.2507386859688 L 155.83685102677867,171.7507386859688 L 162.18685102677867,182.74926131403117 L 157.85672400785649,185.24926131403117 L 161.32125210353718,191.25 z" sodipodi:nodetypes="ccccc"/><path style="fill:none;stroke:#000000;stroke-width:0.264583px;stroke-linecap:butt;stroke-linejoin:miter;stroke-opacity:1" id="genPath_53_u2uV1nh3" d="M 192.6425042070744,142.5 L 207.50927363870727,116.75 L 191.05479096680293,88.25 L 161.3212521035372,88.25 L 146.45448267190434,62.5 L 113.54551732809568,62.499999999999986 L 98.67874789646281,88.24999999999999 L 68.94520903319709,88.24999999999997 L 52.49072636129276,116.74999999999997 L 67.35749579292559,142.5 L 52.49072636129273,168.25 L 68.94520903319706,196.75 L 98.67874789646277,196.75 L 113.54551732809561,222.5 L 146.4544826719043,222.5 L 161.3212521035372,196.75 L 191.05479096680293,196.75 L 207.50927363870727,168.25 z" sodipodi:nodetypes="ccccc"/><path style="fill:none;stroke:#000000;stroke-width:0.264583px;stroke-linecap:butt;stroke-linejoin:miter;stroke-opacity:1" id="genPath_54_u2uV1nh3" d="M 116.50000000000001,64.5 L 143.50000000000003,64.5 L 143.50000000000003,46.13472243102147 L 155.0,39.4951943353408 L 155.0,12.5 L 105.0,12.5 L 105.0,39.4951943353408 L 113.93030975783651,44.65111107797445 L 116.50000000000003,46.1347224310215 z" sodipodi:nodetypes="ccccc"/><path style="fill:none;stroke:#000000;stroke-width:0.264583px;stroke-linecap:butt;stroke-linejoin:miter;stroke-opacity:1" id="genPath_55_u2uV1nh3" d="M 143.49999999999997,220.5 L 116.49999999999997,220.5 L 116.49999999999997,238.8652775689785 L 104.99999999999999,245.50480566465922 L 104.99999999999999,272.5 L 155.0,272.5 L 155.0,245.50480566465922 L 146.06969024216346,240.34888892202554 L 143.49999999999997,238.8652775689785 z" sodipodi:nodetypes="ccccc"/><path style="fill:none;stroke:#000000;stroke-width:0.264583px;stroke-linecap:butt;stroke-linejoin:miter;stroke-opacity:1" id="genPath_56_u2uV1nh3" d="M 116.50000000000001,62.5 L 143.50000000000003,62.5 L 143.50000000000003,46.13472243102147 L 155.0,39.4951943353408 L 155.0,12.5 L 105.0,12.5 L 105.0,39.4951943353408 L 113.93030975783651,44.65111107797445 L 116.50000000000003,46.1347224310215 z" sodipodi:nodetypes="ccccc"/><path style="fill:none;stroke:#000000;stroke-width:0.264583px;stroke-linecap:butt;stroke-linejoin:miter;stroke-opacity:1" id="genPath_57_u2uV1nh3" d="M 143.49999999999997,222.5 L 116.49999999999997,222.5 L 116.49999999999997,238.8652775689785 L 104.99999999999999,245.50480566465922 L 104.99999999999999,272.5 L 155.0,272.5 L 155.0,245.50480566465922 L 146.06969024216346,240.34888892202554 L 143.49999999999997,238.8652775689785 z" sodipodi:nodetypes="ccccc"/><path style="fill:none;stroke:#000000;stroke-width:0.264583px;stroke-linecap:butt;stroke-linejoin:miter;stroke-opacity:1" id="genPath_58_u2uV1nh3" d="M 208.8760430703401,62.5 A 32.68802153516991,32.68802153516991 0 0 1 192.53203230275508,90.80865704891006 L 190.79998149518622,91.80865704891006 L 204.29998149518622,115.1913429510899 L 206.0320323027551,114.1913429510899 A 59.68802153517046,59.68802153517046 0 0 0 235.8760430703401,62.5 L 235.8760430703401,46.13472243102147 L 247.37604307034007,39.4951943353408 L 247.37604307034007,12.5 L 197.37604307034007,12.5 L 197.37604307034007,39.4951943353408 L 206.3063528281766,44.65111107797445 L 208.8760430703401,46.1347224310215 z" sodipodi:nodetypes="ccccc"/><path style="fill:none;stroke:#000000;stroke-width:0.264583px;stroke-linecap:butt;stroke-linejoin:miter;stroke-opacity:1" id="genPath_59_u2uV1nh3" d="M 51.12395692965988,222.5 A 32.68802153517031,32.68802153517031 0 0 1 67.4679676972449,194.19134295108992 L 69.20001850481378,193.19134295108992 L 55.700018504813784,169.80865704891008 L 53.9679676972449,170.80865704891008 A 59.688021535170435,59.688021535170435 0 0 0 24.123956929659883,222.5 L 24.123956929659883,238.8652775689785 L 12.623956929659897,245.5048056646592 L 12.623956929659897,272.5 L 62.6239569296599,272.5 L 62.6239569296599,245.5048056646592 L 53.693647171823386,240.34888892202554 L 51.12395692965988,238.86527756897848 z" sodipodi:nodetypes="ccccc"/><path style="fill:none;stroke:#000000;stroke-width:0.264583px;stroke-linecap:butt;stroke-linejoin:miter;stroke-opacity:1" id="genPath_60_u2uV1nh3" d="M 208.8760430703401,62.5 A 32.68802153516991,32.68802153516991 0 0 1 192.53203230275508,90.80865704891006 L 206.0320323027551,114.1913429510899 A 59.68802153517046,59.68802153517046 0 0 0 235.8760430703401,62.5 L 235.8760430703401,46.13472243102147 L 247.37604307034007,39.4951943353408 L 247.37604307034007,12.5 L 197.37604307034007,12.5 L 197.37604307034007,39.4951943353408 L 206.3063528281766,44.65111107797445 L 208.8760430703401,46.1347224310215 z" sodipodi:nodetypes="ccccc"/><path style="fill:none;stroke:#000000;stroke-width:0.264583px;stroke-linecap:butt;stroke-linejoin:miter;stroke-opacity:1" id="genPath_61_u2uV1nh3" d="M 51.12395692965988,222.5 A 32.68802153517031,32.68802153517031 0 0 1 67.4679676972449,194.19134295108992 L 53.9679676972449,170.80865704891008 A 59.688021535170435,59.688021535170435 0 0 0 24.123956929659883,222.5 L 24.123956929659883,238.8652775689785 L 12.623956929659897,245.5048056646592 L 12.623956929659897,272.5 L 62.6239569296599,272.5 L 62.6239569296599,245.5048056646592 L 53.693647171823386,240.34888892202554 L 51.12395692965988,238.86527756897848 z" sodipodi:nodetypes="ccccc"/><path style="fill:none;stroke:#000000;stroke-width:0.264583px;stroke-linecap:butt;stroke-linejoin:miter;stroke-opacity:1" id="genPath_62_u2uV1nh3" d="M 51.12395692965991,62.499999999999986 A 32.68802153516994,32.68802153516994 0 0 0 67.46796769724492,90.80865704891005 L 69.20001850481378,91.80865704891005 L 55.700018504813784,115.1913429510899 L 53.9679676972449,114.1913429510899 A 59.68802153517012,59.68802153517012 0 0 1 24.12395692965991,62.499999999999986 L 24.12395692965991,46.13472243102146 L 12.623956929659926,39.495194335340784 L 12.623956929659926,12.499999999999972 L 62.623956929659926,12.5 L 62.623956929659926,39.495194335340784 L 53.693647171823415,44.651111077974434 L 51.12395692965991,46.13472243102149 z" sodipodi:nodetypes="ccccc"/><path style="fill:none;stroke:#000000;stroke-width:0.264583px;stroke-linecap:butt;stroke-linejoin:miter;stroke-opacity:1" id="genPath_63_u2uV1nh3" d="M 208.87604307034007,222.50000000000003 A 32.68802153516985,32.68802153516985 0 0 0 192.53203230275508,194.19134295108995 L 190.79998149518622,193.19134295108995 L 204.29998149518622,169.8086570489101 L 206.0320323027551,170.8086570489101 A 59.68802153517052,59.68802153517052 0 0 1 235.87604307034007,222.50000000000003 L 235.87604307034007,238.86527756897857 L 247.37604307034007,245.50480566465922 L 247.37604307034007,272.50000000000006 L 197.37604307034007,272.5 L 197.37604307034007,245.50480566465922 L 206.30635282817656,240.3488889220256 L 208.87604307034007,238.8652775689785 z" sodipodi:nodetypes="ccccc"/><path style="fill:none;stroke:#000000;stroke-width:0.264583px;stroke-linecap:butt;stroke-linejoin:miter;stroke-opacity:1" id="genPath_64_u2uV1nh3" d="M 51.12395692965991,62.499999999999986 A 32.68802153516994,32.68802153516994 0 0 0 67.46796769724492,90.80865704891005 L 53.9679676972449,114.1913429510899 A 59.68802153517012,59.68802153517012 0 0 1 24.12395692965991,62.499999999999986 L 24.12395692965991,46.13472243102146 L 12.623956929659926,39.495194335340784 L 12.623956929659926,12.499999999999972 L 62.623956929659926,12.5 L 62.623956929659926,39.495194335340784 L 53.693647171823415,44.651111077974434 L 51.12395692965991,46.13472243102149 z" sodipodi:nodetypes="ccccc"/><path style="fill:none;stroke:#000000;stroke-width:0.264583px;stroke-linecap:butt;stroke-linejoin:miter;stroke-opacity:1" id="genPath_65_u2uV1nh3" d="M 208.87604307034007,222.50000000000003 A 32.68802153516985,32.68802153516985 0 0 0 192.53203230275508,194.19134295108995 L 206.0320323027551,170.8086570489101 A 59.68802153517052,59.68802153517052 0 0 1 235.87604307034007,222.50000000000003 L 235.87604307034007,238.86527756897857 L 247.37604307034007,245.50480566465922 L 247.37604307034007,272.50000000000006 L 197.37604307034007,272.5 L 197.37604307034007,245.50480566465922 L 206.30635282817656,240.3488889220256 L 208.87604307034007,238.8652775689785 z" sodipodi:nodetypes="ccccc"/></g>
  <g inkscape:groupmode="layer" id="layer3" inkscape:label="10mm"><path style="fill:none;stroke:#000000;stroke-width:0.264583px;stroke-linecap:butt;stroke-linejoin:miter;stroke-opacity:1" id="genPath_0_u2uV1nh3" d="M 105.89562626133312,168.25 L 95.64765898321727,150.5 L 75.15172442698555,150.5 L 64.90375714886969,168.25 L 75.15172442698554,186.0 L 95.64765898321727,186.0 z" sodipodi:nodetypes="ccccc"/><path style="fill:none;stroke:#000000;stroke-width:0.264583px;stroke-linecap:butt;stroke-linejoin:miter;stroke-opacity:1" id="genPath_1_u2uV1nh3" d="M 105.89562626133312,116.75 L 95.64765898321727,99.0 L 75.15172442698555,99.0 L 64.90375714886969,116.75 L 75.15172442698554,134.5 L 95.64765898321727,134.5 z" sodipodi:nodetypes="ccccc"/><path style="fill:none;stroke:#000000;stroke-width:0.264583px;stroke-linecap:butt;stroke-linejoin:miter;stroke-opacity:1" id="genPath_2_u2uV1nh3" d="M 150.4959345562317,142.5 L 140.24796727811585,124.75 L 119.75203272188415,124.75 L 109.50406544376828,142.5 L 119.75203272188413,160.25 L 140.24796727811585,160.25 z" sodipodi:nodetypes="ccccc"/><path style="fill:none;stroke:#000000;stroke-width:0.264583px;stroke-linecap:butt;stroke-linejoin:miter;stroke-opacity:1" id="genPath_3_u2uV1nh3" d="M 150.49593455623173,91.0 L 140.24796727811585,73.25 L 119.75203272188415,73.25 L 109.50406544376828,91.0 L 119.75203272188413,108.75 L 140.24796727811585,108.75 z" sodipodi:nodetypes="ccccc"/><path style="fill:none;stroke:#000000;stroke-width:0.264583px;stroke-linecap:butt;stroke-linejoin:miter;stroke-opacity:1" id="genPath_4_u2uV1nh3" d="M 150.4959345562317,194.0 L 140.24796727811585,176.25 L 119.75203272188415,176.25 L 109.50406544376828,194.0 L 119.75203272188413,211.75 L 140.24796727811585,211.75 z" sodipodi:nodetypes="ccccc"/><path style="fill:none;stroke:#000000;stroke-width:0.264583px;stroke-linecap:butt;stroke-linejoin:miter;stroke-opacity:1" id="genPath_5_u2uV1nh3" d="M 195.0962428511303,116.75 L 184.84827557301446,99.0 L 164.35234101678276,99.0 L 154.10437373866688,116.75 L 164.35234101678273,134.5 L 184.84827557301446,134.5 z" sodipodi:nodetypes="ccccc"/><path style="fill:none;stroke:#000000;stroke-width:0.264583px;stroke-linecap:butt;stroke-linejoin:miter;stroke-opacity:1" id="genPath_6_u2uV1nh3" d="M 195.0962428511303,168.25 L 184.84827557301446,150.5 L 164.35234101678276,150.5 L 154.10437373866688,168.25 L 164.35234101678273,186.0 L 184.84827557301446,186.0 z" sodipodi:nodetypes="ccccc"/><path style="fill:none;stroke:#000000;stroke-width:0.264583px;stroke-linecap:butt;stroke-linejoin:miter;stroke-opacity:1" id="genPath_7_u2uV1nh3" d="M 207.50927363870727,168.25 L 192.6425042070744,142.5 L 207.50927363870727,116.75 L 222.37604307034013,116.75 A 51.50000000000053,51.50000000000053 0 0 1 222.37604307034013,168.25 z" sodipodi:nodetypes="ccccc"/><path style="fill:none;stroke:#000000;stroke-width:0.264583px;stroke-linecap:butt;stroke-linejoin:miter;stroke-opacity:1" id="genPath_8_u2uV1nh3" d="M 191.05479096680293,88.25 L 161.3212521035372,88.25 L 146.45448267190434,62.5 L 153.88786738772077,49.625 A 51.50000000000007,51.50000000000007 0 0 1 198.48817568261936,75.37500000000001 z" sodipodi:nodetypes="ccccc"/><path style="fill:none;stroke:#000000;stroke-width:0.264583px;stroke-linecap:butt;stroke-linejoin:miter;stroke-opacity:1" id="genPath_9_u2uV1nh3" d="M 113.54551732809568,62.5 L 98.67874789646281,88.24999999999999 L 68.94520903319709,88.24999999999997 L 61.51182431738066,75.37499999999997 A 51.5,51.5 0 0 1 106.11213261227925,49.625 z" sodipodi:nodetypes="ccccc"/><path style="fill:none;stroke:#000000;stroke-width:0.264583px;stroke-linecap:butt;stroke-linejoin:miter;stroke-opacity:1" id="genPath_10_u2uV1nh3" d="M 52.490726361292744,116.74999999999999 L 67.35749579292559,142.5 L 52.49072636129273,168.25 L 37.62395692965987,168.25 A 51.499999999999844,51.499999999999844 0 0 1 37.62395692965988,116.74999999999999 z" sodipodi:nodetypes="ccccc"/><path style="fill:none;stroke:#000000;stroke-width:0.264583px;stroke-linecap:butt;stroke-linejoin:miter;stroke-opacity:1" id="genPath_11_u2uV1nh3" d="M 68.94520903319705,196.74999999999994 L 98.67874789646277,196.75 L 113.54551732809561,222.5 L 106.11213261227917,235.375 A 51.50000000000026,51.50000000000026 0 0 1 61.511824317380615,209.62499999999994 z" sodipodi:nodetypes="ccccc"/><path style="fill:none;stroke:#000000;stroke-width:0.264583px;stroke-linecap:butt;stroke-linejoin:miter;stroke-opacity:1" id="genPath_12_u2uV1nh3" d="M 146.45448267190434,222.5 L 161.3212521035372,196.75 L 191.05479096680293,196.75 L 198.48817568261936,209.625 A 51.50000000000034,51.50000000000034 0 0 1 153.88786738772077,235.375 z" sodipodi:nodetypes="ccccc"/><path style="fill:none;stroke:#000000;stroke-width:0.264583px;stroke-linecap:butt;stroke-linejoin:miter;stroke-opacity:1" id="genPath_13_u2uV1nh3" d="M 255.0,280.0 L 255.0,5.0 L 5.0,5.0 L 5.0,280.0 z" sodipodi:nodetypes="ccccc"/><path style="fill:none;stroke:#000000;stroke-width:0.264583px;stroke-linecap:butt;stroke-linejoin:miter;stroke-opacity:1" id="genPath_14_u2uV1nh3" d="M 116.50000000000001,64.5 L 124.50000000000001,64.5 L 124.50000000000003,39.64508159514584 L 115.0,34.16025403784438 L 115.0,22.5 L 145.0,22.5 L 145.0,34.160254037844396 L 135.50000000000003,39.645081595145825 L 135.50000000000003,64.5 L 143.50000000000003,64.5 L 143.50000000000003,46.13472243102147 L 155.0,39.4951943353408 L 155.0,12.5 L 105.0,12.5 L 105.0,39.4951943353408 L 113.93030975783651,44.65111107797445 L 116.50000000000003,46.1347224310215 z" sodipodi:nodetypes="ccccc"/><path style="fill:none;stroke:#000000;stroke-width:0.264583px;stroke-linecap:butt;stroke-linejoin:miter;stroke-opacity:1" id="genPath_15_u2uV1nh3" d="M 143.49999999999997,220.5 L 135.49999999999997,220.5 L 135.49999999999997,245.35491840485417 L 145.0,250.83974596215563 L 145.0,262.5 L 114.99999999999999,262.5 L 114.99999999999999,250.8397459621556 L 124.49999999999997,245.35491840485417 L 124.49999999999997,220.5 L 116.49999999999997,220.5 L 116.49999999999997,238.8652775689785 L 104.99999999999999,245.50480566465922 L 104.99999999999999,272.5 L 155.0,272.5 L 155.0,245.50480566465922 L 146.06969024216346,240.34888892202554 L 143.49999999999997,238.8652775689785 z" sodipodi:nodetypes="ccccc"/><path style="fill:none;stroke:#000000;stroke-width:0.264583px;stroke-linecap:butt;stroke-linejoin:miter;stroke-opacity:1" id="genPath_16_u2uV1nh3" d="M 208.8760430703401,62.5 A 32.68802153516991,32.68802153516991 0 0 1 192.53203230275508,90.80865704891006 L 190.79998149518622,91.80865704891006 L 194.79998149518622,98.73686027918558 L 196.53203230275508,97.73686027918558 A 40.68802153516981,40.68802153516981 0 0 0 216.8760430703401,62.5 L 216.8760430703401,39.64508159514584 L 207.37604307034007,34.16025403784438 L 207.37604307034007,22.5 L 237.37604307034007,22.5 L 237.37604307034007,34.160254037844396 L 227.8760430703401,39.645081595145825 L 227.8760430703401,62.5 A 51.688021535170144,51.688021535170144 0 0 1 202.0320323027551,107.2631397208144 L 200.29998149518622,108.2631397208144 L 204.29998149518622,115.1913429510899 L 206.0320323027551,114.1913429510899 A 59.68802153517046,59.68802153517046 0 0 0 235.8760430703401,62.5 L 235.8760430703401,46.13472243102147 L 247.37604307034007,39.4951943353408 L 247.37604307034007,12.5 L 197.37604307034007,12.5 L 197.37604307034007,39.4951943353408 L 206.3063528281766,44.65111107797445 L 208.8760430703401,46.1347224310215 z" sodipodi:nodetypes="ccccc"/><path style="fill:none;stroke:#000000;stroke-width:0.264583px;stroke-linecap:butt;stroke-linejoin:miter;stroke-opacity:1" id="genPath_17_u2uV1nh3" d="M 51.12395692965988,222.5 A 32.68802153517031,32.68802153517031 0 0 1 67.4679676972449,194.19134295108992 L 69.20001850481378,193.19134295108992 L 65.2000185048138,186.26313972081442 L 63.467967697244916,187.26313972081442 A 40.68802153516974,40.68802153516974 0 0 0 43.12395692965988,222.5 L 43.12395692965988,245.35491840485415 L 52.6239569296599,250.8397459621556 L 52.6239569296599,262.5 L 22.623956929659897,262.5 L 22.623956929659897,250.83974596215558 L 32.12395692965988,245.35491840485417 L 32.12395692965988,222.5 A 51.6880215351706,51.6880215351706 0 0 1 57.9679676972449,177.7368602791856 L 59.700018504813784,176.7368602791856 L 55.700018504813784,169.80865704891008 L 53.9679676972449,170.80865704891008 A 59.688021535170435,59.688021535170435 0 0 0 24.123956929659883,222.5 L 24.123956929659883,238.8652775689785 L 12.623956929659897,245.5048056646592 L 12.623956929659897,272.5 L 62.6239569296599,272.5 L 62.6239569296599,245.5048056646592 L 53.693647171823386,240.34888892202554 L 51.12395692965988,238.86527756897848 z" sodipodi:nodetypes="ccccc"/><path style="fill:none;stroke:#000000;stroke-width:0.264583px;stroke-linecap:butt;stroke-linejoin:miter;stroke-opacity:1" id="genPath_18_u2uV1nh3" d="M 51.12395692965991,62.499999999999986 A 32.68802153516994,32.68802153516994 0 0 0 67.46796769724492,90.80865704891005 L 69.20001850481378,91.80865704891005 L 65.2000185048138,98.73686027918556 L 63.467967697244916,97.73686027918556 A 40.68802153517004,40.68802153517004 0 0 1 43.12395692965991,62.499999999999986 L 43.12395692965991,39.645081595145825 L 52.623956929659926,34.16025403784437 L 52.623956929659926,22.499999999999986 L 22.623956929659926,22.499999999999986 L 22.623956929659926,34.16025403784438 L 32.12395692965991,39.64508159514581 L 32.12395692965991,62.499999999999986 A 51.688021535170066,51.688021535170066 0 0 0 57.9679676972449,107.2631397208144 L 59.700018504813784,108.2631397208144 L 55.700018504813784,115.1913429510899 L 53.9679676972449,114.1913429510899 A 59.68802153517012,59.68802153517012 0 0 1 24.12395692965991,62.499999999999986 L 24.12395692965991,46.13472243102146 L 12.623956929659926,39.495194335340784 L 12.623956929659926,12.499999999999972 L 62.623956929659926,12.5 L 62.623956929659926,39.495194335340784 L 53.693647171823415,44.651111077974434 L 51.12395692965991,46.13472243102149 z" sodipodi:nodetypes="ccccc"/><path style="fill:none;stroke:#000000;stroke-width:0.264583px;stroke-linecap:butt;stroke-linejoin:miter;stroke-opacity:1" id="genPath_19_u2uV1nh3" d="M 208.87604307034007,222.50000000000003 A 32.68802153516985,32.68802153516985 0 0 0 192.53203230275508,194.19134295108995 L 190.79998149518622,193.19134295108995 L 194.79998149518622,186.26313972081445 L 196.53203230275508,187.26313972081445 A 40.68802153517083,40.68802153517083 0 0 1 216.87604307034007,222.50000000000003 L 216.87604307034007,245.35491840485417 L 207.37604307034007,250.83974596215563 L 207.37604307034007,262.5 L 237.37604307034007,262.5 L 237.37604307034007,250.83974596215563 L 227.87604307034007,245.3549184048542 L 227.87604307034007,222.50000000000003 A 51.6880215351703,51.6880215351703 0 0 0 202.0320323027551,177.73686027918563 L 200.29998149518622,176.73686027918563 L 204.29998149518622,169.8086570489101 L 206.0320323027551,170.8086570489101 A 59.68802153517052,59.68802153517052 0 0 1 235.87604307034007,222.50000000000003 L 235.87604307034007,238.86527756897857 L 247.37604307034007,245.50480566465922 L 247.37604307034007,272.50000000000006 L 197.37604307034007,272.5 L 197.37604307034007,245.50480566465922 L 206.30635282817656,240.3488889220256 L 208.87604307034007,238.8652775689785 z" sodipodi:nodetypes="ccccc"/></g>
</svg>