<?xml version="1.0" ?><!-- Created with Inkscape (http://www.inkscape.org/) --><svg xmlns:inkscape="http://www.inkscape.org/namespaces/inkscape" xmlns:sodipodi="http://sodipodi.sourceforge.net/DTD/sodipodi-0.dtd" xmlns="http://www.w3.org/2000/svg" xmlns:svg="http://www.w3.org/2000/svg" width="300mm" height="300mm" viewBox="0 0 300 300" version="1.1" id="svg5" inkscape:version="1.1.2 (0a00cf5339, 2022-02-04)" sodipodi:docname="Template.svg">
  <sodipodi:namedview id="namedview7" pagecolor="#ffffff" bordercolor="#999999" borderopacity="1" inkscape:pageshadow="0" inkscape:pageopacity="0" inkscape:pagecheckerboard="0" inkscape:document-units="mm" showgrid="true" width="300mm" inkscape:zoom="0.56315579" inkscape:cx="491.87099" inkscape:cy="557.57217" inkscape:window-width="1874" inkscape:window-height="1052" inkscape:window-x="46" inkscape:window-y="0" inkscape:window-maximized="1" inkscape:current-layer="layer1" height="300mm" inkscape:lockguides="false">
    <inkscape:grid type="xygrid" id="grid888"/>
  </sodipodi:namedview>
  <defs id="defs2"/>
  <g inkscape:label="Desc" inkscape:groupmode="layer" id="layer1" sodipodi:insensitive="true">
    <text xml:space="preserve" style="font-style:normal;font-weight:normal;font-size:10.5833px;line-height:1.25;font-family:sans-serif;fill:#000000;fill-opacity:1;stroke:none;stroke-width:0.264583" x="34.193851" y="10.854793" id="text3620"><tspan sodipodi:role="line" id="tspan3618" style="stroke-width:0.264583" x="34.193851" y="10.854793">3mm</tspan></text>
    <text xml:space="preserve" style="font-style:normal;font-weight:normal;font-size:10.5833px;line-height:1.25;font-family:sans-serif;fill:#000000;fill-opacity:1;stroke:none;stroke-width:0.264583" x="133.83728" y="10.854793" id="text3620-3"><tspan sodipodi:role="line" style="stroke-width:0.264583" x="133.83728" y="10.854793" id="tspan5941">10mm</tspan></text>
    <text xml:space="preserve" style="font-style:normal;font-weight:normal;font-size:10.5833px;line-height:1.25;font-family:sans-serif;fill:#000000;fill-opacity:1;stroke:none;stroke-width:0.264583" x="231.31548" y="11.040827" id="text3620-3-8"><tspan sodipodi:role="line" style="stroke-width:0.264583" x="231.31548" y="11.040827" id="tspan6654">Preview</tspan></text>
    <circle style="fill:#a3a3a3;fill-opacity:1;stroke:none;stroke-width:0.944882;stroke-linejoin:round;paint-order:markers fill stroke" id="path854" cx="290" cy="10" r="5"/>
  </g>
  <g inkscape:groupmode="layer" id="layer2" inkscape:label="3mm"><path style="fill:none;stroke:#000000;stroke-width:0.264583px;stroke-linecap:butt;stroke-linejoin:miter;stroke-opacity:1" id="genPath_4" d="M 36.72094380863861,143.0 L 43.650000000000006,143.0 L 43.650000000000006,138.0 L 56.35,138.0 L 56.35,143.0 L 63.2790561913614,143.0 L 66.7435842870421,136.99926131403117 L 62.4134572681199,134.49926131403117 L 68.7634572681199,123.50073868596881 L 73.09358428704209,126.00073868596881 L 76.55811238272278,120.0 L 63.2790561913614,97.0 L 36.72094380863861,97.0 L 23.441887617277214,120.0 L 26.90641571295791,126.00073868596881 L 31.236542731880103,123.50073868596881 L 37.5865427318801,134.49926131403117 L 33.2564157129579,136.99926131403117 L 36.720943808638594,143.0 z" sodipodi:nodetypes="ccccc"/><path style="fill:none;stroke:#000000;stroke-width:0.264583px;stroke-linecap:butt;stroke-linejoin:miter;stroke-opacity:1" id="genPath_5" d="M 236.72094380863862,73.0 L 243.65,73.0 L 243.65,68.0 L 256.35,68.0 L 256.35,73.0 L 263.2790561913614,73.0 L 266.7435842870421,66.99926131403119 L 262.4134572681199,64.49926131403119 L 268.7634572681199,53.50073868596881 L 273.09358428704206,56.00073868596881 L 276.5581123827228,50.0 L 263.2790561913614,27.0 L 236.72094380863862,26.999999999999996 L 223.44188761727722,50.0 L 226.9064157129579,56.000738685968805 L 231.2365427318801,53.50073868596881 L 237.5865427318801,64.49926131403117 L 233.2564157129579,66.99926131403117 L 236.7209438086386,73.0 z" sodipodi:nodetypes="ccccc"/><path style="fill:none;stroke:#000000;stroke-width:0.264583px;stroke-linecap:butt;stroke-linejoin:miter;stroke-opacity:1" id="genPath_8" d="M 78.86751345948129,50.0 L 64.43375672974065,25.0 L 35.56624327025936,24.999999999999996 L 21.13248654051871,50.0 L 35.56624327025934,75.0 L 64.43375672974065,75.0 L 78.86751345948129,50.00000000000001 z" sodipodi:nodetypes="ccccc"/><path style="fill:none;stroke:#000000;stroke-width:0.264583px;stroke-linecap:butt;stroke-linejoin:miter;stroke-opacity:1" id="genPath_9" d="M 278.8675134594813,50.0 L 264.43375672974065,25.0 L 235.56624327025935,24.999999999999996 L 221.1324865405187,50.0 L 235.56624327025935,75.0 L 264.43375672974065,75.0 L 278.8675134594813,50.00000000000001 z" sodipodi:nodetypes="ccccc"/><path style="fill:none;stroke:#000000;stroke-width:0.264583px;stroke-linecap:butt;stroke-linejoin:miter;stroke-opacity:1" id="genPath_10" d="M 50.0,45.0 L 48.530536869268815,47.97745751406263 L 45.24471741852423,48.454915028125264 L 47.622358709262116,50.772542485937365 L 47.06107373853764,54.045084971874736 L 50.0,52.5 L 52.93892626146236,54.045084971874736 L 52.377641290737884,50.77254248593737 L 54.75528258147577,48.454915028125264 L 51.469463130731185,47.977457514062635 z" sodipodi:nodetypes="ccccc"/><path style="fill:none;stroke:#000000;stroke-width:0.264583px;stroke-linecap:butt;stroke-linejoin:miter;stroke-opacity:1" id="genPath_11" d="M 250.0,45.0 L 248.53053686926881,47.97745751406263 L 245.24471741852423,48.454915028125264 L 247.62235870926213,50.772542485937365 L 247.06107373853763,54.045084971874736 L 250.0,52.5 L 252.93892626146237,54.045084971874736 L 252.37764129073787,50.77254248593737 L 254.75528258147577,48.454915028125264 L 251.46946313073119,47.977457514062635 z" sodipodi:nodetypes="ccccc"/><path style="fill:none;stroke:#000000;stroke-width:0.264583px;stroke-linecap:butt;stroke-linejoin:miter;stroke-opacity:1" id="genPath_34" d="M 252.0,25.0 L 252.0,36.143593539448986 A 14.000000000000085,14.000000000000085 0 0 1 250.0,64.0 A 13.999999999999876,13.999999999999876 0 0 1 248.0,36.143593539448986 L 248.0,25.0 L 242.5,25.0 L 242.5,29.317882120053564 A 22.00000000000003,22.00000000000003 0 0 0 250.0,72.0 A 22.000000000000032,22.000000000000032 0 0 0 257.5,29.317882120053568 L 257.5,25.0 z" sodipodi:nodetypes="ccccc"/><path style="fill:none;stroke:#000000;stroke-width:0.264583px;stroke-linecap:butt;stroke-linejoin:miter;stroke-opacity:1" id="genPath_35" d="M 52.00000000000001,165.0 L 52.00000000000001,176.14359353944897 A 14.000000000000085,14.000000000000085 0 0 1 50.0,204.0 A 14.000000000000064,14.000000000000064 0 0 1 48.00000000000001,176.14359353944897 L 48.00000000000001,165.0 L 42.50000000000001,165.0 L 42.50000000000001,169.31788212005355 A 21.999999999999943,21.999999999999943 0 0 0 50.0,212.0 A 22.00000000000005,22.00000000000005 0 0 0 57.50000000000001,169.31788212005358 L 57.50000000000001,165.0 z" sodipodi:nodetypes="ccccc"/><path style="fill:none;stroke:#000000;stroke-width:0.264583px;stroke-linecap:butt;stroke-linejoin:miter;stroke-opacity:1" id="genPath_36" d="M 255.5,25.0 L 255.5,37.125606810416265 A 13.99999999999982,13.99999999999982 0 0 0 244.5,37.125606810416265 L 244.5,25.0 z" sodipodi:nodetypes="ccccc"/><path style="fill:none;stroke:#000000;stroke-width:0.264583px;stroke-linecap:butt;stroke-linejoin:miter;stroke-opacity:1" id="genPath_37" d="M 55.50000000000001,185.0 L 55.50000000000001,197.12560681041626 A 13.99999999999979,13.99999999999979 0 0 0 44.50000000000001,197.12560681041626 L 44.50000000000001,185.0 z" sodipodi:nodetypes="ccccc"/></g>
  <g inkscape:groupmode="layer" id="layer3" inkscape:label="10mm"><path style="fill:none;stroke:#000000;stroke-width:0.264583px;stroke-linecap:butt;stroke-linejoin:miter;stroke-opacity:1" id="genPath_32" d="M 264.43375672974065,25.0 L 255.5,25.0 L 255.5,32.86086349899739 A 18.000000000000085,18.000000000000085 0 0 1 250.0,68.0 A 18.000000000000213,18.000000000000213 0 0 1 244.5,32.86086349899739 L 244.5,25.0 L 235.56624327025935,24.999999999999993 L 231.09936490538905,32.73686027918558 L 231.71090301106568,34.67764520938918 L 229.72436490538905,35.11843013959279 L 230.33590301106568,37.059215069796394 L 228.34936490538905,37.49999999999999 L 228.96090301106568,39.4407849302036 L 226.97436490538905,39.8815698604072 L 227.58590301106568,41.8223547906108 L 225.59936490538905,42.26313972081441 L 221.1324865405187,49.999999999999986 L 225.59936490538902,57.73686027918558 L 227.58590301106568,58.17764520938918 L 226.97436490538902,60.11843013959278 L 228.96090301106568,60.55921506979639 L 228.34936490538902,62.499999999999986 L 230.33590301106568,62.94078493020359 L 229.72436490538902,64.8815698604072 L 231.71090301106568,65.3223547906108 L 231.09936490538902,67.2631397208144 L 235.56624327025935,75.0 L 244.5,75.0 L 245.875,73.5 L 247.25,75.0 L 248.625,73.5 L 250.0,75.0 L 251.375,73.5 L 252.75,75.0 L 254.125,73.5 L 255.5,75.0 L 264.43375672974065,75.00000000000001 L 268.90063509461095,67.26313972081442 L 268.2890969889343,65.32235479061083 L 270.27563509461095,64.88156986040723 L 269.6640969889343,62.94078493020362 L 271.65063509461095,62.500000000000014 L 271.0390969889343,60.55921506979641 L 273.02563509461095,60.11843013959281 L 272.4140969889343,58.177645209389205 L 274.40063509461095,57.736860279185606 L 278.8675134594813,50.0 L 274.40063509461095,42.263139720814415 L 272.4140969889343,41.82235479061082 L 273.02563509461095,39.88156986040721 L 271.0390969889343,39.440784930203606 L 271.65063509461095,37.5 L 269.6640969889343,37.0592150697964 L 270.27563509461095,35.118430139592796 L 268.2890969889343,34.6776452093892 L 268.90063509461095,32.73686027918559 z" sodipodi:nodetypes="ccccc"/><path style="fill:none;stroke:#000000;stroke-width:0.264583px;stroke-linecap:butt;stroke-linejoin:miter;stroke-opacity:1" id="genPath_33" d="M 164.43375672974065,25.0 L 155.5,25.0 L 155.5,32.86086349899739 A 18.000000000000043,18.000000000000043 0 0 1 150.0,68.0 A 18.000000000000075,18.000000000000075 0 0 1 144.5,32.86086349899739 L 144.5,25.0 L 135.56624327025935,24.999999999999993 L 131.09936490538905,32.73686027918558 L 131.71090301106568,34.67764520938918 L 129.72436490538905,35.11843013959279 L 130.33590301106568,37.059215069796394 L 128.34936490538905,37.49999999999999 L 128.96090301106568,39.4407849302036 L 126.97436490538904,39.8815698604072 L 127.5859030110657,41.8223547906108 L 125.59936490538904,42.26313972081441 L 121.13248654051871,49.999999999999986 L 125.59936490538902,57.73686027918558 L 127.58590301106568,58.17764520938918 L 126.97436490538902,60.11843013959278 L 128.96090301106568,60.55921506979639 L 128.34936490538902,62.499999999999986 L 130.33590301106568,62.94078493020359 L 129.72436490538902,64.8815698604072 L 131.71090301106568,65.3223547906108 L 131.09936490538902,67.2631397208144 L 135.56624327025935,75.0 L 144.5,75.0 L 145.875,73.5 L 147.25,75.0 L 148.625,73.5 L 150.0,75.0 L 151.375,73.5 L 152.75,75.0 L 154.125,73.5 L 155.5,75.0 L 164.43375672974062,75.00000000000001 L 168.90063509461095,67.26313972081442 L 168.2890969889343,65.32235479061083 L 170.27563509461095,64.88156986040723 L 169.6640969889343,62.94078493020362 L 171.65063509461095,62.500000000000014 L 171.0390969889343,60.55921506979641 L 173.02563509461095,60.11843013959281 L 172.4140969889343,58.177645209389205 L 174.40063509461095,57.736860279185606 L 178.8675134594813,50.0 L 174.40063509461098,42.263139720814415 L 172.41409698893432,41.82235479061082 L 173.02563509461098,39.88156986040721 L 171.03909698893432,39.440784930203606 L 171.65063509461098,37.5 L 169.66409698893432,37.0592150697964 L 170.27563509461098,35.118430139592796 L 168.28909698893432,34.6776452093892 L 168.90063509461098,32.73686027918559 z" sodipodi:nodetypes="ccccc"/></g>
</svg>