<?xml version="1.0" ?><!-- Created with Inkscape (http://www.inkscape.org/) --><svg xmlns:inkscape="http://www.inkscape.org/namespaces/inkscape" xmlns:sodipodi="http://sodipodi.sourceforge.net/DTD/sodipodi-0.dtd" xmlns="http://www.w3.org/2000/svg" xmlns:svg="http://www.w3.org/2000/svg" width="300mm" height="300mm" viewBox="0 0 300 300" version="1.1" id="svg5" inkscape:version="1.1.2 (0a00cf5339, 2022-02-04)" sodipodi:docname="Template.svg">
  <sodipodi:namedview id="namedview7" pagecolor="#ffffff" bordercolor="#999999" borderopacity="1" inkscape:pageshadow="0" inkscape:pageopacity="0" inkscape:pagecheckerboard="0" inkscape:document-units="mm" showgrid="true" width="300mm" inkscape:zoom="0.56315579" inkscape:cx="491.87099" inkscape:cy="557.57217" inkscape:window-width="1874" inkscape:window-height="1052" inkscape:window-x="46" inkscape:window-y="0" inkscape:window-maximized="1" inkscape:current-layer="layer1" height="300mm" inkscape:lockguides="false">
    <inkscape:grid type="xygrid" id="grid888"/>
  </sodipodi:namedview>
  <defs id="defs2"/>
  <g inkscape:label="Desc" inkscape:groupmode="layer" id="layer1" sodipodi:insensitive="true">
    <text xml:space="preserve" style="font-style:normal;font-weight:normal;font-size:10.5833px;line-height:1.25;font-family:sans-serif;fill:#000000;fill-opacity:1;stroke:none;stroke-width:0.264583" x="34.193851" y="10.854793" id="text3620"><tspan sodipodi:role="line" id="tspan3618" style="stroke-width:0.264583" x="34.193851" y="10.854793">3mm</tspan></text>
    <text xml:space="preserve" style="font-style:normal;font-weight:normal;font-size:10.5833px;line-height:1.25;font-family:sans-serif;fill:#000000;fill-opacity:1;stroke:none;stroke-width:0.264583" x="133.83728" y="10.854793" id="text3620-3"><tspan sodipodi:role="line" style="stroke-width:0.264583" x="133.83728" y="10.854793" id="tspan5941">10mm</tspan></text>
    <text xml:space="preserve" style="font-style:normal;font-weight:normal;font-size:10.5833px;line-height:1.25;font-family:sans-serif;fill:#000000;fill-opacity:1;stroke:none;stroke-width:0.264583" x="231.31548" y="11.040827" id="text3620-3-8"><tspan sodipodi:role="line" style="stroke-width:0.264583" x="231.31548" y="11.040827" id="tspan6654">Preview</tspan></text>
    <circle style="fill:#a3a3a3;fill-opacity:1;stroke:none;stroke-width:0.944882;stroke-linejoin:round;paint-order:markers fill stroke" id="path854" cx="290" cy="10" r="5"/>
  </g>
  <g inkscape:groupmode="layer" id="layer2" inkscape:label="3mm"><path style="fill:none;stroke:#000000;stroke-width:0.264583px;stroke-linecap:butt;stroke-linejoin:miter;stroke-opacity:1" id="genPath_5" d="M 78.86751345948129,50.0 L 64.43375672974065,25.0 L 35.56624327025936,24.999999999999996 L 21.13248654051871,50.0 L 35.56624327025934,75.0 L 64.43375672974065,75.0 L 78.86751345948129,50.00000000000001 z" sodipodi:nodetypes="ccccc"/><path style="fill:none;stroke:#000000;stroke-width:0.264583px;stroke-linecap:butt;stroke-linejoin:miter;stroke-opacity:1" id="genPath_6" d="M 278.8675134594813,50.0 L 264.43375672974065,25.0 L 235.56624327025935,24.999999999999996 L 221.1324865405187,50.0 L 235.56624327025935,75.0 L 264.43375672974065,75.0 L 278.8675134594813,50.00000000000001 z" sodipodi:nodetypes="ccccc"/><path style="fill:none;stroke:#000000;stroke-width:0.264583px;stroke-linecap:butt;stroke-linejoin:miter;stroke-opacity:1" id="genPath_7" d="M 36.72094380863861,143.0 L 43.650000000000006,143.0 L 43.650000000000006,138.0 L 56.35,138.0 L 56.35,143.0 L 63.2790561913614,143.0 L 66.7435842870421,136.99926131403117 L 62.4134572681199,134.49926131403117 L 68.7634572681199,123.50073868596881 L 73.09358428704209,126.00073868596881 L 76.55811238272278,120.0 L 73.09358428704209,113.99926131403119 L 68.7634572681199,116.49926131403119 L 62.4134572681199,105.50073868596881 L 66.7435842870421,103.00073868596881 L 63.2790561913614,97.0 L 56.35,97.0 L 56.35,102.0 L 43.650000000000006,102.0 L 43.650000000000006,97.0 L 36.72094380863861,97.0 L 33.25641571295792,103.00073868596881 L 37.58654273188011,105.50073868596881 L 31.236542731880107,116.49926131403119 L 26.906415712957912,113.99926131403119 L 23.441887617277214,120.0 L 26.90641571295791,126.00073868596881 L 31.236542731880103,123.50073868596881 L 37.5865427318801,134.49926131403117 L 33.2564157129579,136.99926131403117 L 36.720943808638594,143.0 z" sodipodi:nodetypes="ccccc"/><path style="fill:none;stroke:#000000;stroke-width:0.264583px;stroke-linecap:butt;stroke-linejoin:miter;stroke-opacity:1" id="genPath_8" d="M 236.72094380863862,73.0 L 243.65,73.0 L 243.65,68.0 L 256.35,68.0 L 256.35,73.0 L 263.2790561913614,73.0 L 266.7435842870421,66.99926131403119 L 262.4134572681199,64.49926131403119 L 268.7634572681199,53.50073868596881 L 273.09358428704206,56.00073868596881 L 276.5581123827228,50.0 L 273.09358428704206,43.99926131403119 L 268.7634572681199,46.49926131403119 L 262.4134572681199,35.50073868596881 L 266.7435842870421,33.00073868596881 L 263.2790561913614,27.0 L 256.35,27.0 L 256.35,32.0 L 243.65,32.0 L 243.65,27.0 L 236.72094380863862,26.999999999999996 L 233.2564157129579,33.00073868596881 L 237.58654273188012,35.50073868596881 L 231.2365427318801,46.49926131403118 L 226.9064157129579,43.99926131403118 L 223.44188761727722,50.0 L 226.9064157129579,56.000738685968805 L 231.2365427318801,53.50073868596881 L 237.5865427318801,64.49926131403117 L 233.2564157129579,66.99926131403117 L 236.7209438086386,73.0 z" sodipodi:nodetypes="ccccc"/><path style="fill:none;stroke:#000000;stroke-width:0.264583px;stroke-linecap:butt;stroke-linejoin:miter;stroke-opacity:1" id="genPath_9" d="M 50.0,88.4 L 51.6,90.0 L 54.06862915010152,90.0 A 0.8000000000002245,0.8000000000002245 0 0 0 54.634314575050766,88.63431457505077 L 52.12943683403878,86.12943683403878 L 54.20705523608201,85.57274066103126 A 0.8000000000001548,0.8000000000001548 0 0 0 54.338094609392556,84.07495377037068 L 51.6,82.79815928525801 L 51.6,82.398159285258 A 1.6000000000000583,1.6000000000000583 0 0 0 48.4,82.398159285258 L 48.4,82.79815928525801 L 45.66190539060744,84.07495377037068 A 0.8000000000009755,0.8000000000009755 0 0 0 45.79294476391798,85.57274066103126 L 47.870563165961215,86.12943683403878 L 45.365685424949234,88.63431457505077 A 0.8000000000009777,0.8000000000009777 0 0 0 45.93137084989848,90.0 L 48.4,90.0 z" sodipodi:nodetypes="ccccc"/><path style="fill:none;stroke:#000000;stroke-width:0.264583px;stroke-linecap:butt;stroke-linejoin:miter;stroke-opacity:1" id="genPath_21" d="M 270.2,41.6143593539449 L 272.3856406460551,42.2 L 274.5235362025658,40.965685424949235 A 0.7999999999917158,0.7999999999917158 0 0 0 274.33059143864784,39.50012444089043 L 270.9088648110513,38.58327555430587 L 272.429787040087,37.06235332527016 A 0.8000000000012535,0.8000000000012535 0 0 0 271.79437702093963,35.69971214184752 L 268.7847202886841,35.96302298702436 L 268.5847202886841,35.61661282551058 A 1.5999999999997392,1.5999999999997392 0 0 0 265.8134389965739,37.21661282551058 L 266.0134389965739,37.563022987024354 L 264.2805767494311,40.03780675124008 A 0.800000000004282,0.800000000004282 0 0 0 265.14295362094424,41.26940856135217 L 267.2205720229875,40.71271238834465 L 266.30372313640294,44.1344390159412 A 0.8000000000088334,0.8000000000088334 0 0 0 267.4764637974342,45.034314575050765 L 269.6143593539449,43.8 z" sodipodi:nodetypes="ccccc"/></g>
  <g inkscape:groupmode="layer" id="layer3" inkscape:label="10mm"><path style="fill:none;stroke:#000000;stroke-width:0.264583px;stroke-linecap:butt;stroke-linejoin:miter;stroke-opacity:1" id="genPath_17" d="M 178.8675134594813,50.0 L 164.43375672974065,25.0 L 135.56624327025935,24.999999999999996 L 121.13248654051871,50.0 L 135.56624327025935,75.0 L 164.43375672974065,75.0 L 178.8675134594813,50.00000000000001 z" sodipodi:nodetypes="ccccc"/><path style="fill:none;stroke:#000000;stroke-width:0.264583px;stroke-linecap:butt;stroke-linejoin:miter;stroke-opacity:1" id="genPath_18" d="M 278.8675134594813,50.0 L 264.43375672974065,25.0 L 235.56624327025935,24.999999999999996 L 221.1324865405187,50.0 L 235.56624327025935,75.0 L 264.43375672974065,75.0 L 278.8675134594813,50.00000000000001 z" sodipodi:nodetypes="ccccc"/><path style="fill:none;stroke:#000000;stroke-width:0.264583px;stroke-linecap:butt;stroke-linejoin:miter;stroke-opacity:1" id="genPath_19" d="M 173.09401076758502,50.0 L 161.5470053837925,30.0 L 138.4529946162075,29.999999999999996 L 126.90598923241497,50.0 L 138.45299461620746,70.0 L 161.5470053837925,70.0 z" sodipodi:nodetypes="ccccc"/><path style="fill:none;stroke:#000000;stroke-width:0.264583px;stroke-linecap:butt;stroke-linejoin:miter;stroke-opacity:1" id="genPath_20" d="M 273.094010767585,50.0 L 261.5470053837925,30.0 L 238.4529946162075,29.999999999999996 L 226.90598923241498,50.0 L 238.45299461620746,70.0 L 261.5470053837925,70.0 z" sodipodi:nodetypes="ccccc"/></g>
</svg>