<?xml version="1.0" ?><!-- Created with Inkscape (http://www.inkscape.org/) --><svg xmlns:inkscape="http://www.inkscape.org/namespaces/inkscape" xmlns:sodipodi="http://sodipodi.sourceforge.net/DTD/sodipodi-0.dtd" xmlns="http://www.w3.org/2000/svg" xmlns:svg="http://www.w3.org/2000/svg" width="300mm" height="300mm" viewBox="0 0 300 300" version="1.1" id="svg5" inkscape:version="1.1.2 (0a00cf5339, 2022-02-04)" sodipodi:docname="Template.svg">
  <sodipodi:namedview id="namedview7" pagecolor="#ffffff" bordercolor="#999999" borderopacity="1" inkscape:pageshadow="0" inkscape:pageopacity="0" inkscape:pagecheckerboard="0" inkscape:document-units="mm" showgrid="true" width="300mm" inkscape:zoom="0.56315579" inkscape:cx="491.87099" inkscape:cy="557.57217" inkscape:window-width="1874" inkscape:window-height="1052" inkscape:window-x="46" inkscape:window-y="0" inkscape:window-maximized="1" inkscape:current-layer="layer1" height="300mm" inkscape:lockguides="false">
    <inkscape:grid type="xygrid" id="grid888"/>
  </sodipodi:namedview>
  <defs id="defs2"/>
  <g inkscape:label="Desc" inkscape:groupmode="layer" id="layer1" sodipodi:insensitive="true">
    <text xml:space="preserve" style="font-style:normal;font-weight:normal;font-size:10.5833px;line-height:1.25;font-family:sans-serif;fill:#000000;fill-opacity:1;stroke:none;stroke-width:0.264583" x="34.193851" y="10.854793" id="text3620"><tspan sodipodi:role="line" id="tspan3618" style="stroke-width:0.264583" x="34.193851" y="10.854793">3mm</tspan></text>
    <text xml:space="preserve" style="font-style:normal;font-weight:normal;font-size:10.5833px;line-height:1.25;font-family:sans-serif;fill:#000000;fill-opacity:1;stroke:none;stroke-width:0.264583" x="133.83728" y="10.854793" id="text3620-3"><tspan sodipodi:role="line" style="stroke-width:0.264583" x="133.83728" y="10.854793" id="tspan5941">10mm</tspan></text>
    <text xml:space="preserve" style="font-style:normal;font-weight:normal;font-size:10.5833px;line-height:1.25;font-family:sans-serif;fill:#000000;fill-opacity:1;stroke:none;stroke-width:0.264583" x="231.31548" y="11.040827" id="text3620-3-8"><tspan sodipodi:role="line" style="stroke-width:0.264583" x="231.31548" y="11.040827" id="tspan6654">Preview</tspan></text>
    <circle style="fill:#a3a3a3;fill-opacity:1;stroke:none;stroke-width:0.944882;stroke-linejoin:round;paint-order:markers fill stroke" id="path854" cx="290" cy="10" r="5"/>
  </g>
  <g inkscape:groupmode="layer" id="layer2" inkscape:label="3mm"><path style="fill:none;stroke:#000000;stroke-width:0.264583px;stroke-linecap:butt;stroke-linejoin:miter;stroke-opacity:1" id="genPath_6" d="M 36.72094380863861,143.0 L 43.650000000000006,143.0 L 43.650000000000006,138.0 L 56.35,138.0 L 56.35,143.0 L 63.2790561913614,143.0 L 66.7435842870421,136.99926131403117 L 62.4134572681199,134.49926131403117 L 68.7634572681199,123.50073868596881 L 73.09358428704209,126.00073868596881 L 76.55811238272278,120.0 L 63.2790561913614,97.0 L 36.72094380863861,97.0 L 23.441887617277214,120.0 L 26.90641571295791,126.00073868596881 L 31.236542731880103,123.50073868596881 L 37.5865427318801,134.49926131403117 L 33.2564157129579,136.99926131403117 L 36.720943808638594,143.0 z" sodipodi:nodetypes="ccccc"/><path style="fill:none;stroke:#000000;stroke-width:0.264583px;stroke-linecap:butt;stroke-linejoin:miter;stroke-opacity:1" id="genPath_7" d="M 236.72094380863862,73.0 L 243.65,73.0 L 243.65,68.0 L 256.35,68.0 L 256.35,73.0 L 263.2790561913614,73.0 L 266.7435842870421,66.99926131403119 L 262.4134572681199,64.49926131403119 L 268.7634572681199,53.50073868596881 L 273.09358428704206,56.00073868596881 L 276.5581123827228,50.0 L 263.2790561913614,27.0 L 236.72094380863862,26.999999999999996 L 223.44188761727722,50.0 L 226.9064157129579,56.000738685968805 L 231.2365427318801,53.50073868596881 L 237.5865427318801,64.49926131403117 L 233.2564157129579,66.99926131403117 L 236.7209438086386,73.0 z" sodipodi:nodetypes="ccccc"/><path style="fill:none;stroke:#000000;stroke-width:0.264583px;stroke-linecap:butt;stroke-linejoin:miter;stroke-opacity:1" id="genPath_65" d="M 78.86751345948129,50.0 L 64.43375672974065,25.0 L 35.56624327025936,24.999999999999996 L 21.13248654051871,50.0 L 35.56624327025934,75.0 L 64.43375672974065,75.0 L 78.86751345948129,50.00000000000001 z" sodipodi:nodetypes="ccccc"/><path style="fill:none;stroke:#000000;stroke-width:0.264583px;stroke-linecap:butt;stroke-linejoin:miter;stroke-opacity:1" id="genPath_66" d="M 278.8675134594813,50.0 L 264.43375672974065,25.0 L 235.56624327025935,24.999999999999996 L 221.1324865405187,50.0 L 235.56624327025935,75.0 L 264.43375672974065,75.0 L 278.8675134594813,50.00000000000001 z" sodipodi:nodetypes="ccccc"/><path style="fill:none;stroke:#000000;stroke-width:0.264583px;stroke-linecap:butt;stroke-linejoin:miter;stroke-opacity:1" id="genPath_67" d="M 40.42142852531189,51.52965871243687 L 47.60593897490378,66.93689109205992 " sodipodi:nodetypes="ccccc"/><path style="fill:none;stroke:#000000;stroke-width:0.264583px;stroke-linecap:butt;stroke-linejoin:miter;stroke-opacity:1" id="genPath_68" d="M 240.42142852531188,51.52965871243687 L 247.60593897490378,66.93689109205992 " sodipodi:nodetypes="ccccc"/><path style="fill:none;stroke:#000000;stroke-width:0.264583px;stroke-linecap:butt;stroke-linejoin:miter;stroke-opacity:1" id="genPath_69" d="M 44.887015613793835,65.66903630683782 L 47.60593897490378,66.93689109205992 L 48.382396110211346,64.03911361319271 " sodipodi:nodetypes="ccccc"/><path style="fill:none;stroke:#000000;stroke-width:0.264583px;stroke-linecap:butt;stroke-linejoin:miter;stroke-opacity:1" id="genPath_70" d="M 244.88701561379384,65.66903630683782 L 247.60593897490378,66.93689109205992 L 248.38239611021135,64.03911361319271 " sodipodi:nodetypes="ccccc"/><path style="fill:none;stroke:#000000;stroke-width:0.264583px;stroke-linecap:butt;stroke-linejoin:miter;stroke-opacity:1" id="genPath_75" d="M 239.0,27.0 L 237.53053686926881,29.977457514062632 L 234.24471741852423,30.454915028125264 L 236.62235870926213,32.772542485937365 L 236.06107373853763,36.045084971874736 L 239.0,34.5 L 241.93892626146237,36.045084971874736 L 241.37764129073787,32.77254248593737 L 243.75528258147577,30.454915028125264 L 240.46946313073119,29.977457514062632 z" sodipodi:nodetypes="ccccc"/><path style="fill:none;stroke:#000000;stroke-width:0.264583px;stroke-linecap:butt;stroke-linejoin:miter;stroke-opacity:1" id="genPath_76" d="M 50.0,80.0 L 48.530536869268815,82.97745751406264 L 45.24471741852423,83.45491502812526 L 47.622358709262116,85.77254248593736 L 47.06107373853764,89.04508497187473 L 50.0,87.5 L 52.93892626146236,89.04508497187474 L 52.377641290737884,85.77254248593736 L 54.75528258147577,83.45491502812527 L 51.469463130731185,82.97745751406264 z" sodipodi:nodetypes="ccccc"/><path style="fill:none;stroke:#000000;stroke-width:0.264583px;stroke-linecap:butt;stroke-linejoin:miter;stroke-opacity:1" id="genPath_77" d="M 34.0,155.0 L 36.5,155.0 A 3.552272727272827,3.552272727272827 0 0 1 42.5,155.0 L 45.0,155.0 L 45.0,170.0 L 48.0,164.9 L 48.0,154.0 A 9.724999999999998,9.724999999999998 0 0 0 31.0,154.0 L 31.0,164.9 L 34.0,170.0 z" sodipodi:nodetypes="ccccc"/><path style="fill:none;stroke:#000000;stroke-width:0.264583px;stroke-linecap:butt;stroke-linejoin:miter;stroke-opacity:1" id="genPath_78" d="M 232.05578960268474,46.60359685571752 L 234.32155907027635,45.547051201365775 A 3.552272727272166,3.552272727272166 0 0 1 239.75940579249624,43.01134163092158 L 242.02517526008788,41.95479597656983 L 248.36444918619836,55.549412782119575 L 248.92801941243076,49.659388283010564 L 244.32148035945713,39.780633404311075 A 9.72500000000025,9.72500000000025 0 0 0 228.91424797983407,46.96514385390297 L 233.5207870328077,56.843898732602455 L 238.39506352879522,60.198213661267275 z" sodipodi:nodetypes="ccccc"/><path style="fill:none;stroke:#000000;stroke-width:0.264583px;stroke-linecap:butt;stroke-linejoin:miter;stroke-opacity:1" id="genPath_79" d="M 55.0,160.0 L 55.0,150.0 L 76.0,160.0 z" sodipodi:nodetypes="ccccc"/><path style="fill:none;stroke:#000000;stroke-width:0.264583px;stroke-linecap:butt;stroke-linejoin:miter;stroke-opacity:1" id="genPath_80" d="M 55.0,163.0 L 55.0,173.0 L 76.0,163.0 z" sodipodi:nodetypes="ccccc"/></g>
  <g inkscape:groupmode="layer" id="layer3" inkscape:label="10mm"><path style="fill:none;stroke:#000000;stroke-width:0.264583px;stroke-linecap:butt;stroke-linejoin:miter;stroke-opacity:1" id="genPath_71" d="M 244.5,75.0 L 244.5,73.29029217303713 L 232.0557896026847,46.60359685571752 L 234.32155907027635,45.547051201365775 A 3.552272727272166,3.552272727272166 0 0 1 239.75940579249624,43.01134163092158 L 242.02517526008788,41.95479597656983 L 251.32277701838325,61.89356729137613 A 4.999999999985249,4.999999999985249 0 0 0 253.45489483662803,57.79780706993117 L 251.95489483662803,56.23824565594494 L 253.45489483662803,54.6786842419587 L 251.95489483662803,53.11912282797247 L 253.45489483662803,51.55956141398623 L 251.95489483662803,49.99999999999999 L 253.45489483662803,48.44043858601376 L 251.95489483662803,46.880877172027525 L 253.45489483662803,45.321315758041294 L 251.95489483662803,43.761754344055056 L 253.45489483662803,42.20219293006882 A 4.999999999998786,4.999999999998786 0 0 0 251.32277701838325,38.10643270862386 A 16.000000000000853,16.000000000000853 0 0 1 244.5,25.0 L 235.56624327025935,24.999999999999996 L 221.1324865405187,50.0 L 235.56624327025935,75.0 z" sodipodi:nodetypes="ccccc"/><path style="fill:none;stroke:#000000;stroke-width:0.264583px;stroke-linecap:butt;stroke-linejoin:miter;stroke-opacity:1" id="genPath_72" d="M 144.5,75.0 L 144.5,73.29029217303713 L 132.0557896026847,46.60359685571752 L 134.32155907027635,45.547051201365775 A 3.5522727272729617,3.5522727272729617 0 0 1 139.75940579249624,43.01134163092158 L 142.02517526008788,41.95479597656983 L 151.32277701838325,61.89356729137613 A 5.000000000001364,5.000000000001364 0 0 0 153.45489483662803,57.79780706993117 L 151.95489483662803,56.23824565594494 L 153.45489483662803,54.6786842419587 L 151.95489483662803,53.11912282797247 L 153.45489483662803,51.55956141398623 L 151.95489483662803,49.99999999999999 L 153.45489483662803,48.44043858601376 L 151.95489483662803,46.880877172027525 L 153.45489483662803,45.321315758041294 L 151.95489483662803,43.761754344055056 L 153.45489483662803,42.20219293006882 A 5.0000000000043405,5.0000000000043405 0 0 0 151.32277701838325,38.10643270862386 A 16.000000000000597,16.000000000000597 0 0 1 144.5,25.0 L 135.56624327025935,24.999999999999996 L 121.13248654051871,50.0 L 135.56624327025935,75.0 z" sodipodi:nodetypes="ccccc"/><path style="fill:none;stroke:#000000;stroke-width:0.264583px;stroke-linecap:butt;stroke-linejoin:miter;stroke-opacity:1" id="genPath_73" d="M 255.5,25.0 A 5.000000000006283,5.000000000006283 0 0 0 257.63211781824475,29.09576022144496 A 15.99999999999224,15.99999999999224 0 0 1 264.45489483662806,42.202192930068826 L 265.95489483662806,43.761754344055056 L 264.45489483662806,45.321315758041294 L 265.95489483662806,46.880877172027525 L 264.454894836628,48.44043858601376 L 265.954894836628,50.0 L 264.454894836628,51.55956141398623 L 265.954894836628,53.11912282797247 L 264.454894836628,54.6786842419587 L 265.954894836628,56.23824565594494 L 264.454894836628,57.79780706993117 A 16.00000000000395,16.00000000000395 0 0 1 257.63211781824475,70.90423977855504 A 4.999999999990621,4.999999999990621 0 0 0 255.5,75.0 L 264.43375672974065,75.0 L 278.8675134594813,50.0 L 264.43375672974065,25.0 z" sodipodi:nodetypes="ccccc"/><path style="fill:none;stroke:#000000;stroke-width:0.264583px;stroke-linecap:butt;stroke-linejoin:miter;stroke-opacity:1" id="genPath_74" d="M 155.5,25.0 A 5.000000000003059,5.000000000003059 0 0 0 157.63211781824478,29.09576022144496 A 15.99999999999929,15.99999999999929 0 0 1 164.45489483662803,42.202192930068826 L 165.95489483662803,43.761754344055056 L 164.45489483662803,45.321315758041294 L 165.95489483662803,46.880877172027525 L 164.45489483662803,48.44043858601376 L 165.95489483662803,50.0 L 164.45489483662803,51.55956141398623 L 165.95489483662803,53.11912282797247 L 164.45489483662803,54.6786842419587 L 165.95489483662803,56.23824565594494 L 164.45489483662803,57.79780706993117 A 15.999999999999588,15.999999999999588 0 0 1 157.63211781824475,70.90423977855504 A 5.000000000001876,5.000000000001876 0 0 0 155.5,75.0 L 164.43375672974065,75.0 L 178.8675134594813,50.0 L 164.43375672974065,25.0 z" sodipodi:nodetypes="ccccc"/></g>
</svg>