<?xml version="1.0" ?><!-- Created with Inkscape (http://www.inkscape.org/) --><svg xmlns:inkscape="http://www.inkscape.org/namespaces/inkscape" xmlns:sodipodi="http://sodipodi.sourceforge.net/DTD/sodipodi-0.dtd" xmlns="http://www.w3.org/2000/svg" xmlns:svg="http://www.w3.org/2000/svg" width="300mm" height="300mm" viewBox="0 0 300 300" version="1.1" id="svg5" inkscape:version="1.1.2 (0a00cf5339, 2022-02-04)" sodipodi:docname="Template.svg">
  <sodipodi:namedview id="namedview7" pagecolor="#ffffff" bordercolor="#999999" borderopacity="1" inkscape:pageshadow="0" inkscape:pageopacity="0" inkscape:pagecheckerboard="0" inkscape:document-units="mm" showgrid="true" width="300mm" inkscape:zoom="0.56315579" inkscape:cx="491.87099" inkscape:cy="557.57217" inkscape:window-width="1874" inkscape:window-height="1052" inkscape:window-x="46" inkscape:window-y="0" inkscape:window-maximized="1" inkscape:current-layer="layer1" height="300mm" inkscape:lockguides="false">
    <inkscape:grid type="xygrid" id="grid888"/>
  </sodipodi:namedview>
  <defs id="defs2"/>
  <g inkscape:label="Desc" inkscape:groupmode="layer" id="layer1" sodipodi:insensitive="true">
    <text xml:space="preserve" style="font-style:normal;font-weight:normal;font-size:10.5833px;line-height:1.25;font-family:sans-serif;fill:#000000;fill-opacity:1;stroke:none;stroke-width:0.264583" x="34.193851" y="10.854793" id="text3620"><tspan sodipodi:role="line" id="tspan3618" style="stroke-width:0.264583" x="34.193851" y="10.854793">3mm</tspan></text>
    <text xml:space="preserve" style="font-style:normal;font-weight:normal;font-size:10.5833px;line-height:1.25;font-family:sans-serif;fill:#000000;fill-opacity:1;stroke:none;stroke-width:0.264583" x="133.83728" y="10.854793" id="text3620-3"><tspan sodipodi:role="line" style="stroke-width:0.264583" x="133.83728" y="10.854793" id="tspan5941">6mm</tspan></text>
    <text xml:space="preserve" style="font-style:normal;font-weight:normal;font-size:10.5833px;line-height:1.25;font-family:sans-serif;fill:#000000;fill-opacity:1;stroke:none;stroke-width:0.264583" x="231.31548" y="11.040827" id="text3620-3-8"><tspan sodipodi:role="line" style="stroke-width:0.264583" x="231.31548" y="11.040827" id="tspan6654">Preview</tspan></text>
    <circle style="fill:#a3a3a3;fill-opacity:1;stroke:none;stroke-width:0.944882;stroke-linejoin:round;paint-order:markers fill stroke" id="path854" cx="290" cy="10" r="5"/>
  </g>
  <g inkscape:groupmode="layer" id="layer2" inkscape:label="3mm"><path style="fill:none;stroke:#000000;stroke-width:0.264583px;stroke-linecap:butt;stroke-linejoin:miter;stroke-opacity:1" id="genPath_38" d="M 78.86751345948129,50.0 L 64.43375672974065,25.0 L 35.56624327025936,24.999999999999996 L 21.13248654051871,50.0 L 35.56624327025934,75.0 L 64.43375672974065,75.0 L 78.86751345948129,50.00000000000001 z" sodipodi:nodetypes="ccccc"/><path style="fill:none;stroke:#000000;stroke-width:0.264583px;stroke-linecap:butt;stroke-linejoin:miter;stroke-opacity:1" id="genPath_39" d="M 78.86751345948129,110.0 L 64.43375672974065,85.0 L 35.56624327025936,85.0 L 21.13248654051871,110.0 L 35.56624327025934,135.0 L 64.43375672974065,135.0 L 78.86751345948129,110.0 z" sodipodi:nodetypes="ccccc"/><path style="fill:none;stroke:#000000;stroke-width:0.264583px;stroke-linecap:butt;stroke-linejoin:miter;stroke-opacity:1" id="genPath_40" d="M 278.8675134594813,50.0 L 264.43375672974065,25.0 L 235.56624327025935,24.999999999999996 L 221.1324865405187,50.0 L 235.56624327025935,75.0 L 264.43375672974065,75.0 L 278.8675134594813,50.00000000000001 z" sodipodi:nodetypes="ccccc"/><path style="fill:none;stroke:#000000;stroke-width:0.264583px;stroke-linecap:butt;stroke-linejoin:miter;stroke-opacity:1" id="genPath_41" d="M 278.8675134594813,110.0 L 264.43375672974065,85.0 L 235.56624327025935,85.0 L 221.1324865405187,110.0 L 235.56624327025935,135.0 L 264.43375672974065,135.0 L 278.8675134594813,110.0 z" sodipodi:nodetypes="ccccc"/><path style="fill:none;stroke:#000000;stroke-width:0.264583px;stroke-linecap:butt;stroke-linejoin:miter;stroke-opacity:1" id="genPath_42" d="M 36.72094380863861,193.0 L 43.650000000000006,193.0 L 43.650000000000006,188.0 L 56.35,188.0 L 56.35,193.0 L 63.2790561913614,193.0 L 76.55811238272278,170.0 L 63.2790561913614,147.0 L 56.35,147.0 L 56.35,152.0 L 43.650000000000006,152.0 L 43.650000000000006,147.0 L 36.72094380863861,147.0 L 23.441887617277214,170.0 L 36.720943808638594,193.0 z" sodipodi:nodetypes="ccccc"/><path style="fill:none;stroke:#000000;stroke-width:0.264583px;stroke-linecap:butt;stroke-linejoin:miter;stroke-opacity:1" id="genPath_43" d="M 36.72094380863861,253.0 L 43.650000000000006,253.0 L 43.650000000000006,248.0 L 56.35,248.0 L 56.35,253.0 L 63.2790561913614,253.0 L 76.55811238272278,230.0 L 63.2790561913614,207.0 L 56.35,207.0 L 56.35,212.0 L 43.650000000000006,212.0 L 43.650000000000006,207.0 L 36.72094380863861,207.0 L 23.441887617277214,230.0 L 36.720943808638594,253.0 z" sodipodi:nodetypes="ccccc"/><path style="fill:none;stroke:#000000;stroke-width:0.264583px;stroke-linecap:butt;stroke-linejoin:miter;stroke-opacity:1" id="genPath_44" d="M 236.72094380863862,73.0 L 243.65,73.0 L 243.65,68.0 L 256.35,68.0 L 256.35,73.0 L 263.2790561913614,73.0 L 276.5581123827228,50.0 L 263.2790561913614,27.0 L 256.35,27.0 L 256.35,32.0 L 243.65,32.0 L 243.65,27.0 L 236.72094380863862,26.999999999999996 L 223.44188761727722,50.0 L 236.7209438086386,73.0 z" sodipodi:nodetypes="ccccc"/><path style="fill:none;stroke:#000000;stroke-width:0.264583px;stroke-linecap:butt;stroke-linejoin:miter;stroke-opacity:1" id="genPath_45" d="M 236.72094380863862,133.0 L 243.65,133.0 L 243.65,128.0 L 256.35,128.0 L 256.35,133.0 L 263.2790561913614,133.0 L 276.5581123827228,110.0 L 263.2790561913614,87.0 L 256.35,87.0 L 256.35,92.0 L 243.65,92.0 L 243.65,87.0 L 236.72094380863862,87.0 L 223.44188761727722,110.0 L 236.7209438086386,133.0 z" sodipodi:nodetypes="ccccc"/><path style="fill:none;stroke:#000000;stroke-width:0.264583px;stroke-linecap:butt;stroke-linejoin:miter;stroke-opacity:1" id="genPath_46" d="M 50.0,154.0 L 47.64885899083011,158.7639320225002 L 42.39154786963877,159.52786404500043 L 46.195773934819385,163.2360679774998 L 45.29771798166021,168.47213595499957 L 50.0,166.0 L 54.70228201833979,168.47213595499957 L 53.804226065180615,163.2360679774998 L 57.60845213036123,159.52786404500043 L 52.35114100916989,158.7639320225002 z" sodipodi:nodetypes="ccccc"/><path style="fill:none;stroke:#000000;stroke-width:0.264583px;stroke-linecap:butt;stroke-linejoin:miter;stroke-opacity:1" id="genPath_47" d="M 50.0,214.0 L 47.64885899083011,218.7639320225002 L 42.39154786963877,219.52786404500043 L 46.195773934819385,223.2360679774998 L 45.29771798166021,228.47213595499957 L 50.0,226.0 L 54.70228201833979,228.47213595499957 L 53.804226065180615,223.2360679774998 L 57.60845213036123,219.52786404500043 L 52.35114100916989,218.7639320225002 z" sodipodi:nodetypes="ccccc"/><path style="fill:none;stroke:#000000;stroke-width:0.264583px;stroke-linecap:butt;stroke-linejoin:miter;stroke-opacity:1" id="genPath_48" d="M 50.0,158.0 L 48.82442949541505,160.3819660112501 L 46.195773934819385,160.7639320225002 L 48.09788696740969,162.6180339887499 L 47.64885899083011,165.2360679774998 L 50.0,164.0 L 52.35114100916989,165.2360679774998 L 51.90211303259031,162.6180339887499 L 53.804226065180615,160.7639320225002 L 51.17557050458495,160.3819660112501 z" sodipodi:nodetypes="ccccc"/><path style="fill:none;stroke:#000000;stroke-width:0.264583px;stroke-linecap:butt;stroke-linejoin:miter;stroke-opacity:1" id="genPath_49" d="M 50.0,218.0 L 48.82442949541505,220.3819660112501 L 46.195773934819385,220.7639320225002 L 48.09788696740969,222.6180339887499 L 47.64885899083011,225.2360679774998 L 50.0,224.0 L 52.35114100916989,225.2360679774998 L 51.90211303259031,222.6180339887499 L 53.804226065180615,220.7639320225002 L 51.17557050458495,220.3819660112501 z" sodipodi:nodetypes="ccccc"/><path style="fill:none;stroke:#000000;stroke-width:0.264583px;stroke-linecap:butt;stroke-linejoin:miter;stroke-opacity:1" id="genPath_50" d="M 41.40720779386422,169.92720779386423 A 1.800000000003197,1.800000000003197 0 0 0 40.13441558772843,170.45441558772842 A 3.513779183768319,3.513779183768319 0 0 0 40.718377615607054,175.9357753646561 A 1.8000000000033367,1.8000000000033367 0 0 1 41.40720779386422,176.07279220613577 " sodipodi:nodetypes="ccccc"/><path style="fill:none;stroke:#000000;stroke-width:0.264583px;stroke-linecap:butt;stroke-linejoin:miter;stroke-opacity:1" id="genPath_51" d="M 42.75279220613579,176.07279220613577 A 1.80000000000277,1.80000000000277 0 0 0 44.02558441227157,175.54558441227158 A 3.5137791837681207,3.5137791837681207 0 0 0 43.44162238439295,170.0642246353439 A 1.8000000000078273,1.8000000000078273 0 0 1 42.75279220613579,169.92720779386423 " sodipodi:nodetypes="ccccc"/><path style="fill:none;stroke:#000000;stroke-width:0.264583px;stroke-linecap:butt;stroke-linejoin:miter;stroke-opacity:1" id="genPath_52" d="M 46.64,176.24 L 46.64,173.54 L 47.449999999999996,173.54 A 1.3499999999990848,1.3499999999990848 0 0 0 47.449999999999996,170.84 L 46.64,170.84 L 46.64,171.65 " sodipodi:nodetypes="ccccc"/><path style="fill:none;stroke:#000000;stroke-width:0.264583px;stroke-linecap:butt;stroke-linejoin:miter;stroke-opacity:1" id="genPath_53" d="M 50.744,173.54 L 52.904,173.54 " sodipodi:nodetypes="ccccc"/><path style="fill:none;stroke:#000000;stroke-width:0.264583px;stroke-linecap:butt;stroke-linejoin:miter;stroke-opacity:1" id="genPath_54" d="M 53.984,170.84 L 50.744,170.84 L 50.744,176.24 L 53.984,176.24 " sodipodi:nodetypes="ccccc"/><path style="fill:none;stroke:#000000;stroke-width:0.264583px;stroke-linecap:butt;stroke-linejoin:miter;stroke-opacity:1" id="genPath_55" d="M 55.82,176.24 L 55.82,170.84 L 59.06,176.24 L 59.06,170.84 " sodipodi:nodetypes="ccccc"/><path style="fill:none;stroke:#000000;stroke-width:0.264583px;stroke-linecap:butt;stroke-linejoin:miter;stroke-opacity:1" id="genPath_56" d="M 44.78,185.0 L 44.78,179.0 L 47.18,182.0 L 49.58,179.0 L 49.58,185.0 " sodipodi:nodetypes="ccccc"/><path style="fill:none;stroke:#000000;stroke-width:0.264583px;stroke-linecap:butt;stroke-linejoin:miter;stroke-opacity:1" id="genPath_57" d="M 51.26,182.54 L 53.42,182.54 " sodipodi:nodetypes="ccccc"/><path style="fill:none;stroke:#000000;stroke-width:0.264583px;stroke-linecap:butt;stroke-linejoin:miter;stroke-opacity:1" id="genPath_58" d="M 54.5,179.84 L 51.26,179.84 L 51.26,185.24 L 54.5,185.24 " sodipodi:nodetypes="ccccc"/><path style="fill:none;stroke:#000000;stroke-width:0.264583px;stroke-linecap:butt;stroke-linejoin:miter;stroke-opacity:1" id="genPath_59" d="M 38.04720779386422,229.92720779386423 A 1.7999999999953742,1.7999999999953742 0 0 0 36.77441558772843,230.45441558772842 A 3.513779183767304,3.513779183767304 0 0 0 37.358377615607054,235.9357753646561 A 1.799999999990689,1.799999999990689 0 0 1 38.04720779386422,236.07279220613577 " sodipodi:nodetypes="ccccc"/><path style="fill:none;stroke:#000000;stroke-width:0.264583px;stroke-linecap:butt;stroke-linejoin:miter;stroke-opacity:1" id="genPath_60" d="M 39.39279220613579,236.07279220613577 A 1.799999999984607,1.799999999984607 0 0 0 40.66558441227157,235.54558441227158 A 3.5137791837668924,3.5137791837668924 0 0 0 40.08162238439295,230.0642246353439 A 1.8000000000097884,1.8000000000097884 0 0 1 39.39279220613579,229.92720779386423 " sodipodi:nodetypes="ccccc"/><path style="fill:none;stroke:#000000;stroke-width:0.264583px;stroke-linecap:butt;stroke-linejoin:miter;stroke-opacity:1" id="genPath_61" d="M 36.92,229.1 L 37.22,228.2 " sodipodi:nodetypes="ccccc"/><path style="fill:none;stroke:#000000;stroke-width:0.264583px;stroke-linecap:butt;stroke-linejoin:miter;stroke-opacity:1" id="genPath_62" d="M 40.52,229.1 L 40.82,228.2 " sodipodi:nodetypes="ccccc"/><path style="fill:none;stroke:#000000;stroke-width:0.264583px;stroke-linecap:butt;stroke-linejoin:miter;stroke-opacity:1" id="genPath_63" d="M 43.28,233.54 L 45.44,233.54 " sodipodi:nodetypes="ccccc"/><path style="fill:none;stroke:#000000;stroke-width:0.264583px;stroke-linecap:butt;stroke-linejoin:miter;stroke-opacity:1" id="genPath_64" d="M 46.52,230.84 L 43.28,230.84 L 43.28,236.24 " sodipodi:nodetypes="ccccc"/><path style="fill:none;stroke:#000000;stroke-width:0.264583px;stroke-linecap:butt;stroke-linejoin:miter;stroke-opacity:1" id="genPath_65" d="M 48.356,233.54 L 50.516,233.54 " sodipodi:nodetypes="ccccc"/><path style="fill:none;stroke:#000000;stroke-width:0.264583px;stroke-linecap:butt;stroke-linejoin:miter;stroke-opacity:1" id="genPath_66" d="M 51.596000000000004,230.84 L 48.356,230.84 L 48.356,236.24 " sodipodi:nodetypes="ccccc"/><path style="fill:none;stroke:#000000;stroke-width:0.264583px;stroke-linecap:butt;stroke-linejoin:miter;stroke-opacity:1" id="genPath_67" d="M 53.432,236.24 L 53.432,230.84 L 56.672,236.24 L 56.672,230.84 " sodipodi:nodetypes="ccccc"/><path style="fill:none;stroke:#000000;stroke-width:0.264583px;stroke-linecap:butt;stroke-linejoin:miter;stroke-opacity:1" id="genPath_68" d="M 58.508,233.54 L 60.668000000000006,233.54 " sodipodi:nodetypes="ccccc"/><path style="fill:none;stroke:#000000;stroke-width:0.264583px;stroke-linecap:butt;stroke-linejoin:miter;stroke-opacity:1" id="genPath_69" d="M 61.748,230.84 L 58.508,230.84 L 58.508,236.24 L 61.748,236.24 " sodipodi:nodetypes="ccccc"/><path style="fill:none;stroke:#000000;stroke-width:0.264583px;stroke-linecap:butt;stroke-linejoin:miter;stroke-opacity:1" id="genPath_70" d="M 40.489999999999995,245.0 L 40.489999999999995,239.0 L 42.89,242.0 L 45.29,239.0 L 45.29,245.0 " sodipodi:nodetypes="ccccc"/><path style="fill:none;stroke:#000000;stroke-width:0.264583px;stroke-linecap:butt;stroke-linejoin:miter;stroke-opacity:1" id="genPath_71" d="M 47.24,239.84 L 47.24,245.24 " sodipodi:nodetypes="ccccc"/><path style="fill:none;stroke:#000000;stroke-width:0.264583px;stroke-linecap:butt;stroke-linejoin:miter;stroke-opacity:1" id="genPath_72" d="M 52.856,240.2489740289556 A 1.6200000000002952,1.6200000000002952 0 0 0 50.56497402895559,240.2489740289556 A 3.2400000000046854,3.2400000000046854 0 0 0 50.56497402895558,244.83102597104443 A 1.620000000001315,1.620000000001315 0 0 0 52.856,244.83102597104443 " sodipodi:nodetypes="ccccc"/><path style="fill:none;stroke:#000000;stroke-width:0.264583px;stroke-linecap:butt;stroke-linejoin:miter;stroke-opacity:1" id="genPath_73" d="M 54.692,239.84 L 54.692,242.54 L 57.932,242.54 L 57.932,239.84 " sodipodi:nodetypes="ccccc"/><path style="fill:none;stroke:#000000;stroke-width:0.264583px;stroke-linecap:butt;stroke-linejoin:miter;stroke-opacity:1" id="genPath_74" d="M 54.692,245.24 L 54.692,242.54 " sodipodi:nodetypes="ccccc"/><path style="fill:none;stroke:#000000;stroke-width:0.264583px;stroke-linecap:butt;stroke-linejoin:miter;stroke-opacity:1" id="genPath_75" d="M 57.932,245.24 L 57.932,242.54 " sodipodi:nodetypes="ccccc"/></g>
  <g inkscape:groupmode="layer" id="layer3" inkscape:label="6mm"><path style="fill:none;stroke:#000000;stroke-width:0.264583px;stroke-linecap:butt;stroke-linejoin:miter;stroke-opacity:1" id="genPath_104" d="M 164.43375672974065,135.0 L 168.90063509461098,127.26313972081441 L 166.5,125.87713240271471 A 30.500000000000114,30.500000000000114 0 0 1 151.25,99.46335758728934 L 151.25,85.0 L 148.75,85.0 L 148.75,99.46335758728934 A 30.499999999999496,30.499999999999496 0 0 1 133.5,125.87713240271471 L 131.09936490538902,127.26313972081441 L 135.56624327025935,135.0 z" sodipodi:nodetypes="ccccc"/><path style="fill:none;stroke:#000000;stroke-width:0.264583px;stroke-linecap:butt;stroke-linejoin:miter;stroke-opacity:1" id="genPath_105" d="M 264.43375672974065,135.0 L 268.90063509461095,127.26313972081441 L 266.5,125.87713240271471 A 30.500000000000057,30.500000000000057 0 0 1 251.25,99.46335758728934 L 251.25,85.0 L 248.75,85.0 L 248.75,99.46335758728934 A 30.50000000000042,30.50000000000042 0 0 1 233.5,125.87713240271471 L 231.09936490538902,127.26313972081441 L 235.56624327025935,135.0 z" sodipodi:nodetypes="ccccc"/><path style="fill:none;stroke:#000000;stroke-width:0.264583px;stroke-linecap:butt;stroke-linejoin:miter;stroke-opacity:1" id="genPath_106" d="M 164.43375672974065,25.0 L 168.90063509461098,32.73686027918559 L 166.5,34.122867597285286 A 30.499999999999687,30.499999999999687 0 0 0 151.25,60.53664241271067 L 151.25,75.0 L 148.75,75.0 L 148.75,60.53664241271067 A 30.499999999999797,30.499999999999797 0 0 0 133.5,34.12286759728529 L 131.09936490538902,32.73686027918559 L 135.56624327025935,25.000000000000007 z" sodipodi:nodetypes="ccccc"/><path style="fill:none;stroke:#000000;stroke-width:0.264583px;stroke-linecap:butt;stroke-linejoin:miter;stroke-opacity:1" id="genPath_107" d="M 264.43375672974065,25.0 L 268.90063509461095,32.73686027918559 L 266.5,34.122867597285286 A 30.500000000000057,30.500000000000057 0 0 0 251.25,60.53664241271067 L 251.25,75.0 L 248.75,75.0 L 248.75,60.53664241271067 A 30.500000000000618,30.500000000000618 0 0 0 233.5,34.12286759728529 L 231.09936490538902,32.73686027918559 L 235.56624327025935,25.000000000000007 z" sodipodi:nodetypes="ccccc"/><path style="fill:none;stroke:#000000;stroke-width:0.264583px;stroke-linecap:butt;stroke-linejoin:miter;stroke-opacity:1" id="genPath_108" d="M 168.47520861406804,92.0 L 166.85000000000002,92.0 L 166.85,89.18505610753559 L 164.43375672974065,85.0 L 163.85,85.0 L 163.85,92.0 L 162.25,92.0 L 162.25,99.46335758728934 A 19.499999999999698,19.499999999999698 0 0 0 172.0,116.35085296108589 L 174.40063509461098,117.73686027918559 L 178.8675134594813,110.0 z" sodipodi:nodetypes="ccccc"/><path style="fill:none;stroke:#000000;stroke-width:0.264583px;stroke-linecap:butt;stroke-linejoin:miter;stroke-opacity:1" id="genPath_109" d="M 268.47520861406804,92.0 L 266.85,92.0 L 266.85,89.18505610753559 L 264.43375672974065,85.0 L 263.85,85.0 L 263.85,92.0 L 262.25,92.0 L 262.25,99.46335758728934 A 19.499999999998877,19.499999999998877 0 0 0 272.0,116.35085296108589 L 274.40063509461095,117.73686027918559 L 278.8675134594813,110.0 z" sodipodi:nodetypes="ccccc"/><path style="fill:none;stroke:#000000;stroke-width:0.264583px;stroke-linecap:butt;stroke-linejoin:miter;stroke-opacity:1" id="genPath_110" d="M 168.47520861406804,68.0 L 166.85000000000002,68.0 L 166.85,70.81494389246441 L 164.43375672974065,75.0 L 163.85,75.0 L 163.85,68.0 L 162.25,68.0 L 162.25,60.53664241271067 A 19.49999999999985,19.49999999999985 0 0 1 172.0,43.649147038914116 L 174.40063509461098,42.263139720814415 L 178.8675134594813,50.0 z" sodipodi:nodetypes="ccccc"/><path style="fill:none;stroke:#000000;stroke-width:0.264583px;stroke-linecap:butt;stroke-linejoin:miter;stroke-opacity:1" id="genPath_111" d="M 268.47520861406804,68.0 L 266.85,68.0 L 266.85,70.81494389246441 L 264.43375672974065,75.0 L 263.85,75.0 L 263.85,68.0 L 262.25,68.0 L 262.25,60.53664241271067 A 19.499999999998302,19.499999999998302 0 0 1 272.0,43.649147038914116 L 274.40063509461095,42.263139720814415 L 278.8675134594813,50.0 z" sodipodi:nodetypes="ccccc"/><path style="fill:none;stroke:#000000;stroke-width:0.264583px;stroke-linecap:butt;stroke-linejoin:miter;stroke-opacity:1" id="genPath_112" d="M 131.52479138593196,92.0 L 133.15,92.0 L 133.15,89.18505610753557 L 135.56624327025935,85.0 L 136.15,85.0 L 136.15,92.0 L 137.75,92.0 L 137.75,99.46335758728932 A 19.499999999999797,19.499999999999797 0 0 1 128.0,116.35085296108588 L 125.59936490538902,117.73686027918558 L 121.13248654051871,110.0 z" sodipodi:nodetypes="ccccc"/><path style="fill:none;stroke:#000000;stroke-width:0.264583px;stroke-linecap:butt;stroke-linejoin:miter;stroke-opacity:1" id="genPath_113" d="M 231.52479138593196,92.0 L 233.15,92.0 L 233.15,89.18505610753557 L 235.56624327025935,85.0 L 236.15,85.0 L 236.15,92.0 L 237.75,92.0 L 237.75,99.46335758728932 A 19.500000000000323,19.500000000000323 0 0 1 228.0,116.35085296108588 L 225.59936490538902,117.73686027918558 L 221.1324865405187,110.0 z" sodipodi:nodetypes="ccccc"/><path style="fill:none;stroke:#000000;stroke-width:0.264583px;stroke-linecap:butt;stroke-linejoin:miter;stroke-opacity:1" id="genPath_114" d="M 131.52479138593196,68.0 L 133.15,68.0 L 133.15,70.81494389246443 L 135.56624327025935,75.0 L 136.15,75.0 L 136.15,68.0 L 137.75,68.0 L 137.75,60.53664241271067 A 19.50000000000009,19.50000000000009 0 0 0 128.0,43.649147038914116 L 125.59936490538902,42.263139720814415 L 121.13248654051871,50.0 z" sodipodi:nodetypes="ccccc"/><path style="fill:none;stroke:#000000;stroke-width:0.264583px;stroke-linecap:butt;stroke-linejoin:miter;stroke-opacity:1" id="genPath_115" d="M 231.52479138593196,68.0 L 233.15,68.0 L 233.15,70.81494389246443 L 235.56624327025935,75.0 L 236.15,75.0 L 236.15,68.0 L 237.75,68.0 L 237.75,60.53664241271067 A 19.49999999999918,19.49999999999918 0 0 0 228.0,43.649147038914116 L 225.59936490538902,42.263139720814415 L 221.1324865405187,50.0 z" sodipodi:nodetypes="ccccc"/><path style="fill:none;stroke:#000000;stroke-width:0.264583px;stroke-linecap:butt;stroke-linejoin:miter;stroke-opacity:1" id="genPath_116" d="M 145.5,35.0 A 4.5,4.5 0 0 0 154.5,35.0 A 4.5,4.5 0 0 0 145.5,35.0 z" sodipodi:nodetypes="ccccc"/><path style="fill:none;stroke:#000000;stroke-width:0.264583px;stroke-linecap:butt;stroke-linejoin:miter;stroke-opacity:1" id="genPath_117" d="M 245.5,35.0 A 4.5,4.5 0 0 0 254.5,35.0 A 4.5,4.5 0 0 0 245.5,35.0 z" sodipodi:nodetypes="ccccc"/><path style="fill:none;stroke:#000000;stroke-width:0.264583px;stroke-linecap:butt;stroke-linejoin:miter;stroke-opacity:1" id="genPath_118" d="M 154.43163488855492,124.21858320049881 A 4.500000000002271,4.500000000002271 0 0 0 152.89254424358944,121.5528000059646 " sodipodi:nodetypes="ccccc"/><path style="fill:none;stroke:#000000;stroke-width:0.264583px;stroke-linecap:butt;stroke-linejoin:miter;stroke-opacity:1" id="genPath_119" d="M 147.10745575641056,121.5528000059646 A 4.4999999999961044,4.4999999999961044 0 0 0 145.56836511144508,124.21858320049881 " sodipodi:nodetypes="ccccc"/><path style="fill:none;stroke:#000000;stroke-width:0.264583px;stroke-linecap:butt;stroke-linejoin:miter;stroke-opacity:1" id="genPath_120" d="M 148.4609093550345,129.2286167935366 A 4.500000000005655,4.500000000005655 0 0 0 151.5390906449655,129.2286167935366 " sodipodi:nodetypes="ccccc"/><path style="fill:none;stroke:#000000;stroke-width:0.264583px;stroke-linecap:butt;stroke-linejoin:miter;stroke-opacity:1" id="genPath_121" d="M 254.43163488855492,124.21858320049881 A 4.500000000005226,4.500000000005226 0 0 0 252.89254424358944,121.5528000059646 " sodipodi:nodetypes="ccccc"/><path style="fill:none;stroke:#000000;stroke-width:0.264583px;stroke-linecap:butt;stroke-linejoin:miter;stroke-opacity:1" id="genPath_122" d="M 247.10745575641056,121.5528000059646 A 4.500000000001603,4.500000000001603 0 0 0 245.56836511144508,124.21858320049881 " sodipodi:nodetypes="ccccc"/><path style="fill:none;stroke:#000000;stroke-width:0.264583px;stroke-linecap:butt;stroke-linejoin:miter;stroke-opacity:1" id="genPath_123" d="M 248.4609093550345,129.2286167935366 A 4.49999999999804,4.49999999999804 0 0 0 251.5390906449655,129.2286167935366 " sodipodi:nodetypes="ccccc"/><path style="fill:none;stroke:#000000;stroke-width:0.264583px;stroke-linecap:butt;stroke-linejoin:miter;stroke-opacity:1" id="genPath_124" d="M 166.31851652578138,55.17638090205041 A 2.9999999999993463,2.9999999999993463 0 0 0 172.31851652578138,55.17638090205041 A 3.0000000000006537,3.0000000000006537 0 0 0 166.31851652578138,55.17638090205041 z" sodipodi:nodetypes="ccccc"/><path style="fill:none;stroke:#000000;stroke-width:0.264583px;stroke-linecap:butt;stroke-linejoin:miter;stroke-opacity:1" id="genPath_125" d="M 266.3185165257814,55.17638090205041 A 3.00000000000108,3.00000000000108 0 0 0 272.3185165257814,55.17638090205041 A 2.99999999999892,2.99999999999892 0 0 0 266.3185165257814,55.17638090205041 z" sodipodi:nodetypes="ccccc"/><path style="fill:none;stroke:#000000;stroke-width:0.264583px;stroke-linecap:butt;stroke-linejoin:miter;stroke-opacity:1" id="genPath_126" d="M 172.272939784818,104.3026745649488 A 2.9999999999910236,2.9999999999910236 0 0 0 171.24687935484098,102.52548576859266 " sodipodi:nodetypes="ccccc"/><path style="fill:none;stroke:#000000;stroke-width:0.264583px;stroke-linecap:butt;stroke-linejoin:miter;stroke-opacity:1" id="genPath_127" d="M 167.39015369672177,102.52548576859266 A 2.999999999990185,2.999999999990185 0 0 0 166.36409326674476,104.3026745649488 " sodipodi:nodetypes="ccccc"/><path style="fill:none;stroke:#000000;stroke-width:0.264583px;stroke-linecap:butt;stroke-linejoin:miter;stroke-opacity:1" id="genPath_128" d="M 168.29245609580437,107.64269696030732 A 3.0000000000163736,3.0000000000163736 0 0 0 170.34457695575838,107.64269696030732 " sodipodi:nodetypes="ccccc"/><path style="fill:none;stroke:#000000;stroke-width:0.264583px;stroke-linecap:butt;stroke-linejoin:miter;stroke-opacity:1" id="genPath_129" d="M 272.272939784818,104.3026745649488 A 3.0000000000027582,3.0000000000027582 0 0 0 271.246879354841,102.52548576859266 " sodipodi:nodetypes="ccccc"/><path style="fill:none;stroke:#000000;stroke-width:0.264583px;stroke-linecap:butt;stroke-linejoin:miter;stroke-opacity:1" id="genPath_130" d="M 267.39015369672177,102.52548576859266 A 3.0000000000036873,3.0000000000036873 0 0 0 266.36409326674476,104.3026745649488 " sodipodi:nodetypes="ccccc"/><path style="fill:none;stroke:#000000;stroke-width:0.264583px;stroke-linecap:butt;stroke-linejoin:miter;stroke-opacity:1" id="genPath_131" d="M 268.29245609580437,107.64269696030732 A 3.0000000000277915,3.0000000000277915 0 0 0 270.3445769557584,107.64269696030732 " sodipodi:nodetypes="ccccc"/><path style="fill:none;stroke:#000000;stroke-width:0.264583px;stroke-linecap:butt;stroke-linejoin:miter;stroke-opacity:1" id="genPath_132" d="M 127.68148347421862,55.17638090205042 A 3.0000000000001137,3.0000000000001137 0 0 0 133.68148347421862,55.17638090205042 A 2.9999999999998863,2.9999999999998863 0 0 0 127.68148347421862,55.17638090205042 z" sodipodi:nodetypes="ccccc"/><path style="fill:none;stroke:#000000;stroke-width:0.264583px;stroke-linecap:butt;stroke-linejoin:miter;stroke-opacity:1" id="genPath_133" d="M 227.68148347421862,55.17638090205042 A 2.999999999999716,2.999999999999716 0 0 0 233.68148347421862,55.17638090205042 A 3.000000000000284,3.000000000000284 0 0 0 227.68148347421862,55.17638090205042 z" sodipodi:nodetypes="ccccc"/><path style="fill:none;stroke:#000000;stroke-width:0.264583px;stroke-linecap:butt;stroke-linejoin:miter;stroke-opacity:1" id="genPath_134" d="M 133.63590673325524,104.30267456494879 A 2.9999999999908855,2.9999999999908855 0 0 0 132.60984630327823,102.52548576859265 " sodipodi:nodetypes="ccccc"/><path style="fill:none;stroke:#000000;stroke-width:0.264583px;stroke-linecap:butt;stroke-linejoin:miter;stroke-opacity:1" id="genPath_135" d="M 128.75312064515902,102.52548576859265 A 2.999999999984274,2.999999999984274 0 0 0 127.727060215182,104.30267456494879 " sodipodi:nodetypes="ccccc"/><path style="fill:none;stroke:#000000;stroke-width:0.264583px;stroke-linecap:butt;stroke-linejoin:miter;stroke-opacity:1" id="genPath_136" d="M 129.65542304424162,107.6426969603073 A 2.9999999999936007,2.9999999999936007 0 0 0 131.70754390419563,107.6426969603073 " sodipodi:nodetypes="ccccc"/><path style="fill:none;stroke:#000000;stroke-width:0.264583px;stroke-linecap:butt;stroke-linejoin:miter;stroke-opacity:1" id="genPath_137" d="M 233.63590673325524,104.30267456494879 A 3.0000000000127742,3.0000000000127742 0 0 0 232.60984630327823,102.52548576859265 " sodipodi:nodetypes="ccccc"/><path style="fill:none;stroke:#000000;stroke-width:0.264583px;stroke-linecap:butt;stroke-linejoin:miter;stroke-opacity:1" id="genPath_138" d="M 228.75312064515902,102.52548576859265 A 3.0000000000022062,3.0000000000022062 0 0 0 227.727060215182,104.30267456494879 " sodipodi:nodetypes="ccccc"/><path style="fill:none;stroke:#000000;stroke-width:0.264583px;stroke-linecap:butt;stroke-linejoin:miter;stroke-opacity:1" id="genPath_139" d="M 229.65542304424162,107.6426969603073 A 2.9999999999922213,2.9999999999922213 0 0 0 231.70754390419563,107.6426969603073 " sodipodi:nodetypes="ccccc"/></g>
</svg>