<?xml version="1.0" ?><!-- Created with Inkscape (http://www.inkscape.org/) --><svg xmlns:inkscape="http://www.inkscape.org/namespaces/inkscape" xmlns:sodipodi="http://sodipodi.sourceforge.net/DTD/sodipodi-0.dtd" xmlns="http://www.w3.org/2000/svg" xmlns:svg="http://www.w3.org/2000/svg" width="300mm" height="300mm" viewBox="0 0 300 300" version="1.1" id="svg5" inkscape:version="1.1.2 (0a00cf5339, 2022-02-04)" sodipodi:docname="Template.svg">
  <sodipodi:namedview id="namedview7" pagecolor="#ffffff" bordercolor="#999999" borderopacity="1" inkscape:pageshadow="0" inkscape:pageopacity="0" inkscape:pagecheckerboard="0" inkscape:document-units="mm" showgrid="true" width="300mm" inkscape:zoom="0.56315579" inkscape:cx="491.87099" inkscape:cy="557.57217" inkscape:window-width="1874" inkscape:window-height="1052" inkscape:window-x="46" inkscape:window-y="0" inkscape:window-maximized="1" inkscape:current-layer="layer1" height="300mm" inkscape:lockguides="false">
    <inkscape:grid type="xygrid" id="grid888"/>
  </sodipodi:namedview>
  <defs id="defs2"/>
  <g inkscape:label="Desc" inkscape:groupmode="layer" id="layer1" sodipodi:insensitive="true">
    <text xml:space="preserve" style="font-style:normal;font-weight:normal;font-size:10.5833px;line-height:1.25;font-family:sans-serif;fill:#000000;fill-opacity:1;stroke:none;stroke-width:0.264583" x="34.193851" y="10.854793" id="text3620"><tspan sodipodi:role="line" id="tspan3618" style="stroke-width:0.264583" x="34.193851" y="10.854793">3mm</tspan></text>
    <text xml:space="preserve" style="font-style:normal;font-weight:normal;font-size:10.5833px;line-height:1.25;font-family:sans-serif;fill:#000000;fill-opacity:1;stroke:none;stroke-width:0.264583" x="133.83728" y="10.854793" id="text3620-3"><tspan sodipodi:role="line" style="stroke-width:0.264583" x="133.83728" y="10.854793" id="tspan5941">10mm</tspan></text>
    <text xml:space="preserve" style="font-style:normal;font-weight:normal;font-size:10.5833px;line-height:1.25;font-family:sans-serif;fill:#000000;fill-opacity:1;stroke:none;stroke-width:0.264583" x="231.31548" y="11.040827" id="text3620-3-8"><tspan sodipodi:role="line" style="stroke-width:0.264583" x="231.31548" y="11.040827" id="tspan6654">Preview</tspan></text>
    <circle style="fill:#a3a3a3;fill-opacity:1;stroke:none;stroke-width:0.944882;stroke-linejoin:round;paint-order:markers fill stroke" id="path854" cx="290" cy="10" r="5"/>
  </g>
  <g inkscape:groupmode="layer" id="layer2" inkscape:label="3mm"><path style="fill:none;stroke:#000000;stroke-width:0.264583px;stroke-linecap:butt;stroke-linejoin:miter;stroke-opacity:1" id="genPath_4" d="M 78.86751345948129,50.0 L 64.43375672974065,25.0 L 35.56624327025936,24.999999999999996 L 21.13248654051871,50.0 L 35.56624327025934,75.0 L 64.43375672974065,75.0 L 78.86751345948129,50.00000000000001 z" sodipodi:nodetypes="ccccc"/><path style="fill:none;stroke:#000000;stroke-width:0.264583px;stroke-linecap:butt;stroke-linejoin:miter;stroke-opacity:1" id="genPath_5" d="M 278.8675134594813,50.0 L 264.43375672974065,25.0 L 235.56624327025935,24.999999999999996 L 221.1324865405187,50.0 L 235.56624327025935,75.0 L 264.43375672974065,75.0 L 278.8675134594813,50.00000000000001 z" sodipodi:nodetypes="ccccc"/><path style="fill:none;stroke:#000000;stroke-width:0.264583px;stroke-linecap:butt;stroke-linejoin:miter;stroke-opacity:1" id="genPath_6" d="M 36.72094380863861,143.0 L 43.650000000000006,143.0 L 43.650000000000006,138.0 L 56.35,138.0 L 56.35,143.0 L 63.2790561913614,143.0 L 76.55811238272278,120.0 L 63.2790561913614,97.0 L 36.72094380863861,97.0 L 23.441887617277214,120.0 L 36.720943808638594,143.0 z" sodipodi:nodetypes="ccccc"/><path style="fill:none;stroke:#000000;stroke-width:0.264583px;stroke-linecap:butt;stroke-linejoin:miter;stroke-opacity:1" id="genPath_7" d="M 236.72094380863862,73.0 L 243.65,73.0 L 243.65,68.0 L 256.35,68.0 L 256.35,73.0 L 263.2790561913614,73.0 L 276.5581123827228,50.0 L 263.2790561913614,27.0 L 236.72094380863862,26.999999999999996 L 223.44188761727722,50.0 L 236.7209438086386,73.0 z" sodipodi:nodetypes="ccccc"/><path style="fill:none;stroke:#000000;stroke-width:0.264583px;stroke-linecap:butt;stroke-linejoin:miter;stroke-opacity:1" id="genPath_66" d="M 50.75,50.0 A 0.75,0.75 0 0 1 49.25,50.0 A 0.75,0.75 0 0 1 50.75,50.0 z" sodipodi:nodetypes="ccccc"/><path style="fill:none;stroke:#000000;stroke-width:0.264583px;stroke-linecap:butt;stroke-linejoin:miter;stroke-opacity:1" id="genPath_67" d="M 250.75,50.0 A 0.75,0.75 0 0 1 249.25,50.0 A 0.75,0.75 0 0 1 250.75,50.0 z" sodipodi:nodetypes="ccccc"/></g>
  <g inkscape:groupmode="layer" id="layer3" inkscape:label="10mm"><path style="fill:none;stroke:#000000;stroke-width:0.264583px;stroke-linecap:butt;stroke-linejoin:miter;stroke-opacity:1" id="genPath_28" d="M 178.8675134594813,50.0 L 174.40063509461098,42.263139720814415 L 171.80255888325766,43.763139720814415 A 22.677080940898097,22.677080940898097 0 0 1 171.80255888325766,56.236860279185585 L 174.40063509461098,57.736860279185585 z" sodipodi:nodetypes="ccccc"/><path style="fill:none;stroke:#000000;stroke-width:0.264583px;stroke-linecap:butt;stroke-linejoin:miter;stroke-opacity:1" id="genPath_29" d="M 164.43375672974065,25.0 L 155.5,24.999999999999996 L 155.5,27.999999999999996 A 22.677080940895895,22.677080940895895 0 0 1 166.30255888325766,34.236860279185585 L 168.90063509461098,32.73686027918559 z" sodipodi:nodetypes="ccccc"/><path style="fill:none;stroke:#000000;stroke-width:0.264583px;stroke-linecap:butt;stroke-linejoin:miter;stroke-opacity:1" id="genPath_30" d="M 135.56624327025935,24.999999999999996 L 131.09936490538905,32.73686027918558 L 133.69744111674237,34.23686027918558 A 22.67708094089682,22.67708094089682 0 0 1 144.5,27.999999999999996 L 144.5,24.999999999999996 z" sodipodi:nodetypes="ccccc"/><path style="fill:none;stroke:#000000;stroke-width:0.264583px;stroke-linecap:butt;stroke-linejoin:miter;stroke-opacity:1" id="genPath_31" d="M 121.13248654051871,50.0 L 125.59936490538902,57.736860279185585 L 128.19744111674234,56.236860279185585 A 22.6770809408981,22.6770809408981 0 0 1 128.19744111674234,43.76313972081441 L 125.59936490538902,42.26313972081441 z" sodipodi:nodetypes="ccccc"/><path style="fill:none;stroke:#000000;stroke-width:0.264583px;stroke-linecap:butt;stroke-linejoin:miter;stroke-opacity:1" id="genPath_32" d="M 278.8675134594813,50.0 L 274.40063509461095,42.263139720814415 L 271.80255888325763,43.763139720814415 A 22.677080940890523,22.677080940890523 0 0 1 271.80255888325763,56.236860279185585 L 274.40063509461095,57.736860279185585 z" sodipodi:nodetypes="ccccc"/><path style="fill:none;stroke:#000000;stroke-width:0.264583px;stroke-linecap:butt;stroke-linejoin:miter;stroke-opacity:1" id="genPath_33" d="M 264.43375672974065,25.0 L 255.5,24.999999999999996 L 255.5,27.999999999999996 A 22.67708094089488,22.67708094089488 0 0 1 266.30255888325763,34.236860279185585 L 268.90063509461095,32.73686027918559 z" sodipodi:nodetypes="ccccc"/><path style="fill:none;stroke:#000000;stroke-width:0.264583px;stroke-linecap:butt;stroke-linejoin:miter;stroke-opacity:1" id="genPath_34" d="M 235.56624327025935,24.999999999999996 L 231.09936490538905,32.73686027918558 L 233.69744111674237,34.23686027918558 A 22.677080940897703,22.677080940897703 0 0 1 244.5,27.999999999999996 L 244.5,24.999999999999996 z" sodipodi:nodetypes="ccccc"/><path style="fill:none;stroke:#000000;stroke-width:0.264583px;stroke-linecap:butt;stroke-linejoin:miter;stroke-opacity:1" id="genPath_35" d="M 221.1324865405187,50.0 L 225.59936490538902,57.736860279185585 L 228.19744111674234,56.236860279185585 A 22.677080940900847,22.677080940900847 0 0 1 228.19744111674234,43.76313972081441 L 225.59936490538902,42.26313972081441 z" sodipodi:nodetypes="ccccc"/><path style="fill:none;stroke:#000000;stroke-width:0.264583px;stroke-linecap:butt;stroke-linejoin:miter;stroke-opacity:1" id="genPath_42" d="M 164.43375672974065,75.0 L 168.90063509461098,67.26313972081441 L 166.30255888325766,65.76313972081441 A 22.677080940891006,22.677080940891006 0 0 1 159.8211413602053,70.44003870795906 L 158.15135375818906,66.96482926259081 A 18.82153022476725,18.82153022476725 0 0 1 155.5,68.0 L 155.5,75.0 z" sodipodi:nodetypes="ccccc"/><path style="fill:none;stroke:#000000;stroke-width:0.264583px;stroke-linecap:butt;stroke-linejoin:miter;stroke-opacity:1" id="genPath_43" d="M 264.43375672974065,75.0 L 268.90063509461095,67.26313972081441 L 266.30255888325763,65.76313972081441 A 22.677080940877126,22.677080940877126 0 0 1 259.8211413602053,70.44003870795906 L 258.15135375818903,66.96482926259081 A 18.821530224717634,18.821530224717634 0 0 1 255.5,68.0 L 255.5,75.0 z" sodipodi:nodetypes="ccccc"/><path style="fill:none;stroke:#000000;stroke-width:0.264583px;stroke-linecap:butt;stroke-linejoin:miter;stroke-opacity:1" id="genPath_44" d="M 135.56624327025935,75.0 L 131.09936490538905,67.26313972081442 L 133.69744111674237,65.76313972081442 A 22.677080940892385,22.677080940892385 0 0 0 140.1788586397947,70.44003870795908 L 141.84864624181097,66.96482926259081 A 18.821530224699774,18.821530224699774 0 0 0 144.5,68.0 L 144.5,75.0 z" sodipodi:nodetypes="ccccc"/><path style="fill:none;stroke:#000000;stroke-width:0.264583px;stroke-linecap:butt;stroke-linejoin:miter;stroke-opacity:1" id="genPath_45" d="M 235.56624327025935,75.0 L 231.09936490538905,67.26313972081442 L 233.69744111674237,65.76313972081442 A 22.67708094090348,22.67708094090348 0 0 0 240.1788586397947,70.44003870795908 L 241.84864624181097,66.96482926259081 A 18.82153022466229,18.82153022466229 0 0 0 244.5,68.0 L 244.5,75.0 z" sodipodi:nodetypes="ccccc"/><path style="fill:none;stroke:#000000;stroke-width:0.264583px;stroke-linecap:butt;stroke-linejoin:miter;stroke-opacity:1" id="genPath_48" d="M 144.2800025377792,29.091210767947526 A 21.67708094089932,21.67708094089932 0 0 0 138.4168008713182,31.677190824998732 A 30.298485667399476,30.298485667399476 0 0 1 134.75245609377842,65.40805772789196 A 21.677080940898076,21.677080940898076 0 0 0 139.92358135009522,69.19274929003285 A 30.298485667399447,30.298485667399447 0 0 1 170.96754136844237,55.50073150416053 A 21.67708094088934,21.67708094088934 0 0 0 171.6596177785866,49.130059884968425 A 30.298485667399543,30.298485667399543 0 0 1 144.2800025377792,29.091210767947526 z" sodipodi:nodetypes="ccccc"/><path style="fill:none;stroke:#000000;stroke-width:0.264583px;stroke-linecap:butt;stroke-linejoin:miter;stroke-opacity:1" id="genPath_49" d="M 244.2800025377792,29.091210767947526 A 21.677080940887308,21.677080940887308 0 0 0 238.4168008713182,31.677190824998732 A 30.298485667399568,30.298485667399568 0 0 1 234.75245609377842,65.40805772789196 A 21.67708094089348,21.67708094089348 0 0 0 239.92358135009522,69.19274929003285 A 30.29848566739926,30.29848566739926 0 0 1 270.96754136844237,55.50073150416053 A 21.67708094090608,21.67708094090608 0 0 0 271.6596177785866,49.130059884968425 A 30.29848566739888,30.29848566739888 0 0 1 244.2800025377792,29.091210767947526 z" sodipodi:nodetypes="ccccc"/><path style="fill:none;stroke:#000000;stroke-width:0.264583px;stroke-linecap:butt;stroke-linejoin:miter;stroke-opacity:1" id="genPath_52" d="M 152.0,50.0 A 2.0,2.0 0 0 1 148.0,50.0 A 2.0,2.0 0 0 1 152.0,50.0 z" sodipodi:nodetypes="ccccc"/><path style="fill:none;stroke:#000000;stroke-width:0.264583px;stroke-linecap:butt;stroke-linejoin:miter;stroke-opacity:1" id="genPath_53" d="M 252.0,50.0 A 2.0,2.0 0 0 1 248.0,50.0 A 2.0,2.0 0 0 1 252.0,50.0 z" sodipodi:nodetypes="ccccc"/></g>
</svg>