<?xml version="1.0" ?><!-- Created with Inkscape (http://www.inkscape.org/) --><svg xmlns:inkscape="http://www.inkscape.org/namespaces/inkscape" xmlns:sodipodi="http://sodipodi.sourceforge.net/DTD/sodipodi-0.dtd" xmlns="http://www.w3.org/2000/svg" xmlns:svg="http://www.w3.org/2000/svg" width="300mm" height="300mm" viewBox="0 0 300 300" version="1.1" id="svg5" inkscape:version="1.1.2 (0a00cf5339, 2022-02-04)" sodipodi:docname="Template.svg">
  <sodipodi:namedview id="namedview7" pagecolor="#ffffff" bordercolor="#999999" borderopacity="1" inkscape:pageshadow="0" inkscape:pageopacity="0" inkscape:pagecheckerboard="0" inkscape:document-units="mm" showgrid="true" width="300mm" inkscape:zoom="0.56315579" inkscape:cx="491.87099" inkscape:cy="557.57217" inkscape:window-width="1874" inkscape:window-height="1052" inkscape:window-x="46" inkscape:window-y="0" inkscape:window-maximized="1" inkscape:current-layer="layer1" height="300mm" inkscape:lockguides="false">
    <inkscape:grid type="xygrid" id="grid888"/>
  </sodipodi:namedview>
  <defs id="defs2"/>
  <g inkscape:label="Desc" inkscape:groupmode="layer" id="layer1" sodipodi:insensitive="true">
    <text xml:space="preserve" style="font-style:normal;font-weight:normal;font-size:10.5833px;line-height:1.25;font-family:sans-serif;fill:#000000;fill-opacity:1;stroke:none;stroke-width:0.264583" x="34.193851" y="10.854793" id="text3620"><tspan sodipodi:role="line" id="tspan3618" style="stroke-width:0.264583" x="34.193851" y="10.854793">3mm</tspan></text>
    <text xml:space="preserve" style="font-style:normal;font-weight:normal;font-size:10.5833px;line-height:1.25;font-family:sans-serif;fill:#000000;fill-opacity:1;stroke:none;stroke-width:0.264583" x="133.83728" y="10.854793" id="text3620-3"><tspan sodipodi:role="line" style="stroke-width:0.264583" x="133.83728" y="10.854793" id="tspan5941">10mm</tspan></text>
    <text xml:space="preserve" style="font-style:normal;font-weight:normal;font-size:10.5833px;line-height:1.25;font-family:sans-serif;fill:#000000;fill-opacity:1;stroke:none;stroke-width:0.264583" x="231.31548" y="11.040827" id="text3620-3-8"><tspan sodipodi:role="line" style="stroke-width:0.264583" x="231.31548" y="11.040827" id="tspan6654">Preview</tspan></text>
    <circle style="fill:#a3a3a3;fill-opacity:1;stroke:none;stroke-width:0.944882;stroke-linejoin:round;paint-order:markers fill stroke" id="path854" cx="290" cy="10" r="5"/>
  </g>
  <g inkscape:groupmode="layer" id="layer2" inkscape:label="3mm"><path style="fill:none;stroke:#000000;stroke-width:0.264583px;stroke-linecap:butt;stroke-linejoin:miter;stroke-opacity:1" id="genPath_12" d="M 78.86751345948129,50.0 L 64.43375672974065,25.0 L 35.56624327025936,24.999999999999996 L 21.13248654051871,50.0 L 35.56624327025934,75.0 L 64.43375672974065,75.0 L 78.86751345948129,50.00000000000001 z" sodipodi:nodetypes="ccccc"/><path style="fill:none;stroke:#000000;stroke-width:0.264583px;stroke-linecap:butt;stroke-linejoin:miter;stroke-opacity:1" id="genPath_13" d="M 278.8675134594813,50.0 L 264.43375672974065,25.0 L 235.56624327025935,24.999999999999996 L 221.1324865405187,50.0 L 235.56624327025935,75.0 L 264.43375672974065,75.0 L 278.8675134594813,50.00000000000001 z" sodipodi:nodetypes="ccccc"/><path style="fill:none;stroke:#000000;stroke-width:0.264583px;stroke-linecap:butt;stroke-linejoin:miter;stroke-opacity:1" id="genPath_14" d="M 36.72094380863861,143.0 L 43.650000000000006,143.0 L 43.650000000000006,138.0 L 56.35,138.0 L 56.35,143.0 L 63.2790561913614,143.0 L 76.55811238272278,120.0 L 63.2790561913614,97.0 L 36.72094380863861,97.0 L 23.441887617277214,120.0 L 36.720943808638594,143.0 z" sodipodi:nodetypes="ccccc"/><path style="fill:none;stroke:#000000;stroke-width:0.264583px;stroke-linecap:butt;stroke-linejoin:miter;stroke-opacity:1" id="genPath_15" d="M 236.72094380863862,73.0 L 243.65,73.0 L 243.65,68.0 L 256.35,68.0 L 256.35,73.0 L 263.2790561913614,73.0 L 276.5581123827228,50.0 L 263.2790561913614,27.0 L 236.72094380863862,26.999999999999996 L 223.44188761727722,50.0 L 236.7209438086386,73.0 z" sodipodi:nodetypes="ccccc"/><path style="fill:none;stroke:#000000;stroke-width:0.264583px;stroke-linecap:butt;stroke-linejoin:miter;stroke-opacity:1" id="genPath_68" d="M 50.75,48.5 A 0.75,0.75 0 0 1 49.25,48.5 A 0.75,0.75 0 0 1 50.75,48.5 " sodipodi:nodetypes="ccccc"/><path style="fill:none;stroke:#000000;stroke-width:0.264583px;stroke-linecap:butt;stroke-linejoin:miter;stroke-opacity:1" id="genPath_69" d="M 250.75,48.5 A 0.75,0.75 0 0 1 249.25,48.5 A 0.75,0.75 0 0 1 250.75,48.5 " sodipodi:nodetypes="ccccc"/><path style="fill:none;stroke:#000000;stroke-width:0.264583px;stroke-linecap:butt;stroke-linejoin:miter;stroke-opacity:1" id="genPath_70" d="M 61.49066664678467,38.858185854701915 A 14.999999999999947,14.999999999999947 0 0 0 38.50933335321533,38.85818585470191 " sodipodi:nodetypes="ccccc"/><path style="fill:none;stroke:#000000;stroke-width:0.264583px;stroke-linecap:butt;stroke-linejoin:miter;stroke-opacity:1" id="genPath_71" d="M 261.4906666467847,38.858185854701915 A 14.999999999999515,14.999999999999515 0 0 0 238.50933335321534,38.85818585470191 " sodipodi:nodetypes="ccccc"/><path style="fill:none;stroke:#000000;stroke-width:0.264583px;stroke-linecap:butt;stroke-linejoin:miter;stroke-opacity:1" id="genPath_72" d="M 61.49066664678467,35.858185854701915 L 61.49066664678467,38.858185854701915 L 58.536243387748044,38.33724132170112 " sodipodi:nodetypes="ccccc"/><path style="fill:none;stroke:#000000;stroke-width:0.264583px;stroke-linecap:butt;stroke-linejoin:miter;stroke-opacity:1" id="genPath_73" d="M 261.4906666467847,35.858185854701915 L 261.4906666467847,38.858185854701915 L 258.5362433877481,38.33724132170112 " sodipodi:nodetypes="ccccc"/><path style="fill:none;stroke:#000000;stroke-width:0.264583px;stroke-linecap:butt;stroke-linejoin:miter;stroke-opacity:1" id="genPath_74" d="M 38.50933335321533,35.85818585470191 L 38.50933335321533,38.85818585470191 L 41.463756612251956,38.337241321701114 " sodipodi:nodetypes="ccccc"/><path style="fill:none;stroke:#000000;stroke-width:0.264583px;stroke-linecap:butt;stroke-linejoin:miter;stroke-opacity:1" id="genPath_75" d="M 238.50933335321534,35.85818585470191 L 238.50933335321534,38.85818585470191 L 241.46375661225196,38.337241321701114 " sodipodi:nodetypes="ccccc"/></g>
  <g inkscape:groupmode="layer" id="layer3" inkscape:label="10mm"><path style="fill:none;stroke:#000000;stroke-width:0.264583px;stroke-linecap:butt;stroke-linejoin:miter;stroke-opacity:1" id="genPath_54" d="M 152.0,48.5 A 2.0,2.0 0 0 1 148.0,48.5 A 2.0,2.0 0 0 1 152.0,48.5 z" sodipodi:nodetypes="ccccc"/><path style="fill:none;stroke:#000000;stroke-width:0.264583px;stroke-linecap:butt;stroke-linejoin:miter;stroke-opacity:1" id="genPath_55" d="M 252.0,48.5 A 2.0,2.0 0 0 1 248.0,48.5 A 2.0,2.0 0 0 1 252.0,48.5 z" sodipodi:nodetypes="ccccc"/><path style="fill:none;stroke:#000000;stroke-width:0.264583px;stroke-linecap:butt;stroke-linejoin:miter;stroke-opacity:1" id="genPath_56" d="M 164.43375672974065,75.0 L 168.90063509461098,67.26313972081441 L 154.2034429179036,64.10362973510767 A 20.000000000001556,20.000000000001556 0 0 0 145.7965570820964,64.10362973510767 L 131.09936490538902,67.26313972081441 L 135.56624327025935,75.0 z" sodipodi:nodetypes="ccccc"/><path style="fill:none;stroke:#000000;stroke-width:0.264583px;stroke-linecap:butt;stroke-linejoin:miter;stroke-opacity:1" id="genPath_57" d="M 264.43375672974065,75.0 L 268.90063509461095,67.26313972081441 L 254.2034429179036,64.10362973510767 A 19.99999999999027,19.99999999999027 0 0 0 245.7965570820964,64.10362973510767 L 231.09936490538902,67.26313972081441 L 235.56624327025935,75.0 z" sodipodi:nodetypes="ccccc"/><path style="fill:none;stroke:#000000;stroke-width:0.264583px;stroke-linecap:butt;stroke-linejoin:miter;stroke-opacity:1" id="genPath_58" d="M 154.0,48.5 L 152.2,28.5 A 20.120636172854727,20.120636172854727 0 0 0 147.8,28.5 L 146.0,48.5 L 147.8,62.5 A 14.171802990449331,14.171802990449331 0 0 0 152.2,62.5 z" sodipodi:nodetypes="ccccc"/><path style="fill:none;stroke:#000000;stroke-width:0.264583px;stroke-linecap:butt;stroke-linejoin:miter;stroke-opacity:1" id="genPath_59" d="M 254.0,48.5 L 252.2,28.5 A 20.120636172827535,20.120636172827535 0 0 0 247.8,28.5 L 246.0,48.5 L 247.8,62.5 A 14.171802990450125,14.171802990450125 0 0 0 252.2,62.5 z" sodipodi:nodetypes="ccccc"/><path style="fill:none;stroke:#000000;stroke-width:0.264583px;stroke-linecap:butt;stroke-linejoin:miter;stroke-opacity:1" id="genPath_60" d="M 178.8675134594813,50.0 L 174.40063509461098,42.263139720814415 A 10.999999999982348,10.999999999982348 0 0 1 170.54744335021027,43.61289000373535 A 21.120636172893136,21.120636172893136 0 0 1 171.10777005194902,47.76290042753107 L 165.66210682830604,49.0511974873548 A 15.671802990445357,15.671802990445357 0 0 1 164.25433945085695,55.0130035921286 L 171.21252869945795,56.508831376719584 A 11.0000000000076,11.0000000000076 0 0 1 174.40063509461098,57.736860279185585 z" sodipodi:nodetypes="ccccc"/><path style="fill:none;stroke:#000000;stroke-width:0.264583px;stroke-linecap:butt;stroke-linejoin:miter;stroke-opacity:1" id="genPath_61" d="M 278.8675134594813,50.0 L 274.40063509461095,42.263139720814415 A 11.000000000032209,11.000000000032209 0 0 1 270.54744335021024,43.61289000373535 A 21.120636172755912,21.120636172755912 0 0 1 271.10777005194905,47.76290042753107 L 265.66210682830604,49.0511974873548 A 15.671802990452369,15.671802990452369 0 0 1 264.25433945085695,55.0130035921286 L 271.21252869945795,56.508831376719584 A 11.000000000075415,11.000000000075415 0 0 1 274.40063509461095,57.736860279185585 z" sodipodi:nodetypes="ccccc"/><path style="fill:none;stroke:#000000;stroke-width:0.264583px;stroke-linecap:butt;stroke-linejoin:miter;stroke-opacity:1" id="genPath_62" d="M 121.13248654051871,50.0 L 125.59936490538902,42.26313972081441 A 10.99999999999439,10.99999999999439 0 0 0 129.45255664978973,43.61289000373535 A 21.120636172864184,21.120636172864184 0 0 0 128.89222994805098,47.76290042753107 L 134.33789317169396,49.0511974873548 A 15.67180299045148,15.67180299045148 0 0 0 135.74566054914305,55.0130035921286 L 128.78747130054205,56.508831376719584 A 11.000000000002185,11.000000000002185 0 0 0 125.59936490538902,57.736860279185585 z" sodipodi:nodetypes="ccccc"/><path style="fill:none;stroke:#000000;stroke-width:0.264583px;stroke-linecap:butt;stroke-linejoin:miter;stroke-opacity:1" id="genPath_63" d="M 221.1324865405187,50.0 L 225.59936490538902,42.26313972081441 A 11.000000000011477,11.000000000011477 0 0 0 229.45255664978973,43.61289000373535 A 21.120636172763216,21.120636172763216 0 0 0 228.89222994805098,47.76290042753107 L 234.33789317169396,49.0511974873548 A 15.671802990448708,15.671802990448708 0 0 0 235.74566054914305,55.0130035921286 L 228.78747130054205,56.508831376719584 A 10.999999999989651,10.999999999989651 0 0 0 225.59936490538902,57.736860279185585 z" sodipodi:nodetypes="ccccc"/></g>
</svg>