<?xml version="1.0" ?><!-- Created with Inkscape (http://www.inkscape.org/) --><svg xmlns:inkscape="http://www.inkscape.org/namespaces/inkscape" xmlns:sodipodi="http://sodipodi.sourceforge.net/DTD/sodipodi-0.dtd" xmlns="http://www.w3.org/2000/svg" xmlns:svg="http://www.w3.org/2000/svg" width="300mm" height="300mm" viewBox="0 0 300 300" version="1.1" id="svg5" inkscape:version="1.1.2 (0a00cf5339, 2022-02-04)" sodipodi:docname="Template.svg">
  <sodipodi:namedview id="namedview7" pagecolor="#ffffff" bordercolor="#999999" borderopacity="1" inkscape:pageshadow="0" inkscape:pageopacity="0" inkscape:pagecheckerboard="0" inkscape:document-units="mm" showgrid="true" width="300mm" inkscape:zoom="0.56315579" inkscape:cx="491.87099" inkscape:cy="557.57217" inkscape:window-width="1874" inkscape:window-height="1052" inkscape:window-x="46" inkscape:window-y="0" inkscape:window-maximized="1" inkscape:current-layer="layer1" height="300mm" inkscape:lockguides="false">
    <inkscape:grid type="xygrid" id="grid888"/>
  </sodipodi:namedview>
  <defs id="defs2"/>
  <g inkscape:label="Desc" inkscape:groupmode="layer" id="layer1" sodipodi:insensitive="true">
    <text xml:space="preserve" style="font-style:normal;font-weight:normal;font-size:10.5833px;line-height:1.25;font-family:sans-serif;fill:#000000;fill-opacity:1;stroke:none;stroke-width:0.264583" x="34.193851" y="10.854793" id="text3620"><tspan sodipodi:role="line" id="tspan3618" style="stroke-width:0.264583" x="34.193851" y="10.854793">3mm</tspan></text>
    <text xml:space="preserve" style="font-style:normal;font-weight:normal;font-size:10.5833px;line-height:1.25;font-family:sans-serif;fill:#000000;fill-opacity:1;stroke:none;stroke-width:0.264583" x="133.83728" y="10.854793" id="text3620-3"><tspan sodipodi:role="line" style="stroke-width:0.264583" x="133.83728" y="10.854793" id="tspan5941">10mm</tspan></text>
    <text xml:space="preserve" style="font-style:normal;font-weight:normal;font-size:10.5833px;line-height:1.25;font-family:sans-serif;fill:#000000;fill-opacity:1;stroke:none;stroke-width:0.264583" x="231.31548" y="11.040827" id="text3620-3-8"><tspan sodipodi:role="line" style="stroke-width:0.264583" x="231.31548" y="11.040827" id="tspan6654">Preview</tspan></text>
    <circle style="fill:#a3a3a3;fill-opacity:1;stroke:none;stroke-width:0.944882;stroke-linejoin:round;paint-order:markers fill stroke" id="path854" cx="290" cy="10" r="5"/>
  </g>
  <g inkscape:groupmode="layer" id="layer2" inkscape:label="3mm"><path style="fill:none;stroke:#000000;stroke-width:0.264583px;stroke-linecap:butt;stroke-linejoin:miter;stroke-opacity:1" id="genPath_16" d="M 78.86751345948129,50.0 L 64.43375672974065,25.0 L 35.56624327025936,24.999999999999996 L 21.13248654051871,50.0 L 35.56624327025934,75.0 L 64.43375672974065,75.0 L 78.86751345948129,50.00000000000001 z" sodipodi:nodetypes="ccccc"/><path style="fill:none;stroke:#000000;stroke-width:0.264583px;stroke-linecap:butt;stroke-linejoin:miter;stroke-opacity:1" id="genPath_17" d="M 278.8675134594813,50.0 L 264.43375672974065,25.0 L 235.56624327025935,24.999999999999996 L 221.1324865405187,50.0 L 235.56624327025935,75.0 L 264.43375672974065,75.0 L 278.8675134594813,50.00000000000001 z" sodipodi:nodetypes="ccccc"/><path style="fill:none;stroke:#000000;stroke-width:0.264583px;stroke-linecap:butt;stroke-linejoin:miter;stroke-opacity:1" id="genPath_18" d="M 36.72094380863861,143.0 L 43.650000000000006,143.0 L 43.650000000000006,138.0 L 56.35,138.0 L 56.35,143.0 L 63.2790561913614,143.0 L 76.55811238272278,120.0 L 63.2790561913614,97.0 L 36.72094380863861,97.0 L 23.441887617277214,120.0 L 36.720943808638594,143.0 z" sodipodi:nodetypes="ccccc"/><path style="fill:none;stroke:#000000;stroke-width:0.264583px;stroke-linecap:butt;stroke-linejoin:miter;stroke-opacity:1" id="genPath_19" d="M 236.72094380863862,73.0 L 243.65,73.0 L 243.65,68.0 L 256.35,68.0 L 256.35,73.0 L 263.2790561913614,73.0 L 276.5581123827228,50.0 L 263.2790561913614,27.0 L 236.72094380863862,26.999999999999996 L 223.44188761727722,50.0 L 236.7209438086386,73.0 z" sodipodi:nodetypes="ccccc"/><path style="fill:none;stroke:#000000;stroke-width:0.264583px;stroke-linecap:butt;stroke-linejoin:miter;stroke-opacity:1" id="genPath_102" d="M 58.96737208150347,57.91074804189933 A 0.7499999999998652,0.7499999999998652 0 0 1 58.003190666973666,59.059814706577804 A 0.7500000000000516,0.7500000000000516 0 0 1 58.96737208150347,57.91074804189933 " sodipodi:nodetypes="ccccc"/><path style="fill:none;stroke:#000000;stroke-width:0.264583px;stroke-linecap:butt;stroke-linejoin:miter;stroke-opacity:1" id="genPath_103" d="M 258.96737208150347,57.91074804189933 A 0.7499999999988834,0.7499999999988834 0 0 1 258.0031906669737,59.059814706577804 A 0.750000000013814,0.750000000013814 0 0 1 258.96737208150347,57.91074804189933 " sodipodi:nodetypes="ccccc"/></g>
  <g inkscape:groupmode="layer" id="layer3" inkscape:label="10mm"><path style="fill:none;stroke:#000000;stroke-width:0.264583px;stroke-linecap:butt;stroke-linejoin:miter;stroke-opacity:1" id="genPath_92" d="M 144.5,25.0 L 135.56624327025935,24.999999999999996 L 121.13248654051871,50.0 L 135.56624327025935,75.0 L 144.5,75.0 L 144.5,73.0 L 142.37867965644034,70.87867965644035 L 142.37867965644037,45.121320343559645 L 144.5,43.0 z" sodipodi:nodetypes="ccccc"/><path style="fill:none;stroke:#000000;stroke-width:0.264583px;stroke-linecap:butt;stroke-linejoin:miter;stroke-opacity:1" id="genPath_93" d="M 244.5,25.0 L 235.56624327025935,24.999999999999996 L 221.1324865405187,50.0 L 235.56624327025935,75.0 L 244.5,75.0 L 244.5,73.0 L 242.37867965644034,70.87867965644035 L 242.37867965644037,45.121320343559645 L 244.5,43.0 z" sodipodi:nodetypes="ccccc"/><path style="fill:none;stroke:#000000;stroke-width:0.264583px;stroke-linecap:butt;stroke-linejoin:miter;stroke-opacity:1" id="genPath_94" d="M 174.40063509461098,57.736860279185585 L 178.8675134594813,50.0 L 164.43375672974065,25.0 L 155.5,25.0 L 155.5,30.400308927301822 A 24.232115440604804,24.232115440604804 0 0 1 170.78935555214898,41.55017612762646 L 168.93823136652617,46.460537940849804 A 15.932941290920969,15.932941290920969 0 0 1 174.40063509461098,57.736860279185585 z" sodipodi:nodetypes="ccccc"/><path style="fill:none;stroke:#000000;stroke-width:0.264583px;stroke-linecap:butt;stroke-linejoin:miter;stroke-opacity:1" id="genPath_95" d="M 274.40063509461095,57.736860279185585 L 278.8675134594813,50.0 L 264.43375672974065,25.0 L 255.5,25.0 L 255.5,30.400308927301822 A 24.232115440602065,24.232115440602065 0 0 1 270.789355552149,41.55017612762646 L 268.93823136652617,46.460537940849804 A 15.932941290938908,15.932941290938908 0 0 1 274.40063509461095,57.736860279185585 z" sodipodi:nodetypes="ccccc"/><path style="fill:none;stroke:#000000;stroke-width:0.264583px;stroke-linecap:butt;stroke-linejoin:miter;stroke-opacity:1" id="genPath_96" d="M 160.92266824234153,38.634358341412124 A 20.00000000000273,20.00000000000273 0 0 0 156.04789450613563,38.634358341412124 L 154.4937326249366,56.407412614680915 L 149.14947710926657,62.06896086969157 A 10.000000000000366,10.000000000000366 0 0 0 151.92469108433352,66.03237717646628 L 158.48528137423858,62.98528137423857 L 165.04587166414365,66.03237717646628 A 9.99999999999466,9.99999999999466 0 0 0 167.8210856392106,62.06896086969157 L 162.47683012354057,56.407412614680915 L 160.92266824234153,38.634358341412124 z" sodipodi:nodetypes="ccccc"/><path style="fill:none;stroke:#000000;stroke-width:0.264583px;stroke-linecap:butt;stroke-linejoin:miter;stroke-opacity:1" id="genPath_97" d="M 260.92266824234156,38.634358341412124 A 20.00000000001133,20.00000000001133 0 0 0 256.0478945061356,38.634358341412124 L 254.4937326249366,56.407412614680915 L 249.14947710926657,62.06896086969157 A 10.00000000000605,10.00000000000605 0 0 0 251.92469108433352,66.03237717646628 L 258.4852813742386,62.98528137423857 L 265.04587166414365,66.03237717646628 A 10.00000000000363,10.00000000000363 0 0 0 267.8210856392106,62.06896086969157 L 262.4768301235406,56.407412614680915 L 260.92266824234156,38.634358341412124 z" sodipodi:nodetypes="ccccc"/><path style="fill:none;stroke:#000000;stroke-width:0.264583px;stroke-linecap:butt;stroke-linejoin:miter;stroke-opacity:1" id="genPath_98" d="M 160.48528137423858,58.48528137423857 A 2.0000000000005116,2.0000000000005116 0 0 1 156.48528137423858,58.48528137423857 A 1.9999999999994884,1.9999999999994884 0 0 1 160.48528137423858,58.48528137423857 z" sodipodi:nodetypes="ccccc"/><path style="fill:none;stroke:#000000;stroke-width:0.264583px;stroke-linecap:butt;stroke-linejoin:miter;stroke-opacity:1" id="genPath_99" d="M 260.4852813742386,58.48528137423857 A 1.999999999999602,1.999999999999602 0 0 1 256.4852813742386,58.48528137423857 A 2.000000000000398,2.000000000000398 0 0 1 260.4852813742386,58.48528137423857 z" sodipodi:nodetypes="ccccc"/><path style="fill:none;stroke:#000000;stroke-width:0.264583px;stroke-linecap:butt;stroke-linejoin:miter;stroke-opacity:1" id="genPath_100" d="M 164.43375672974065,75.0 L 168.90063509461098,67.26313972081441 L 166.30255888325766,65.76313972081441 A 22.67708094089607,22.67708094089607 0 0 1 155.5,72.0 L 155.5,75.0 z" sodipodi:nodetypes="ccccc"/><path style="fill:none;stroke:#000000;stroke-width:0.264583px;stroke-linecap:butt;stroke-linejoin:miter;stroke-opacity:1" id="genPath_101" d="M 264.43375672974065,75.0 L 268.90063509461095,67.26313972081441 L 266.30255888325763,65.76313972081441 A 22.677080940898346,22.677080940898346 0 0 1 255.5,72.0 L 255.5,75.0 z" sodipodi:nodetypes="ccccc"/></g>
</svg>