<?xml version="1.0" ?><!-- Created with Inkscape (http://www.inkscape.org/) --><svg xmlns:inkscape="http://www.inkscape.org/namespaces/inkscape" xmlns:sodipodi="http://sodipodi.sourceforge.net/DTD/sodipodi-0.dtd" xmlns="http://www.w3.org/2000/svg" xmlns:svg="http://www.w3.org/2000/svg" width="300mm" height="300mm" viewBox="0 0 300 300" version="1.1" id="svg5" inkscape:version="1.1.2 (0a00cf5339, 2022-02-04)" sodipodi:docname="Template.svg">
  <sodipodi:namedview id="namedview7" pagecolor="#ffffff" bordercolor="#999999" borderopacity="1" inkscape:pageshadow="0" inkscape:pageopacity="0" inkscape:pagecheckerboard="0" inkscape:document-units="mm" showgrid="true" width="300mm" inkscape:zoom="0.56315579" inkscape:cx="491.87099" inkscape:cy="557.57217" inkscape:window-width="1874" inkscape:window-height="1052" inkscape:window-x="46" inkscape:window-y="0" inkscape:window-maximized="1" inkscape:current-layer="layer1" height="300mm" inkscape:lockguides="false">
    <inkscape:grid type="xygrid" id="grid888"/>
  </sodipodi:namedview>
  <defs id="defs2"/>
  <g inkscape:label="Desc" inkscape:groupmode="layer" id="layer1" sodipodi:insensitive="true">
    <text xml:space="preserve" style="font-style:normal;font-weight:normal;font-size:10.5833px;line-height:1.25;font-family:sans-serif;fill:#000000;fill-opacity:1;stroke:none;stroke-width:0.264583" x="34.193851" y="10.854793" id="text3620"><tspan sodipodi:role="line" id="tspan3618" style="stroke-width:0.264583" x="34.193851" y="10.854793">3mm</tspan></text>
    <text xml:space="preserve" style="font-style:normal;font-weight:normal;font-size:10.5833px;line-height:1.25;font-family:sans-serif;fill:#000000;fill-opacity:1;stroke:none;stroke-width:0.264583" x="133.83728" y="10.854793" id="text3620-3"><tspan sodipodi:role="line" style="stroke-width:0.264583" x="133.83728" y="10.854793" id="tspan5941">10mm</tspan></text>
    <text xml:space="preserve" style="font-style:normal;font-weight:normal;font-size:10.5833px;line-height:1.25;font-family:sans-serif;fill:#000000;fill-opacity:1;stroke:none;stroke-width:0.264583" x="231.31548" y="11.040827" id="text3620-3-8"><tspan sodipodi:role="line" style="stroke-width:0.264583" x="231.31548" y="11.040827" id="tspan6654">Preview</tspan></text>
    <circle style="fill:#a3a3a3;fill-opacity:1;stroke:none;stroke-width:0.944882;stroke-linejoin:round;paint-order:markers fill stroke" id="path854" cx="290" cy="10" r="5"/>
  </g>
  <g inkscape:groupmode="layer" id="layer2" inkscape:label="3mm"><path style="fill:none;stroke:#000000;stroke-width:0.264583px;stroke-linecap:butt;stroke-linejoin:miter;stroke-opacity:1" id="genPath_8" d="M 36.72094380863861,143.0 L 43.650000000000006,143.0 L 43.650000000000006,138.0 L 56.35,138.0 L 56.35,143.0 L 63.2790561913614,143.0 L 76.55811238272278,120.0 L 63.2790561913614,97.0 L 56.35,97.0 L 56.35,102.0 L 43.650000000000006,102.0 L 43.650000000000006,97.0 L 36.72094380863861,97.0 L 23.441887617277214,120.0 L 36.720943808638594,143.0 z" sodipodi:nodetypes="ccccc"/><path style="fill:none;stroke:#000000;stroke-width:0.264583px;stroke-linecap:butt;stroke-linejoin:miter;stroke-opacity:1" id="genPath_9" d="M 236.72094380863862,73.0 L 243.65,73.0 L 243.65,68.0 L 256.35,68.0 L 256.35,73.0 L 263.2790561913614,73.0 L 276.5581123827228,50.0 L 263.2790561913614,27.0 L 256.35,27.0 L 256.35,32.0 L 243.65,32.0 L 243.65,27.0 L 236.72094380863862,26.999999999999996 L 223.44188761727722,50.0 L 236.7209438086386,73.0 z" sodipodi:nodetypes="ccccc"/><path style="fill:none;stroke:#000000;stroke-width:0.264583px;stroke-linecap:butt;stroke-linejoin:miter;stroke-opacity:1" id="genPath_20" d="M 78.86751345948129,50.0 L 64.43375672974065,25.0 L 35.56624327025936,24.999999999999996 L 21.13248654051871,50.0 L 35.56624327025934,75.0 L 64.43375672974065,75.0 L 78.86751345948129,50.00000000000001 z" sodipodi:nodetypes="ccccc"/><path style="fill:none;stroke:#000000;stroke-width:0.264583px;stroke-linecap:butt;stroke-linejoin:miter;stroke-opacity:1" id="genPath_21" d="M 278.8675134594813,50.0 L 264.43375672974065,25.0 L 235.56624327025935,24.999999999999996 L 221.1324865405187,50.0 L 235.56624327025935,75.0 L 264.43375672974065,75.0 L 278.8675134594813,50.00000000000001 z" sodipodi:nodetypes="ccccc"/><path style="fill:none;stroke:#000000;stroke-width:0.264583px;stroke-linecap:butt;stroke-linejoin:miter;stroke-opacity:1" id="genPath_83" d="M 61.0,47.0 L 62.349311839712925,45.5 L 63.69862367942584,47.0 L 65.04793551913876,45.5 L 66.39724735885169,47.0 L 67.74655919856461,45.5 L 69.09587103827752,47.0 L 70.44518287799045,45.5 L 71.79449471770337,47.0 " sodipodi:nodetypes="ccccc"/><path style="fill:none;stroke:#000000;stroke-width:0.264583px;stroke-linecap:butt;stroke-linejoin:miter;stroke-opacity:1" id="genPath_84" d="M 261.0,47.0 L 262.3493118397129,45.5 L 263.69862367942585,47.0 L 265.0479355191388,45.5 L 266.3972473588517,47.0 L 267.7465591985646,45.5 L 269.09587103827755,47.0 L 270.4451828779904,45.5 L 271.79449471770334,47.0 " sodipodi:nodetypes="ccccc"/><path style="fill:none;stroke:#000000;stroke-width:0.264583px;stroke-linecap:butt;stroke-linejoin:miter;stroke-opacity:1" id="genPath_85" d="M 28.205505282296627,47.0 L 29.554817122009553,45.5 L 30.90412896172247,47.0 L 32.25344080143539,45.5 L 33.602752641148314,47.0 L 34.95206448086124,45.5 L 36.30137632057416,47.0 L 37.650688160287075,45.5 L 39.0,47.0 " sodipodi:nodetypes="ccccc"/><path style="fill:none;stroke:#000000;stroke-width:0.264583px;stroke-linecap:butt;stroke-linejoin:miter;stroke-opacity:1" id="genPath_86" d="M 228.20550528229663,47.0 L 229.55481712200955,45.5 L 230.90412896172248,47.0 L 232.2534408014354,45.5 L 233.6027526411483,47.0 L 234.95206448086122,45.5 L 236.30137632057415,47.0 L 237.65068816028707,45.5 L 239.0,47.0 " sodipodi:nodetypes="ccccc"/><path style="fill:none;stroke:#000000;stroke-width:0.264583px;stroke-linecap:butt;stroke-linejoin:miter;stroke-opacity:1" id="genPath_87" d="M 39.0,53.0 L 37.650688160287075,54.5 L 36.30137632057416,53.0 L 34.95206448086124,54.5 L 33.602752641148314,53.0 L 32.25344080143539,54.5 L 30.90412896172247,53.0 L 29.554817122009553,54.5 L 28.20550528229663,53.0 " sodipodi:nodetypes="ccccc"/><path style="fill:none;stroke:#000000;stroke-width:0.264583px;stroke-linecap:butt;stroke-linejoin:miter;stroke-opacity:1" id="genPath_88" d="M 239.0,53.0 L 237.65068816028707,54.5 L 236.30137632057415,53.0 L 234.95206448086122,54.5 L 233.6027526411483,53.0 L 232.2534408014354,54.5 L 230.90412896172248,53.0 L 229.55481712200955,54.5 L 228.20550528229663,53.0 " sodipodi:nodetypes="ccccc"/><path style="fill:none;stroke:#000000;stroke-width:0.264583px;stroke-linecap:butt;stroke-linejoin:miter;stroke-opacity:1" id="genPath_89" d="M 71.79449471770337,53.00000000000001 L 70.44518287799045,54.50000000000001 L 69.09587103827752,53.00000000000001 L 67.74655919856461,54.50000000000001 L 66.39724735885169,53.00000000000001 L 65.04793551913876,54.5 L 63.69862367942584,53.0 L 62.349311839712925,54.5 L 61.0,53.0 " sodipodi:nodetypes="ccccc"/><path style="fill:none;stroke:#000000;stroke-width:0.264583px;stroke-linecap:butt;stroke-linejoin:miter;stroke-opacity:1" id="genPath_90" d="M 271.7944947177034,53.00000000000001 L 270.4451828779904,54.50000000000001 L 269.09587103827755,53.00000000000001 L 267.7465591985646,54.50000000000001 L 266.3972473588517,53.00000000000001 L 265.0479355191388,54.5 L 263.69862367942585,53.0 L 262.3493118397129,54.5 L 261.0,53.0 " sodipodi:nodetypes="ccccc"/><path style="fill:none;stroke:#000000;stroke-width:0.264583px;stroke-linecap:butt;stroke-linejoin:miter;stroke-opacity:1" id="genPath_91" d="M 66.73320053068151,157.0 L 61.0,157.0 A 12.14285714285714,12.14285714285714 0 0 0 39.0,157.0 L 33.266799469318485,157.0 A 17.000000000003254,17.000000000003254 0 0 0 33.266799469318485,163.0 L 39.0,163.0 A 12.14285714285714,12.14285714285714 0 0 0 61.0,163.0 L 66.73320053068151,163.0 A 16.999999999997176,16.999999999997176 0 0 0 66.73320053068151,157.0 z" sodipodi:nodetypes="ccccc"/><path style="fill:none;stroke:#000000;stroke-width:0.264583px;stroke-linecap:butt;stroke-linejoin:miter;stroke-opacity:1" id="genPath_92" d="M 266.73320053068153,47.0 L 261.0,47.0 A 12.142857142857144,12.142857142857144 0 0 0 239.0,47.0 L 233.2667994693185,47.0 A 17.00000000000365,17.00000000000365 0 0 0 233.2667994693185,53.0 L 239.0,53.0 A 12.142857142857144,12.142857142857144 0 0 0 261.0,53.0 L 266.73320053068153,53.0 A 16.999999999997552,16.999999999997552 0 0 0 266.73320053068153,47.0 z" sodipodi:nodetypes="ccccc"/><path style="fill:none;stroke:#000000;stroke-width:0.264583px;stroke-linecap:butt;stroke-linejoin:miter;stroke-opacity:1" id="genPath_93" d="M 67.0,200.0 A 17.0,17.0 0 0 0 33.0,200.0 A 17.0,17.0 0 0 0 67.0,200.0 z" sodipodi:nodetypes="ccccc"/><path style="fill:none;stroke:#000000;stroke-width:0.264583px;stroke-linecap:butt;stroke-linejoin:miter;stroke-opacity:1" id="genPath_94" d="M 267.0,50.0 A 17.0,17.0 0 0 0 233.0,50.0 A 17.0,17.0 0 0 0 267.0,50.0 z" sodipodi:nodetypes="ccccc"/><path style="fill:none;stroke:#000000;stroke-width:0.264583px;stroke-linecap:butt;stroke-linejoin:miter;stroke-opacity:1" id="genPath_95" d="M 41.0,195.0 L 39.530536869268815,197.97745751406262 L 36.24471741852423,198.45491502812527 L 38.622358709262116,200.77254248593738 L 38.06107373853763,204.04508497187473 L 41.0,202.5 L 43.93892626146236,204.04508497187473 L 43.377641290737884,200.77254248593738 L 45.75528258147577,198.45491502812527 L 42.469463130731185,197.97745751406262 z" sodipodi:nodetypes="ccccc"/><path style="fill:none;stroke:#000000;stroke-width:0.264583px;stroke-linecap:butt;stroke-linejoin:miter;stroke-opacity:1" id="genPath_96" d="M 59.0,206.5 L 59.0,203.5 A 3.2015621187164243,3.2015621187164243 0 0 0 55.0,198.5 L 55.0,195.5 L 57.0,195.5 L 57.0,193.5 L 55.0,193.5 L 55.0,191.5 L 53.0,191.5 L 53.0,193.5 L 51.0,193.5 L 51.0,195.5 L 53.0,195.5 L 53.0,198.5 A 3.2015621187164243,3.2015621187164243 0 0 0 49.0,203.5 L 49.0,206.5 z" sodipodi:nodetypes="ccccc"/><path style="fill:none;stroke:#000000;stroke-width:0.264583px;stroke-linecap:butt;stroke-linejoin:miter;stroke-opacity:1" id="genPath_97" d="M 241.0,45.0 L 239.53053686926881,47.97745751406263 L 236.24471741852423,48.454915028125264 L 238.62235870926213,50.772542485937365 L 238.06107373853763,54.045084971874736 L 241.0,52.5 L 243.93892626146237,54.045084971874736 L 243.37764129073787,50.77254248593737 L 245.75528258147577,48.454915028125264 L 242.46946313073119,47.977457514062635 z" sodipodi:nodetypes="ccccc"/><path style="fill:none;stroke:#000000;stroke-width:0.264583px;stroke-linecap:butt;stroke-linejoin:miter;stroke-opacity:1" id="genPath_98" d="M 259.0,56.5 L 259.0,53.5 A 3.2015621187164243,3.2015621187164243 0 0 0 255.0,48.5 L 255.0,45.5 L 257.0,45.5 L 257.0,43.5 L 255.0,43.5 L 255.0,41.5 L 253.0,41.5 L 253.0,43.5 L 251.0,43.5 L 251.0,45.5 L 253.0,45.5 L 253.0,48.5 A 3.2015621187164243,3.2015621187164243 0 0 0 249.0,53.5 L 249.0,56.5 z" sodipodi:nodetypes="ccccc"/></g>
  <g inkscape:groupmode="layer" id="layer3" inkscape:label="10mm"><path style="fill:none;stroke:#000000;stroke-width:0.264583px;stroke-linecap:butt;stroke-linejoin:miter;stroke-opacity:1" id="genPath_81" d="M 178.8675134594813,50.0 L 164.43375672974065,25.0 L 155.5,25.0 L 155.5,28.698591595859206 A 22.00000000000003,22.00000000000003 0 0 1 171.79449471770337,47.0 L 161.0,47.0 A 12.142857142857144,12.142857142857144 0 0 0 139.0,47.0 L 128.20550528229663,47.0 A 21.999999999999982,21.999999999999982 0 0 1 144.5,28.698591595859206 L 144.5,25.0 L 135.56624327025935,25.0 L 121.13248654051871,50.0 L 135.56624327025935,75.0 L 144.5,75.0 L 144.5,71.3014084041408 A 21.999999999999655,21.999999999999655 0 0 1 128.20550528229663,53.0 L 139.0,53.0 A 12.142857142857144,12.142857142857144 0 0 0 161.0,53.0 L 171.79449471770337,53.00000000000001 A 21.999999999999815,21.999999999999815 0 0 1 155.5,71.3014084041408 L 155.5,75.0 L 164.43375672974065,75.0 z" sodipodi:nodetypes="ccccc"/><path style="fill:none;stroke:#000000;stroke-width:0.264583px;stroke-linecap:butt;stroke-linejoin:miter;stroke-opacity:1" id="genPath_82" d="M 278.8675134594813,50.0 L 264.43375672974065,25.0 L 255.5,25.0 L 255.5,28.698591595859206 A 22.00000000000063,22.00000000000063 0 0 1 271.79449471770334,47.0 L 261.0,47.0 A 12.142857142857144,12.142857142857144 0 0 0 239.0,47.0 L 228.20550528229663,47.0 A 21.9999999999998,21.9999999999998 0 0 1 244.5,28.698591595859206 L 244.5,25.0 L 235.56624327025935,25.0 L 221.1324865405187,50.0 L 235.56624327025935,75.0 L 244.5,75.0 L 244.5,71.3014084041408 A 22.000000000001762,22.000000000001762 0 0 1 228.20550528229663,53.0 L 239.0,53.0 A 12.142857142857144,12.142857142857144 0 0 0 261.0,53.0 L 271.79449471770334,53.00000000000001 A 22.000000000000703,22.000000000000703 0 0 1 255.5,71.3014084041408 L 255.5,75.0 L 264.43375672974065,75.0 z" sodipodi:nodetypes="ccccc"/></g>
</svg>