<?xml version="1.0" ?><!-- Created with Inkscape (http://www.inkscape.org/) --><svg xmlns:inkscape="http://www.inkscape.org/namespaces/inkscape" xmlns:sodipodi="http://sodipodi.sourceforge.net/DTD/sodipodi-0.dtd" xmlns="http://www.w3.org/2000/svg" xmlns:svg="http://www.w3.org/2000/svg" width="300mm" height="300mm" viewBox="0 0 300 300" version="1.1" id="svg5" inkscape:version="1.1.2 (0a00cf5339, 2022-02-04)" sodipodi:docname="Template.svg">
  <sodipodi:namedview id="namedview7" pagecolor="#ffffff" bordercolor="#999999" borderopacity="1" inkscape:pageshadow="0" inkscape:pageopacity="0" inkscape:pagecheckerboard="0" inkscape:document-units="mm" showgrid="true" width="300mm" inkscape:zoom="0.56315579" inkscape:cx="491.87099" inkscape:cy="557.57217" inkscape:window-width="1874" inkscape:window-height="1052" inkscape:window-x="46" inkscape:window-y="0" inkscape:window-maximized="1" inkscape:current-layer="layer1" height="300mm" inkscape:lockguides="false">
    <inkscape:grid type="xygrid" id="grid888"/>
  </sodipodi:namedview>
  <defs id="defs2"/>
  <g inkscape:label="Desc" inkscape:groupmode="layer" id="layer1" sodipodi:insensitive="true">
    <text xml:space="preserve" style="font-style:normal;font-weight:normal;font-size:10.5833px;line-height:1.25;font-family:sans-serif;fill:#000000;fill-opacity:1;stroke:none;stroke-width:0.264583" x="34.193851" y="10.854793" id="text3620"><tspan sodipodi:role="line" id="tspan3618" style="stroke-width:0.264583" x="34.193851" y="10.854793">3mm</tspan></text>
    <text xml:space="preserve" style="font-style:normal;font-weight:normal;font-size:10.5833px;line-height:1.25;font-family:sans-serif;fill:#000000;fill-opacity:1;stroke:none;stroke-width:0.264583" x="133.83728" y="10.854793" id="text3620-3"><tspan sodipodi:role="line" style="stroke-width:0.264583" x="133.83728" y="10.854793" id="tspan5941">10mm</tspan></text>
    <text xml:space="preserve" style="font-style:normal;font-weight:normal;font-size:10.5833px;line-height:1.25;font-family:sans-serif;fill:#000000;fill-opacity:1;stroke:none;stroke-width:0.264583" x="231.31548" y="11.040827" id="text3620-3-8"><tspan sodipodi:role="line" style="stroke-width:0.264583" x="231.31548" y="11.040827" id="tspan6654">Preview</tspan></text>
    <circle style="fill:#a3a3a3;fill-opacity:1;stroke:none;stroke-width:0.944882;stroke-linejoin:round;paint-order:markers fill stroke" id="path854" cx="290" cy="10" r="5"/>
  </g>
  <g inkscape:groupmode="layer" id="layer2" inkscape:label="3mm"><path style="fill:none;stroke:#000000;stroke-width:0.264583px;stroke-linecap:butt;stroke-linejoin:miter;stroke-opacity:1" id="genPath_20" d="M 78.86751345948129,50.0 L 64.43375672974065,25.0 L 35.56624327025936,24.999999999999996 L 21.13248654051871,50.0 L 35.56624327025934,75.0 L 64.43375672974065,75.0 L 78.86751345948129,50.00000000000001 z" sodipodi:nodetypes="ccccc"/><path style="fill:none;stroke:#000000;stroke-width:0.264583px;stroke-linecap:butt;stroke-linejoin:miter;stroke-opacity:1" id="genPath_21" d="M 278.8675134594813,50.0 L 264.43375672974065,25.0 L 235.56624327025935,24.999999999999996 L 221.1324865405187,50.0 L 235.56624327025935,75.0 L 264.43375672974065,75.0 L 278.8675134594813,50.00000000000001 z" sodipodi:nodetypes="ccccc"/><path style="fill:none;stroke:#000000;stroke-width:0.264583px;stroke-linecap:butt;stroke-linejoin:miter;stroke-opacity:1" id="genPath_22" d="M 36.72094380863861,143.0 L 43.650000000000006,143.0 L 43.650000000000006,138.0 L 56.35,138.0 L 56.35,143.0 L 63.2790561913614,143.0 L 76.55811238272278,120.0 L 63.2790561913614,97.0 L 36.72094380863861,97.0 L 23.441887617277214,120.0 L 36.720943808638594,143.0 z" sodipodi:nodetypes="ccccc"/><path style="fill:none;stroke:#000000;stroke-width:0.264583px;stroke-linecap:butt;stroke-linejoin:miter;stroke-opacity:1" id="genPath_23" d="M 236.72094380863862,73.0 L 243.65,73.0 L 243.65,68.0 L 256.35,68.0 L 256.35,73.0 L 263.2790561913614,73.0 L 276.5581123827228,50.0 L 263.2790561913614,27.0 L 236.72094380863862,26.999999999999996 L 223.44188761727722,50.0 L 236.7209438086386,73.0 z" sodipodi:nodetypes="ccccc"/><path style="fill:none;stroke:#000000;stroke-width:0.264583px;stroke-linecap:butt;stroke-linejoin:miter;stroke-opacity:1" id="genPath_108" d="M 50.75,53.0 A 0.75,0.75 0 0 1 49.25,53.0 A 0.75,0.75 0 0 1 50.75,53.0 z" sodipodi:nodetypes="ccccc"/><path style="fill:none;stroke:#000000;stroke-width:0.264583px;stroke-linecap:butt;stroke-linejoin:miter;stroke-opacity:1" id="genPath_109" d="M 250.75,53.0 A 0.75,0.75 0 0 1 249.25,53.0 A 0.75,0.75 0 0 1 250.75,53.0 z" sodipodi:nodetypes="ccccc"/></g>
  <g inkscape:groupmode="layer" id="layer3" inkscape:label="10mm"><path style="fill:none;stroke:#000000;stroke-width:0.264583px;stroke-linecap:butt;stroke-linejoin:miter;stroke-opacity:1" id="genPath_104" d="M 178.8675134594813,50.0 L 164.43375672974065,25.0 L 155.5,25.0 L 155.5,28.0 A 22.677080940897305,22.677080940897305 0 0 1 164.5902486313491,67.3601453011032 L 155.5,75.0 L 164.43375672974065,75.0 z" sodipodi:nodetypes="ccccc"/><path style="fill:none;stroke:#000000;stroke-width:0.264583px;stroke-linecap:butt;stroke-linejoin:miter;stroke-opacity:1" id="genPath_105" d="M 278.8675134594813,50.0 L 264.43375672974065,25.0 L 255.5,25.0 L 255.5,28.0 A 22.67708094089738,22.67708094089738 0 0 1 264.5902486313491,67.3601453011032 L 255.5,75.0 L 264.43375672974065,75.0 z" sodipodi:nodetypes="ccccc"/><path style="fill:none;stroke:#000000;stroke-width:0.264583px;stroke-linecap:butt;stroke-linejoin:miter;stroke-opacity:1" id="genPath_106" d="M 121.13248654051871,50.0 L 135.56624327025935,25.0 L 144.5,25.0 L 144.5,28.0 A 22.677080940897127,22.677080940897127 0 0 0 135.4097513686509,67.3601453011032 L 144.5,75.0 L 135.56624327025935,75.0 z" sodipodi:nodetypes="ccccc"/><path style="fill:none;stroke:#000000;stroke-width:0.264583px;stroke-linecap:butt;stroke-linejoin:miter;stroke-opacity:1" id="genPath_107" d="M 221.1324865405187,50.0 L 235.56624327025935,25.0 L 244.5,25.0 L 244.5,28.0 A 22.67708094089731,22.67708094089731 0 0 0 235.4097513686509,67.3601453011032 L 244.5,75.0 L 235.56624327025935,75.0 z" sodipodi:nodetypes="ccccc"/><path style="fill:none;stroke:#000000;stroke-width:0.264583px;stroke-linecap:butt;stroke-linejoin:miter;stroke-opacity:1" id="genPath_110" d="M 152.0,53.0 A 2.0,2.0 0 0 1 148.0,53.0 A 2.0,2.0 0 0 1 152.0,53.0 z" sodipodi:nodetypes="ccccc"/><path style="fill:none;stroke:#000000;stroke-width:0.264583px;stroke-linecap:butt;stroke-linejoin:miter;stroke-opacity:1" id="genPath_111" d="M 252.0,53.0 A 2.0,2.0 0 0 1 248.0,53.0 A 2.0,2.0 0 0 1 252.0,53.0 z" sodipodi:nodetypes="ccccc"/><path style="fill:none;stroke:#000000;stroke-width:0.264583px;stroke-linecap:butt;stroke-linejoin:miter;stroke-opacity:1" id="genPath_112" d="M 155.5,65.0 A 5.5,5.5 0 0 1 144.5,65.0 A 5.5,5.5 0 0 1 155.5,65.0 z" sodipodi:nodetypes="ccccc"/><path style="fill:none;stroke:#000000;stroke-width:0.264583px;stroke-linecap:butt;stroke-linejoin:miter;stroke-opacity:1" id="genPath_113" d="M 255.5,65.0 A 5.5,5.5 0 0 1 244.5,65.0 A 5.5,5.5 0 0 1 255.5,65.0 z" sodipodi:nodetypes="ccccc"/><path style="fill:none;stroke:#000000;stroke-width:0.264583px;stroke-linecap:butt;stroke-linejoin:miter;stroke-opacity:1" id="genPath_114" d="M 157.0,45.90808929720139 A 4.667171480588867,4.667171480588867 0 0 0 154.0,47.0 A 6.222895307442211,6.222895307442211 0 0 1 146.0,47.0 A 4.66717148058224,4.66717148058224 0 0 0 143.0,45.90808929720139 L 143.0,67.0 A 7.280109889280658,7.280109889280658 0 0 0 157.0,67.0 z" sodipodi:nodetypes="ccccc"/><path style="fill:none;stroke:#000000;stroke-width:0.264583px;stroke-linecap:butt;stroke-linejoin:miter;stroke-opacity:1" id="genPath_115" d="M 257.0,45.90808929720139 A 4.667171480574896,4.667171480574896 0 0 0 254.0,47.0 A 6.222895307442138,6.222895307442138 0 0 1 246.0,47.0 A 4.6671714805357,4.6671714805357 0 0 0 243.0,45.90808929720139 L 243.0,67.0 A 7.2801098892802525,7.2801098892802525 0 0 0 257.0,67.0 z" sodipodi:nodetypes="ccccc"/></g>
</svg>