<?xml version="1.0" ?><!-- Created with Inkscape (http://www.inkscape.org/) --><svg xmlns:inkscape="http://www.inkscape.org/namespaces/inkscape" xmlns:sodipodi="http://sodipodi.sourceforge.net/DTD/sodipodi-0.dtd" xmlns="http://www.w3.org/2000/svg" xmlns:svg="http://www.w3.org/2000/svg" width="300mm" height="300mm" viewBox="0 0 300 300" version="1.1" id="svg5" inkscape:version="1.1.2 (0a00cf5339, 2022-02-04)" sodipodi:docname="Template.svg">
  <sodipodi:namedview id="namedview7" pagecolor="#ffffff" bordercolor="#999999" borderopacity="1" inkscape:pageshadow="0" inkscape:pageopacity="0" inkscape:pagecheckerboard="0" inkscape:document-units="mm" showgrid="true" width="300mm" inkscape:zoom="0.56315579" inkscape:cx="491.87099" inkscape:cy="557.57217" inkscape:window-width="1874" inkscape:window-height="1052" inkscape:window-x="46" inkscape:window-y="0" inkscape:window-maximized="1" inkscape:current-layer="layer1" height="300mm" inkscape:lockguides="false">
    <inkscape:grid type="xygrid" id="grid888"/>
  </sodipodi:namedview>
  <defs id="defs2"/>
  <g inkscape:label="Desc" inkscape:groupmode="layer" id="layer1" sodipodi:insensitive="true">
    <text xml:space="preserve" style="font-style:normal;font-weight:normal;font-size:10.5833px;line-height:1.25;font-family:sans-serif;fill:#000000;fill-opacity:1;stroke:none;stroke-width:0.264583" x="34.193851" y="10.854793" id="text3620"><tspan sodipodi:role="line" id="tspan3618" style="stroke-width:0.264583" x="34.193851" y="10.854793">3mm</tspan></text>
    <text xml:space="preserve" style="font-style:normal;font-weight:normal;font-size:10.5833px;line-height:1.25;font-family:sans-serif;fill:#000000;fill-opacity:1;stroke:none;stroke-width:0.264583" x="133.83728" y="10.854793" id="text3620-3"><tspan sodipodi:role="line" style="stroke-width:0.264583" x="133.83728" y="10.854793" id="tspan5941">10mm</tspan></text>
    <text xml:space="preserve" style="font-style:normal;font-weight:normal;font-size:10.5833px;line-height:1.25;font-family:sans-serif;fill:#000000;fill-opacity:1;stroke:none;stroke-width:0.264583" x="231.31548" y="11.040827" id="text3620-3-8"><tspan sodipodi:role="line" style="stroke-width:0.264583" x="231.31548" y="11.040827" id="tspan6654">Preview</tspan></text>
    <circle style="fill:#a3a3a3;fill-opacity:1;stroke:none;stroke-width:0.944882;stroke-linejoin:round;paint-order:markers fill stroke" id="path854" cx="290" cy="10" r="5"/>
  </g>
  <g inkscape:groupmode="layer" id="layer2" inkscape:label="3mm"><path style="fill:none;stroke:#000000;stroke-width:0.264583px;stroke-linecap:butt;stroke-linejoin:miter;stroke-opacity:1" id="genPath_0_EfY9CrQf" d="M 78.86751345948129,50.0 L 64.43375672974065,25.0 L 35.56624327025936,24.999999999999996 L 21.13248654051871,50.0 L 35.56624327025934,75.0 L 64.43375672974065,75.0 L 78.86751345948129,50.00000000000001 z" sodipodi:nodetypes="ccccc"/><path style="fill:none;stroke:#000000;stroke-width:0.264583px;stroke-linecap:butt;stroke-linejoin:miter;stroke-opacity:1" id="genPath_1_EfY9CrQf" d="M 278.8675134594813,50.0 L 264.43375672974065,25.0 L 235.56624327025935,24.999999999999996 L 221.1324865405187,50.0 L 235.56624327025935,75.0 L 264.43375672974065,75.0 L 278.8675134594813,50.00000000000001 z" sodipodi:nodetypes="ccccc"/><path style="fill:none;stroke:#000000;stroke-width:0.264583px;stroke-linecap:butt;stroke-linejoin:miter;stroke-opacity:1" id="genPath_2_EfY9CrQf" d="M 36.72094380863861,143.0 L 43.650000000000006,143.0 L 43.650000000000006,138.0 L 56.35,138.0 L 56.35,143.0 L 63.2790561913614,143.0 L 76.55811238272278,120.0 L 63.2790561913614,97.0 L 36.72094380863861,97.0 L 23.441887617277214,120.0 L 36.720943808638594,143.0 z" sodipodi:nodetypes="ccccc"/><path style="fill:none;stroke:#000000;stroke-width:0.264583px;stroke-linecap:butt;stroke-linejoin:miter;stroke-opacity:1" id="genPath_3_EfY9CrQf" d="M 236.72094380863862,73.0 L 243.65,73.0 L 243.65,68.0 L 256.35,68.0 L 256.35,73.0 L 263.2790561913614,73.0 L 276.5581123827228,50.0 L 263.2790561913614,27.0 L 236.72094380863862,26.999999999999996 L 223.44188761727722,50.0 L 236.7209438086386,73.0 z" sodipodi:nodetypes="ccccc"/></g>
  <g inkscape:groupmode="layer" id="layer3" inkscape:label="10mm"><path style="fill:none;stroke:#000000;stroke-width:0.264583px;stroke-linecap:butt;stroke-linejoin:miter;stroke-opacity:1" id="genPath_4_EfY9CrQf" d="M 235.56624327025935,24.999999999999996 L 231.09936490538902,32.736860279185585 L 248.64868635867208,37.15945611625916 L 250.0,39.5 L 251.35131364132792,37.15945611625916 L 268.90063509461095,32.73686027918559 L 264.43375672974065,25.0 z" sodipodi:nodetypes="ccccc"/><path style="fill:none;stroke:#000000;stroke-width:0.264583px;stroke-linecap:butt;stroke-linejoin:miter;stroke-opacity:1" id="genPath_5_EfY9CrQf" d="M 135.56624327025935,24.999999999999996 L 131.09936490538902,32.736860279185585 L 148.64868635867208,37.15945611625916 L 150.0,39.5 L 151.35131364132792,37.15945611625916 L 168.90063509461098,32.73686027918559 L 164.43375672974065,25.0 z" sodipodi:nodetypes="ccccc"/><path style="fill:none;stroke:#000000;stroke-width:0.264583px;stroke-linecap:butt;stroke-linejoin:miter;stroke-opacity:1" id="genPath_6_EfY9CrQf" d="M 274.40063509461095,57.736860279185585 L 278.8675134594813,50.0 L 274.40063509461095,42.263139720814415 A 11.000000000076954,11.000000000076954 0 0 1 271.58869576546635,43.40336532206634 L 270.62505711283586,43.64621142326244 z" sodipodi:nodetypes="ccccc"/><path style="fill:none;stroke:#000000;stroke-width:0.264583px;stroke-linecap:butt;stroke-linejoin:miter;stroke-opacity:1" id="genPath_7_EfY9CrQf" d="M 174.40063509461098,57.736860279185585 L 178.8675134594813,50.0 L 174.40063509461098,42.263139720814415 A 10.999999999999526,10.999999999999526 0 0 1 171.58869576546635,43.40336532206634 L 170.62505711283583,43.64621142326244 z" sodipodi:nodetypes="ccccc"/><path style="fill:none;stroke:#000000;stroke-width:0.264583px;stroke-linecap:butt;stroke-linejoin:miter;stroke-opacity:1" id="genPath_8_EfY9CrQf" d="M 225.59936490538902,57.736860279185585 L 221.1324865405187,50.0 L 225.59936490538902,42.26313972081441 A 11.00000000002654,11.00000000002654 0 0 0 228.41130423453365,43.40336532206634 L 229.37494288716417,43.646211423262436 z" sodipodi:nodetypes="ccccc"/><path style="fill:none;stroke:#000000;stroke-width:0.264583px;stroke-linecap:butt;stroke-linejoin:miter;stroke-opacity:1" id="genPath_9_EfY9CrQf" d="M 125.59936490538902,57.736860279185585 L 121.13248654051871,50.0 L 125.59936490538902,42.26313972081441 A 10.999999999997087,10.999999999997087 0 0 0 128.41130423453365,43.40336532206634 L 129.37494288716417,43.646211423262436 z" sodipodi:nodetypes="ccccc"/><path style="fill:none;stroke:#000000;stroke-width:0.264583px;stroke-linecap:butt;stroke-linejoin:miter;stroke-opacity:1" id="genPath_10_EfY9CrQf" d="M 264.43375672974065,75.0 L 268.90063509461095,67.26313972081441 A 11.000000000008809,11.000000000008809 0 0 1 263.7754510054312,60.58386977531332 L 260.33983813517597,47.76198798838311 A 1.4999999999952565,1.4999999999952565 0 0 0 258.52439566789843,46.69569314109861 L 252.68806067085538,48.16650504288076 A 10.99999999976628,10.99999999976628 0 0 1 251.1216006579412,48.44266932535685 L 250.0,46.5 L 248.8783993420588,48.44266932535685 A 11.00000000007919,11.00000000007919 0 0 1 247.31193932914462,48.16650504288075 L 241.47560433210157,46.69569314109861 A 1.4999999999987315,1.4999999999987315 0 0 0 239.66016186482406,47.76198798838311 L 236.22454899456878,60.58386977531332 A 11.000000000004318,11.000000000004318 0 0 1 231.09936490538902,67.26313972081441 L 235.56624327025935,75.0 z" sodipodi:nodetypes="ccccc"/><path style="fill:none;stroke:#000000;stroke-width:0.264583px;stroke-linecap:butt;stroke-linejoin:miter;stroke-opacity:1" id="genPath_11_EfY9CrQf" d="M 164.43375672974065,75.0 L 168.90063509461098,67.26313972081441 A 10.999999999993936,10.999999999993936 0 0 1 163.77545100543122,60.58386977531332 L 160.33983813517594,47.76198798838311 A 1.499999999996612,1.499999999996612 0 0 0 158.52439566789843,46.69569314109861 L 152.68806067085538,48.16650504288076 A 10.999999999856025,10.999999999856025 0 0 1 151.1216006579412,48.44266932535685 L 150.0,46.5 L 148.8783993420588,48.44266932535685 A 11.000000000080847,11.000000000080847 0 0 1 147.31193932914462,48.16650504288075 L 141.47560433210157,46.69569314109861 A 1.4999999999993057,1.4999999999993057 0 0 0 139.66016186482406,47.76198798838311 L 136.22454899456878,60.58386977531332 A 11.000000000000597,11.000000000000597 0 0 1 131.09936490538902,67.26313972081441 L 135.56624327025935,75.0 z" sodipodi:nodetypes="ccccc"/></g>
</svg>