<?xml version="1.0" ?><!-- Created with Inkscape (http://www.inkscape.org/) --><svg xmlns:inkscape="http://www.inkscape.org/namespaces/inkscape" xmlns:sodipodi="http://sodipodi.sourceforge.net/DTD/sodipodi-0.dtd" xmlns="http://www.w3.org/2000/svg" xmlns:svg="http://www.w3.org/2000/svg" width="300mm" height="300mm" viewBox="0 0 300 300" version="1.1" id="svg5" inkscape:version="1.1.2 (0a00cf5339, 2022-02-04)" sodipodi:docname="Template.svg">
  <sodipodi:namedview id="namedview7" pagecolor="#ffffff" bordercolor="#999999" borderopacity="1" inkscape:pageshadow="0" inkscape:pageopacity="0" inkscape:pagecheckerboard="0" inkscape:document-units="mm" showgrid="true" width="300mm" inkscape:zoom="0.56315579" inkscape:cx="491.87099" inkscape:cy="557.57217" inkscape:window-width="1874" inkscape:window-height="1052" inkscape:window-x="46" inkscape:window-y="0" inkscape:window-maximized="1" inkscape:current-layer="layer1" height="300mm" inkscape:lockguides="false">
    <inkscape:grid type="xygrid" id="grid888"/>
  </sodipodi:namedview>
  <defs id="defs2"/>
  <g inkscape:label="Desc" inkscape:groupmode="layer" id="layer1" sodipodi:insensitive="true">
    <text xml:space="preserve" style="font-style:normal;font-weight:normal;font-size:10.5833px;line-height:1.25;font-family:sans-serif;fill:#000000;fill-opacity:1;stroke:none;stroke-width:0.264583" x="34.193851" y="10.854793" id="text3620"><tspan sodipodi:role="line" id="tspan3618" style="stroke-width:0.264583" x="34.193851" y="10.854793">3mm</tspan></text>
    <text xml:space="preserve" style="font-style:normal;font-weight:normal;font-size:10.5833px;line-height:1.25;font-family:sans-serif;fill:#000000;fill-opacity:1;stroke:none;stroke-width:0.264583" x="133.83728" y="10.854793" id="text3620-3"><tspan sodipodi:role="line" style="stroke-width:0.264583" x="133.83728" y="10.854793" id="tspan5941">10mm</tspan></text>
    <text xml:space="preserve" style="font-style:normal;font-weight:normal;font-size:10.5833px;line-height:1.25;font-family:sans-serif;fill:#000000;fill-opacity:1;stroke:none;stroke-width:0.264583" x="231.31548" y="11.040827" id="text3620-3-8"><tspan sodipodi:role="line" style="stroke-width:0.264583" x="231.31548" y="11.040827" id="tspan6654">Preview</tspan></text>
    <circle style="fill:#a3a3a3;fill-opacity:1;stroke:none;stroke-width:0.944882;stroke-linejoin:round;paint-order:markers fill stroke" id="path854" cx="290" cy="10" r="5"/>
  </g>
  <g inkscape:groupmode="layer" id="layer2" inkscape:label="3mm"><path style="fill:none;stroke:#000000;stroke-width:0.264583px;stroke-linecap:butt;stroke-linejoin:miter;stroke-opacity:1" id="genPath_36" d="M 78.86751345948129,50.0 L 64.43375672974065,25.0 L 35.56624327025936,24.999999999999996 L 21.13248654051871,50.0 L 35.56624327025934,75.0 L 64.43375672974065,75.0 L 78.86751345948129,50.00000000000001 z" sodipodi:nodetypes="ccccc"/><path style="fill:none;stroke:#000000;stroke-width:0.264583px;stroke-linecap:butt;stroke-linejoin:miter;stroke-opacity:1" id="genPath_37" d="M 278.8675134594813,50.0 L 264.43375672974065,25.0 L 235.56624327025935,24.999999999999996 L 221.1324865405187,50.0 L 235.56624327025935,75.0 L 264.43375672974065,75.0 L 278.8675134594813,50.00000000000001 z" sodipodi:nodetypes="ccccc"/><path style="fill:none;stroke:#000000;stroke-width:0.264583px;stroke-linecap:butt;stroke-linejoin:miter;stroke-opacity:1" id="genPath_38" d="M 36.72094380863861,143.0 L 43.650000000000006,143.0 L 43.650000000000006,138.0 L 56.35,138.0 L 56.35,143.0 L 63.2790561913614,143.0 L 66.7435842870421,136.99926131403117 L 62.4134572681199,134.49926131403117 L 68.7634572681199,123.50073868596881 L 73.09358428704209,126.00073868596881 L 76.55811238272278,120.0 L 73.09358428704209,113.99926131403119 L 68.7634572681199,116.49926131403119 L 62.4134572681199,105.50073868596881 L 66.7435842870421,103.00073868596881 L 63.2790561913614,97.0 L 56.35,97.0 L 56.35,102.0 L 43.650000000000006,102.0 L 43.650000000000006,97.0 L 36.72094380863861,97.0 L 33.25641571295792,103.00073868596881 L 37.58654273188011,105.50073868596881 L 31.236542731880107,116.49926131403119 L 26.906415712957912,113.99926131403119 L 23.441887617277214,120.0 L 26.90641571295791,126.00073868596881 L 31.236542731880103,123.50073868596881 L 37.5865427318801,134.49926131403117 L 33.2564157129579,136.99926131403117 L 36.720943808638594,143.0 z" sodipodi:nodetypes="ccccc"/><path style="fill:none;stroke:#000000;stroke-width:0.264583px;stroke-linecap:butt;stroke-linejoin:miter;stroke-opacity:1" id="genPath_39" d="M 236.72094380863862,73.0 L 243.65,73.0 L 243.65,68.0 L 256.35,68.0 L 256.35,73.0 L 263.2790561913614,73.0 L 266.7435842870421,66.99926131403119 L 262.4134572681199,64.49926131403119 L 268.7634572681199,53.50073868596881 L 273.09358428704206,56.00073868596881 L 276.5581123827228,50.0 L 273.09358428704206,43.99926131403119 L 268.7634572681199,46.49926131403119 L 262.4134572681199,35.50073868596881 L 266.7435842870421,33.00073868596881 L 263.2790561913614,27.0 L 256.35,27.0 L 256.35,32.0 L 243.65,32.0 L 243.65,27.0 L 236.72094380863862,26.999999999999996 L 233.2564157129579,33.00073868596881 L 237.58654273188012,35.50073868596881 L 231.2365427318801,46.49926131403118 L 226.9064157129579,43.99926131403118 L 223.44188761727722,50.0 L 226.9064157129579,56.000738685968805 L 231.2365427318801,53.50073868596881 L 237.5865427318801,64.49926131403117 L 233.2564157129579,66.99926131403117 L 236.7209438086386,73.0 z" sodipodi:nodetypes="ccccc"/></g>
  <g inkscape:groupmode="layer" id="layer3" inkscape:label="10mm"><path style="fill:none;stroke:#000000;stroke-width:0.264583px;stroke-linecap:butt;stroke-linejoin:miter;stroke-opacity:1" id="genPath_40" d="M 155.26206920179752,46.68720410906636 A 62.3423980380081,62.3423980380081 0 0 1 167.56805245198876,33.64247765623158 A 11.000000000009342,11.000000000009342 0 0 1 168.90063509461098,32.73686027918559 L 164.43375672974065,25.0 L 155.5,25.000000000000004 A 10.999999999942586,10.999999999942586 0 0 1 155.38200366668065,26.60685910967604 A 62.342398038021706,62.342398038021706 0 0 1 150.23793079820248,43.78651644930481 z" sodipodi:nodetypes="ccccc"/><path style="fill:none;stroke:#000000;stroke-width:0.264583px;stroke-linecap:butt;stroke-linejoin:miter;stroke-opacity:1" id="genPath_41" d="M 144.73793079820248,53.31279589093364 A 62.3423980380159,62.3423980380159 0 0 1 132.43194754801124,66.35752234376842 A 11.000000000037915,11.000000000037915 0 0 1 131.09936490538902,67.26313972081441 L 135.56624327025935,75.0 L 144.5,75.0 A 11.000000000036302,11.000000000036302 0 0 1 144.61799633331933,73.39314089032396 A 62.342398038010344,62.342398038010344 0 0 1 149.76206920179752,56.21348355069519 z" sodipodi:nodetypes="ccccc"/><path style="fill:none;stroke:#000000;stroke-width:0.264583px;stroke-linecap:butt;stroke-linejoin:miter;stroke-opacity:1" id="genPath_42" d="M 255.26206920179752,46.68720410906636 A 62.34239803798593,62.34239803798593 0 0 1 267.56805245198876,33.64247765623158 A 11.000000000079991,11.000000000079991 0 0 1 268.90063509461095,32.73686027918559 L 264.43375672974065,25.0 L 255.5,25.000000000000004 A 10.999999999568047,10.999999999568047 0 0 1 255.38200366668065,26.60685910967604 A 62.34239803799752,62.34239803799752 0 0 1 250.23793079820248,43.78651644930481 z" sodipodi:nodetypes="ccccc"/><path style="fill:none;stroke:#000000;stroke-width:0.264583px;stroke-linecap:butt;stroke-linejoin:miter;stroke-opacity:1" id="genPath_43" d="M 244.73793079820248,53.31279589093364 A 62.34239803802129,62.34239803802129 0 0 1 232.43194754801124,66.35752234376842 A 11.000000000060878,11.000000000060878 0 0 1 231.09936490538902,67.26313972081441 L 235.56624327025935,75.0 L 244.5,75.0 A 11.00000000002583,11.00000000002583 0 0 1 244.61799633331933,73.39314089032396 A 62.34239803803018,62.34239803803018 0 0 1 249.76206920179752,56.21348355069519 z" sodipodi:nodetypes="ccccc"/><path style="fill:none;stroke:#000000;stroke-width:0.264583px;stroke-linecap:butt;stroke-linejoin:miter;stroke-opacity:1" id="genPath_44" d="M 178.8675134594813,50.0 L 174.40063509461098,42.263139720814415 A 51.342398038010856,51.342398038010856 0 0 0 164.83368955105627,52.2133816942918 L 174.40063509461098,57.736860279185585 z" sodipodi:nodetypes="ccccc"/><path style="fill:none;stroke:#000000;stroke-width:0.264583px;stroke-linecap:butt;stroke-linejoin:miter;stroke-opacity:1" id="genPath_45" d="M 121.13248654051871,50.0 L 125.59936490538902,57.736860279185585 A 51.342398038015936,51.342398038015936 0 0 0 135.16631044894373,47.7866183057082 L 125.59936490538902,42.26313972081441 z" sodipodi:nodetypes="ccccc"/><path style="fill:none;stroke:#000000;stroke-width:0.264583px;stroke-linecap:butt;stroke-linejoin:miter;stroke-opacity:1" id="genPath_46" d="M 278.8675134594813,50.0 L 274.40063509461095,42.263139720814415 A 51.342398038011055,51.342398038011055 0 0 0 264.8336895510563,52.2133816942918 L 274.40063509461095,57.736860279185585 z" sodipodi:nodetypes="ccccc"/><path style="fill:none;stroke:#000000;stroke-width:0.264583px;stroke-linecap:butt;stroke-linejoin:miter;stroke-opacity:1" id="genPath_47" d="M 221.1324865405187,50.0 L 225.59936490538902,57.736860279185585 A 51.342398038010586,51.342398038010586 0 0 0 235.16631044894373,47.7866183057082 L 225.59936490538902,42.26313972081441 z" sodipodi:nodetypes="ccccc"/><path style="fill:none;stroke:#000000;stroke-width:0.264583px;stroke-linecap:butt;stroke-linejoin:miter;stroke-opacity:1" id="genPath_48" d="M 164.43375672974065,75.0 L 155.5,75.0 A 51.3423980380356,51.3423980380356 0 0 1 159.33368955105627,61.73966113592062 L 168.90063509461098,67.26313972081441 z" sodipodi:nodetypes="ccccc"/><path style="fill:none;stroke:#000000;stroke-width:0.264583px;stroke-linecap:butt;stroke-linejoin:miter;stroke-opacity:1" id="genPath_49" d="M 135.56624327025935,24.999999999999996 L 144.5,24.999999999999996 A 51.34239803801921,51.34239803801921 0 0 1 140.66631044894373,38.26033886407937 L 131.09936490538905,32.73686027918558 z" sodipodi:nodetypes="ccccc"/><path style="fill:none;stroke:#000000;stroke-width:0.264583px;stroke-linecap:butt;stroke-linejoin:miter;stroke-opacity:1" id="genPath_50" d="M 264.43375672974065,75.0 L 255.5,75.0 A 51.34239803795278,51.34239803795278 0 0 1 259.3336895510563,61.73966113592062 L 268.90063509461095,67.26313972081441 z" sodipodi:nodetypes="ccccc"/><path style="fill:none;stroke:#000000;stroke-width:0.264583px;stroke-linecap:butt;stroke-linejoin:miter;stroke-opacity:1" id="genPath_51" d="M 235.56624327025935,24.999999999999996 L 244.5,24.999999999999996 A 51.34239803802453,51.34239803802453 0 0 1 240.66631044894373,38.26033886407937 L 231.09936490538905,32.73686027918558 z" sodipodi:nodetypes="ccccc"/></g>
</svg>