<?xml version="1.0" ?><!-- Created with Inkscape (http://www.inkscape.org/) --><svg xmlns:inkscape="http://www.inkscape.org/namespaces/inkscape" xmlns:sodipodi="http://sodipodi.sourceforge.net/DTD/sodipodi-0.dtd" xmlns="http://www.w3.org/2000/svg" xmlns:svg="http://www.w3.org/2000/svg" width="300mm" height="300mm" viewBox="0 0 300 300" version="1.1" id="svg5" inkscape:version="1.1.2 (0a00cf5339, 2022-02-04)" sodipodi:docname="Template.svg">
  <sodipodi:namedview id="namedview7" pagecolor="#ffffff" bordercolor="#999999" borderopacity="1" inkscape:pageshadow="0" inkscape:pageopacity="0" inkscape:pagecheckerboard="0" inkscape:document-units="mm" showgrid="true" width="300mm" inkscape:zoom="0.56315579" inkscape:cx="491.87099" inkscape:cy="557.57217" inkscape:window-width="1874" inkscape:window-height="1052" inkscape:window-x="46" inkscape:window-y="0" inkscape:window-maximized="1" inkscape:current-layer="layer1" height="300mm" inkscape:lockguides="false">
    <inkscape:grid type="xygrid" id="grid888"/>
  </sodipodi:namedview>
  <defs id="defs2"/>
  <g inkscape:label="Desc" inkscape:groupmode="layer" id="layer1" sodipodi:insensitive="true">
    <text xml:space="preserve" style="font-style:normal;font-weight:normal;font-size:10.5833px;line-height:1.25;font-family:sans-serif;fill:#000000;fill-opacity:1;stroke:none;stroke-width:0.264583" x="34.193851" y="10.854793" id="text3620"><tspan sodipodi:role="line" id="tspan3618" style="stroke-width:0.264583" x="34.193851" y="10.854793">3mm</tspan></text>
    <text xml:space="preserve" style="font-style:normal;font-weight:normal;font-size:10.5833px;line-height:1.25;font-family:sans-serif;fill:#000000;fill-opacity:1;stroke:none;stroke-width:0.264583" x="133.83728" y="10.854793" id="text3620-3"><tspan sodipodi:role="line" style="stroke-width:0.264583" x="133.83728" y="10.854793" id="tspan5941">10mm</tspan></text>
    <text xml:space="preserve" style="font-style:normal;font-weight:normal;font-size:10.5833px;line-height:1.25;font-family:sans-serif;fill:#000000;fill-opacity:1;stroke:none;stroke-width:0.264583" x="231.31548" y="11.040827" id="text3620-3-8"><tspan sodipodi:role="line" style="stroke-width:0.264583" x="231.31548" y="11.040827" id="tspan6654">Preview</tspan></text>
    <circle style="fill:#a3a3a3;fill-opacity:1;stroke:none;stroke-width:0.944882;stroke-linejoin:round;paint-order:markers fill stroke" id="path854" cx="290" cy="10" r="5"/>
  </g>
  <g inkscape:groupmode="layer" id="layer2" inkscape:label="3mm"><path style="fill:none;stroke:#000000;stroke-width:0.264583px;stroke-linecap:butt;stroke-linejoin:miter;stroke-opacity:1" id="genPath_0_F8IZcUmX" d="M 78.86751345948129,50.0 L 64.43375672974065,25.0 L 35.56624327025936,24.999999999999996 L 21.13248654051871,50.0 L 35.56624327025934,75.0 L 64.43375672974065,75.0 L 78.86751345948129,50.00000000000001 z" sodipodi:nodetypes="ccccc"/><path style="fill:none;stroke:#000000;stroke-width:0.264583px;stroke-linecap:butt;stroke-linejoin:miter;stroke-opacity:1" id="genPath_1_F8IZcUmX" d="M 278.8675134594813,50.0 L 264.43375672974065,25.0 L 235.56624327025935,24.999999999999996 L 221.1324865405187,50.0 L 235.56624327025935,75.0 L 264.43375672974065,75.0 L 278.8675134594813,50.00000000000001 z" sodipodi:nodetypes="ccccc"/><path style="fill:none;stroke:#000000;stroke-width:0.264583px;stroke-linecap:butt;stroke-linejoin:miter;stroke-opacity:1" id="genPath_2_F8IZcUmX" d="M 36.72094380863861,143.0 L 43.650000000000006,143.0 L 43.650000000000006,138.0 L 56.35,138.0 L 56.35,143.0 L 63.2790561913614,143.0 L 76.55811238272278,120.0 L 63.2790561913614,97.0 L 56.35,97.0 L 56.35,102.0 L 43.650000000000006,102.0 L 43.650000000000006,97.0 L 36.72094380863861,97.0 L 23.441887617277214,120.0 L 36.720943808638594,143.0 z" sodipodi:nodetypes="ccccc"/><path style="fill:none;stroke:#000000;stroke-width:0.264583px;stroke-linecap:butt;stroke-linejoin:miter;stroke-opacity:1" id="genPath_3_F8IZcUmX" d="M 236.72094380863862,73.0 L 243.65,73.0 L 243.65,68.0 L 256.35,68.0 L 256.35,73.0 L 263.2790561913614,73.0 L 276.5581123827228,50.0 L 263.2790561913614,27.0 L 256.35,27.0 L 256.35,32.0 L 243.65,32.0 L 243.65,27.0 L 236.72094380863862,26.999999999999996 L 223.44188761727722,50.0 L 236.7209438086386,73.0 z" sodipodi:nodetypes="ccccc"/></g>
  <g inkscape:groupmode="layer" id="layer3" inkscape:label="10mm"><path style="fill:none;stroke:#000000;stroke-width:0.264583px;stroke-linecap:butt;stroke-linejoin:miter;stroke-opacity:1" id="genPath_4_F8IZcUmX" d="M 164.43375672974065,75.0 L 168.90063509461098,67.26313972081441 A 19.93375672974482,19.93375672974482 0 0 1 164.7722189013587,64.09529455812259 L 164.36331719352413,63.68022725853454 A 5.500000000000284,5.500000000000284 0 0 1 153.36878557228505,63.4350288425444 A 38.933756729724394,38.933756729724394 0 0 1 154.29167106460108,55.00822156679933 A 23.13911707600358,23.13911707600358 0 0 0 154.29167106460108,44.99177843320067 A 38.93375672973582,38.93375672973582 0 0 1 153.36878557228505,36.5649711574556 A 5.499999999999947,5.499999999999947 0 0 1 164.36331719352413,36.31977274146546 L 164.7722189013587,35.90470544187741 A 19.933756729757498,19.933756729757498 0 0 1 168.90063509461098,32.73686027918559 L 164.43375672974065,25.0 L 135.56624327025935,25.0 L 131.09936490538902,32.736860279185585 A 19.933756729742424,19.933756729742424 0 0 1 135.2277810986413,35.90470544187741 L 135.63668280647587,36.31977274146546 A 5.499999999999972,5.499999999999972 0 0 1 146.63121442771495,36.5649711574556 A 38.93375672975062,38.93375672975062 0 0 1 145.70832893539892,44.99177843320067 A 23.139117076002496,23.139117076002496 0 0 0 145.70832893539892,55.00822156679933 A 38.93375672975783,38.93375672975783 0 0 1 146.63121442771495,63.4350288425444 A 5.5000000000001785,5.5000000000001785 0 0 1 135.63668280647587,63.68022725853454 L 135.2277810986413,64.09529455812259 A 19.93375672975636,19.93375672975636 0 0 1 131.09936490538902,67.26313972081441 L 135.56624327025935,75.0 z" sodipodi:nodetypes="ccccc"/><path style="fill:none;stroke:#000000;stroke-width:0.264583px;stroke-linecap:butt;stroke-linejoin:miter;stroke-opacity:1" id="genPath_5_F8IZcUmX" d="M 264.43375672974065,75.0 L 268.90063509461095,67.26313972081441 A 19.93375672976511,19.93375672976511 0 0 1 264.7722189013587,64.09529455812259 L 264.3633171935241,63.68022725853454 A 5.500000000000057,5.500000000000057 0 0 1 253.36878557228505,63.4350288425444 A 38.93375672973676,38.93375672973676 0 0 1 254.29167106460108,55.00822156679933 A 23.13911707602524,23.13911707602524 0 0 0 254.29167106460108,44.99177843320067 A 38.93375672975162,38.93375672975162 0 0 1 253.36878557228505,36.5649711574556 A 5.499999999999935,5.499999999999935 0 0 1 264.3633171935241,36.31977274146546 L 264.7722189013587,35.90470544187741 A 19.933756729744154,19.933756729744154 0 0 1 268.90063509461095,32.73686027918559 L 264.43375672974065,25.0 L 235.56624327025935,25.0 L 231.09936490538902,32.736860279185585 A 19.933756729720702,19.933756729720702 0 0 1 235.2277810986413,35.90470544187741 L 235.63668280647587,36.31977274146546 A 5.499999999999858,5.499999999999858 0 0 1 246.63121442771495,36.5649711574556 A 38.93375672977111,38.93375672977111 0 0 1 245.70832893539892,44.99177843320067 A 23.139117076012713,23.139117076012713 0 0 0 245.70832893539892,55.00822156679933 A 38.933756729771034,38.933756729771034 0 0 1 246.63121442771495,63.4350288425444 A 5.500000000000607,5.500000000000607 0 0 1 235.63668280647587,63.68022725853454 L 235.2277810986413,64.09529455812259 A 19.93375672973075,19.93375672973075 0 0 1 231.09936490538902,67.26313972081441 L 235.56624327025935,75.0 z" sodipodi:nodetypes="ccccc"/><path style="fill:none;stroke:#000000;stroke-width:0.264583px;stroke-linecap:butt;stroke-linejoin:miter;stroke-opacity:1" id="genPath_6_F8IZcUmX" d="M 178.8675134594813,50.0 L 174.40063509461098,42.263139720814415 A 8.933756729740582,8.933756729740582 0 0 0 174.40063509461098,57.736860279185585 z" sodipodi:nodetypes="ccccc"/><path style="fill:none;stroke:#000000;stroke-width:0.264583px;stroke-linecap:butt;stroke-linejoin:miter;stroke-opacity:1" id="genPath_7_F8IZcUmX" d="M 121.13248654051871,50.0 L 125.59936490538902,57.736860279185585 A 8.933756729740757,8.933756729740757 0 0 0 125.59936490538902,42.26313972081441 z" sodipodi:nodetypes="ccccc"/><path style="fill:none;stroke:#000000;stroke-width:0.264583px;stroke-linecap:butt;stroke-linejoin:miter;stroke-opacity:1" id="genPath_8_F8IZcUmX" d="M 278.8675134594813,50.0 L 274.40063509461095,42.263139720814415 A 8.933756729739734,8.933756729739734 0 0 0 274.40063509461095,57.736860279185585 z" sodipodi:nodetypes="ccccc"/><path style="fill:none;stroke:#000000;stroke-width:0.264583px;stroke-linecap:butt;stroke-linejoin:miter;stroke-opacity:1" id="genPath_9_F8IZcUmX" d="M 221.1324865405187,50.0 L 225.59936490538902,57.736860279185585 A 8.9337567297403,8.9337567297403 0 0 0 225.59936490538902,42.26313972081441 z" sodipodi:nodetypes="ccccc"/></g>
</svg>