<?xml version="1.0" ?><!-- Created with Inkscape (http://www.inkscape.org/) --><svg xmlns:inkscape="http://www.inkscape.org/namespaces/inkscape" xmlns:sodipodi="http://sodipodi.sourceforge.net/DTD/sodipodi-0.dtd" xmlns="http://www.w3.org/2000/svg" xmlns:svg="http://www.w3.org/2000/svg" width="300mm" height="300mm" viewBox="0 0 300 300" version="1.1" id="svg5" inkscape:version="1.1.2 (0a00cf5339, 2022-02-04)" sodipodi:docname="Template.svg">
  <sodipodi:namedview id="namedview7" pagecolor="#ffffff" bordercolor="#999999" borderopacity="1" inkscape:pageshadow="0" inkscape:pageopacity="0" inkscape:pagecheckerboard="0" inkscape:document-units="mm" showgrid="true" width="300mm" inkscape:zoom="0.56315579" inkscape:cx="491.87099" inkscape:cy="557.57217" inkscape:window-width="1874" inkscape:window-height="1052" inkscape:window-x="46" inkscape:window-y="0" inkscape:window-maximized="1" inkscape:current-layer="layer1" height="300mm" inkscape:lockguides="false">
    <inkscape:grid type="xygrid" id="grid888"/>
  </sodipodi:namedview>
  <defs id="defs2"/>
  <g inkscape:label="Desc" inkscape:groupmode="layer" id="layer1" sodipodi:insensitive="true">
    <text xml:space="preserve" style="font-style:normal;font-weight:normal;font-size:10.5833px;line-height:1.25;font-family:sans-serif;fill:#000000;fill-opacity:1;stroke:none;stroke-width:0.264583" x="34.193851" y="10.854793" id="text3620"><tspan sodipodi:role="line" id="tspan3618" style="stroke-width:0.264583" x="34.193851" y="10.854793">3mm</tspan></text>
    <text xml:space="preserve" style="font-style:normal;font-weight:normal;font-size:10.5833px;line-height:1.25;font-family:sans-serif;fill:#000000;fill-opacity:1;stroke:none;stroke-width:0.264583" x="133.83728" y="10.854793" id="text3620-3"><tspan sodipodi:role="line" style="stroke-width:0.264583" x="133.83728" y="10.854793" id="tspan5941">10mm</tspan></text>
    <text xml:space="preserve" style="font-style:normal;font-weight:normal;font-size:10.5833px;line-height:1.25;font-family:sans-serif;fill:#000000;fill-opacity:1;stroke:none;stroke-width:0.264583" x="231.31548" y="11.040827" id="text3620-3-8"><tspan sodipodi:role="line" style="stroke-width:0.264583" x="231.31548" y="11.040827" id="tspan6654">Preview</tspan></text>
    <circle style="fill:#a3a3a3;fill-opacity:1;stroke:none;stroke-width:0.944882;stroke-linejoin:round;paint-order:markers fill stroke" id="path854" cx="290" cy="10" r="5"/>
  </g>
  <g inkscape:groupmode="layer" id="layer2" inkscape:label="3mm"><path style="fill:none;stroke:#000000;stroke-width:0.264583px;stroke-linecap:butt;stroke-linejoin:miter;stroke-opacity:1" id="genPath_2" d="M 36.72094380863861,143.0 L 43.650000000000006,143.0 L 43.650000000000006,138.0 L 56.35,138.0 L 56.35,143.0 L 63.2790561913614,143.0 L 66.7435842870421,136.99926131403117 L 62.4134572681199,134.49926131403117 L 68.7634572681199,123.50073868596881 L 73.09358428704209,126.00073868596881 L 76.55811238272278,120.0 L 73.09358428704209,113.99926131403119 L 68.7634572681199,116.49926131403119 L 62.4134572681199,105.50073868596881 L 66.7435842870421,103.00073868596881 L 63.2790561913614,97.0 L 56.35,97.0 L 56.35,102.0 L 43.650000000000006,102.0 L 43.650000000000006,97.0 L 36.72094380863861,97.0 L 33.25641571295792,103.00073868596881 L 37.58654273188011,105.50073868596881 L 31.236542731880107,116.49926131403119 L 26.906415712957912,113.99926131403119 L 23.441887617277214,120.0 L 26.90641571295791,126.00073868596881 L 31.236542731880103,123.50073868596881 L 37.5865427318801,134.49926131403117 L 33.2564157129579,136.99926131403117 L 36.720943808638594,143.0 z" sodipodi:nodetypes="ccccc"/><path style="fill:none;stroke:#000000;stroke-width:0.264583px;stroke-linecap:butt;stroke-linejoin:miter;stroke-opacity:1" id="genPath_3" d="M 236.72094380863862,73.0 L 243.65,73.0 L 243.65,68.0 L 256.35,68.0 L 256.35,73.0 L 263.2790561913614,73.0 L 266.7435842870421,66.99926131403119 L 262.4134572681199,64.49926131403119 L 268.7634572681199,53.50073868596881 L 273.09358428704206,56.00073868596881 L 276.5581123827228,50.0 L 273.09358428704206,43.99926131403119 L 268.7634572681199,46.49926131403119 L 262.4134572681199,35.50073868596881 L 266.7435842870421,33.00073868596881 L 263.2790561913614,27.0 L 256.35,27.0 L 256.35,32.0 L 243.65,32.0 L 243.65,27.0 L 236.72094380863862,26.999999999999996 L 233.2564157129579,33.00073868596881 L 237.58654273188012,35.50073868596881 L 231.2365427318801,46.49926131403118 L 226.9064157129579,43.99926131403118 L 223.44188761727722,50.0 L 226.9064157129579,56.000738685968805 L 231.2365427318801,53.50073868596881 L 237.5865427318801,64.49926131403117 L 233.2564157129579,66.99926131403117 L 236.7209438086386,73.0 z" sodipodi:nodetypes="ccccc"/><path style="fill:none;stroke:#000000;stroke-width:0.264583px;stroke-linecap:butt;stroke-linejoin:miter;stroke-opacity:1" id="genPath_6" d="M 78.86751345948129,50.0 L 64.43375672974065,25.0 L 35.56624327025936,24.999999999999996 L 21.13248654051871,50.0 L 35.56624327025934,75.0 L 64.43375672974065,75.0 L 78.86751345948129,50.00000000000001 z" sodipodi:nodetypes="ccccc"/><path style="fill:none;stroke:#000000;stroke-width:0.264583px;stroke-linecap:butt;stroke-linejoin:miter;stroke-opacity:1" id="genPath_7" d="M 278.8675134594813,50.0 L 264.43375672974065,25.0 L 235.56624327025935,24.999999999999996 L 221.1324865405187,50.0 L 235.56624327025935,75.0 L 264.43375672974065,75.0 L 278.8675134594813,50.00000000000001 z" sodipodi:nodetypes="ccccc"/><path style="fill:none;stroke:#000000;stroke-width:0.264583px;stroke-linecap:butt;stroke-linejoin:miter;stroke-opacity:1" id="genPath_18" d="M 254.25,39.638784067832276 L 252.83333333333334,38.138784067832276 L 251.41666666666666,39.638784067832276 L 250.0,38.138784067832276 L 248.58333333333334,39.638784067832276 L 247.16666666666666,38.138784067832276 L 245.75,39.638784067832276 " sodipodi:nodetypes="ccccc"/><path style="fill:none;stroke:#000000;stroke-width:0.264583px;stroke-linecap:butt;stroke-linejoin:miter;stroke-opacity:1" id="genPath_19" d="M 243.15192378864668,41.13878406783227 L 241.14455234963668,41.61565338986023 L 241.73525712198003,43.59252271188818 L 239.72788568297003,44.06939203391613 L 240.31859045531334,46.04626135594409 L 238.31121901630337,46.52313067797204 L 238.90192378864668,48.5 " sodipodi:nodetypes="ccccc"/><path style="fill:none;stroke:#000000;stroke-width:0.264583px;stroke-linecap:butt;stroke-linejoin:miter;stroke-opacity:1" id="genPath_20" d="M 238.90192378864668,51.49999999999999 L 238.31121901630337,53.47686932202795 L 240.31859045531334,53.9537386440559 L 239.72788568297003,55.93060796608386 L 241.73525712198003,56.407477288111814 L 241.14455234963668,58.38434661013977 L 243.15192378864668,58.861215932167724 " sodipodi:nodetypes="ccccc"/><path style="fill:none;stroke:#000000;stroke-width:0.264583px;stroke-linecap:butt;stroke-linejoin:miter;stroke-opacity:1" id="genPath_21" d="M 245.75,60.361215932167724 L 247.16666666666666,61.861215932167724 L 248.58333333333334,60.361215932167724 L 250.0,61.861215932167724 L 251.41666666666666,60.361215932167724 L 252.83333333333334,61.861215932167724 L 254.25,60.361215932167724 " sodipodi:nodetypes="ccccc"/><path style="fill:none;stroke:#000000;stroke-width:0.264583px;stroke-linecap:butt;stroke-linejoin:miter;stroke-opacity:1" id="genPath_22" d="M 256.8480762113533,58.86121593216773 L 258.8554476503633,58.38434661013978 L 258.26474287802,56.40747728811182 L 260.27211431702995,55.93060796608387 L 259.68140954468663,53.95373864405592 L 261.68878098369663,53.47686932202796 L 261.0980762113533,51.50000000000001 " sodipodi:nodetypes="ccccc"/><path style="fill:none;stroke:#000000;stroke-width:0.264583px;stroke-linecap:butt;stroke-linejoin:miter;stroke-opacity:1" id="genPath_23" d="M 261.0980762113533,48.5 L 261.68878098369663,46.52313067797205 L 259.68140954468663,46.04626135594409 L 260.27211431702995,44.06939203391614 L 258.26474287802,43.59252271188818 L 258.8554476503633,41.61565338986023 L 256.8480762113533,41.138784067832276 " sodipodi:nodetypes="ccccc"/><path style="fill:none;stroke:#000000;stroke-width:0.264583px;stroke-linecap:butt;stroke-linejoin:miter;stroke-opacity:1" id="genPath_24" d="M 54.25,39.638784067832276 L 52.833333333333336,38.138784067832276 L 51.41666666666667,39.638784067832276 L 50.0,38.138784067832276 L 48.583333333333336,39.638784067832276 L 47.166666666666664,38.138784067832276 L 45.75,39.638784067832276 " sodipodi:nodetypes="ccccc"/><path style="fill:none;stroke:#000000;stroke-width:0.264583px;stroke-linecap:butt;stroke-linejoin:miter;stroke-opacity:1" id="genPath_25" d="M 43.151923788646684,41.13878406783227 L 41.1445523496367,41.61565338986023 L 41.73525712198002,43.59252271188818 L 39.727885682970026,44.06939203391613 L 40.318590455313355,46.04626135594409 L 38.31121901630336,46.52313067797204 L 38.901923788646684,48.5 " sodipodi:nodetypes="ccccc"/><path style="fill:none;stroke:#000000;stroke-width:0.264583px;stroke-linecap:butt;stroke-linejoin:miter;stroke-opacity:1" id="genPath_26" d="M 38.901923788646684,51.49999999999999 L 38.31121901630336,53.47686932202795 L 40.31859045531335,53.9537386440559 L 39.727885682970026,55.93060796608386 L 41.73525712198001,56.407477288111814 L 41.14455234963669,58.38434661013977 L 43.151923788646684,58.861215932167724 " sodipodi:nodetypes="ccccc"/><path style="fill:none;stroke:#000000;stroke-width:0.264583px;stroke-linecap:butt;stroke-linejoin:miter;stroke-opacity:1" id="genPath_27" d="M 45.75,60.361215932167724 L 47.166666666666664,61.861215932167724 L 48.58333333333333,60.361215932167724 L 50.0,61.861215932167724 L 51.416666666666664,60.361215932167724 L 52.83333333333333,61.861215932167724 L 54.25,60.361215932167724 " sodipodi:nodetypes="ccccc"/><path style="fill:none;stroke:#000000;stroke-width:0.264583px;stroke-linecap:butt;stroke-linejoin:miter;stroke-opacity:1" id="genPath_28" d="M 56.84807621135331,58.86121593216773 L 58.8554476503633,58.38434661013978 L 58.26474287801998,56.40747728811182 L 60.272114317029974,55.93060796608387 L 59.681409544686645,53.95373864405592 L 61.68878098369664,53.47686932202796 L 61.098076211353316,51.50000000000001 " sodipodi:nodetypes="ccccc"/><path style="fill:none;stroke:#000000;stroke-width:0.264583px;stroke-linecap:butt;stroke-linejoin:miter;stroke-opacity:1" id="genPath_29" d="M 61.098076211353316,48.5 L 61.68878098369664,46.52313067797205 L 59.681409544686645,46.04626135594409 L 60.272114317029974,44.06939203391614 L 58.26474287801998,43.59252271188818 L 58.8554476503633,41.61565338986023 L 56.848076211353316,41.138784067832276 " sodipodi:nodetypes="ccccc"/><path style="fill:none;stroke:#000000;stroke-width:0.264583px;stroke-linecap:butt;stroke-linejoin:miter;stroke-opacity:1" id="genPath_30" d="M 250.0,45.0 L 248.53053686926881,47.97745751406263 L 245.24471741852423,48.454915028125264 L 247.62235870926213,50.772542485937365 L 247.06107373853763,54.045084971874736 L 250.0,52.5 L 252.93892626146237,54.045084971874736 L 252.37764129073787,50.77254248593737 L 254.75528258147577,48.454915028125264 L 251.46946313073119,47.977457514062635 z" sodipodi:nodetypes="ccccc"/><path style="fill:none;stroke:#000000;stroke-width:0.264583px;stroke-linecap:butt;stroke-linejoin:miter;stroke-opacity:1" id="genPath_31" d="M 50.0,80.0 L 48.530536869268815,82.97745751406264 L 45.24471741852423,83.45491502812526 L 47.622358709262116,85.77254248593736 L 47.06107373853764,89.04508497187473 L 50.0,87.5 L 52.93892626146236,89.04508497187474 L 52.377641290737884,85.77254248593736 L 54.75528258147577,83.45491502812527 L 51.469463130731185,82.97745751406264 z" sodipodi:nodetypes="ccccc"/></g>
  <g inkscape:groupmode="layer" id="layer3" inkscape:label="10mm"><path style="fill:none;stroke:#000000;stroke-width:0.264583px;stroke-linecap:butt;stroke-linejoin:miter;stroke-opacity:1" id="genPath_16" d="M 264.43375672974065,25.0 L 255.5,25.0 L 255.5,27.08141571295792 L 258.5,32.277568135664545 L 254.25,39.638784067832276 L 245.75,39.638784067832276 L 241.5,32.277568135664545 L 244.5,27.081415712957906 L 244.5,25.0 L 235.56624327025935,24.999999999999993 L 231.09936490538905,32.73686027918558 L 232.90192378864668,33.77756813566454 L 238.90192378864668,33.77756813566454 L 243.15192378864668,41.13878406783227 L 238.90192378864668,48.5 L 230.40192378864668,48.5 L 227.40192378864668,43.30384757729336 L 225.59936490538905,42.26313972081441 L 221.1324865405187,49.999999999999986 L 225.59936490538902,57.73686027918558 L 227.40192378864668,56.69615242270662 L 230.40192378864668,51.49999999999999 L 238.90192378864668,51.49999999999999 L 243.15192378864668,58.861215932167724 L 238.90192378864668,66.22243186433545 L 232.90192378864668,66.22243186433545 L 231.09936490538902,67.2631397208144 L 235.56624327025935,75.0 L 244.5,75.0 L 244.5,72.91858428704208 L 241.5,67.72243186433545 L 245.75,60.361215932167724 L 254.25,60.361215932167724 L 258.5,67.72243186433545 L 255.5,72.9185842870421 L 255.5,75.0 L 264.43375672974065,75.00000000000001 L 268.90063509461095,67.26313972081442 L 267.0980762113533,66.22243186433546 L 261.0980762113533,66.22243186433546 L 256.8480762113533,58.86121593216773 L 261.0980762113533,51.50000000000001 L 269.5980762113533,51.50000000000001 L 272.5980762113533,56.69615242270665 L 274.40063509461095,57.736860279185606 L 278.8675134594813,50.0 L 274.40063509461095,42.263139720814415 L 272.5980762113533,43.303847577293375 L 269.5980762113533,48.5 L 261.0980762113533,48.5 L 256.8480762113533,41.138784067832276 L 261.0980762113533,33.77756813566454 L 267.0980762113533,33.777568135664545 L 268.90063509461095,32.73686027918559 z" sodipodi:nodetypes="ccccc"/><path style="fill:none;stroke:#000000;stroke-width:0.264583px;stroke-linecap:butt;stroke-linejoin:miter;stroke-opacity:1" id="genPath_17" d="M 164.43375672974065,25.0 L 155.5,25.0 L 155.5,27.08141571295792 L 158.5,32.277568135664545 L 154.25,39.638784067832276 L 145.75,39.638784067832276 L 141.5,32.277568135664545 L 144.5,27.081415712957906 L 144.5,25.0 L 135.56624327025935,24.999999999999993 L 131.09936490538905,32.73686027918558 L 132.90192378864668,33.77756813566454 L 138.90192378864668,33.77756813566454 L 143.15192378864668,41.13878406783227 L 138.90192378864668,48.5 L 130.40192378864668,48.5 L 127.40192378864668,43.30384757729336 L 125.59936490538904,42.26313972081441 L 121.13248654051871,49.999999999999986 L 125.59936490538902,57.73686027918558 L 127.40192378864668,56.69615242270662 L 130.40192378864668,51.49999999999999 L 138.90192378864668,51.49999999999999 L 143.15192378864668,58.861215932167724 L 138.90192378864668,66.22243186433545 L 132.90192378864668,66.22243186433545 L 131.09936490538902,67.2631397208144 L 135.56624327025935,75.0 L 144.5,75.0 L 144.5,72.91858428704208 L 141.5,67.72243186433545 L 145.75,60.361215932167724 L 154.25,60.361215932167724 L 158.5,67.72243186433545 L 155.5,72.9185842870421 L 155.5,75.0 L 164.43375672974062,75.00000000000001 L 168.90063509461095,67.26313972081442 L 167.0980762113533,66.22243186433546 L 161.09807621135332,66.22243186433546 L 156.84807621135332,58.86121593216773 L 161.09807621135332,51.50000000000001 L 169.59807621135332,51.50000000000001 L 172.59807621135332,56.69615242270665 L 174.40063509461095,57.736860279185606 L 178.8675134594813,50.0 L 174.40063509461098,42.263139720814415 L 172.59807621135332,43.303847577293375 L 169.59807621135332,48.5 L 161.09807621135332,48.5 L 156.84807621135332,41.138784067832276 L 161.09807621135332,33.77756813566454 L 167.09807621135332,33.777568135664545 L 168.90063509461098,32.73686027918559 z" sodipodi:nodetypes="ccccc"/></g>
</svg>