<?xml version="1.0" ?><!-- Created with Inkscape (http://www.inkscape.org/) --><svg xmlns:inkscape="http://www.inkscape.org/namespaces/inkscape" xmlns:sodipodi="http://sodipodi.sourceforge.net/DTD/sodipodi-0.dtd" xmlns="http://www.w3.org/2000/svg" xmlns:svg="http://www.w3.org/2000/svg" width="300mm" height="300mm" viewBox="0 0 300 300" version="1.1" id="svg5" inkscape:version="1.1.2 (0a00cf5339, 2022-02-04)" sodipodi:docname="Template.svg">
  <sodipodi:namedview id="namedview7" pagecolor="#ffffff" bordercolor="#999999" borderopacity="1" inkscape:pageshadow="0" inkscape:pageopacity="0" inkscape:pagecheckerboard="0" inkscape:document-units="mm" showgrid="true" width="300mm" inkscape:zoom="0.56315579" inkscape:cx="491.87099" inkscape:cy="557.57217" inkscape:window-width="1874" inkscape:window-height="1052" inkscape:window-x="46" inkscape:window-y="0" inkscape:window-maximized="1" inkscape:current-layer="layer1" height="300mm" inkscape:lockguides="false">
    <inkscape:grid type="xygrid" id="grid888"/>
  </sodipodi:namedview>
  <defs id="defs2"/>
  <g inkscape:label="Desc" inkscape:groupmode="layer" id="layer1" sodipodi:insensitive="true">
    <text xml:space="preserve" style="font-style:normal;font-weight:normal;font-size:10.5833px;line-height:1.25;font-family:sans-serif;fill:#000000;fill-opacity:1;stroke:none;stroke-width:0.264583" x="34.193851" y="10.854793" id="text3620"><tspan sodipodi:role="line" id="tspan3618" style="stroke-width:0.264583" x="34.193851" y="10.854793">3mm</tspan></text>
    <text xml:space="preserve" style="font-style:normal;font-weight:normal;font-size:10.5833px;line-height:1.25;font-family:sans-serif;fill:#000000;fill-opacity:1;stroke:none;stroke-width:0.264583" x="133.83728" y="10.854793" id="text3620-3"><tspan sodipodi:role="line" style="stroke-width:0.264583" x="133.83728" y="10.854793" id="tspan5941">10mm</tspan></text>
    <text xml:space="preserve" style="font-style:normal;font-weight:normal;font-size:10.5833px;line-height:1.25;font-family:sans-serif;fill:#000000;fill-opacity:1;stroke:none;stroke-width:0.264583" x="231.31548" y="11.040827" id="text3620-3-8"><tspan sodipodi:role="line" style="stroke-width:0.264583" x="231.31548" y="11.040827" id="tspan6654">Preview</tspan></text>
    <circle style="fill:#a3a3a3;fill-opacity:1;stroke:none;stroke-width:0.944882;stroke-linejoin:round;paint-order:markers fill stroke" id="path854" cx="290" cy="10" r="5"/>
  </g>
  <g inkscape:groupmode="layer" id="layer2" inkscape:label="3mm"><path style="fill:none;stroke:#000000;stroke-width:0.264583px;stroke-linecap:butt;stroke-linejoin:miter;stroke-opacity:1" id="genPath_0" d="M 36.72094380863861,143.0 L 43.650000000000006,143.0 L 43.650000000000006,138.0 L 56.35,138.0 L 56.35,143.0 L 63.2790561913614,143.0 L 76.55811238272278,120.0 L 63.2790561913614,97.0 L 36.72094380863861,97.0 L 23.441887617277214,120.0 L 36.720943808638594,143.0 z" sodipodi:nodetypes="ccccc"/><path style="fill:none;stroke:#000000;stroke-width:0.264583px;stroke-linecap:butt;stroke-linejoin:miter;stroke-opacity:1" id="genPath_1" d="M 236.72094380863862,73.0 L 243.65,73.0 L 243.65,68.0 L 256.35,68.0 L 256.35,73.0 L 263.2790561913614,73.0 L 276.5581123827228,50.0 L 263.2790561913614,27.0 L 236.72094380863862,26.999999999999996 L 223.44188761727722,50.0 L 236.7209438086386,73.0 z" sodipodi:nodetypes="ccccc"/><path style="fill:none;stroke:#000000;stroke-width:0.264583px;stroke-linecap:butt;stroke-linejoin:miter;stroke-opacity:1" id="genPath_12" d="M 78.86751345948129,50.0 L 64.43375672974065,25.0 L 35.56624327025936,24.999999999999996 L 21.13248654051871,50.0 L 35.56624327025934,75.0 L 64.43375672974065,75.0 L 78.86751345948129,50.00000000000001 z" sodipodi:nodetypes="ccccc"/><path style="fill:none;stroke:#000000;stroke-width:0.264583px;stroke-linecap:butt;stroke-linejoin:miter;stroke-opacity:1" id="genPath_13" d="M 278.8675134594813,50.0 L 264.43375672974065,25.0 L 235.56624327025935,24.999999999999996 L 221.1324865405187,50.0 L 235.56624327025935,75.0 L 264.43375672974065,75.0 L 278.8675134594813,50.00000000000001 z" sodipodi:nodetypes="ccccc"/><path style="fill:none;stroke:#000000;stroke-width:0.264583px;stroke-linecap:butt;stroke-linejoin:miter;stroke-opacity:1" id="genPath_14" d="M 43.1056000119292,44.214911512821146 A 9.000000000000028,9.000000000000028 0 0 0 50.0,59.0 A 8.999999999999972,8.999999999999972 0 0 0 56.36396103067893,43.63603896932107 A 7.999999999999996,7.999999999999996 0 0 1 55.0926120498958,33.979184719828694 A 9.030958591311157,9.030958591311157 0 0 0 48.0,48.0 A 18.53456666528529,18.53456666528529 0 0 1 43.1056000119292,44.214911512821146 z" sodipodi:nodetypes="ccccc"/><path style="fill:none;stroke:#000000;stroke-width:0.264583px;stroke-linecap:butt;stroke-linejoin:miter;stroke-opacity:1" id="genPath_15" d="M 243.1056000119292,44.214911512821146 A 9.000000000000263,9.000000000000263 0 0 0 250.0,59.0 A 9.000000000001284,9.000000000001284 0 0 0 256.3639610306789,43.63603896932107 A 7.999999999997267,7.999999999997267 0 0 1 255.0926120498958,33.979184719828694 A 9.030958591311204,9.030958591311204 0 0 0 248.0,48.0 A 18.534566665283894,18.534566665283894 0 0 1 243.1056000119292,44.214911512821146 z" sodipodi:nodetypes="ccccc"/><path style="fill:none;stroke:#000000;stroke-width:0.264583px;stroke-linecap:butt;stroke-linejoin:miter;stroke-opacity:1" id="genPath_54" d="M 229.0,47.0 L 227.53053686926881,49.97745751406263 L 224.24471741852423,50.454915028125264 L 226.62235870926213,52.772542485937365 L 226.06107373853763,56.045084971874736 L 229.0,54.5 L 231.93892626146237,56.045084971874736 L 231.37764129073787,52.77254248593737 L 233.75528258147577,50.454915028125264 L 230.46946313073119,49.977457514062635 z" sodipodi:nodetypes="ccccc"/><path style="fill:none;stroke:#000000;stroke-width:0.264583px;stroke-linecap:butt;stroke-linejoin:miter;stroke-opacity:1" id="genPath_55" d="M 50.0,80.0 L 48.530536869268815,82.97745751406264 L 45.24471741852423,83.45491502812526 L 47.622358709262116,85.77254248593736 L 47.06107373853764,89.04508497187473 L 50.0,87.5 L 52.93892626146236,89.04508497187474 L 52.377641290737884,85.77254248593736 L 54.75528258147577,83.45491502812527 L 51.469463130731185,82.97745751406264 z" sodipodi:nodetypes="ccccc"/><path style="fill:none;stroke:#000000;stroke-width:0.264583px;stroke-linecap:butt;stroke-linejoin:miter;stroke-opacity:1" id="genPath_56" d="M 63.11925636434016,150.0 L 63.11925636434016,161.0 A 13.119256364340153,13.119256364340153 0 0 1 36.88074363565984,161.0 L 36.88074363565984,150.0 L 39.88074363565984,150.0 L 39.88074363565984,161.0 A 10.119256364340131,10.119256364340131 0 0 0 60.11925636434016,161.0 L 60.11925636434016,150.0 z" sodipodi:nodetypes="ccccc"/><path style="fill:none;stroke:#000000;stroke-width:0.264583px;stroke-linecap:butt;stroke-linejoin:miter;stroke-opacity:1" id="genPath_57" d="M 64.2439470080269,180.0 L 64.2439470080269,191.0 A 14.243947008026872,14.243947008026872 0 0 1 35.75605299197311,191.0 L 35.75605299197311,180.0 L 38.75605299197311,180.0 L 38.75605299197311,191.0 A 11.243947008026758,11.243947008026758 0 0 0 61.24394700802689,191.0 L 61.24394700802689,180.0 z" sodipodi:nodetypes="ccccc"/><path style="fill:none;stroke:#000000;stroke-width:0.264583px;stroke-linecap:butt;stroke-linejoin:miter;stroke-opacity:1" id="genPath_58" d="M 66.27496653803011,210.0 L 66.27496653803011,221.0 A 16.27496653803017,16.27496653803017 0 0 1 33.725033461969886,221.0 L 33.725033461969886,210.0 L 36.725033461969886,210.0 L 36.725033461969886,221.0 A 13.27496653803005,13.27496653803005 0 0 0 63.274966538030114,221.0 L 63.274966538030114,210.0 z" sodipodi:nodetypes="ccccc"/></g>
  <g inkscape:groupmode="layer" id="layer3" inkscape:label="10mm"><path style="fill:none;stroke:#000000;stroke-width:0.264583px;stroke-linecap:butt;stroke-linejoin:miter;stroke-opacity:1" id="genPath_38" d="M 221.1324865405187,50.0 L 235.56624327025935,75.0 L 244.5,75.0 L 242.97055960350218,73.53829522866508 L 244.37742212864086,71.95826149473945 L 242.7353228686498,70.62436540233966 L 244.01048347909628,68.93624983089663 L 242.26637499943834,67.73881324544922 L 243.40156378931445,65.9535639137529 L 241.56675730274975,64.90035267100875 L 242.55461213714534,63.029547606031684 L 240.6410070678124,62.12739218505038 L 241.47512132905536,60.18316427552596 L 239.4951281401395,59.43791550039811 L 240.17009227716966,57.43287381038124 L 238.136551984287,56.849364905389024 L 238.64798859567065,54.79651289963729 L 236.57408948795407,54.37852814394039 L 236.91868171101203,52.291179355455206 L 234.8178738199957,52.04142954058826 L 234.99338684193052,49.93312122724462 L 232.87929471293398,49.85322607659394 L 232.88459026444852,47.737631426828365 L 230.77092459617225,47.82810909110421 L 230.60596833358287,45.71894854804088 L 228.5064370589659,45.97921224487128 L 228.17229878693442,43.8901645239835 L 226.1005181719491,44.31852634342311 L 225.59936490538902,42.26313972081441 z" sodipodi:nodetypes="ccccc"/><path style="fill:none;stroke:#000000;stroke-width:0.264583px;stroke-linecap:butt;stroke-linejoin:miter;stroke-opacity:1" id="genPath_39" d="M 121.13248654051871,50.0 L 135.56624327025935,75.0 L 144.5,75.0 L 142.97055960350218,73.53829522866508 L 144.37742212864086,71.95826149473945 L 142.7353228686498,70.62436540233966 L 144.01048347909628,68.93624983089663 L 142.26637499943834,67.73881324544922 L 143.40156378931445,65.9535639137529 L 141.56675730274975,64.90035267100875 L 142.55461213714534,63.029547606031684 L 140.6410070678124,62.12739218505038 L 141.47512132905536,60.18316427552596 L 139.4951281401395,59.43791550039811 L 140.17009227716966,57.43287381038124 L 138.136551984287,56.849364905389024 L 138.64798859567065,54.79651289963729 L 136.57408948795407,54.37852814394039 L 136.91868171101203,52.291179355455206 L 134.8178738199957,52.04142954058826 L 134.99338684193052,49.93312122724462 L 132.87929471293398,49.85322607659394 L 132.88459026444852,47.737631426828365 L 130.77092459617225,47.82810909110421 L 130.60596833358287,45.71894854804088 L 128.5064370589659,45.97921224487128 L 128.17229878693442,43.8901645239835 L 126.10051817194909,44.31852634342311 L 125.59936490538902,42.26313972081441 z" sodipodi:nodetypes="ccccc"/><path style="fill:none;stroke:#000000;stroke-width:0.264583px;stroke-linecap:butt;stroke-linejoin:miter;stroke-opacity:1" id="genPath_40" d="M 239.88074363565983,72.0 L 236.88074363565983,72.0 L 236.88074363565983,69.0 L 239.88074363565983,69.0 z" sodipodi:nodetypes="ccccc"/><path style="fill:none;stroke:#000000;stroke-width:0.264583px;stroke-linecap:butt;stroke-linejoin:miter;stroke-opacity:1" id="genPath_41" d="M 139.88074363565983,72.0 L 136.88074363565983,72.0 L 136.88074363565983,69.0 L 139.88074363565983,69.0 z" sodipodi:nodetypes="ccccc"/><path style="fill:none;stroke:#000000;stroke-width:0.264583px;stroke-linecap:butt;stroke-linejoin:miter;stroke-opacity:1" id="genPath_42" d="M 238.7560529919731,67.0 L 235.7560529919731,67.0 L 235.7560529919731,64.0 L 238.7560529919731,64.0 z" sodipodi:nodetypes="ccccc"/><path style="fill:none;stroke:#000000;stroke-width:0.264583px;stroke-linecap:butt;stroke-linejoin:miter;stroke-opacity:1" id="genPath_43" d="M 138.7560529919731,67.0 L 135.7560529919731,67.0 L 135.7560529919731,64.0 L 138.7560529919731,64.0 z" sodipodi:nodetypes="ccccc"/><path style="fill:none;stroke:#000000;stroke-width:0.264583px;stroke-linecap:butt;stroke-linejoin:miter;stroke-opacity:1" id="genPath_44" d="M 236.72503346196987,62.0 L 233.72503346196987,62.0 L 233.72503346196987,59.0 L 236.72503346196987,59.0 z" sodipodi:nodetypes="ccccc"/><path style="fill:none;stroke:#000000;stroke-width:0.264583px;stroke-linecap:butt;stroke-linejoin:miter;stroke-opacity:1" id="genPath_45" d="M 136.72503346196987,62.0 L 133.72503346196987,62.0 L 133.72503346196987,59.0 L 136.72503346196987,59.0 z" sodipodi:nodetypes="ccccc"/><path style="fill:none;stroke:#000000;stroke-width:0.264583px;stroke-linecap:butt;stroke-linejoin:miter;stroke-opacity:1" id="genPath_46" d="M 278.8675134594813,50.0 L 264.43375672974065,75.0 L 255.5,75.0 L 257.0294403964978,73.53829522866508 L 255.6225778713591,71.95826149473945 L 257.2646771313502,70.62436540233966 L 255.98951652090372,68.93624983089663 L 257.73362500056163,67.73881324544922 L 256.5984362106856,65.9535639137529 L 258.43324269725025,64.90035267100875 L 257.44538786285466,63.029547606031684 L 259.35899293218756,62.12739218505039 L 258.52487867094464,60.18316427552596 L 260.5048718598605,59.43791550039811 L 259.82990772283034,57.43287381038124 L 261.863448015713,56.849364905389024 L 261.35201140432935,54.79651289963729 L 263.4259105120459,54.37852814394039 L 263.081318288988,52.29117935545521 L 265.1821261800043,52.04142954058827 L 265.0066131580695,49.93312122724462 L 267.120705287066,49.85322607659394 L 267.11540973555145,47.73763142682837 L 269.2290754038277,47.82810909110421 L 269.39403166641716,45.718948548040885 L 271.4935629410341,45.97921224487128 L 271.8277012130656,43.8901645239835 L 273.8994818280509,44.318526343423116 L 274.40063509461095,42.263139720814415 z" sodipodi:nodetypes="ccccc"/><path style="fill:none;stroke:#000000;stroke-width:0.264583px;stroke-linecap:butt;stroke-linejoin:miter;stroke-opacity:1" id="genPath_47" d="M 178.8675134594813,50.0 L 164.43375672974065,75.0 L 155.5,75.0 L 157.02944039649782,73.53829522866508 L 155.6225778713591,71.95826149473945 L 157.2646771313502,70.62436540233966 L 155.98951652090372,68.93624983089663 L 157.73362500056166,67.73881324544922 L 156.59843621068555,65.9535639137529 L 158.43324269725025,64.90035267100875 L 157.44538786285466,63.029547606031684 L 159.3589929321876,62.12739218505039 L 158.52487867094464,60.18316427552596 L 160.5048718598605,59.43791550039811 L 159.82990772283034,57.43287381038124 L 161.863448015713,56.849364905389024 L 161.35201140432935,54.79651289963729 L 163.42591051204593,54.37852814394039 L 163.08131828898797,52.29117935545521 L 165.1821261800043,52.04142954058827 L 165.00661315806948,49.93312122724462 L 167.12070528706602,49.85322607659394 L 167.11540973555148,47.73763142682837 L 169.22907540382775,47.82810909110421 L 169.39403166641713,45.718948548040885 L 171.4935629410341,45.97921224487128 L 171.82770121306558,43.8901645239835 L 173.8994818280509,44.318526343423116 L 174.40063509461098,42.263139720814415 z" sodipodi:nodetypes="ccccc"/><path style="fill:none;stroke:#000000;stroke-width:0.264583px;stroke-linecap:butt;stroke-linejoin:miter;stroke-opacity:1" id="genPath_48" d="M 263.1192563643402,72.0 L 260.1192563643402,72.0 L 260.1192563643402,69.0 L 263.1192563643402,69.0 z" sodipodi:nodetypes="ccccc"/><path style="fill:none;stroke:#000000;stroke-width:0.264583px;stroke-linecap:butt;stroke-linejoin:miter;stroke-opacity:1" id="genPath_49" d="M 163.11925636434017,72.0 L 160.11925636434017,72.0 L 160.11925636434017,69.0 L 163.11925636434017,69.0 z" sodipodi:nodetypes="ccccc"/><path style="fill:none;stroke:#000000;stroke-width:0.264583px;stroke-linecap:butt;stroke-linejoin:miter;stroke-opacity:1" id="genPath_50" d="M 264.2439470080269,67.0 L 261.2439470080269,67.0 L 261.2439470080269,64.0 L 264.2439470080269,64.0 z" sodipodi:nodetypes="ccccc"/><path style="fill:none;stroke:#000000;stroke-width:0.264583px;stroke-linecap:butt;stroke-linejoin:miter;stroke-opacity:1" id="genPath_51" d="M 164.2439470080269,67.0 L 161.2439470080269,67.0 L 161.2439470080269,64.0 L 164.2439470080269,64.0 z" sodipodi:nodetypes="ccccc"/><path style="fill:none;stroke:#000000;stroke-width:0.264583px;stroke-linecap:butt;stroke-linejoin:miter;stroke-opacity:1" id="genPath_52" d="M 266.2749665380301,62.0 L 263.2749665380301,62.0 L 263.2749665380301,59.0 L 266.2749665380301,59.0 z" sodipodi:nodetypes="ccccc"/><path style="fill:none;stroke:#000000;stroke-width:0.264583px;stroke-linecap:butt;stroke-linejoin:miter;stroke-opacity:1" id="genPath_53" d="M 166.27496653803013,62.0 L 163.27496653803013,62.0 L 163.27496653803013,59.0 L 166.27496653803013,59.0 z" sodipodi:nodetypes="ccccc"/></g>
</svg>