<?xml version="1.0" ?><!-- Created with Inkscape (http://www.inkscape.org/) --><svg xmlns:inkscape="http://www.inkscape.org/namespaces/inkscape" xmlns:sodipodi="http://sodipodi.sourceforge.net/DTD/sodipodi-0.dtd" xmlns="http://www.w3.org/2000/svg" xmlns:svg="http://www.w3.org/2000/svg" width="300mm" height="300mm" viewBox="0 0 300 300" version="1.1" id="svg5" inkscape:version="1.1.2 (0a00cf5339, 2022-02-04)" sodipodi:docname="Template.svg">
  <sodipodi:namedview id="namedview7" pagecolor="#ffffff" bordercolor="#999999" borderopacity="1" inkscape:pageshadow="0" inkscape:pageopacity="0" inkscape:pagecheckerboard="0" inkscape:document-units="mm" showgrid="true" width="300mm" inkscape:zoom="0.56315579" inkscape:cx="491.87099" inkscape:cy="557.57217" inkscape:window-width="1874" inkscape:window-height="1052" inkscape:window-x="46" inkscape:window-y="0" inkscape:window-maximized="1" inkscape:current-layer="layer1" height="300mm" inkscape:lockguides="false">
    <inkscape:grid type="xygrid" id="grid888"/>
  </sodipodi:namedview>
  <defs id="defs2"/>
  <g inkscape:label="Desc" inkscape:groupmode="layer" id="layer1" sodipodi:insensitive="true">
    <text xml:space="preserve" style="font-style:normal;font-weight:normal;font-size:10.5833px;line-height:1.25;font-family:sans-serif;fill:#000000;fill-opacity:1;stroke:none;stroke-width:0.264583" x="34.193851" y="10.854793" id="text3620"><tspan sodipodi:role="line" id="tspan3618" style="stroke-width:0.264583" x="34.193851" y="10.854793">3mm</tspan></text>
    <text xml:space="preserve" style="font-style:normal;font-weight:normal;font-size:10.5833px;line-height:1.25;font-family:sans-serif;fill:#000000;fill-opacity:1;stroke:none;stroke-width:0.264583" x="133.83728" y="10.854793" id="text3620-3"><tspan sodipodi:role="line" style="stroke-width:0.264583" x="133.83728" y="10.854793" id="tspan5941">6mm</tspan></text>
    <text xml:space="preserve" style="font-style:normal;font-weight:normal;font-size:10.5833px;line-height:1.25;font-family:sans-serif;fill:#000000;fill-opacity:1;stroke:none;stroke-width:0.264583" x="231.31548" y="11.040827" id="text3620-3-8"><tspan sodipodi:role="line" style="stroke-width:0.264583" x="231.31548" y="11.040827" id="tspan6654">Preview</tspan></text>
    <circle style="fill:#a3a3a3;fill-opacity:1;stroke:none;stroke-width:0.944882;stroke-linejoin:round;paint-order:markers fill stroke" id="path854" cx="290" cy="10" r="5"/>
  </g>
  <g inkscape:groupmode="layer" id="layer2" inkscape:label="3mm"><path style="fill:none;stroke:#000000;stroke-width:0.264583px;stroke-linecap:butt;stroke-linejoin:miter;stroke-opacity:1" id="genPath_33" d="M 78.86751345948129,50.0 L 64.43375672974065,25.0 L 35.56624327025936,24.999999999999996 L 21.13248654051871,50.0 L 35.56624327025934,75.0 L 64.43375672974065,75.0 L 78.86751345948129,50.00000000000001 z" sodipodi:nodetypes="ccccc"/><path style="fill:none;stroke:#000000;stroke-width:0.264583px;stroke-linecap:butt;stroke-linejoin:miter;stroke-opacity:1" id="genPath_34" d="M 278.8675134594813,50.0 L 264.43375672974065,25.0 L 235.56624327025935,24.999999999999996 L 221.1324865405187,50.0 L 235.56624327025935,75.0 L 264.43375672974065,75.0 L 278.8675134594813,50.00000000000001 z" sodipodi:nodetypes="ccccc"/><path style="fill:none;stroke:#000000;stroke-width:0.264583px;stroke-linecap:butt;stroke-linejoin:miter;stroke-opacity:1" id="genPath_35" d="M 78.86751345948129,170.0 L 64.43375672974065,145.0 L 35.56624327025936,145.0 L 21.13248654051871,170.0 L 35.56624327025934,195.0 L 64.43375672974065,195.0 L 78.86751345948129,170.0 z" sodipodi:nodetypes="ccccc"/><path style="fill:none;stroke:#000000;stroke-width:0.264583px;stroke-linecap:butt;stroke-linejoin:miter;stroke-opacity:1" id="genPath_36" d="M 50.0,191.25 A 21.25,21.25 0 0 0 50.0,148.75 A 21.25,21.25 0 0 0 50.0,191.25 z" sodipodi:nodetypes="ccccc"/><path style="fill:none;stroke:#000000;stroke-width:0.264583px;stroke-linecap:butt;stroke-linejoin:miter;stroke-opacity:1" id="genPath_37" d="M 50.0,189.5 A 4.5,4.5 0 0 0 50.0,180.5 A 4.5,4.5 0 0 0 50.0,189.5 z" sodipodi:nodetypes="ccccc"/><path style="fill:none;stroke:#000000;stroke-width:0.264583px;stroke-linecap:butt;stroke-linejoin:miter;stroke-opacity:1" id="genPath_38" d="M 46.0,177.0 L 54.0,177.0 L 54.0,175.0 A 3.9999999999964517,3.9999999999964517 0 0 1 55.70569425459581,171.72339182284404 A 10.999999999999707,10.999999999999707 0 0 0 57.17452804778633,154.9345447426131 A 11.000000000000338,11.000000000000338 0 0 0 40.385680967555395,156.40337853580363 L 39.2385280948533,158.0416826243816 L 46.36532088551628,161.81114207090098 L 46.93889732186733,160.99199002661197 A 3.0000000000005116,3.0000000000005116 0 0 1 51.51767379829395,160.5913989921055 A 3.0000000000000777,3.0000000000000777 0 0 1 51.117082763787444,165.1701754685321 A 12.000000000000128,12.000000000000128 0 0 0 46.0,175.0 z" sodipodi:nodetypes="ccccc"/><path style="fill:none;stroke:#000000;stroke-width:0.264583px;stroke-linecap:butt;stroke-linejoin:miter;stroke-opacity:1" id="genPath_39" d="M 78.86751345948129,230.0 L 64.43375672974065,205.0 L 35.56624327025936,205.0 L 21.13248654051871,230.0 L 35.56624327025934,255.0 L 64.43375672974065,255.0 L 78.86751345948129,230.0 z" sodipodi:nodetypes="ccccc"/><path style="fill:none;stroke:#000000;stroke-width:0.264583px;stroke-linecap:butt;stroke-linejoin:miter;stroke-opacity:1" id="genPath_40" d="M 36.72094380863861,133.0 L 43.650000000000006,133.0 L 43.650000000000006,128.0 L 56.35,128.0 L 56.35,133.0 L 63.2790561913614,133.0 L 66.7435842870421,126.99926131403119 L 62.4134572681199,124.49926131403119 L 68.7634572681199,113.50073868596881 L 73.09358428704209,116.00073868596881 L 76.55811238272278,110.0 L 73.09358428704209,103.99926131403119 L 68.7634572681199,106.49926131403119 L 62.4134572681199,95.50073868596881 L 66.7435842870421,93.00073868596881 L 63.2790561913614,87.0 L 56.35,87.0 L 56.35,92.0 L 43.650000000000006,92.0 L 43.650000000000006,87.0 L 36.72094380863861,87.0 L 33.25641571295792,93.00073868596881 L 37.58654273188011,95.50073868596881 L 31.236542731880107,106.49926131403119 L 26.906415712957912,103.99926131403119 L 23.441887617277214,110.0 L 26.90641571295791,116.00073868596881 L 31.236542731880103,113.50073868596881 L 37.5865427318801,124.49926131403117 L 33.2564157129579,126.99926131403117 L 36.720943808638594,133.0 z" sodipodi:nodetypes="ccccc"/><path style="fill:none;stroke:#000000;stroke-width:0.264583px;stroke-linecap:butt;stroke-linejoin:miter;stroke-opacity:1" id="genPath_41" d="M 236.72094380863862,73.0 L 243.65,73.0 L 243.65,68.0 L 256.35,68.0 L 256.35,73.0 L 263.2790561913614,73.0 L 266.7435842870421,66.99926131403119 L 262.4134572681199,64.49926131403119 L 268.7634572681199,53.50073868596881 L 273.09358428704206,56.00073868596881 L 276.5581123827228,50.0 L 273.09358428704206,43.99926131403119 L 268.7634572681199,46.49926131403119 L 262.4134572681199,35.50073868596881 L 266.7435842870421,33.00073868596881 L 263.2790561913614,27.0 L 256.35,27.0 L 256.35,32.0 L 243.65,32.0 L 243.65,27.0 L 236.72094380863862,26.999999999999996 L 233.2564157129579,33.00073868596881 L 237.58654273188012,35.50073868596881 L 231.2365427318801,46.49926131403118 L 226.9064157129579,43.99926131403118 L 223.44188761727722,50.0 L 226.9064157129579,56.000738685968805 L 231.2365427318801,53.50073868596881 L 237.5865427318801,64.49926131403117 L 233.2564157129579,66.99926131403117 L 236.7209438086386,73.0 z" sodipodi:nodetypes="ccccc"/><path style="fill:none;stroke:#000000;stroke-width:0.264583px;stroke-linecap:butt;stroke-linejoin:miter;stroke-opacity:1" id="genPath_144" d="M 50.0,41.0 L 47.35496636468387,46.359423525312735 L 41.44049135334362,47.21884705062547 L 45.72024567667181,51.390576474687265 L 44.70993272936774,57.28115294937453 L 50.0,54.5 L 55.29006727063226,57.28115294937453 L 54.27975432332819,51.390576474687265 L 58.55950864665638,47.21884705062548 L 52.64503363531613,46.359423525312735 z" sodipodi:nodetypes="ccccc"/><path style="fill:none;stroke:#000000;stroke-width:0.264583px;stroke-linecap:butt;stroke-linejoin:miter;stroke-opacity:1" id="genPath_145" d="M 250.0,41.0 L 247.35496636468386,46.359423525312735 L 241.44049135334362,47.21884705062547 L 245.72024567667182,51.390576474687265 L 244.70993272936775,57.28115294937453 L 250.0,54.5 L 255.29006727063225,57.28115294937453 L 254.27975432332818,51.390576474687265 L 258.55950864665635,47.21884705062548 L 252.64503363531614,46.359423525312735 z" sodipodi:nodetypes="ccccc"/><path style="fill:none;stroke:#000000;stroke-width:0.264583px;stroke-linecap:butt;stroke-linejoin:miter;stroke-opacity:1" id="genPath_146" d="M 48.5,48.5 A 1.5,1.5 0 0 1 51.5,48.5 A 1.5000000000015445,1.5000000000015445 0 0 1 51.06066017177982,49.56066017177982 A 3.2999999999954497,3.2999999999954497 0 0 0 50.09411254969543,51.89411254969543 " sodipodi:nodetypes="ccccc"/><path style="fill:none;stroke:#000000;stroke-width:0.264583px;stroke-linecap:butt;stroke-linejoin:miter;stroke-opacity:1" id="genPath_147" d="M 248.5,48.5 A 1.5,1.5 0 0 1 251.5,48.5 A 1.4999999999597977,1.4999999999597977 0 0 1 251.06066017177983,49.56066017177982 A 3.299999999982248,3.299999999982248 0 0 0 250.09411254969544,51.89411254969543 " sodipodi:nodetypes="ccccc"/><path style="fill:none;stroke:#000000;stroke-width:0.264583px;stroke-linecap:butt;stroke-linejoin:miter;stroke-opacity:1" id="genPath_148" d="M 50.0,53.18 L 50.3,52.88 " sodipodi:nodetypes="ccccc"/><path style="fill:none;stroke:#000000;stroke-width:0.264583px;stroke-linecap:butt;stroke-linejoin:miter;stroke-opacity:1" id="genPath_149" d="M 250.0,53.18 L 250.3,52.88 " sodipodi:nodetypes="ccccc"/><path style="fill:none;stroke:#000000;stroke-width:0.264583px;stroke-linecap:butt;stroke-linejoin:miter;stroke-opacity:1" id="genPath_150" d="M 64.13749537379655,64.51313972081441 L 63.91491607188698,62.42652242543544 L 61.862995356762255,61.9870515369169 L 62.909407792323464,60.168113853070615 L 61.50768356976063,58.60648570050232 L 63.423393758658804,57.75 L 63.20727703882284,55.66270345987433 L 65.26054880149336,56.0958181694296 L 66.31258882582446,54.2801295754745 L 67.71914213706759,55.83740959706478 L 69.63749537379655,54.98686027918559 " sodipodi:nodetypes="ccccc"/><path style="fill:none;stroke:#000000;stroke-width:0.264583px;stroke-linecap:butt;stroke-linejoin:miter;stroke-opacity:1" id="genPath_151" d="M 69.63749537379655,45.01313972081441 L 67.71914213706759,44.16259040293522 L 66.31258882582446,45.719870424525496 L 65.26054880149336,43.9041818305704 L 63.20727703882284,44.337296540125664 L 63.423393758658804,42.25 L 61.50768356976063,41.393514299497674 L 62.909407792323464,39.831886146929385 L 61.862995356762255,38.0129484630831 L 63.91491607188698,37.57347757456456 L 64.13749537379655,35.486860279185585 " sodipodi:nodetypes="ccccc"/><path style="fill:none;stroke:#000000;stroke-width:0.264583px;stroke-linecap:butt;stroke-linejoin:miter;stroke-opacity:1" id="genPath_152" d="M 35.862504626203446,35.486860279185585 L 36.08508392811302,37.57347757456456 L 38.137004643237745,38.0129484630831 L 37.090592207676536,39.831886146929385 L 38.49231643023937,41.393514299497674 L 36.576606241341196,42.25 L 36.79272296117716,44.337296540125664 L 34.73945119850664,43.9041818305704 L 33.68741117417554,45.7198704245255 L 32.28085786293241,44.16259040293522 L 30.362504626203442,45.01313972081441 " sodipodi:nodetypes="ccccc"/><path style="fill:none;stroke:#000000;stroke-width:0.264583px;stroke-linecap:butt;stroke-linejoin:miter;stroke-opacity:1" id="genPath_153" d="M 30.362504626203442,54.98686027918558 L 32.28085786293241,55.83740959706477 L 33.68741117417554,54.28012957547449 L 34.73945119850664,56.09581816942959 L 36.79272296117716,55.66270345987433 L 36.576606241341196,57.75 L 38.49231643023937,58.60648570050232 L 37.090592207676536,60.16811385307061 L 38.137004643237745,61.987051536916894 L 36.085083928113015,62.42652242543543 L 35.86250462620343,64.51313972081441 " sodipodi:nodetypes="ccccc"/><path style="fill:none;stroke:#000000;stroke-width:0.264583px;stroke-linecap:butt;stroke-linejoin:miter;stroke-opacity:1" id="genPath_154" d="M 264.1374953737966,64.51313972081441 L 263.914916071887,62.42652242543544 L 261.86299535676227,61.9870515369169 L 262.90940779232346,60.168113853070615 L 261.5076835697606,58.60648570050232 L 263.4233937586588,57.75 L 263.20727703882284,55.66270345987433 L 265.26054880149337,56.0958181694296 L 266.3125888258245,54.2801295754745 L 267.7191421370676,55.83740959706478 L 269.6374953737966,54.98686027918559 " sodipodi:nodetypes="ccccc"/><path style="fill:none;stroke:#000000;stroke-width:0.264583px;stroke-linecap:butt;stroke-linejoin:miter;stroke-opacity:1" id="genPath_155" d="M 269.6374953737966,45.01313972081441 L 267.7191421370676,44.16259040293522 L 266.3125888258245,45.719870424525496 L 265.26054880149337,43.9041818305704 L 263.20727703882284,44.337296540125664 L 263.4233937586588,42.25 L 261.5076835697606,41.393514299497674 L 262.90940779232346,39.831886146929385 L 261.86299535676227,38.0129484630831 L 263.914916071887,37.57347757456456 L 264.1374953737966,35.486860279185585 " sodipodi:nodetypes="ccccc"/><path style="fill:none;stroke:#000000;stroke-width:0.264583px;stroke-linecap:butt;stroke-linejoin:miter;stroke-opacity:1" id="genPath_156" d="M 235.86250462620345,35.486860279185585 L 236.08508392811302,37.57347757456456 L 238.13700464323776,38.0129484630831 L 237.09059220767654,39.831886146929385 L 238.49231643023938,41.393514299497674 L 236.5766062413412,42.25 L 236.79272296117716,44.337296540125664 L 234.73945119850663,43.9041818305704 L 233.68741117417554,45.7198704245255 L 232.2808578629324,44.16259040293522 L 230.36250462620345,45.01313972081441 " sodipodi:nodetypes="ccccc"/><path style="fill:none;stroke:#000000;stroke-width:0.264583px;stroke-linecap:butt;stroke-linejoin:miter;stroke-opacity:1" id="genPath_157" d="M 230.36250462620345,54.98686027918558 L 232.2808578629324,55.83740959706477 L 233.68741117417554,54.28012957547449 L 234.73945119850663,56.09581816942959 L 236.79272296117716,55.66270345987433 L 236.57660624134118,57.75 L 238.49231643023938,58.60648570050232 L 237.09059220767654,60.16811385307061 L 238.13700464323773,61.987051536916894 L 236.08508392811302,62.42652242543543 L 235.86250462620345,64.51313972081441 " sodipodi:nodetypes="ccccc"/></g>
  <g inkscape:groupmode="layer" id="layer3" inkscape:label="6mm"><path style="fill:none;stroke:#000000;stroke-width:0.264583px;stroke-linecap:butt;stroke-linejoin:miter;stroke-opacity:1" id="genPath_42" d="M 140.03312163512967,127.26313972081442 A 2.5000000000002007,2.5000000000002007 0 0 0 137.53312163512967,131.5932667397366 A 2.499999999999857,2.499999999999857 0 0 0 140.03312163512967,127.26313972081442 z" sodipodi:nodetypes="ccccc"/><path style="fill:none;stroke:#000000;stroke-width:0.264583px;stroke-linecap:butt;stroke-linejoin:miter;stroke-opacity:1" id="genPath_43" d="M 159.96687836487033,127.26313972081441 A 2.4999999999994857,2.4999999999994857 0 0 0 162.46687836487033,131.5932667397366 A 2.499999999999523,2.499999999999523 0 0 0 159.96687836487033,127.26313972081441 z" sodipodi:nodetypes="ccccc"/><path style="fill:none;stroke:#000000;stroke-width:0.264583px;stroke-linecap:butt;stroke-linejoin:miter;stroke-opacity:1" id="genPath_44" d="M 169.93375672974065,110.0 A 2.5000000000008242,2.5000000000008242 0 0 0 174.93375672974065,110.0 A 2.4999999999991758,2.4999999999991758 0 0 0 169.93375672974065,110.0 z" sodipodi:nodetypes="ccccc"/><path style="fill:none;stroke:#000000;stroke-width:0.264583px;stroke-linecap:butt;stroke-linejoin:miter;stroke-opacity:1" id="genPath_45" d="M 159.96687836487033,92.73686027918559 A 2.49999999999976,2.49999999999976 0 0 0 162.46687836487033,88.4067332602634 A 2.4999999999995355,2.4999999999995355 0 0 0 159.96687836487033,92.73686027918559 z" sodipodi:nodetypes="ccccc"/><path style="fill:none;stroke:#000000;stroke-width:0.264583px;stroke-linecap:butt;stroke-linejoin:miter;stroke-opacity:1" id="genPath_46" d="M 140.03312163512967,92.73686027918558 A 2.500000000000151,2.500000000000151 0 0 0 137.53312163512967,88.4067332602634 A 2.5000000000000218,2.5000000000000218 0 0 0 140.03312163512967,92.73686027918558 z" sodipodi:nodetypes="ccccc"/><path style="fill:none;stroke:#000000;stroke-width:0.264583px;stroke-linecap:butt;stroke-linejoin:miter;stroke-opacity:1" id="genPath_47" d="M 130.06624327025935,110.0 A 2.5000000000002274,2.5000000000002274 0 0 0 125.06624327025935,110.0 A 2.4999999999997726,2.4999999999997726 0 0 0 130.06624327025935,110.0 z" sodipodi:nodetypes="ccccc"/><path style="fill:none;stroke:#000000;stroke-width:0.264583px;stroke-linecap:butt;stroke-linejoin:miter;stroke-opacity:1" id="genPath_48" d="M 240.03312163512967,67.26313972081442 A 2.4999999999995652,2.4999999999995652 0 0 0 237.53312163512967,71.5932667397366 A 2.5000000000006324,2.5000000000006324 0 0 0 240.03312163512967,67.26313972081442 z" sodipodi:nodetypes="ccccc"/><path style="fill:none;stroke:#000000;stroke-width:0.264583px;stroke-linecap:butt;stroke-linejoin:miter;stroke-opacity:1" id="genPath_49" d="M 259.9668783648703,67.26313972081441 A 2.499999999998165,2.499999999998165 0 0 0 262.46687836487035,71.5932667397366 A 2.499999999999343,2.499999999999343 0 0 0 259.9668783648703,67.26313972081441 z" sodipodi:nodetypes="ccccc"/><path style="fill:none;stroke:#000000;stroke-width:0.264583px;stroke-linecap:butt;stroke-linejoin:miter;stroke-opacity:1" id="genPath_50" d="M 269.93375672974065,50.0 A 2.5000000000002274,2.5000000000002274 0 0 0 274.93375672974065,50.0 A 2.4999999999997726,2.4999999999997726 0 0 0 269.93375672974065,50.0 z" sodipodi:nodetypes="ccccc"/><path style="fill:none;stroke:#000000;stroke-width:0.264583px;stroke-linecap:butt;stroke-linejoin:miter;stroke-opacity:1" id="genPath_51" d="M 259.9668783648703,32.73686027918559 A 2.4999999999995404,2.4999999999995404 0 0 0 262.46687836487035,28.406733260263398 A 2.500000000000592,2.500000000000592 0 0 0 259.9668783648703,32.73686027918559 z" sodipodi:nodetypes="ccccc"/><path style="fill:none;stroke:#000000;stroke-width:0.264583px;stroke-linecap:butt;stroke-linejoin:miter;stroke-opacity:1" id="genPath_52" d="M 240.03312163512967,32.736860279185585 A 2.4999999999989955,2.4999999999989955 0 0 0 237.53312163512967,28.406733260263394 A 2.500000000001843,2.500000000001843 0 0 0 240.03312163512967,32.736860279185585 z" sodipodi:nodetypes="ccccc"/><path style="fill:none;stroke:#000000;stroke-width:0.264583px;stroke-linecap:butt;stroke-linejoin:miter;stroke-opacity:1" id="genPath_53" d="M 230.06624327025935,50.0 A 2.5000000000002274,2.5000000000002274 0 0 0 225.06624327025935,50.0 A 2.4999999999997726,2.4999999999997726 0 0 0 230.06624327025935,50.0 z" sodipodi:nodetypes="ccccc"/><path style="fill:none;stroke:#000000;stroke-width:0.264583px;stroke-linecap:butt;stroke-linejoin:miter;stroke-opacity:1" id="genPath_54" d="M 144.5,195.0 A 8.933756729746408,8.933756729746408 0 0 0 143.9612285450931,191.94447524285744 L 140.94818514459078,190.6782032302755 A 2.5000000000005493,2.5000000000005493 0 0 1 136.6180581256686,188.1782032302755 L 134.01491269442022,186.20196710902644 A 8.93375672974495,8.93375672974495 0 0 0 131.09936490538905,187.26313972081442 L 135.56624327025935,195.0 z" sodipodi:nodetypes="ccccc"/><path style="fill:none;stroke:#000000;stroke-width:0.264583px;stroke-linecap:butt;stroke-linejoin:miter;stroke-opacity:1" id="genPath_55" d="M 168.90063509461098,187.26313972081442 A 8.93375672976922,8.93375672976922 0 0 0 165.98508730557978,186.2019671090264 L 163.38194187433143,188.1782032302755 A 2.5000000000001275,2.5000000000001275 0 0 1 159.05181485540922,190.6782032302755 L 156.0387714549069,191.94447524285744 A 8.93375672971493,8.93375672971493 0 0 0 155.5,195.0 L 164.43375672974065,195.0 z" sodipodi:nodetypes="ccccc"/><path style="fill:none;stroke:#000000;stroke-width:0.264583px;stroke-linecap:butt;stroke-linejoin:miter;stroke-opacity:1" id="genPath_56" d="M 174.40063509461098,162.26313972081442 A 8.933756729720661,8.933756729720661 0 0 0 172.0238587604867,164.25749186616898 L 172.43375672974065,167.5 A 2.5,2.5 0 0 1 172.43375672974065,172.5 L 172.0238587604867,175.74250813383102 A 8.933756729710604,8.933756729710604 0 0 0 174.40063509461098,177.73686027918558 L 178.8675134594813,170.0 z" sodipodi:nodetypes="ccccc"/><path style="fill:none;stroke:#000000;stroke-width:0.264583px;stroke-linecap:butt;stroke-linejoin:miter;stroke-opacity:1" id="genPath_57" d="M 155.5,145.0 A 8.933756729710762,8.933756729710762 0 0 0 156.0387714549069,148.05552475714256 L 159.05181485540922,149.3217967697245 A 2.4999999999997686,2.4999999999997686 0 0 1 163.38194187433143,151.8217967697245 L 165.98508730557978,153.7980328909736 A 8.933756729761795,8.933756729761795 0 0 0 168.90063509461098,152.73686027918558 L 164.43375672974065,145.0 z" sodipodi:nodetypes="ccccc"/><path style="fill:none;stroke:#000000;stroke-width:0.264583px;stroke-linecap:butt;stroke-linejoin:miter;stroke-opacity:1" id="genPath_58" d="M 131.09936490538905,152.73686027918558 A 8.933756729745276,8.933756729745276 0 0 0 134.01491269442022,153.79803289097356 L 136.6180581256686,151.8217967697245 A 2.5000000000003144,2.5000000000003144 0 0 1 140.94818514459078,149.3217967697245 L 143.9612285450931,148.05552475714256 A 8.93375672973221,8.93375672973221 0 0 0 144.5,145.0 L 135.56624327025935,145.0 z" sodipodi:nodetypes="ccccc"/><path style="fill:none;stroke:#000000;stroke-width:0.264583px;stroke-linecap:butt;stroke-linejoin:miter;stroke-opacity:1" id="genPath_59" d="M 125.59936490538902,177.73686027918558 A 8.93375672974185,8.93375672974185 0 0 0 127.97614123951331,175.74250813383102 L 127.56624327025935,172.5 A 2.5,2.5 0 0 1 127.56624327025935,167.5 L 127.97614123951331,164.25749186616898 A 8.933756729723335,8.933756729723335 0 0 0 125.59936490538902,162.26313972081442 L 121.13248654051871,170.0 z" sodipodi:nodetypes="ccccc"/><path style="fill:none;stroke:#000000;stroke-width:0.264583px;stroke-linecap:butt;stroke-linejoin:miter;stroke-opacity:1" id="genPath_60" d="M 244.5,75.0 A 8.933756729794496,8.933756729794496 0 0 0 243.9612285450931,71.94447524285745 L 240.94818514459078,70.67820323027551 A 2.500000000000642,2.500000000000642 0 0 1 236.6180581256686,68.17820323027551 L 234.01491269442022,66.20196710902643 A 8.9337567297955,8.9337567297955 0 0 0 231.09936490538905,67.26313972081442 L 235.56624327025935,75.0 z" sodipodi:nodetypes="ccccc"/><path style="fill:none;stroke:#000000;stroke-width:0.264583px;stroke-linecap:butt;stroke-linejoin:miter;stroke-opacity:1" id="genPath_61" d="M 268.90063509461095,67.26313972081441 A 8.933756729728753,8.933756729728753 0 0 0 265.9850873055798,66.20196710902643 L 263.3819418743314,68.1782032302755 A 2.49999999999993,2.49999999999993 0 0 1 259.05181485540925,70.6782032302755 L 256.0387714549069,71.94447524285745 A 8.933756729590868,8.933756729590868 0 0 0 255.5,75.0 L 264.43375672974065,75.0 z" sodipodi:nodetypes="ccccc"/><path style="fill:none;stroke:#000000;stroke-width:0.264583px;stroke-linecap:butt;stroke-linejoin:miter;stroke-opacity:1" id="genPath_62" d="M 274.40063509461095,42.263139720814415 A 8.933756729735526,8.933756729735526 0 0 0 272.0238587604867,44.25749186616898 L 272.43375672974065,47.5 A 2.5,2.5 0 0 1 272.43375672974065,52.5 L 272.0238587604867,55.74250813383102 A 8.933756729780287,8.933756729780287 0 0 0 274.40063509461095,57.736860279185585 L 278.8675134594813,50.0 z" sodipodi:nodetypes="ccccc"/><path style="fill:none;stroke:#000000;stroke-width:0.264583px;stroke-linecap:butt;stroke-linejoin:miter;stroke-opacity:1" id="genPath_63" d="M 255.5,24.999999999999996 A 8.933756729689527,8.933756729689527 0 0 0 256.0387714549069,28.055524757142553 L 259.05181485540925,29.321796769724493 A 2.499999999998841,2.499999999998841 0 0 1 263.3819418743314,31.821796769724493 L 265.9850873055798,33.79803289097357 A 8.933756729636327,8.933756729636327 0 0 0 268.90063509461095,32.73686027918559 L 264.43375672974065,25.0 z" sodipodi:nodetypes="ccccc"/><path style="fill:none;stroke:#000000;stroke-width:0.264583px;stroke-linecap:butt;stroke-linejoin:miter;stroke-opacity:1" id="genPath_64" d="M 231.09936490538905,32.73686027918558 A 8.933756729762088,8.933756729762088 0 0 0 234.01491269442022,33.79803289097357 L 236.6180581256686,31.82179676972449 A 2.49999999999851,2.49999999999851 0 0 1 240.94818514459078,29.32179676972449 L 243.9612285450931,28.05552475714255 A 8.933756729822818,8.933756729822818 0 0 0 244.5,24.999999999999996 L 235.56624327025935,24.999999999999996 z" sodipodi:nodetypes="ccccc"/><path style="fill:none;stroke:#000000;stroke-width:0.264583px;stroke-linecap:butt;stroke-linejoin:miter;stroke-opacity:1" id="genPath_65" d="M 225.59936490538902,57.736860279185585 A 8.933756729750412,8.933756729750412 0 0 0 227.9761412395133,55.74250813383102 L 227.56624327025935,52.5 A 2.5,2.5 0 0 1 227.56624327025935,47.5 L 227.9761412395133,44.25749186616897 A 8.933756729756125,8.933756729756125 0 0 0 225.59936490538902,42.26313972081441 L 221.1324865405187,50.0 z" sodipodi:nodetypes="ccccc"/><path style="fill:none;stroke:#000000;stroke-width:0.264583px;stroke-linecap:butt;stroke-linejoin:miter;stroke-opacity:1" id="genPath_140" d="M 155.5,75.0 L 164.43375672974065,75.0 L 168.90063509461098,67.26313972081441 L 164.13749537379655,64.51313972081441 A 5.500000000000174,5.500000000000174 0 0 1 169.63749537379655,54.98686027918559 L 174.40063509461098,57.736860279185585 L 178.8675134594813,50.0 L 174.40063509461098,42.263139720814415 L 169.63749537379655,45.01313972081441 A 5.499999999999625,5.499999999999625 0 0 1 164.13749537379655,35.48686027918559 L 168.90063509461098,32.73686027918559 L 164.43375672974065,25.0 L 155.5,25.0 L 155.5,41.648353455754965 A 9.999999999999991,9.999999999999991 0 0 1 155.5,58.351646544245035 z" sodipodi:nodetypes="ccccc"/><path style="fill:none;stroke:#000000;stroke-width:0.264583px;stroke-linecap:butt;stroke-linejoin:miter;stroke-opacity:1" id="genPath_141" d="M 144.5,25.000000000000004 L 135.56624327025935,25.0 L 131.09936490538902,32.736860279185585 L 135.86250462620345,35.486860279185585 A 5.499999999999965,5.499999999999965 0 0 1 130.36250462620345,45.01313972081441 L 125.59936490538902,42.26313972081441 L 121.13248654051871,50.0 L 125.59936490538902,57.736860279185585 L 130.36250462620345,54.986860279185585 A 5.499999999999645,5.499999999999645 0 0 1 135.86250462620345,64.51313972081441 L 131.09936490538902,67.26313972081441 L 135.56624327025935,75.0 L 144.5,75.0 L 144.5,58.351646544245035 A 10.000000000000012,10.000000000000012 0 0 1 144.5,41.648353455754965 z" sodipodi:nodetypes="ccccc"/><path style="fill:none;stroke:#000000;stroke-width:0.264583px;stroke-linecap:butt;stroke-linejoin:miter;stroke-opacity:1" id="genPath_142" d="M 255.5,75.0 L 264.43375672974065,75.0 L 268.90063509461095,67.26313972081441 L 264.1374953737966,64.51313972081441 A 5.499999999999949,5.499999999999949 0 0 1 269.6374953737966,54.98686027918559 L 274.40063509461095,57.736860279185585 L 278.8675134594813,50.0 L 274.40063509461095,42.263139720814415 L 269.6374953737966,45.01313972081441 A 5.499999999999421,5.499999999999421 0 0 1 264.1374953737966,35.48686027918559 L 268.90063509461095,32.73686027918559 L 264.43375672974065,25.0 L 255.5,25.0 L 255.5,41.648353455754965 A 10.000000000000258,10.000000000000258 0 0 1 255.5,58.351646544245035 z" sodipodi:nodetypes="ccccc"/><path style="fill:none;stroke:#000000;stroke-width:0.264583px;stroke-linecap:butt;stroke-linejoin:miter;stroke-opacity:1" id="genPath_143" d="M 244.5,25.000000000000004 L 235.56624327025935,25.0 L 231.09936490538902,32.736860279185585 L 235.86250462620345,35.486860279185585 A 5.499999999999954,5.499999999999954 0 0 1 230.36250462620345,45.01313972081441 L 225.59936490538902,42.26313972081441 L 221.1324865405187,50.0 L 225.59936490538902,57.736860279185585 L 230.36250462620345,54.986860279185585 A 5.50000000000057,5.50000000000057 0 0 1 235.86250462620345,64.51313972081441 L 231.09936490538902,67.26313972081441 L 235.56624327025935,75.0 L 244.5,75.0 L 244.5,58.351646544245035 A 10.000000000001043,10.000000000001043 0 0 1 244.5,41.648353455754965 z" sodipodi:nodetypes="ccccc"/></g>
</svg>