<?xml version="1.0" ?><!-- Created with Inkscape (http://www.inkscape.org/) --><svg xmlns:inkscape="http://www.inkscape.org/namespaces/inkscape" xmlns:sodipodi="http://sodipodi.sourceforge.net/DTD/sodipodi-0.dtd" xmlns="http://www.w3.org/2000/svg" xmlns:svg="http://www.w3.org/2000/svg" width="300mm" height="300mm" viewBox="0 0 300 300" version="1.1" id="svg5" inkscape:version="1.1.2 (0a00cf5339, 2022-02-04)" sodipodi:docname="Template.svg">
  <sodipodi:namedview id="namedview7" pagecolor="#ffffff" bordercolor="#999999" borderopacity="1" inkscape:pageshadow="0" inkscape:pageopacity="0" inkscape:pagecheckerboard="0" inkscape:document-units="mm" showgrid="true" width="300mm" inkscape:zoom="0.56315579" inkscape:cx="491.87099" inkscape:cy="557.57217" inkscape:window-width="1874" inkscape:window-height="1052" inkscape:window-x="46" inkscape:window-y="0" inkscape:window-maximized="1" inkscape:current-layer="layer1" height="300mm" inkscape:lockguides="false">
    <inkscape:grid type="xygrid" id="grid888"/>
  </sodipodi:namedview>
  <defs id="defs2"/>
  <g inkscape:label="Desc" inkscape:groupmode="layer" id="layer1" sodipodi:insensitive="true">
    <text xml:space="preserve" style="font-style:normal;font-weight:normal;font-size:10.5833px;line-height:1.25;font-family:sans-serif;fill:#000000;fill-opacity:1;stroke:none;stroke-width:0.264583" x="34.193851" y="10.854793" id="text3620"><tspan sodipodi:role="line" id="tspan3618" style="stroke-width:0.264583" x="34.193851" y="10.854793">3mm</tspan></text>
    <text xml:space="preserve" style="font-style:normal;font-weight:normal;font-size:10.5833px;line-height:1.25;font-family:sans-serif;fill:#000000;fill-opacity:1;stroke:none;stroke-width:0.264583" x="133.83728" y="10.854793" id="text3620-3"><tspan sodipodi:role="line" style="stroke-width:0.264583" x="133.83728" y="10.854793" id="tspan5941">10mm</tspan></text>
    <text xml:space="preserve" style="font-style:normal;font-weight:normal;font-size:10.5833px;line-height:1.25;font-family:sans-serif;fill:#000000;fill-opacity:1;stroke:none;stroke-width:0.264583" x="231.31548" y="11.040827" id="text3620-3-8"><tspan sodipodi:role="line" style="stroke-width:0.264583" x="231.31548" y="11.040827" id="tspan6654">Preview</tspan></text>
    <circle style="fill:#a3a3a3;fill-opacity:1;stroke:none;stroke-width:0.944882;stroke-linejoin:round;paint-order:markers fill stroke" id="path854" cx="290" cy="10" r="5"/>
  </g>
  <g inkscape:groupmode="layer" id="layer2" inkscape:label="3mm"><path style="fill:none;stroke:#000000;stroke-width:0.264583px;stroke-linecap:butt;stroke-linejoin:miter;stroke-opacity:1" id="genPath_0" d="M 78.86751345948129,50.0 L 64.43375672974065,25.0 L 35.56624327025936,24.999999999999996 L 21.13248654051871,50.0 L 35.56624327025934,75.0 L 64.43375672974065,75.0 L 78.86751345948129,50.00000000000001 z" sodipodi:nodetypes="ccccc"/><path style="fill:none;stroke:#000000;stroke-width:0.264583px;stroke-linecap:butt;stroke-linejoin:miter;stroke-opacity:1" id="genPath_1" d="M 78.86751345948129,110.0 L 64.43375672974065,85.0 L 35.56624327025936,85.0 L 21.13248654051871,110.0 L 35.56624327025934,135.0 L 64.43375672974065,135.0 L 78.86751345948129,110.0 z" sodipodi:nodetypes="ccccc"/><path style="fill:none;stroke:#000000;stroke-width:0.264583px;stroke-linecap:butt;stroke-linejoin:miter;stroke-opacity:1" id="genPath_2" d="M 278.8675134594813,50.0 L 264.43375672974065,25.0 L 235.56624327025935,24.999999999999996 L 221.1324865405187,50.0 L 235.56624327025935,75.0 L 264.43375672974065,75.0 L 278.8675134594813,50.00000000000001 z" sodipodi:nodetypes="ccccc"/><path style="fill:none;stroke:#000000;stroke-width:0.264583px;stroke-linecap:butt;stroke-linejoin:miter;stroke-opacity:1" id="genPath_3" d="M 278.8675134594813,110.0 L 264.43375672974065,85.0 L 235.56624327025935,85.0 L 221.1324865405187,110.0 L 235.56624327025935,135.0 L 264.43375672974065,135.0 L 278.8675134594813,110.0 z" sodipodi:nodetypes="ccccc"/><path style="fill:none;stroke:#000000;stroke-width:0.264583px;stroke-linecap:butt;stroke-linejoin:miter;stroke-opacity:1" id="genPath_4" d="M 36.72094380863861,193.0 L 43.650000000000006,193.0 L 43.650000000000006,188.0 L 56.35,188.0 L 56.35,193.0 L 63.2790561913614,193.0 L 76.55811238272278,170.0 L 63.2790561913614,147.0 L 36.72094380863861,147.0 L 23.441887617277214,170.0 L 36.720943808638594,193.0 z" sodipodi:nodetypes="ccccc"/><path style="fill:none;stroke:#000000;stroke-width:0.264583px;stroke-linecap:butt;stroke-linejoin:miter;stroke-opacity:1" id="genPath_5" d="M 36.72094380863861,253.0 L 43.650000000000006,253.0 L 43.650000000000006,248.0 L 56.35,248.0 L 56.35,253.0 L 63.2790561913614,253.0 L 76.55811238272278,230.0 L 63.2790561913614,207.0 L 36.72094380863861,207.0 L 23.441887617277214,230.0 L 36.720943808638594,253.0 z" sodipodi:nodetypes="ccccc"/><path style="fill:none;stroke:#000000;stroke-width:0.264583px;stroke-linecap:butt;stroke-linejoin:miter;stroke-opacity:1" id="genPath_6" d="M 236.72094380863862,73.0 L 243.65,73.0 L 243.65,68.0 L 256.35,68.0 L 256.35,73.0 L 263.2790561913614,73.0 L 276.5581123827228,50.0 L 263.2790561913614,27.0 L 236.72094380863862,26.999999999999996 L 223.44188761727722,50.0 L 236.7209438086386,73.0 z" sodipodi:nodetypes="ccccc"/><path style="fill:none;stroke:#000000;stroke-width:0.264583px;stroke-linecap:butt;stroke-linejoin:miter;stroke-opacity:1" id="genPath_7" d="M 236.72094380863862,133.0 L 243.65,133.0 L 243.65,128.0 L 256.35,128.0 L 256.35,133.0 L 263.2790561913614,133.0 L 276.5581123827228,110.0 L 263.2790561913614,87.0 L 236.72094380863862,87.0 L 223.44188761727722,110.0 L 236.7209438086386,133.0 z" sodipodi:nodetypes="ccccc"/><path style="fill:none;stroke:#000000;stroke-width:0.264583px;stroke-linecap:butt;stroke-linejoin:miter;stroke-opacity:1" id="genPath_8" d="M 50.0,152.0 L 47.64885899083011,156.7639320225002 L 42.39154786963877,157.52786404500043 L 46.195773934819385,161.2360679774998 L 45.29771798166021,166.47213595499957 L 50.0,164.0 L 54.70228201833979,166.47213595499957 L 53.804226065180615,161.2360679774998 L 57.60845213036123,157.52786404500043 L 52.35114100916989,156.7639320225002 z" sodipodi:nodetypes="ccccc"/><path style="fill:none;stroke:#000000;stroke-width:0.264583px;stroke-linecap:butt;stroke-linejoin:miter;stroke-opacity:1" id="genPath_9" d="M 50.0,212.0 L 47.64885899083011,216.7639320225002 L 42.39154786963877,217.52786404500043 L 46.195773934819385,221.2360679774998 L 45.29771798166021,226.47213595499957 L 50.0,224.0 L 54.70228201833979,226.47213595499957 L 53.804226065180615,221.2360679774998 L 57.60845213036123,217.52786404500043 L 52.35114100916989,216.7639320225002 z" sodipodi:nodetypes="ccccc"/><path style="fill:none;stroke:#000000;stroke-width:0.264583px;stroke-linecap:butt;stroke-linejoin:miter;stroke-opacity:1" id="genPath_10" d="M 50.0,156.0 L 48.82442949541505,158.3819660112501 L 46.195773934819385,158.7639320225002 L 48.09788696740969,160.6180339887499 L 47.64885899083011,163.2360679774998 L 50.0,162.0 L 52.35114100916989,163.2360679774998 L 51.90211303259031,160.6180339887499 L 53.804226065180615,158.7639320225002 L 51.17557050458495,158.3819660112501 z" sodipodi:nodetypes="ccccc"/><path style="fill:none;stroke:#000000;stroke-width:0.264583px;stroke-linecap:butt;stroke-linejoin:miter;stroke-opacity:1" id="genPath_11" d="M 50.0,216.0 L 48.82442949541505,218.3819660112501 L 46.195773934819385,218.7639320225002 L 48.09788696740969,220.6180339887499 L 47.64885899083011,223.2360679774998 L 50.0,222.0 L 52.35114100916989,223.2360679774998 L 51.90211303259031,220.6180339887499 L 53.804226065180615,218.7639320225002 L 51.17557050458495,218.3819660112501 z" sodipodi:nodetypes="ccccc"/><path style="fill:none;stroke:#000000;stroke-width:0.264583px;stroke-linecap:butt;stroke-linejoin:miter;stroke-opacity:1" id="genPath_12" d="M 38.36,172.45441558772842 A 1.799999999999509,1.799999999999509 0 0 0 35.81441558772843,172.45441558772842 A 3.599999999999807,3.599999999999807 0 0 0 35.81441558772843,177.54558441227158 A 1.8000000000012877,1.8000000000012877 0 0 0 38.36,177.54558441227158 " sodipodi:nodetypes="ccccc"/><path style="fill:none;stroke:#000000;stroke-width:0.264583px;stroke-linecap:butt;stroke-linejoin:miter;stroke-opacity:1" id="genPath_13" d="M 38.36,232.45441558772842 A 1.8000000000076937,1.8000000000076937 0 0 0 35.81441558772843,232.45441558772842 A 3.6000000000023897,3.6000000000023897 0 0 0 35.81441558772843,237.54558441227158 A 1.7999999999935554,1.7999999999935554 0 0 0 38.36,237.54558441227158 " sodipodi:nodetypes="ccccc"/><path style="fill:none;stroke:#000000;stroke-width:0.264583px;stroke-linecap:butt;stroke-linejoin:miter;stroke-opacity:1" id="genPath_14" d="M 42.254487014477796,172.77448701447778 A 1.6200000000163075,1.6200000000163075 0 0 0 41.108974028955586,173.2489740289556 A 3.240000000000339,3.240000000000339 0 0 0 41.108974028955586,177.83102597104443 A 1.62000000000549,1.62000000000549 0 0 0 42.254487014477796,178.3055129855222 " sodipodi:nodetypes="ccccc"/><path style="fill:none;stroke:#000000;stroke-width:0.264583px;stroke-linecap:butt;stroke-linejoin:miter;stroke-opacity:1" id="genPath_15" d="M 42.254487014477796,232.77448701447778 A 1.6199999999928643,1.6199999999928643 0 0 0 41.108974028955586,233.2489740289556 A 3.2399999999979525,3.2399999999979525 0 0 0 41.108974028955586,237.83102597104443 A 1.6199999999930412,1.6199999999930412 0 0 0 42.254487014477796,238.3055129855222 " sodipodi:nodetypes="ccccc"/><path style="fill:none;stroke:#000000;stroke-width:0.264583px;stroke-linecap:butt;stroke-linejoin:miter;stroke-opacity:1" id="genPath_16" d="M 43.46551298552221,178.3055129855222 A 1.6200000000280343,1.6200000000280343 0 0 0 44.61102597104442,177.83102597104443 A 3.2400000000001485,3.2400000000001485 0 0 0 44.61102597104442,173.2489740289556 A 1.6199999999871295,1.6199999999871295 0 0 0 43.46551298552221,172.77448701447778 " sodipodi:nodetypes="ccccc"/><path style="fill:none;stroke:#000000;stroke-width:0.264583px;stroke-linecap:butt;stroke-linejoin:miter;stroke-opacity:1" id="genPath_17" d="M 43.46551298552221,238.3055129855222 A 1.6200000000005466,1.6200000000005466 0 0 0 44.61102597104442,237.83102597104443 A 3.239999999994697,3.239999999994697 0 0 0 44.61102597104442,233.2489740289556 A 1.6199999999940076,1.6199999999940076 0 0 0 43.46551298552221,232.77448701447778 " sodipodi:nodetypes="ccccc"/><path style="fill:none;stroke:#000000;stroke-width:0.264583px;stroke-linecap:butt;stroke-linejoin:miter;stroke-opacity:1" id="genPath_18" d="M 47.18,178.24 L 47.18,172.84 L 49.34,175.54 L 51.5,172.84 L 51.5,178.24 " sodipodi:nodetypes="ccccc"/><path style="fill:none;stroke:#000000;stroke-width:0.264583px;stroke-linecap:butt;stroke-linejoin:miter;stroke-opacity:1" id="genPath_19" d="M 47.18,238.24 L 47.18,232.84 L 49.34,235.54 L 51.5,232.84 L 51.5,238.24 " sodipodi:nodetypes="ccccc"/><path style="fill:none;stroke:#000000;stroke-width:0.264583px;stroke-linecap:butt;stroke-linejoin:miter;stroke-opacity:1" id="genPath_20" d="M 53.228,175.54 L 54.038000000000004,175.54 A 1.350000000001046,1.350000000001046 0 0 0 54.038000000000004,172.84 L 53.228,172.84 L 53.228,173.65 " sodipodi:nodetypes="ccccc"/><path style="fill:none;stroke:#000000;stroke-width:0.264583px;stroke-linecap:butt;stroke-linejoin:miter;stroke-opacity:1" id="genPath_21" d="M 53.228,235.54 L 54.038000000000004,235.54 A 1.3500000000010175,1.3500000000010175 0 0 0 54.038000000000004,232.84 L 53.228,232.84 L 53.228,233.65 " sodipodi:nodetypes="ccccc"/><path style="fill:none;stroke:#000000;stroke-width:0.264583px;stroke-linecap:butt;stroke-linejoin:miter;stroke-opacity:1" id="genPath_22" d="M 54.038000000000004,175.54 A 1.349999999998687,1.349999999998687 0 0 1 54.038000000000004,178.24 L 53.228,178.24 L 53.228,177.43 " sodipodi:nodetypes="ccccc"/><path style="fill:none;stroke:#000000;stroke-width:0.264583px;stroke-linecap:butt;stroke-linejoin:miter;stroke-opacity:1" id="genPath_23" d="M 54.038000000000004,235.54 A 1.3499999999982037,1.3499999999982037 0 0 1 54.038000000000004,238.24 L 53.228,238.24 L 53.228,237.43 " sodipodi:nodetypes="ccccc"/><path style="fill:none;stroke:#000000;stroke-width:0.264583px;stroke-linecap:butt;stroke-linejoin:miter;stroke-opacity:1" id="genPath_24" d="M 59.4264870144778,172.77448701447778 A 1.6200000000025712,1.6200000000025712 0 0 0 58.28097402895558,173.2489740289556 A 3.2399999999995908,3.2399999999995908 0 0 0 58.28097402895558,177.83102597104443 A 1.6199999999935812,1.6199999999935812 0 0 0 59.4264870144778,178.3055129855222 " sodipodi:nodetypes="ccccc"/><path style="fill:none;stroke:#000000;stroke-width:0.264583px;stroke-linecap:butt;stroke-linejoin:miter;stroke-opacity:1" id="genPath_25" d="M 59.4264870144778,232.77448701447778 A 1.6199999999681196,1.6199999999681196 0 0 0 58.28097402895558,233.2489740289556 A 3.2399999999975204,3.2399999999975204 0 0 0 58.28097402895558,237.83102597104443 A 1.6199999999692523,1.6199999999692523 0 0 0 59.4264870144778,238.3055129855222 " sodipodi:nodetypes="ccccc"/><path style="fill:none;stroke:#000000;stroke-width:0.264583px;stroke-linecap:butt;stroke-linejoin:miter;stroke-opacity:1" id="genPath_26" d="M 60.63751298552221,178.3055129855222 A 1.6200000000152226,1.6200000000152226 0 0 0 61.78302597104441,177.83102597104443 A 3.2399999999983446,3.2399999999983446 0 0 0 61.78302597104442,173.2489740289556 A 1.6200000000028183,1.6200000000028183 0 0 0 60.63751298552221,172.77448701447778 " sodipodi:nodetypes="ccccc"/><path style="fill:none;stroke:#000000;stroke-width:0.264583px;stroke-linecap:butt;stroke-linejoin:miter;stroke-opacity:1" id="genPath_27" d="M 60.63751298552221,238.3055129855222 A 1.6199999999608947,1.6199999999608947 0 0 0 61.78302597104441,237.83102597104443 A 3.2399999999960185,3.2399999999960185 0 0 0 61.78302597104442,233.2489740289556 A 1.6199999999950023,1.6199999999950023 0 0 0 60.63751298552221,232.77448701447778 " sodipodi:nodetypes="ccccc"/><path style="fill:none;stroke:#000000;stroke-width:0.264583px;stroke-linecap:butt;stroke-linejoin:miter;stroke-opacity:1" id="genPath_40" d="M 39.0,46.0 L 49.0,46.0 L 49.0,44.0 L 54.0,48.0 L 49.0,52.0 L 49.0,50.0 L 39.0,50.0 " sodipodi:nodetypes="ccccc"/><path style="fill:none;stroke:#000000;stroke-width:0.264583px;stroke-linecap:butt;stroke-linejoin:miter;stroke-opacity:1" id="genPath_41" d="M 239.0,46.0 L 249.0,46.0 L 249.0,44.0 L 254.0,48.0 L 249.0,52.0 L 249.0,50.0 L 239.0,50.0 " sodipodi:nodetypes="ccccc"/><path style="fill:none;stroke:#000000;stroke-width:0.264583px;stroke-linecap:butt;stroke-linejoin:miter;stroke-opacity:1" id="genPath_42" d="M 52.935822227524085,41.42884956125384 A 3.9999999999999525,3.9999999999999525 0 0 1 59.758770483143635,42.63191942669732 A 15.69521760065203,15.69521760065203 0 0 1 59.758770483143635,53.36808057330268 A 3.999999999999953,3.999999999999953 0 0 1 52.935822227524085,54.57115043874616 " sodipodi:nodetypes="ccccc"/><path style="fill:none;stroke:#000000;stroke-width:0.264583px;stroke-linecap:butt;stroke-linejoin:miter;stroke-opacity:1" id="genPath_43" d="M 252.93582222752408,41.42884956125384 A 4.000000000001363,4.000000000001363 0 0 1 259.7587704831436,42.63191942669732 A 15.695217600655448,15.695217600655448 0 0 1 259.7587704831436,53.36808057330268 A 3.9999999999993268,3.9999999999993268 0 0 1 252.93582222752408,54.57115043874616 " sodipodi:nodetypes="ccccc"/><path style="fill:none;stroke:#000000;stroke-width:0.264583px;stroke-linecap:butt;stroke-linejoin:miter;stroke-opacity:1" id="genPath_44" d="M 46.0,111.5 L 56.0,111.5 L 56.0,109.5 L 61.0,113.5 L 56.0,117.5 L 56.0,115.5 L 46.0,115.5 " sodipodi:nodetypes="ccccc"/><path style="fill:none;stroke:#000000;stroke-width:0.264583px;stroke-linecap:butt;stroke-linejoin:miter;stroke-opacity:1" id="genPath_45" d="M 246.0,111.5 L 256.0,111.5 L 256.0,109.5 L 261.0,113.5 L 256.0,117.5 L 256.0,115.5 L 246.0,115.5 " sodipodi:nodetypes="ccccc"/><path style="fill:none;stroke:#000000;stroke-width:0.264583px;stroke-linecap:butt;stroke-linejoin:miter;stroke-opacity:1" id="genPath_46" d="M 48.06417777247591,120.07115043874616 A 4.000000000000103,4.000000000000103 0 0 1 41.241229516856365,118.86808057330268 A 15.695217600651537,15.695217600651537 0 0 1 41.241229516856365,108.13191942669732 A 4.000000000000111,4.000000000000111 0 0 1 48.064177772475915,106.92884956125384 " sodipodi:nodetypes="ccccc"/><path style="fill:none;stroke:#000000;stroke-width:0.264583px;stroke-linecap:butt;stroke-linejoin:miter;stroke-opacity:1" id="genPath_47" d="M 248.06417777247592,120.07115043874616 A 3.9999999999991083,3.9999999999991083 0 0 1 241.24122951685638,118.86808057330268 A 15.695217600649306,15.695217600649306 0 0 1 241.24122951685638,108.13191942669732 A 4.00000000000046,4.00000000000046 0 0 1 248.06417777247592,106.92884956125384 " sodipodi:nodetypes="ccccc"/><path style="fill:none;stroke:#000000;stroke-width:0.264583px;stroke-linecap:butt;stroke-linejoin:miter;stroke-opacity:1" id="genPath_48" d="M 55.0,270.0 L 55.0,263.0 L 70.0,270.0 z" sodipodi:nodetypes="ccccc"/><path style="fill:none;stroke:#000000;stroke-width:0.264583px;stroke-linecap:butt;stroke-linejoin:miter;stroke-opacity:1" id="genPath_49" d="M 55.0,273.0 L 55.0,280.0 L 70.0,273.0 z" sodipodi:nodetypes="ccccc"/><path style="fill:none;stroke:#000000;stroke-width:0.264583px;stroke-linecap:butt;stroke-linejoin:miter;stroke-opacity:1" id="genPath_50" d="M 257.0,30.0 L 255.53053686926881,32.97745751406263 L 252.24471741852423,33.454915028125264 L 254.62235870926213,35.772542485937365 L 254.06107373853763,39.045084971874736 L 257.0,37.5 L 259.93892626146237,39.045084971874736 L 259.37764129073787,35.77254248593737 L 261.75528258147574,33.454915028125264 L 258.4694631307312,32.977457514062635 z" sodipodi:nodetypes="ccccc"/><path style="fill:none;stroke:#000000;stroke-width:0.264583px;stroke-linecap:butt;stroke-linejoin:miter;stroke-opacity:1" id="genPath_51" d="M 40.0,265.0 L 38.530536869268815,267.9774575140626 L 35.24471741852423,268.45491502812524 L 37.622358709262116,270.7725424859374 L 37.06107373853764,274.04508497187476 L 40.0,272.5 L 42.93892626146236,274.04508497187476 L 42.377641290737884,270.7725424859374 L 44.75528258147577,268.45491502812524 L 41.469463130731185,267.9774575140626 z" sodipodi:nodetypes="ccccc"/></g>
  <g inkscape:groupmode="layer" id="layer3" inkscape:label="10mm"><path style="fill:none;stroke:#000000;stroke-width:0.264583px;stroke-linecap:butt;stroke-linejoin:miter;stroke-opacity:1" id="genPath_28" d="M 221.1324865405187,50.0 A 35.118845842842646,35.118845842842646 0 0 0 278.8675134594813,50.0 L 276.050635094611,45.12102355330306 L 273.96926735299604,45.641031005093055 L 274.33146911671645,47.755578074351654 L 272.2072173012405,48.05566747802938 L 272.34690114122316,50.19645888557005 L 270.20293609588776,50.27335693581999 L 270.11857837334264,52.41704142762359 L 267.9782859694687,52.269909338425464 L 267.67080683878396,54.39310410338359 L 265.55753288737486,54.02354675729491 L 265.03028625928687,56.10309248146693 L 262.96708186035994,55.51514092393788 L 262.22581881827637,57.52835440695287 L 260.23518892483315,56.72842187662148 L 259.2879949933548,58.653343454744316 L 257.3916529325957,57.65015542932325 L 256.24885988249736,59.46578850635153 L 254.4674905119064,58.27028752714962 L 253.14156366358785,59.95682760039432 L 251.4945977453253,58.582053913624776 L 250.0,60.12110459681256 L 248.5054022546747,58.582053913624776 L 246.85843633641215,59.95682760039432 L 245.53250948809358,58.27028752714962 L 243.75114011750264,59.46578850635153 L 242.60834706740428,57.65015542932325 L 240.7120050066452,58.653343454744316 L 239.76481107516685,56.72842187662148 L 237.7741811817236,57.528354406952865 L 237.03291813964006,55.51514092393787 L 234.96971374071313,56.10309248146693 L 234.44246711262514,54.02354675729491 L 232.32919316121607,54.39310410338359 L 232.02171403053129,52.26990933842546 L 229.88142162665736,52.41704142762359 L 229.79706390411224,50.27335693581999 L 227.65309885877684,50.19645888557005 L 227.79278269875945,48.05566747802938 L 225.66853088328355,47.755578074351654 L 226.03073264700393,45.64103100509305 L 223.94936490538902,45.121023553303054 z" sodipodi:nodetypes="ccccc"/><path style="fill:none;stroke:#000000;stroke-width:0.264583px;stroke-linecap:butt;stroke-linejoin:miter;stroke-opacity:1" id="genPath_29" d="M 121.13248654051871,50.0 A 35.118845842842546,35.118845842842546 0 0 0 178.8675134594813,50.0 L 176.05063509461098,45.12102355330306 L 173.96926735299604,45.641031005093055 L 174.33146911671642,47.755578074351654 L 172.20721730124055,48.05566747802938 L 172.34690114122316,50.19645888557005 L 170.20293609588776,50.27335693581999 L 170.11857837334264,52.41704142762359 L 167.97828596946871,52.269909338425464 L 167.67080683878393,54.39310410338359 L 165.55753288737486,54.02354675729491 L 165.03028625928687,56.10309248146693 L 162.96708186035994,55.51514092393788 L 162.2258188182764,57.52835440695287 L 160.23518892483315,56.72842187662148 L 159.2879949933548,58.653343454744316 L 157.3916529325957,57.65015542932325 L 156.24885988249733,59.46578850635153 L 154.4674905119064,58.27028752714962 L 153.14156366358785,59.95682760039432 L 151.4945977453253,58.582053913624776 L 150.0,60.12110459681256 L 148.5054022546747,58.582053913624776 L 146.85843633641215,59.95682760039432 L 145.53250948809358,58.27028752714962 L 143.75114011750264,59.46578850635153 L 142.60834706740428,57.65015542932325 L 140.7120050066452,58.653343454744316 L 139.76481107516685,56.72842187662148 L 137.7741811817236,57.528354406952865 L 137.03291813964006,55.51514092393787 L 134.96971374071313,56.10309248146693 L 134.44246711262514,54.02354675729491 L 132.32919316121607,54.39310410338359 L 132.02171403053129,52.26990933842546 L 129.88142162665736,52.41704142762359 L 129.79706390411224,50.27335693581999 L 127.65309885877683,50.19645888557005 L 127.79278269875945,48.05566747802938 L 125.66853088328357,47.755578074351654 L 126.03073264700393,45.64103100509305 L 123.94936490538903,45.121023553303054 z" sodipodi:nodetypes="ccccc"/><path style="fill:none;stroke:#000000;stroke-width:0.264583px;stroke-linecap:butt;stroke-linejoin:miter;stroke-opacity:1" id="genPath_30" d="M 267.800635094611,69.16839560914018 A 6.733756729741117,6.733756729741117 0 0 0 257.7,75.0 L 264.43375672974065,75.0 z" sodipodi:nodetypes="ccccc"/><path style="fill:none;stroke:#000000;stroke-width:0.264583px;stroke-linecap:butt;stroke-linejoin:miter;stroke-opacity:1" id="genPath_31" d="M 167.80063509461098,69.16839560914018 A 6.733756729740435,6.733756729740435 0 0 0 157.7,75.0 L 164.43375672974065,75.0 z" sodipodi:nodetypes="ccccc"/><path style="fill:none;stroke:#000000;stroke-width:0.264583px;stroke-linecap:butt;stroke-linejoin:miter;stroke-opacity:1" id="genPath_32" d="M 232.19936490538902,69.16839560914018 A 6.733756729741344,6.733756729741344 0 0 1 242.3,75.0 L 235.56624327025935,75.0 z" sodipodi:nodetypes="ccccc"/><path style="fill:none;stroke:#000000;stroke-width:0.264583px;stroke-linecap:butt;stroke-linejoin:miter;stroke-opacity:1" id="genPath_33" d="M 132.19936490538902,69.16839560914018 A 6.733756729740776,6.733756729740776 0 0 1 142.3,75.0 L 135.56624327025935,75.0 z" sodipodi:nodetypes="ccccc"/><path style="fill:none;stroke:#000000;stroke-width:0.264583px;stroke-linecap:butt;stroke-linejoin:miter;stroke-opacity:1" id="genPath_34" d="M 255.5,135.0 L 257.7,135.0 A 6.733756729739721,6.733756729739721 0 0 1 267.800635094611,129.1683956091402 L 278.8675134594813,110.0 A 35.118845842839754,35.118845842839754 0 0 1 255.5,124.68549168360359 z" sodipodi:nodetypes="ccccc"/><path style="fill:none;stroke:#000000;stroke-width:0.264583px;stroke-linecap:butt;stroke-linejoin:miter;stroke-opacity:1" id="genPath_35" d="M 155.5,135.0 L 157.7,135.0 A 6.733756729740595,6.733756729740595 0 0 1 167.80063509461098,129.1683956091402 L 178.8675134594813,110.0 A 35.118845842842305,35.118845842842305 0 0 1 155.5,124.68549168360359 z" sodipodi:nodetypes="ccccc"/><path style="fill:none;stroke:#000000;stroke-width:0.264583px;stroke-linecap:butt;stroke-linejoin:miter;stroke-opacity:1" id="genPath_36" d="M 244.5,135.0 L 242.3,135.0 A 6.7337567297404854,6.7337567297404854 0 0 0 232.19936490538902,129.16839560914016 L 221.1324865405187,110.0 A 35.11884584284225,35.11884584284225 0 0 0 244.5,124.68549168360359 z" sodipodi:nodetypes="ccccc"/><path style="fill:none;stroke:#000000;stroke-width:0.264583px;stroke-linecap:butt;stroke-linejoin:miter;stroke-opacity:1" id="genPath_37" d="M 144.5,135.0 L 142.3,135.0 A 6.733756729740842,6.733756729740842 0 0 0 132.19936490538902,129.16839560914016 L 121.13248654051871,110.0 A 35.118845842842106,35.118845842842106 0 0 0 144.5,124.68549168360359 z" sodipodi:nodetypes="ccccc"/><path style="fill:none;stroke:#000000;stroke-width:0.264583px;stroke-linecap:butt;stroke-linejoin:miter;stroke-opacity:1" id="genPath_38" d="M 224.49936490538903,104.16839560914018 L 254.0,104.0 A 1.9999999999988916,1.9999999999988916 0 0 0 256.0,102.0 A 2.0000000000010942,2.0000000000010942 0 0 0 254.0,100.0 L 239.0,100.0 L 239.0,97.5 A 3.5522727272708035,3.5522727272708035 0 0 1 239.0,91.5 L 239.0,89.0 L 254.0,89.0 A 12.999999999999375,12.999999999999375 0 0 1 267.0,102.0 A 2.168395609144966,2.168395609144966 0 0 0 269.1683956091402,104.16839560914018 L 275.50063509461097,104.16839560914018 L 264.43375672974065,85.0 L 235.56624327025935,85.0 z" sodipodi:nodetypes="ccccc"/><path style="fill:none;stroke:#000000;stroke-width:0.264583px;stroke-linecap:butt;stroke-linejoin:miter;stroke-opacity:1" id="genPath_39" d="M 124.49936490538903,104.16839560914018 L 154.0,104.0 A 1.9999999999973568,1.9999999999973568 0 0 0 156.0,102.0 A 1.9999999999995595,1.9999999999995595 0 0 0 154.0,100.0 L 139.0,100.0 L 139.0,97.5 A 3.5522727272713053,3.5522727272713053 0 0 1 139.0,91.5 L 139.0,89.0 L 154.0,89.0 A 12.999999999999574,12.999999999999574 0 0 1 167.0,102.0 A 2.1683956091399494,2.1683956091399494 0 0 0 169.1683956091402,104.16839560914018 L 175.50063509461097,104.16839560914018 L 164.43375672974065,85.0 L 135.56624327025935,85.0 z" sodipodi:nodetypes="ccccc"/></g>
</svg>