<?xml version="1.0" ?><!-- Created with Inkscape (http://www.inkscape.org/) --><svg xmlns:inkscape="http://www.inkscape.org/namespaces/inkscape" xmlns:sodipodi="http://sodipodi.sourceforge.net/DTD/sodipodi-0.dtd" xmlns="http://www.w3.org/2000/svg" xmlns:svg="http://www.w3.org/2000/svg" width="300mm" height="300mm" viewBox="0 0 300 300" version="1.1" id="svg5" inkscape:version="1.1.2 (0a00cf5339, 2022-02-04)" sodipodi:docname="Template.svg">
  <sodipodi:namedview id="namedview7" pagecolor="#ffffff" bordercolor="#999999" borderopacity="1" inkscape:pageshadow="0" inkscape:pageopacity="0" inkscape:pagecheckerboard="0" inkscape:document-units="mm" showgrid="true" width="300mm" inkscape:zoom="0.56315579" inkscape:cx="491.87099" inkscape:cy="557.57217" inkscape:window-width="1874" inkscape:window-height="1052" inkscape:window-x="46" inkscape:window-y="0" inkscape:window-maximized="1" inkscape:current-layer="layer1" height="300mm" inkscape:lockguides="false">
    <inkscape:grid type="xygrid" id="grid888"/>
  </sodipodi:namedview>
  <defs id="defs2"/>
  <g inkscape:label="Desc" inkscape:groupmode="layer" id="layer1" sodipodi:insensitive="true">
    <text xml:space="preserve" style="font-style:normal;font-weight:normal;font-size:10.5833px;line-height:1.25;font-family:sans-serif;fill:#000000;fill-opacity:1;stroke:none;stroke-width:0.264583" x="34.193851" y="10.854793" id="text3620"><tspan sodipodi:role="line" id="tspan3618" style="stroke-width:0.264583" x="34.193851" y="10.854793">3mm</tspan></text>
    <text xml:space="preserve" style="font-style:normal;font-weight:normal;font-size:10.5833px;line-height:1.25;font-family:sans-serif;fill:#000000;fill-opacity:1;stroke:none;stroke-width:0.264583" x="133.83728" y="10.854793" id="text3620-3"><tspan sodipodi:role="line" style="stroke-width:0.264583" x="133.83728" y="10.854793" id="tspan5941">6mm</tspan></text>
    <text xml:space="preserve" style="font-style:normal;font-weight:normal;font-size:10.5833px;line-height:1.25;font-family:sans-serif;fill:#000000;fill-opacity:1;stroke:none;stroke-width:0.264583" x="231.31548" y="11.040827" id="text3620-3-8"><tspan sodipodi:role="line" style="stroke-width:0.264583" x="231.31548" y="11.040827" id="tspan6654">Preview</tspan></text>
    <circle style="fill:#a3a3a3;fill-opacity:1;stroke:none;stroke-width:0.944882;stroke-linejoin:round;paint-order:markers fill stroke" id="path854" cx="290" cy="10" r="5"/>
  </g>
  <g inkscape:groupmode="layer" id="layer2" inkscape:label="3mm"><path style="fill:none;stroke:#000000;stroke-width:0.264583px;stroke-linecap:butt;stroke-linejoin:miter;stroke-opacity:1" id="genPath_0" d="M 78.86751345948129,50.0 L 64.43375672974065,25.0 L 35.56624327025936,24.999999999999996 L 21.13248654051871,50.0 L 35.56624327025934,75.0 L 64.43375672974065,75.0 L 78.86751345948129,50.00000000000001 z" sodipodi:nodetypes="ccccc"/><path style="fill:none;stroke:#000000;stroke-width:0.264583px;stroke-linecap:butt;stroke-linejoin:miter;stroke-opacity:1" id="genPath_1" d="M 78.86751345948129,110.0 L 64.43375672974065,85.0 L 35.56624327025936,85.0 L 21.13248654051871,110.0 L 35.56624327025934,135.0 L 64.43375672974065,135.0 L 78.86751345948129,110.0 z" sodipodi:nodetypes="ccccc"/><path style="fill:none;stroke:#000000;stroke-width:0.264583px;stroke-linecap:butt;stroke-linejoin:miter;stroke-opacity:1" id="genPath_2" d="M 278.8675134594813,50.0 L 264.43375672974065,25.0 L 235.56624327025935,24.999999999999996 L 221.1324865405187,50.0 L 235.56624327025935,75.0 L 264.43375672974065,75.0 L 278.8675134594813,50.00000000000001 z" sodipodi:nodetypes="ccccc"/><path style="fill:none;stroke:#000000;stroke-width:0.264583px;stroke-linecap:butt;stroke-linejoin:miter;stroke-opacity:1" id="genPath_3" d="M 278.8675134594813,110.0 L 264.43375672974065,85.0 L 235.56624327025935,85.0 L 221.1324865405187,110.0 L 235.56624327025935,135.0 L 264.43375672974065,135.0 L 278.8675134594813,110.0 z" sodipodi:nodetypes="ccccc"/><path style="fill:none;stroke:#000000;stroke-width:0.264583px;stroke-linecap:butt;stroke-linejoin:miter;stroke-opacity:1" id="genPath_4" d="M 36.72094380863861,193.0 L 43.650000000000006,193.0 L 43.650000000000006,188.0 L 56.35,188.0 L 56.35,193.0 L 63.2790561913614,193.0 L 66.7435842870421,186.99926131403117 L 62.4134572681199,184.49926131403117 L 68.7634572681199,173.50073868596883 L 73.09358428704209,176.00073868596883 L 76.55811238272278,170.0 L 73.09358428704209,163.99926131403117 L 68.7634572681199,166.49926131403117 L 62.4134572681199,155.50073868596883 L 66.7435842870421,153.00073868596883 L 63.2790561913614,147.0 L 56.35,147.0 L 56.35,152.0 L 43.650000000000006,152.0 L 43.650000000000006,147.0 L 36.72094380863861,147.0 L 33.25641571295792,153.00073868596883 L 37.58654273188011,155.50073868596883 L 31.236542731880107,166.49926131403117 L 26.906415712957912,163.99926131403117 L 23.441887617277214,170.0 L 26.90641571295791,176.0007386859688 L 31.236542731880103,173.5007386859688 L 37.5865427318801,184.49926131403117 L 33.2564157129579,186.99926131403117 L 36.720943808638594,193.0 z" sodipodi:nodetypes="ccccc"/><path style="fill:none;stroke:#000000;stroke-width:0.264583px;stroke-linecap:butt;stroke-linejoin:miter;stroke-opacity:1" id="genPath_5" d="M 36.72094380863861,253.0 L 43.650000000000006,253.0 L 43.650000000000006,248.0 L 56.35,248.0 L 56.35,253.0 L 63.2790561913614,253.0 L 66.7435842870421,246.99926131403117 L 62.4134572681199,244.49926131403117 L 68.7634572681199,233.50073868596883 L 73.09358428704209,236.00073868596883 L 76.55811238272278,230.0 L 73.09358428704209,223.99926131403117 L 68.7634572681199,226.49926131403117 L 62.4134572681199,215.50073868596883 L 66.7435842870421,213.00073868596883 L 63.2790561913614,207.0 L 56.35,207.0 L 56.35,212.0 L 43.650000000000006,212.0 L 43.650000000000006,207.0 L 36.72094380863861,207.0 L 33.25641571295792,213.00073868596883 L 37.58654273188011,215.50073868596883 L 31.236542731880107,226.49926131403117 L 26.906415712957912,223.99926131403117 L 23.441887617277214,230.0 L 26.90641571295791,236.0007386859688 L 31.236542731880103,233.5007386859688 L 37.5865427318801,244.49926131403117 L 33.2564157129579,246.99926131403117 L 36.720943808638594,253.0 z" sodipodi:nodetypes="ccccc"/><path style="fill:none;stroke:#000000;stroke-width:0.264583px;stroke-linecap:butt;stroke-linejoin:miter;stroke-opacity:1" id="genPath_6" d="M 236.72094380863862,73.0 L 243.65,73.0 L 243.65,68.0 L 256.35,68.0 L 256.35,73.0 L 263.2790561913614,73.0 L 266.7435842870421,66.99926131403119 L 262.4134572681199,64.49926131403119 L 268.7634572681199,53.50073868596881 L 273.09358428704206,56.00073868596881 L 276.5581123827228,50.0 L 273.09358428704206,43.99926131403119 L 268.7634572681199,46.49926131403119 L 262.4134572681199,35.50073868596881 L 266.7435842870421,33.00073868596881 L 263.2790561913614,27.0 L 256.35,27.0 L 256.35,32.0 L 243.65,32.0 L 243.65,27.0 L 236.72094380863862,26.999999999999996 L 233.2564157129579,33.00073868596881 L 237.58654273188012,35.50073868596881 L 231.2365427318801,46.49926131403118 L 226.9064157129579,43.99926131403118 L 223.44188761727722,50.0 L 226.9064157129579,56.000738685968805 L 231.2365427318801,53.50073868596881 L 237.5865427318801,64.49926131403117 L 233.2564157129579,66.99926131403117 L 236.7209438086386,73.0 z" sodipodi:nodetypes="ccccc"/><path style="fill:none;stroke:#000000;stroke-width:0.264583px;stroke-linecap:butt;stroke-linejoin:miter;stroke-opacity:1" id="genPath_7" d="M 236.72094380863862,133.0 L 243.65,133.0 L 243.65,128.0 L 256.35,128.0 L 256.35,133.0 L 263.2790561913614,133.0 L 266.7435842870421,126.99926131403119 L 262.4134572681199,124.49926131403119 L 268.7634572681199,113.50073868596881 L 273.09358428704206,116.00073868596881 L 276.5581123827228,110.0 L 273.09358428704206,103.99926131403119 L 268.7634572681199,106.49926131403119 L 262.4134572681199,95.50073868596881 L 266.7435842870421,93.00073868596881 L 263.2790561913614,87.0 L 256.35,87.0 L 256.35,92.0 L 243.65,92.0 L 243.65,87.0 L 236.72094380863862,87.0 L 233.2564157129579,93.00073868596881 L 237.58654273188012,95.50073868596881 L 231.2365427318801,106.49926131403119 L 226.9064157129579,103.99926131403119 L 223.44188761727722,110.0 L 226.9064157129579,116.00073868596881 L 231.2365427318801,113.50073868596881 L 237.5865427318801,124.49926131403117 L 233.2564157129579,126.99926131403117 L 236.7209438086386,133.0 z" sodipodi:nodetypes="ccccc"/><path style="fill:none;stroke:#000000;stroke-width:0.264583px;stroke-linecap:butt;stroke-linejoin:miter;stroke-opacity:1" id="genPath_8" d="M 50.0,154.0 L 47.64885899083011,158.7639320225002 L 42.39154786963877,159.52786404500043 L 46.195773934819385,163.2360679774998 L 45.29771798166021,168.47213595499957 L 50.0,166.0 L 54.70228201833979,168.47213595499957 L 53.804226065180615,163.2360679774998 L 57.60845213036123,159.52786404500043 L 52.35114100916989,158.7639320225002 z" sodipodi:nodetypes="ccccc"/><path style="fill:none;stroke:#000000;stroke-width:0.264583px;stroke-linecap:butt;stroke-linejoin:miter;stroke-opacity:1" id="genPath_9" d="M 50.0,214.0 L 47.64885899083011,218.7639320225002 L 42.39154786963877,219.52786404500043 L 46.195773934819385,223.2360679774998 L 45.29771798166021,228.47213595499957 L 50.0,226.0 L 54.70228201833979,228.47213595499957 L 53.804226065180615,223.2360679774998 L 57.60845213036123,219.52786404500043 L 52.35114100916989,218.7639320225002 z" sodipodi:nodetypes="ccccc"/><path style="fill:none;stroke:#000000;stroke-width:0.264583px;stroke-linecap:butt;stroke-linejoin:miter;stroke-opacity:1" id="genPath_10" d="M 50.0,158.0 L 48.82442949541505,160.3819660112501 L 46.195773934819385,160.7639320225002 L 48.09788696740969,162.6180339887499 L 47.64885899083011,165.2360679774998 L 50.0,164.0 L 52.35114100916989,165.2360679774998 L 51.90211303259031,162.6180339887499 L 53.804226065180615,160.7639320225002 L 51.17557050458495,160.3819660112501 z" sodipodi:nodetypes="ccccc"/><path style="fill:none;stroke:#000000;stroke-width:0.264583px;stroke-linecap:butt;stroke-linejoin:miter;stroke-opacity:1" id="genPath_11" d="M 50.0,218.0 L 48.82442949541505,220.3819660112501 L 46.195773934819385,220.7639320225002 L 48.09788696740969,222.6180339887499 L 47.64885899083011,225.2360679774998 L 50.0,224.0 L 52.35114100916989,225.2360679774998 L 51.90211303259031,222.6180339887499 L 53.804226065180615,220.7639320225002 L 51.17557050458495,220.3819660112501 z" sodipodi:nodetypes="ccccc"/><path style="fill:none;stroke:#000000;stroke-width:0.264583px;stroke-linecap:butt;stroke-linejoin:miter;stroke-opacity:1" id="genPath_12" d="M 41.40720779386422,169.92720779386423 A 1.800000000003197,1.800000000003197 0 0 0 40.13441558772843,170.45441558772842 A 3.6000000000002492,3.6000000000002492 0 0 0 40.13441558772843,175.54558441227158 A 1.8000000000033367,1.8000000000033367 0 0 0 41.40720779386422,176.07279220613577 " sodipodi:nodetypes="ccccc"/><path style="fill:none;stroke:#000000;stroke-width:0.264583px;stroke-linecap:butt;stroke-linejoin:miter;stroke-opacity:1" id="genPath_13" d="M 42.75279220613579,176.07279220613577 A 1.80000000000277,1.80000000000277 0 0 0 44.02558441227157,175.54558441227158 A 3.5999999999986865,3.5999999999986865 0 0 0 44.02558441227157,170.45441558772842 A 1.8000000000078273,1.8000000000078273 0 0 0 42.75279220613579,169.92720779386423 " sodipodi:nodetypes="ccccc"/><path style="fill:none;stroke:#000000;stroke-width:0.264583px;stroke-linecap:butt;stroke-linejoin:miter;stroke-opacity:1" id="genPath_14" d="M 46.64,176.24 L 46.64,173.54 L 47.449999999999996,173.54 A 1.3499999999990848,1.3499999999990848 0 0 0 47.449999999999996,170.84 L 46.64,170.84 L 46.64,171.65 " sodipodi:nodetypes="ccccc"/><path style="fill:none;stroke:#000000;stroke-width:0.264583px;stroke-linecap:butt;stroke-linejoin:miter;stroke-opacity:1" id="genPath_15" d="M 50.744,173.54 L 52.904,173.54 " sodipodi:nodetypes="ccccc"/><path style="fill:none;stroke:#000000;stroke-width:0.264583px;stroke-linecap:butt;stroke-linejoin:miter;stroke-opacity:1" id="genPath_16" d="M 53.984,170.84 L 50.744,170.84 L 50.744,176.24 L 53.984,176.24 " sodipodi:nodetypes="ccccc"/><path style="fill:none;stroke:#000000;stroke-width:0.264583px;stroke-linecap:butt;stroke-linejoin:miter;stroke-opacity:1" id="genPath_17" d="M 55.82,176.24 L 55.82,170.84 L 59.06,176.24 L 59.06,170.84 " sodipodi:nodetypes="ccccc"/><path style="fill:none;stroke:#000000;stroke-width:0.264583px;stroke-linecap:butt;stroke-linejoin:miter;stroke-opacity:1" id="genPath_18" d="M 44.78,185.0 L 44.78,179.0 L 47.18,182.0 L 49.58,179.0 L 49.58,185.0 " sodipodi:nodetypes="ccccc"/><path style="fill:none;stroke:#000000;stroke-width:0.264583px;stroke-linecap:butt;stroke-linejoin:miter;stroke-opacity:1" id="genPath_19" d="M 51.26,182.54 L 53.42,182.54 " sodipodi:nodetypes="ccccc"/><path style="fill:none;stroke:#000000;stroke-width:0.264583px;stroke-linecap:butt;stroke-linejoin:miter;stroke-opacity:1" id="genPath_20" d="M 54.5,179.84 L 51.26,179.84 L 51.26,185.24 L 54.5,185.24 " sodipodi:nodetypes="ccccc"/><path style="fill:none;stroke:#000000;stroke-width:0.264583px;stroke-linecap:butt;stroke-linejoin:miter;stroke-opacity:1" id="genPath_21" d="M 38.04720779386422,229.92720779386423 A 1.7999999999953742,1.7999999999953742 0 0 0 36.77441558772843,230.45441558772842 A 3.599999999997682,3.599999999997682 0 0 0 36.77441558772843,235.54558441227158 A 1.799999999990689,1.799999999990689 0 0 0 38.04720779386422,236.07279220613577 " sodipodi:nodetypes="ccccc"/><path style="fill:none;stroke:#000000;stroke-width:0.264583px;stroke-linecap:butt;stroke-linejoin:miter;stroke-opacity:1" id="genPath_22" d="M 39.39279220613579,236.07279220613577 A 1.799999999984607,1.799999999984607 0 0 0 40.66558441227157,235.54558441227158 A 3.6000000000007817,3.6000000000007817 0 0 0 40.66558441227157,230.45441558772842 A 1.8000000000097884,1.8000000000097884 0 0 0 39.39279220613579,229.92720779386423 " sodipodi:nodetypes="ccccc"/><path style="fill:none;stroke:#000000;stroke-width:0.264583px;stroke-linecap:butt;stroke-linejoin:miter;stroke-opacity:1" id="genPath_23" d="M 36.92,229.1 L 37.22,228.2 " sodipodi:nodetypes="ccccc"/><path style="fill:none;stroke:#000000;stroke-width:0.264583px;stroke-linecap:butt;stroke-linejoin:miter;stroke-opacity:1" id="genPath_24" d="M 40.52,229.1 L 40.82,228.2 " sodipodi:nodetypes="ccccc"/><path style="fill:none;stroke:#000000;stroke-width:0.264583px;stroke-linecap:butt;stroke-linejoin:miter;stroke-opacity:1" id="genPath_25" d="M 43.28,233.54 L 45.44,233.54 " sodipodi:nodetypes="ccccc"/><path style="fill:none;stroke:#000000;stroke-width:0.264583px;stroke-linecap:butt;stroke-linejoin:miter;stroke-opacity:1" id="genPath_26" d="M 46.52,230.84 L 43.28,230.84 L 43.28,236.24 " sodipodi:nodetypes="ccccc"/><path style="fill:none;stroke:#000000;stroke-width:0.264583px;stroke-linecap:butt;stroke-linejoin:miter;stroke-opacity:1" id="genPath_27" d="M 48.356,233.54 L 50.516,233.54 " sodipodi:nodetypes="ccccc"/><path style="fill:none;stroke:#000000;stroke-width:0.264583px;stroke-linecap:butt;stroke-linejoin:miter;stroke-opacity:1" id="genPath_28" d="M 51.596000000000004,230.84 L 48.356,230.84 L 48.356,236.24 " sodipodi:nodetypes="ccccc"/><path style="fill:none;stroke:#000000;stroke-width:0.264583px;stroke-linecap:butt;stroke-linejoin:miter;stroke-opacity:1" id="genPath_29" d="M 53.432,236.24 L 53.432,230.84 L 56.672,236.24 L 56.672,230.84 " sodipodi:nodetypes="ccccc"/><path style="fill:none;stroke:#000000;stroke-width:0.264583px;stroke-linecap:butt;stroke-linejoin:miter;stroke-opacity:1" id="genPath_30" d="M 58.508,233.54 L 60.668000000000006,233.54 " sodipodi:nodetypes="ccccc"/><path style="fill:none;stroke:#000000;stroke-width:0.264583px;stroke-linecap:butt;stroke-linejoin:miter;stroke-opacity:1" id="genPath_31" d="M 61.748,230.84 L 58.508,230.84 L 58.508,236.24 L 61.748,236.24 " sodipodi:nodetypes="ccccc"/><path style="fill:none;stroke:#000000;stroke-width:0.264583px;stroke-linecap:butt;stroke-linejoin:miter;stroke-opacity:1" id="genPath_32" d="M 40.489999999999995,245.0 L 40.489999999999995,239.0 L 42.89,242.0 L 45.29,239.0 L 45.29,245.0 " sodipodi:nodetypes="ccccc"/><path style="fill:none;stroke:#000000;stroke-width:0.264583px;stroke-linecap:butt;stroke-linejoin:miter;stroke-opacity:1" id="genPath_33" d="M 47.24,239.84 L 47.24,245.24 " sodipodi:nodetypes="ccccc"/><path style="fill:none;stroke:#000000;stroke-width:0.264583px;stroke-linecap:butt;stroke-linejoin:miter;stroke-opacity:1" id="genPath_34" d="M 52.856,240.2489740289556 A 1.6200000000002952,1.6200000000002952 0 0 0 50.56497402895559,240.2489740289556 A 3.2400000000046854,3.2400000000046854 0 0 0 50.56497402895558,244.83102597104443 A 1.620000000001315,1.620000000001315 0 0 0 52.856,244.83102597104443 " sodipodi:nodetypes="ccccc"/><path style="fill:none;stroke:#000000;stroke-width:0.264583px;stroke-linecap:butt;stroke-linejoin:miter;stroke-opacity:1" id="genPath_35" d="M 54.692,239.84 L 54.692,242.54 L 57.932,242.54 L 57.932,239.84 " sodipodi:nodetypes="ccccc"/><path style="fill:none;stroke:#000000;stroke-width:0.264583px;stroke-linecap:butt;stroke-linejoin:miter;stroke-opacity:1" id="genPath_36" d="M 54.692,245.24 L 54.692,242.54 " sodipodi:nodetypes="ccccc"/><path style="fill:none;stroke:#000000;stroke-width:0.264583px;stroke-linecap:butt;stroke-linejoin:miter;stroke-opacity:1" id="genPath_37" d="M 57.932,245.24 L 57.932,242.54 " sodipodi:nodetypes="ccccc"/></g>
  <g inkscape:groupmode="layer" id="layer3" inkscape:label="6mm"><path style="fill:none;stroke:#000000;stroke-width:0.264583px;stroke-linecap:butt;stroke-linejoin:miter;stroke-opacity:1" id="genPath_76" d="M 164.43375672974065,135.0 L 168.90063509461098,127.26313972081441 L 155.5,119.52627944162883 L 155.5,135.0 z" sodipodi:nodetypes="ccccc"/><path style="fill:none;stroke:#000000;stroke-width:0.264583px;stroke-linecap:butt;stroke-linejoin:miter;stroke-opacity:1" id="genPath_77" d="M 264.43375672974065,135.0 L 268.90063509461095,127.26313972081441 L 255.5,119.52627944162883 L 255.5,135.0 z" sodipodi:nodetypes="ccccc"/><path style="fill:none;stroke:#000000;stroke-width:0.264583px;stroke-linecap:butt;stroke-linejoin:miter;stroke-opacity:1" id="genPath_78" d="M 164.43375672974065,25.0 L 168.90063509461098,32.73686027918559 L 155.5,40.47372055837118 L 155.5,24.999999999999996 z" sodipodi:nodetypes="ccccc"/><path style="fill:none;stroke:#000000;stroke-width:0.264583px;stroke-linecap:butt;stroke-linejoin:miter;stroke-opacity:1" id="genPath_79" d="M 264.43375672974065,25.0 L 268.90063509461095,32.73686027918559 L 255.5,40.47372055837118 L 255.5,24.999999999999996 z" sodipodi:nodetypes="ccccc"/><path style="fill:none;stroke:#000000;stroke-width:0.264583px;stroke-linecap:butt;stroke-linejoin:miter;stroke-opacity:1" id="genPath_80" d="M 144.5,92.0 L 142.5,92.0 L 142.5,85.0 L 138.5,85.0 L 138.5,92.0 L 131.524791385932,92.0 L 121.13248654051871,110.0 L 135.56624327025935,135.0 L 144.5,135.0 z" sodipodi:nodetypes="ccccc"/><path style="fill:none;stroke:#000000;stroke-width:0.264583px;stroke-linecap:butt;stroke-linejoin:miter;stroke-opacity:1" id="genPath_81" d="M 244.5,92.0 L 242.5,92.0 L 242.5,85.0 L 238.5,85.0 L 238.5,92.0 L 231.524791385932,92.0 L 221.1324865405187,110.0 L 235.56624327025935,135.0 L 244.5,135.0 z" sodipodi:nodetypes="ccccc"/><path style="fill:none;stroke:#000000;stroke-width:0.264583px;stroke-linecap:butt;stroke-linejoin:miter;stroke-opacity:1" id="genPath_82" d="M 144.5,68.0 L 142.5,68.0 L 142.5,75.0 L 138.5,75.0 L 138.5,68.0 L 131.524791385932,68.0 L 121.13248654051871,50.0 L 135.56624327025935,25.000000000000007 L 144.5,25.000000000000004 z" sodipodi:nodetypes="ccccc"/><path style="fill:none;stroke:#000000;stroke-width:0.264583px;stroke-linecap:butt;stroke-linejoin:miter;stroke-opacity:1" id="genPath_83" d="M 244.5,68.0 L 242.5,68.0 L 242.5,75.0 L 238.5,75.0 L 238.5,68.0 L 231.524791385932,68.0 L 221.1324865405187,50.0 L 235.56624327025935,25.000000000000007 L 244.5,25.000000000000004 z" sodipodi:nodetypes="ccccc"/><path style="fill:none;stroke:#000000;stroke-width:0.264583px;stroke-linecap:butt;stroke-linejoin:miter;stroke-opacity:1" id="genPath_84" d="M 155.5,106.82457351945706 L 174.40063509461098,117.73686027918559 L 178.8675134594813,110.0 L 168.47520861406804,92.0 L 161.5,92.0 L 161.5,85.0 L 157.5,85.0 L 157.5,92.0 L 155.5,92.0 z" sodipodi:nodetypes="ccccc"/><path style="fill:none;stroke:#000000;stroke-width:0.264583px;stroke-linecap:butt;stroke-linejoin:miter;stroke-opacity:1" id="genPath_85" d="M 255.5,106.82457351945706 L 274.40063509461095,117.73686027918559 L 278.8675134594813,110.0 L 268.47520861406804,92.0 L 261.5,92.0 L 261.5,85.0 L 257.5,85.0 L 257.5,92.0 L 255.5,92.0 z" sodipodi:nodetypes="ccccc"/><path style="fill:none;stroke:#000000;stroke-width:0.264583px;stroke-linecap:butt;stroke-linejoin:miter;stroke-opacity:1" id="genPath_86" d="M 155.5,53.17542648054294 L 174.40063509461098,42.263139720814415 L 178.8675134594813,50.0 L 168.47520861406804,68.0 L 161.5,68.0 L 161.5,75.0 L 157.5,75.0 L 157.5,68.0 L 155.5,68.0 z" sodipodi:nodetypes="ccccc"/><path style="fill:none;stroke:#000000;stroke-width:0.264583px;stroke-linecap:butt;stroke-linejoin:miter;stroke-opacity:1" id="genPath_87" d="M 255.5,53.17542648054294 L 274.40063509461095,42.263139720814415 L 278.8675134594813,50.0 L 268.47520861406804,68.0 L 261.5,68.0 L 261.5,75.0 L 257.5,75.0 L 257.5,68.0 L 255.5,68.0 z" sodipodi:nodetypes="ccccc"/><path style="fill:none;stroke:#000000;stroke-width:0.264583px;stroke-linecap:butt;stroke-linejoin:miter;stroke-opacity:1" id="genPath_88" d="M 130.5,50.0 A 4.5,4.5 0 0 0 139.5,50.0 A 4.5,4.5 0 0 0 130.5,50.0 z" sodipodi:nodetypes="ccccc"/><path style="fill:none;stroke:#000000;stroke-width:0.264583px;stroke-linecap:butt;stroke-linejoin:miter;stroke-opacity:1" id="genPath_89" d="M 230.5,50.0 A 4.5,4.5 0 0 0 239.5,50.0 A 4.5,4.5 0 0 0 230.5,50.0 z" sodipodi:nodetypes="ccccc"/><path style="fill:none;stroke:#000000;stroke-width:0.264583px;stroke-linecap:butt;stroke-linejoin:miter;stroke-opacity:1" id="genPath_90" d="M 139.43163488855492,109.21858320049881 A 4.500000000001862,4.500000000001862 0 0 0 137.89254424358944,106.5528000059646 " sodipodi:nodetypes="ccccc"/><path style="fill:none;stroke:#000000;stroke-width:0.264583px;stroke-linecap:butt;stroke-linejoin:miter;stroke-opacity:1" id="genPath_91" d="M 132.10745575641056,106.5528000059646 A 4.500000000001538,4.500000000001538 0 0 0 130.56836511144508,109.21858320049881 " sodipodi:nodetypes="ccccc"/><path style="fill:none;stroke:#000000;stroke-width:0.264583px;stroke-linecap:butt;stroke-linejoin:miter;stroke-opacity:1" id="genPath_92" d="M 133.4609093550345,114.22861679353659 A 4.50000000000165,4.50000000000165 0 0 0 136.5390906449655,114.22861679353659 " sodipodi:nodetypes="ccccc"/><path style="fill:none;stroke:#000000;stroke-width:0.264583px;stroke-linecap:butt;stroke-linejoin:miter;stroke-opacity:1" id="genPath_93" d="M 239.43163488855492,109.21858320049881 A 4.500000000028098,4.500000000028098 0 0 0 237.89254424358944,106.5528000059646 " sodipodi:nodetypes="ccccc"/><path style="fill:none;stroke:#000000;stroke-width:0.264583px;stroke-linecap:butt;stroke-linejoin:miter;stroke-opacity:1" id="genPath_94" d="M 232.10745575641056,106.5528000059646 A 4.500000000005163,4.500000000005163 0 0 0 230.56836511144508,109.21858320049881 " sodipodi:nodetypes="ccccc"/><path style="fill:none;stroke:#000000;stroke-width:0.264583px;stroke-linecap:butt;stroke-linejoin:miter;stroke-opacity:1" id="genPath_95" d="M 233.4609093550345,114.22861679353659 A 4.5000000000119265,4.5000000000119265 0 0 0 236.5390906449655,114.22861679353659 " sodipodi:nodetypes="ccccc"/><path style="fill:none;stroke:#000000;stroke-width:0.264583px;stroke-linecap:butt;stroke-linejoin:miter;stroke-opacity:1" id="genPath_96" d="M 159.99038105676658,57.5 A 2.999999999999943,2.999999999999943 0 0 0 165.99038105676658,57.5 A 3.000000000000057,3.000000000000057 0 0 0 159.99038105676658,57.5 z" sodipodi:nodetypes="ccccc"/><path style="fill:none;stroke:#000000;stroke-width:0.264583px;stroke-linecap:butt;stroke-linejoin:miter;stroke-opacity:1" id="genPath_97" d="M 259.9903810567666,57.5 A 2.9999999999995453,2.9999999999995453 0 0 0 265.9903810567666,57.5 A 3.0000000000004547,3.0000000000004547 0 0 0 259.9903810567666,57.5 z" sodipodi:nodetypes="ccccc"/><path style="fill:none;stroke:#000000;stroke-width:0.264583px;stroke-linecap:butt;stroke-linejoin:miter;stroke-opacity:1" id="genPath_98" d="M 165.9448043158032,101.97905546699921 A 3.0000000000158304,3.0000000000158304 0 0 0 164.9187438858262,100.20186667064307 " sodipodi:nodetypes="ccccc"/><path style="fill:none;stroke:#000000;stroke-width:0.264583px;stroke-linecap:butt;stroke-linejoin:miter;stroke-opacity:1" id="genPath_99" d="M 161.06201822770697,100.20186667064307 A 3.0000000000044764,3.0000000000044764 0 0 0 160.03595779772996,101.97905546699921 " sodipodi:nodetypes="ccccc"/><path style="fill:none;stroke:#000000;stroke-width:0.264583px;stroke-linecap:butt;stroke-linejoin:miter;stroke-opacity:1" id="genPath_100" d="M 161.96432062678957,105.31907786235773 A 2.9999999999954805,2.9999999999954805 0 0 0 164.0164414867436,105.31907786235773 " sodipodi:nodetypes="ccccc"/><path style="fill:none;stroke:#000000;stroke-width:0.264583px;stroke-linecap:butt;stroke-linejoin:miter;stroke-opacity:1" id="genPath_101" d="M 265.9448043158032,101.97905546699921 A 2.999999999971251,2.999999999971251 0 0 0 264.9187438858262,100.20186667064307 " sodipodi:nodetypes="ccccc"/><path style="fill:none;stroke:#000000;stroke-width:0.264583px;stroke-linecap:butt;stroke-linejoin:miter;stroke-opacity:1" id="genPath_102" d="M 261.062018227707,100.20186667064307 A 3.0000000000026295,3.0000000000026295 0 0 0 260.03595779772996,101.97905546699921 " sodipodi:nodetypes="ccccc"/><path style="fill:none;stroke:#000000;stroke-width:0.264583px;stroke-linecap:butt;stroke-linejoin:miter;stroke-opacity:1" id="genPath_103" d="M 261.9643206267896,105.31907786235773 A 3.0000000000237477,3.0000000000237477 0 0 0 264.0164414867436,105.31907786235773 " sodipodi:nodetypes="ccccc"/></g>
</svg>