<?xml version="1.0" ?><!-- Created with Inkscape (http://www.inkscape.org/) --><svg xmlns:inkscape="http://www.inkscape.org/namespaces/inkscape" xmlns:sodipodi="http://sodipodi.sourceforge.net/DTD/sodipodi-0.dtd" xmlns="http://www.w3.org/2000/svg" xmlns:svg="http://www.w3.org/2000/svg" width="300mm" height="300mm" viewBox="0 0 300 300" version="1.1" id="svg5" inkscape:version="1.1.2 (0a00cf5339, 2022-02-04)" sodipodi:docname="Template.svg">
  <sodipodi:namedview id="namedview7" pagecolor="#ffffff" bordercolor="#999999" borderopacity="1" inkscape:pageshadow="0" inkscape:pageopacity="0" inkscape:pagecheckerboard="0" inkscape:document-units="mm" showgrid="true" width="300mm" inkscape:zoom="0.56315579" inkscape:cx="491.87099" inkscape:cy="557.57217" inkscape:window-width="1874" inkscape:window-height="1052" inkscape:window-x="46" inkscape:window-y="0" inkscape:window-maximized="1" inkscape:current-layer="layer1" height="300mm" inkscape:lockguides="false">
    <inkscape:grid type="xygrid" id="grid888"/>
  </sodipodi:namedview>
  <defs id="defs2"/>
  <g inkscape:label="Desc" inkscape:groupmode="layer" id="layer1" sodipodi:insensitive="true">
    <text xml:space="preserve" style="font-style:normal;font-weight:normal;font-size:10.5833px;line-height:1.25;font-family:sans-serif;fill:#000000;fill-opacity:1;stroke:none;stroke-width:0.264583" x="34.193851" y="10.854793" id="text3620"><tspan sodipodi:role="line" id="tspan3618" style="stroke-width:0.264583" x="34.193851" y="10.854793">3mm</tspan></text>
    <text xml:space="preserve" style="font-style:normal;font-weight:normal;font-size:10.5833px;line-height:1.25;font-family:sans-serif;fill:#000000;fill-opacity:1;stroke:none;stroke-width:0.264583" x="133.83728" y="10.854793" id="text3620-3"><tspan sodipodi:role="line" style="stroke-width:0.264583" x="133.83728" y="10.854793" id="tspan5941">10mm</tspan></text>
    <text xml:space="preserve" style="font-style:normal;font-weight:normal;font-size:10.5833px;line-height:1.25;font-family:sans-serif;fill:#000000;fill-opacity:1;stroke:none;stroke-width:0.264583" x="231.31548" y="11.040827" id="text3620-3-8"><tspan sodipodi:role="line" style="stroke-width:0.264583" x="231.31548" y="11.040827" id="tspan6654">Preview</tspan></text>
    <circle style="fill:#a3a3a3;fill-opacity:1;stroke:none;stroke-width:0.944882;stroke-linejoin:round;paint-order:markers fill stroke" id="path854" cx="290" cy="10" r="5"/>
  </g>
  <g inkscape:groupmode="layer" id="layer2" inkscape:label="3mm"><path style="fill:none;stroke:#000000;stroke-width:0.264583px;stroke-linecap:butt;stroke-linejoin:miter;stroke-opacity:1" id="genPath_22_XyFLeezn" d="M 78.86751345948129,50.0 L 64.43375672974065,25.0 L 35.56624327025936,24.999999999999996 L 21.13248654051871,50.0 L 35.56624327025934,75.0 L 64.43375672974065,75.0 L 78.86751345948129,50.00000000000001 z" sodipodi:nodetypes="ccccc"/><path style="fill:none;stroke:#000000;stroke-width:0.264583px;stroke-linecap:butt;stroke-linejoin:miter;stroke-opacity:1" id="genPath_23_XyFLeezn" d="M 278.8675134594813,50.0 L 264.43375672974065,25.0 L 235.56624327025935,24.999999999999996 L 221.1324865405187,50.0 L 235.56624327025935,75.0 L 264.43375672974065,75.0 L 278.8675134594813,50.00000000000001 z" sodipodi:nodetypes="ccccc"/><path style="fill:none;stroke:#000000;stroke-width:0.264583px;stroke-linecap:butt;stroke-linejoin:miter;stroke-opacity:1" id="genPath_24_XyFLeezn" d="M 36.72094380863861,143.0 L 43.650000000000006,143.0 L 43.650000000000006,138.0 L 56.35,138.0 L 56.35,143.0 L 63.2790561913614,143.0 L 66.7435842870421,136.99926131403117 L 62.4134572681199,134.49926131403117 L 68.7634572681199,123.50073868596881 L 73.09358428704209,126.00073868596881 L 76.55811238272278,120.0 L 73.09358428704209,113.99926131403119 L 68.7634572681199,116.49926131403119 L 62.4134572681199,105.50073868596881 L 66.7435842870421,103.00073868596881 L 63.2790561913614,97.0 L 56.35,97.0 L 56.35,102.0 L 43.650000000000006,102.0 L 43.650000000000006,97.0 L 36.72094380863861,97.0 L 23.441887617277214,120.0 L 36.720943808638594,143.0 z" sodipodi:nodetypes="ccccc"/><path style="fill:none;stroke:#000000;stroke-width:0.264583px;stroke-linecap:butt;stroke-linejoin:miter;stroke-opacity:1" id="genPath_25_XyFLeezn" d="M 236.72094380863862,73.0 L 243.65,73.0 L 243.65,68.0 L 256.35,68.0 L 256.35,73.0 L 263.2790561913614,73.0 L 266.7435842870421,66.99926131403119 L 262.4134572681199,64.49926131403119 L 268.7634572681199,53.50073868596881 L 273.09358428704206,56.00073868596881 L 276.5581123827228,50.0 L 273.09358428704206,43.99926131403119 L 268.7634572681199,46.49926131403119 L 262.4134572681199,35.50073868596881 L 266.7435842870421,33.00073868596881 L 263.2790561913614,27.0 L 256.35,27.0 L 256.35,32.0 L 243.65,32.0 L 243.65,27.0 L 236.72094380863862,26.999999999999996 L 223.44188761727722,50.0 L 236.7209438086386,73.0 z" sodipodi:nodetypes="ccccc"/></g>
  <g inkscape:groupmode="layer" id="layer3" inkscape:label="10mm"><path style="fill:none;stroke:#000000;stroke-width:0.264583px;stroke-linecap:butt;stroke-linejoin:miter;stroke-opacity:1" id="genPath_26_XyFLeezn" d="M 178.8675134594813,50.0 L 174.40063509461098,42.263139720814415 A 8.933756729740582,8.933756729740582 0 0 0 174.40063509461098,57.736860279185585 z" sodipodi:nodetypes="ccccc"/><path style="fill:none;stroke:#000000;stroke-width:0.264583px;stroke-linecap:butt;stroke-linejoin:miter;stroke-opacity:1" id="genPath_27_XyFLeezn" d="M 278.8675134594813,50.0 L 274.40063509461095,42.263139720814415 A 8.933756729739734,8.933756729739734 0 0 0 274.40063509461095,57.736860279185585 z" sodipodi:nodetypes="ccccc"/><path style="fill:none;stroke:#000000;stroke-width:0.264583px;stroke-linecap:butt;stroke-linejoin:miter;stroke-opacity:1" id="genPath_28_XyFLeezn" d="M 164.43375672974065,75.0 L 168.90063509461098,67.26313972081441 A 19.9337567297404,19.9337567297404 0 0 1 168.90063509461098,32.73686027918559 L 164.43375672974065,25.0 L 155.5,25.0 A 10.999999999898813,10.999999999898813 0 0 1 155.38200366668065,26.60685910967604 A 62.34239803801432,62.34239803801432 0 0 1 146.9091437962897,50.0 A 62.34239803802004,62.34239803802004 0 0 1 155.38200366668065,73.39314089032396 A 10.9999999999809,10.9999999999809 0 0 1 155.5,75.0 z" sodipodi:nodetypes="ccccc"/><path style="fill:none;stroke:#000000;stroke-width:0.264583px;stroke-linecap:butt;stroke-linejoin:miter;stroke-opacity:1" id="genPath_29_XyFLeezn" d="M 264.43375672974065,75.0 L 268.90063509461095,67.26313972081441 A 19.93375672974065,19.93375672974065 0 0 1 268.90063509461095,32.73686027918559 L 264.43375672974065,25.0 L 255.5,25.0 A 10.999999999568047,10.999999999568047 0 0 1 255.38200366668065,26.60685910967604 A 62.34239803802296,62.34239803802296 0 0 1 246.9091437962897,50.0 A 62.34239803800371,62.34239803800371 0 0 1 255.38200366668065,73.39314089032396 A 10.999999999727095,10.999999999727095 0 0 1 255.5,75.0 z" sodipodi:nodetypes="ccccc"/><path style="fill:none;stroke:#000000;stroke-width:0.264583px;stroke-linecap:butt;stroke-linejoin:miter;stroke-opacity:1" id="genPath_30_XyFLeezn" d="M 121.13248654051871,50.0 L 125.59936490538902,57.73686027918558 A 51.34239803800475,51.34239803800475 0 0 0 133.45494403328198,50.0 A 51.34239803801005,51.34239803801005 0 0 0 125.59936490538904,42.26313972081441 z" sodipodi:nodetypes="ccccc"/><path style="fill:none;stroke:#000000;stroke-width:0.264583px;stroke-linecap:butt;stroke-linejoin:miter;stroke-opacity:1" id="genPath_31_XyFLeezn" d="M 221.1324865405187,50.0 L 225.59936490538902,57.73686027918558 A 51.342398038020185,51.342398038020185 0 0 0 233.45494403328198,50.0 A 51.34239803801043,51.34239803801043 0 0 0 225.59936490538902,42.26313972081441 z" sodipodi:nodetypes="ccccc"/><path style="fill:none;stroke:#000000;stroke-width:0.264583px;stroke-linecap:butt;stroke-linejoin:miter;stroke-opacity:1" id="genPath_32_XyFLeezn" d="M 135.56624327025935,24.999999999999996 L 131.09936490538902,32.73686027918559 A 11.00000000005183,11.00000000005183 0 0 1 132.43194754801127,33.64247765623158 A 62.34239803804458,62.34239803804458 0 0 1 139.6705480751164,40.380517255104905 A 51.342398038018,51.342398038018 0 0 0 144.5,25.0 z" sodipodi:nodetypes="ccccc"/><path style="fill:none;stroke:#000000;stroke-width:0.264583px;stroke-linecap:butt;stroke-linejoin:miter;stroke-opacity:1" id="genPath_33_XyFLeezn" d="M 235.56624327025935,24.999999999999996 L 231.09936490538902,32.73686027918559 A 11.000000000141005,11.000000000141005 0 0 1 232.43194754801127,33.64247765623158 A 62.342398038056935,62.342398038056935 0 0 1 239.6705480751164,40.380517255104905 A 51.34239803801859,51.34239803801859 0 0 0 244.5,25.0 z" sodipodi:nodetypes="ccccc"/><path style="fill:none;stroke:#000000;stroke-width:0.264583px;stroke-linecap:butt;stroke-linejoin:miter;stroke-opacity:1" id="genPath_34_XyFLeezn" d="M 135.56624327025935,75.0 L 131.09936490538902,67.26313972081441 A 11.000000000070678,11.000000000070678 0 0 0 132.43194754801127,66.35752234376842 A 62.34239803805844,62.34239803805844 0 0 0 139.6705480751164,59.619482744895095 A 51.342398038018054,51.342398038018054 0 0 1 144.5,75.0 z" sodipodi:nodetypes="ccccc"/><path style="fill:none;stroke:#000000;stroke-width:0.264583px;stroke-linecap:butt;stroke-linejoin:miter;stroke-opacity:1" id="genPath_35_XyFLeezn" d="M 235.56624327025935,75.0 L 231.09936490538902,67.26313972081441 A 11.000000000037618,11.000000000037618 0 0 0 232.43194754801127,66.35752234376842 A 62.34239803802498,62.34239803802498 0 0 0 239.6705480751164,59.619482744895095 A 51.34239803801869,51.34239803801869 0 0 1 244.5,75.0 z" sodipodi:nodetypes="ccccc"/></g>
</svg>